G04 #@! TF.GenerationSoftware,KiCad,Pcbnew,8.0.3-8.0.3-0~ubuntu22.04.1*
G04 #@! TF.CreationDate,2024-07-11T21:40:33+07:00*
G04 #@! TF.ProjectId,kh-gift-hw,6b682d67-6966-4742-9d68-772e6b696361,rev?*
G04 #@! TF.SameCoordinates,Original*
G04 #@! TF.FileFunction,Copper,L2,Bot*
G04 #@! TF.FilePolarity,Positive*
%FSLAX46Y46*%
G04 Gerber Fmt 4.6, Leading zero omitted, Abs format (unit mm)*
G04 Created by KiCad (PCBNEW 8.0.3-8.0.3-0~ubuntu22.04.1) date 2024-07-11 21:40:33*
%MOMM*%
%LPD*%
G01*
G04 APERTURE LIST*
G04 Aperture macros list*
%AMRoundRect*
0 Rectangle with rounded corners*
0 $1 Rounding radius*
0 $2 $3 $4 $5 $6 $7 $8 $9 X,Y pos of 4 corners*
0 Add a 4 corners polygon primitive as box body*
4,1,4,$2,$3,$4,$5,$6,$7,$8,$9,$2,$3,0*
0 Add four circle primitives for the rounded corners*
1,1,$1+$1,$2,$3*
1,1,$1+$1,$4,$5*
1,1,$1+$1,$6,$7*
1,1,$1+$1,$8,$9*
0 Add four rect primitives between the rounded corners*
20,1,$1+$1,$2,$3,$4,$5,0*
20,1,$1+$1,$4,$5,$6,$7,0*
20,1,$1+$1,$6,$7,$8,$9,0*
20,1,$1+$1,$8,$9,$2,$3,0*%
G04 Aperture macros list end*
G04 #@! TA.AperFunction,ComponentPad*
%ADD10RoundRect,0.250000X0.600000X0.750000X-0.600000X0.750000X-0.600000X-0.750000X0.600000X-0.750000X0*%
G04 #@! TD*
G04 #@! TA.AperFunction,ComponentPad*
%ADD11O,1.700000X2.000000*%
G04 #@! TD*
G04 #@! TA.AperFunction,ComponentPad*
%ADD12R,1.700000X1.700000*%
G04 #@! TD*
G04 #@! TA.AperFunction,ComponentPad*
%ADD13C,1.524000*%
G04 #@! TD*
G04 #@! TA.AperFunction,ComponentPad*
%ADD14O,1.700000X1.700000*%
G04 #@! TD*
G04 #@! TA.AperFunction,ComponentPad*
%ADD15RoundRect,0.250000X0.750000X-0.600000X0.750000X0.600000X-0.750000X0.600000X-0.750000X-0.600000X0*%
G04 #@! TD*
G04 #@! TA.AperFunction,ComponentPad*
%ADD16O,2.000000X1.700000*%
G04 #@! TD*
G04 #@! TA.AperFunction,ComponentPad*
%ADD17C,0.800000*%
G04 #@! TD*
G04 #@! TA.AperFunction,ComponentPad*
%ADD18R,1.500000X1.500000*%
G04 #@! TD*
G04 #@! TA.AperFunction,ComponentPad*
%ADD19C,1.500000*%
G04 #@! TD*
G04 #@! TA.AperFunction,ComponentPad*
%ADD20RoundRect,0.250000X0.600000X0.725000X-0.600000X0.725000X-0.600000X-0.725000X0.600000X-0.725000X0*%
G04 #@! TD*
G04 #@! TA.AperFunction,ComponentPad*
%ADD21O,1.700000X1.950000*%
G04 #@! TD*
G04 #@! TA.AperFunction,ComponentPad*
%ADD22RoundRect,0.250000X0.725000X-0.600000X0.725000X0.600000X-0.725000X0.600000X-0.725000X-0.600000X0*%
G04 #@! TD*
G04 #@! TA.AperFunction,ComponentPad*
%ADD23O,1.950000X1.700000*%
G04 #@! TD*
G04 #@! TA.AperFunction,ViaPad*
%ADD24C,0.600000*%
G04 #@! TD*
G04 #@! TA.AperFunction,Conductor*
%ADD25C,1.000000*%
G04 #@! TD*
G04 #@! TA.AperFunction,Conductor*
%ADD26C,0.400000*%
G04 #@! TD*
G04 #@! TA.AperFunction,Conductor*
%ADD27C,0.300000*%
G04 #@! TD*
G04 #@! TA.AperFunction,Conductor*
%ADD28C,0.200000*%
G04 #@! TD*
G04 APERTURE END LIST*
D10*
X111767000Y-140125000D03*
D11*
X109267000Y-140125000D03*
D12*
X119787000Y-136527500D03*
D13*
X119787000Y-133987500D03*
X119787000Y-131447500D03*
X119787000Y-128907500D03*
X119787000Y-126367500D03*
X119787000Y-123827500D03*
X119787000Y-121287500D03*
X119787000Y-118747500D03*
X119787000Y-116207500D03*
X119787000Y-113667500D03*
X119787000Y-111127500D03*
X119787000Y-108587500D03*
X119787000Y-106047500D03*
X119787000Y-103507500D03*
D12*
X35467000Y-123797500D03*
D14*
X35467000Y-121257500D03*
X35467000Y-118717500D03*
X35467000Y-116177500D03*
D15*
X39869500Y-108787500D03*
D16*
X39869500Y-106287500D03*
D10*
X91592000Y-140087500D03*
D11*
X89092000Y-140087500D03*
D17*
X75992000Y-105007500D03*
X75992000Y-106007500D03*
X75992000Y-107007500D03*
X75992000Y-108007500D03*
X75992000Y-109007500D03*
X76992000Y-105007500D03*
X76992000Y-106007500D03*
X76992000Y-107007500D03*
X76992000Y-108007500D03*
X76992000Y-109007500D03*
X77992000Y-105007500D03*
X77992000Y-106007500D03*
X77992000Y-107007500D03*
X77992000Y-108007500D03*
X77992000Y-109007500D03*
X78992000Y-105007500D03*
X78992000Y-106007500D03*
X78992000Y-107007500D03*
X78992000Y-108007500D03*
X78992000Y-109007500D03*
X79992000Y-105007500D03*
X79992000Y-106007500D03*
X79992000Y-107007500D03*
X79992000Y-108007500D03*
X79992000Y-109007500D03*
D18*
X109195000Y-93748800D03*
D19*
X106655000Y-93748800D03*
X104115000Y-93748800D03*
X101575000Y-93748800D03*
D20*
X102737000Y-140115000D03*
D21*
X100237000Y-140115000D03*
X97737000Y-140115000D03*
D22*
X39779500Y-137517500D03*
D23*
X39779500Y-135017500D03*
X39779500Y-132517500D03*
X39779500Y-130017500D03*
D10*
X82767000Y-140087500D03*
D11*
X80267000Y-140087500D03*
D24*
X60935000Y-144083100D03*
X73481800Y-99317900D03*
X47092000Y-112612500D03*
X48743000Y-120461100D03*
X73241800Y-118707900D03*
X47676200Y-127928700D03*
X34392000Y-131662500D03*
X82652000Y-130392500D03*
X47727000Y-134202500D03*
X73541800Y-100417900D03*
X112497000Y-107532500D03*
X45339400Y-144438700D03*
X44425000Y-143575100D03*
X64872000Y-132297500D03*
X34392000Y-135472500D03*
X99162000Y-105627500D03*
X88791800Y-97197900D03*
X101067000Y-105627500D03*
X48362000Y-96102500D03*
X72060200Y-145861100D03*
X39294200Y-93181500D03*
X48692200Y-127928700D03*
X36297000Y-101817500D03*
X50267000Y-125312500D03*
X100736800Y-129732100D03*
X99390600Y-94146700D03*
X62967000Y-143727500D03*
X45187000Y-114517500D03*
X62154200Y-104713100D03*
X48743000Y-121324700D03*
X63271800Y-135802700D03*
X86462000Y-126582500D03*
X86462000Y-130392500D03*
X57887000Y-116422500D03*
X64287800Y-134786700D03*
X47092000Y-116422500D03*
X87097000Y-143727500D03*
X50911800Y-136087900D03*
X46660200Y-102071500D03*
X78207000Y-117692500D03*
X57887000Y-118327500D03*
X46660200Y-101157100D03*
X69520200Y-143778300D03*
X102972000Y-103722500D03*
X64872000Y-143727500D03*
X47092000Y-114517500D03*
X100736800Y-128766900D03*
X60782600Y-108929500D03*
X82652000Y-126582500D03*
X101067000Y-107532500D03*
X88811800Y-98427900D03*
X44425000Y-144438700D03*
X45187000Y-112612500D03*
X55781800Y-94197900D03*
X62255800Y-110605900D03*
X72051800Y-100457900D03*
X99162000Y-103722500D03*
X34392000Y-103722500D03*
X101067000Y-103722500D03*
X73127000Y-122137500D03*
X62141800Y-93967900D03*
X46609400Y-129960700D03*
X111354000Y-131535500D03*
X47727000Y-132932500D03*
X50267000Y-126582500D03*
X51537000Y-126582500D03*
X46609400Y-128893900D03*
X47828600Y-121324700D03*
X71857000Y-123407500D03*
X51537000Y-125312500D03*
X56617000Y-144133900D03*
X36297000Y-103722500D03*
X56617000Y-106262500D03*
X46457000Y-134202500D03*
X69131800Y-142167900D03*
X55347000Y-96737500D03*
X112497000Y-103722500D03*
X62131800Y-95317900D03*
X89637000Y-143727500D03*
X51901800Y-137827900D03*
X71971800Y-118707900D03*
X48692200Y-128893900D03*
X42697800Y-143575100D03*
X55347000Y-104992500D03*
X55347000Y-106262500D03*
X108687000Y-105627500D03*
X72011800Y-99307900D03*
X55982000Y-116422500D03*
X102972000Y-105627500D03*
X73241800Y-117437900D03*
X43561400Y-143575100D03*
X108687000Y-103722500D03*
X87097000Y-145632500D03*
X43561400Y-144438700D03*
X48692200Y-129960700D03*
X82652000Y-128487500D03*
X39294200Y-101157100D03*
X71971800Y-117437900D03*
X76378200Y-141543100D03*
X90151800Y-97197900D03*
X89637000Y-145632500D03*
X90171800Y-98477900D03*
X52021800Y-136327900D03*
X50267000Y-96102500D03*
X66777000Y-130392500D03*
X86462000Y-128487500D03*
X63271800Y-134786700D03*
X34392000Y-133567500D03*
X61900200Y-102274700D03*
X110592000Y-107532500D03*
X62967000Y-121502500D03*
X50267000Y-98007500D03*
X84557000Y-128487500D03*
X62154200Y-103798700D03*
X61392200Y-111317100D03*
X55982000Y-118327500D03*
X59055400Y-144083100D03*
X62371800Y-97307900D03*
X109449000Y-131535500D03*
X92177000Y-145632500D03*
X45187000Y-116422500D03*
X50541800Y-137797900D03*
X57887000Y-120232500D03*
X34392000Y-101817500D03*
X39294200Y-94248300D03*
X46761800Y-94248300D03*
X110592000Y-105627500D03*
X48362000Y-98007500D03*
X55753400Y-93130700D03*
X48997000Y-114517500D03*
X66777000Y-132297500D03*
X42697800Y-144387900D03*
X36297000Y-133567500D03*
X99162000Y-107532500D03*
X84557000Y-130392500D03*
X46761800Y-93232300D03*
X36297000Y-131662500D03*
X92177000Y-143727500D03*
X39294200Y-102173100D03*
X62361800Y-98517900D03*
X46609400Y-127928700D03*
X71196600Y-146775500D03*
X110592000Y-103722500D03*
X61921800Y-101027900D03*
X47625400Y-129960700D03*
X47828600Y-120461100D03*
X36297000Y-135472500D03*
X47671200Y-128896700D03*
X48997000Y-116422500D03*
X64872000Y-130392500D03*
X59969800Y-144083100D03*
X57480600Y-144083100D03*
X108687000Y-107532500D03*
X54077000Y-96737500D03*
X62967000Y-119597500D03*
X111354000Y-129630500D03*
X76378200Y-142508300D03*
X80112000Y-117692500D03*
X48997000Y-112612500D03*
X78207000Y-119597500D03*
X99390600Y-93232300D03*
X46457000Y-132932500D03*
X64287800Y-135802700D03*
X56617000Y-104992500D03*
X55982000Y-120232500D03*
X76378200Y-143575100D03*
X73127000Y-123407500D03*
X112497000Y-105627500D03*
X102972000Y-107532500D03*
X45339400Y-143575100D03*
X84557000Y-126582500D03*
X80112000Y-119597500D03*
X109449000Y-129630500D03*
X71857000Y-122137500D03*
X43421800Y-135267900D03*
X43421800Y-136067900D03*
X67640600Y-146572300D03*
X67640600Y-145353100D03*
X43473000Y-136869500D03*
X80611800Y-101367500D03*
X66341800Y-124597900D03*
X65659400Y-123915500D03*
X62306600Y-115533500D03*
X67071800Y-125317900D03*
X92558000Y-96610500D03*
X57851800Y-123247900D03*
X65354600Y-116031900D03*
X65354600Y-107253100D03*
X93551800Y-96610500D03*
X65659400Y-123915500D03*
X81611800Y-101360300D03*
X56831800Y-123297900D03*
X62255800Y-107303900D03*
X58851800Y-123257900D03*
X59512600Y-128182700D03*
X59563400Y-107608700D03*
X64491000Y-108116700D03*
X111735000Y-135853500D03*
X67437400Y-106440300D03*
X52857800Y-102833500D03*
X64338600Y-103138300D03*
X67285000Y-103138300D03*
X64440200Y-113745900D03*
X85420600Y-113145900D03*
X102743400Y-136250300D03*
X74285800Y-114745900D03*
X118389800Y-126607900D03*
X117739000Y-108624700D03*
X117739896Y-124093466D03*
X55702600Y-137326700D03*
X54381800Y-141767900D03*
X53667000Y-142387500D03*
X48951800Y-146837900D03*
X47981000Y-146775500D03*
X71349000Y-114145900D03*
X62763800Y-114009500D03*
X71399800Y-110250300D03*
X60935000Y-98617100D03*
X59766600Y-98617100D03*
X71399800Y-108929500D03*
X70485400Y-139787500D03*
X74498600Y-146318300D03*
X46871200Y-125312500D03*
X47727000Y-125312500D03*
X117170600Y-137885500D03*
X84607800Y-114923900D03*
X89687800Y-114273100D03*
X55499400Y-132449900D03*
X57074200Y-126861900D03*
X56363000Y-132195900D03*
X53924600Y-126709500D03*
X52959400Y-129147900D03*
X89840200Y-104306700D03*
X89637000Y-105177500D03*
X53619800Y-128182700D03*
X57125000Y-141187500D03*
X54553400Y-144927500D03*
X54686600Y-143575100D03*
X55601000Y-141289100D03*
X58317000Y-137742008D03*
X56058200Y-138444300D03*
D25*
X45542600Y-140069900D02*
X65964200Y-140069900D01*
X43421800Y-135267900D02*
X43421800Y-137949100D01*
X43421800Y-137949100D02*
X45542600Y-140069900D01*
X67640600Y-141746300D02*
X67640600Y-146572300D01*
X65964200Y-140069900D02*
X67640600Y-141746300D01*
D26*
X60171800Y-123437900D02*
X59601800Y-124007900D01*
D27*
X81611800Y-101360300D02*
X80619000Y-101360300D01*
X93551800Y-96610500D02*
X92558000Y-96610500D01*
D28*
X62805000Y-116031900D02*
X65354600Y-116031900D01*
D26*
X67061800Y-125317900D02*
X66341800Y-124597900D01*
D27*
X81611800Y-101360300D02*
X91139400Y-101360300D01*
D26*
X56871800Y-123257900D02*
X56831800Y-123297900D01*
X59601800Y-124007900D02*
X59601800Y-128093500D01*
X66341800Y-124597900D02*
X65659400Y-123915500D01*
D27*
X80619000Y-101360300D02*
X80611800Y-101367500D01*
D26*
X59601800Y-128093500D02*
X59512600Y-128182700D01*
X65659400Y-123915500D02*
X65181800Y-123437900D01*
X58851800Y-123257900D02*
X59601800Y-124007900D01*
D28*
X65303800Y-107303900D02*
X65354600Y-107253100D01*
D27*
X91139400Y-101360300D02*
X92558000Y-99941700D01*
X92558000Y-99941700D02*
X92558000Y-96610500D01*
D28*
X62306600Y-115533500D02*
X62805000Y-116031900D01*
D26*
X65181800Y-123437900D02*
X60171800Y-123437900D01*
D28*
X62255800Y-107303900D02*
X65303800Y-107303900D01*
D26*
X67071800Y-125317900D02*
X67061800Y-125317900D01*
X58851800Y-123257900D02*
X56871800Y-123257900D01*
D28*
X111767000Y-135885500D02*
X111767000Y-140125000D01*
X65710200Y-108167500D02*
X60122200Y-108167500D01*
X67437400Y-106440300D02*
X65710200Y-108167500D01*
X60122200Y-108167500D02*
X59563400Y-107608700D01*
X111735000Y-135853500D02*
X111767000Y-135885500D01*
X64338600Y-103138300D02*
X67285000Y-103138300D01*
X64338600Y-103138300D02*
X53162600Y-103138300D01*
X53162600Y-103138300D02*
X52857800Y-102833500D01*
X85020600Y-113545900D02*
X64640200Y-113545900D01*
X64640200Y-113545900D02*
X64440200Y-113745900D01*
X85420600Y-113145900D02*
X85020600Y-113545900D01*
X102743400Y-136250300D02*
X102737000Y-136256700D01*
X102737000Y-136256700D02*
X102737000Y-140115000D01*
X74285800Y-114745900D02*
X83261400Y-114745900D01*
X83261400Y-114745900D02*
X84039400Y-115523900D01*
X84039400Y-115523900D02*
X119103400Y-115523900D01*
X119103400Y-115523900D02*
X119787000Y-116207500D01*
X118389800Y-126607900D02*
X118440600Y-126557100D01*
X119787000Y-121287500D02*
X120205000Y-121287500D01*
X118440600Y-122594700D02*
X119747800Y-121287500D01*
X118440600Y-126557100D02*
X118440600Y-122594700D01*
X120289000Y-113667500D02*
X119787000Y-113667500D01*
X121183800Y-114562300D02*
X120289000Y-113667500D01*
X120205000Y-121287500D02*
X121183800Y-120308700D01*
X119747800Y-121287500D02*
X119787000Y-121287500D01*
X121183800Y-120308700D02*
X121183800Y-114562300D01*
X117739000Y-108624700D02*
X117776200Y-108587500D01*
X117776200Y-108587500D02*
X119787000Y-108587500D01*
X117739896Y-124093466D02*
X117739896Y-129400396D01*
X117739896Y-129400396D02*
X119787000Y-131447500D01*
D27*
X54286600Y-141767900D02*
X53667000Y-142387500D01*
D28*
X80267000Y-140087500D02*
X79367000Y-139187500D01*
D27*
X48951800Y-146837900D02*
X49216600Y-146837900D01*
X54381800Y-141767900D02*
X54286600Y-141767900D01*
D28*
X55347000Y-137682300D02*
X55702600Y-137326700D01*
D27*
X47981000Y-146775500D02*
X48033400Y-146827900D01*
D28*
X55347000Y-138901500D02*
X55347000Y-137682300D01*
D27*
X49216600Y-146837900D02*
X53667000Y-142387500D01*
D28*
X79367000Y-139187500D02*
X55633000Y-139187500D01*
X55633000Y-139187500D02*
X55347000Y-138901500D01*
D27*
X48033400Y-146827900D02*
X48941800Y-146827900D01*
X48941800Y-146827900D02*
X48951800Y-146837900D01*
D28*
X71314200Y-114111100D02*
X65049800Y-114111100D01*
X104115000Y-114060300D02*
X106655000Y-111520300D01*
X85741400Y-114145900D02*
X86214200Y-113673100D01*
X90323529Y-114060300D02*
X104115000Y-114060300D01*
X71349000Y-114145900D02*
X71314200Y-114111100D01*
X89936329Y-113673100D02*
X90323529Y-114060300D01*
X64745000Y-114415900D02*
X63170200Y-114415900D01*
X86214200Y-113673100D02*
X89936329Y-113673100D01*
X63170200Y-114415900D02*
X62763800Y-114009500D01*
X65049800Y-114111100D02*
X64745000Y-114415900D01*
X71349000Y-114145900D02*
X85741400Y-114145900D01*
X106655000Y-111520300D02*
X106655000Y-93748800D01*
X72111000Y-105221100D02*
X66167400Y-99277500D01*
X72111000Y-109539100D02*
X72111000Y-105221100D01*
X71399800Y-110250300D02*
X72111000Y-109539100D01*
X66167400Y-99277500D02*
X61595400Y-99277500D01*
X61595400Y-99277500D02*
X60935000Y-98617100D01*
X71450600Y-105221100D02*
X65913400Y-99683900D01*
X71450600Y-108878700D02*
X71450600Y-105221100D01*
X65913400Y-99683900D02*
X60833400Y-99683900D01*
X60833400Y-99683900D02*
X59766600Y-98617100D01*
X71399800Y-108929500D02*
X71450600Y-108878700D01*
X72619000Y-139663500D02*
X74498600Y-141543100D01*
X74498600Y-141543100D02*
X74498600Y-146318300D01*
X70485400Y-139787500D02*
X70609400Y-139663500D01*
X70609400Y-139663500D02*
X72619000Y-139663500D01*
X46871200Y-125312500D02*
X46533200Y-125312500D01*
X43747800Y-132517500D02*
X39779500Y-132517500D01*
X44933000Y-131332300D02*
X43747800Y-132517500D01*
X44933000Y-126912700D02*
X44933000Y-131332300D01*
X46533200Y-125312500D02*
X44933000Y-126912700D01*
X41722200Y-132917500D02*
X39779500Y-134860200D01*
X43913485Y-132917500D02*
X41722200Y-132917500D01*
X45339400Y-127071986D02*
X45339400Y-131491585D01*
X47727000Y-125312500D02*
X46787200Y-126252300D01*
X46787200Y-126252300D02*
X46159086Y-126252300D01*
X45339400Y-131491585D02*
X43913485Y-132917500D01*
X46159086Y-126252300D02*
X45339400Y-127071986D01*
X39779500Y-134860200D02*
X39779500Y-135017500D01*
X117170600Y-137885500D02*
X117139896Y-137854796D01*
X117139896Y-121394604D02*
X119787000Y-118747500D01*
X117139896Y-137854796D02*
X117139896Y-121394604D01*
X114833800Y-115076300D02*
X84760200Y-115076300D01*
X84760200Y-115076300D02*
X84607800Y-114923900D01*
X116611800Y-112028300D02*
X116611800Y-113298300D01*
X116611800Y-113298300D02*
X114833800Y-115076300D01*
X119787000Y-111127500D02*
X117512600Y-111127500D01*
X117512600Y-111127500D02*
X116611800Y-112028300D01*
X89687800Y-114273100D02*
X90033800Y-114619100D01*
X90033800Y-114619100D02*
X114630600Y-114619100D01*
X114630600Y-114619100D02*
X116154600Y-113095100D01*
X116154600Y-104357500D02*
X117004600Y-103507500D01*
X117004600Y-103507500D02*
X119787000Y-103507500D01*
X116154600Y-113095100D02*
X116154600Y-104357500D01*
X57074200Y-132333229D02*
X56611529Y-132795900D01*
X56611529Y-132795900D02*
X55845400Y-132795900D01*
X57074200Y-126861900D02*
X57074200Y-132333229D01*
X55845400Y-132795900D02*
X55499400Y-132449900D01*
X56617000Y-131941900D02*
X56617000Y-127573100D01*
X56617000Y-127573100D02*
X55753400Y-126709500D01*
X56363000Y-132195900D02*
X56617000Y-131941900D01*
X55753400Y-126709500D02*
X53924600Y-126709500D01*
X89037000Y-104928971D02*
X89037000Y-108005500D01*
X55651800Y-112688700D02*
X52924600Y-115415900D01*
X84353800Y-112688700D02*
X55651800Y-112688700D01*
X52924600Y-115415900D02*
X52924600Y-129113100D01*
X89659271Y-104306700D02*
X89037000Y-104928971D01*
X52924600Y-129113100D02*
X52959400Y-129147900D01*
X89840200Y-104306700D02*
X89659271Y-104306700D01*
X89037000Y-108005500D02*
X84353800Y-112688700D01*
X53324600Y-115625500D02*
X55804200Y-113145900D01*
X55804200Y-113145900D02*
X84506200Y-113145900D01*
X53324600Y-127887500D02*
X53324600Y-115625500D01*
X53619800Y-128182700D02*
X53324600Y-127887500D01*
X89437000Y-108215100D02*
X89437000Y-105377500D01*
X84506200Y-113145900D02*
X89437000Y-108215100D01*
X89437000Y-105377500D02*
X89637000Y-105177500D01*
X54553400Y-144927500D02*
X54553400Y-144622700D01*
X54553400Y-144622700D02*
X57125000Y-142051100D01*
X57125000Y-142051100D02*
X57125000Y-141187500D01*
X54889800Y-143575100D02*
X55601000Y-142863900D01*
X55601000Y-142863900D02*
X55601000Y-141289100D01*
X54686600Y-143575100D02*
X54889800Y-143575100D01*
X58962492Y-138387500D02*
X89892000Y-138387500D01*
X89892000Y-138387500D02*
X91592000Y-140087500D01*
X58317000Y-137742008D02*
X58962492Y-138387500D01*
X81467000Y-138787500D02*
X82767000Y-140087500D01*
X56058200Y-138444300D02*
X56401400Y-138787500D01*
X56401400Y-138787500D02*
X81467000Y-138787500D01*
G04 #@! TA.AperFunction,Conductor*
G36*
X69129539Y-92817685D02*
G01*
X69175294Y-92870489D01*
X69186500Y-92922000D01*
X69186500Y-98457938D01*
X69186500Y-98537062D01*
X69200152Y-98588013D01*
X69206979Y-98613490D01*
X69206982Y-98613495D01*
X69246535Y-98682004D01*
X69246539Y-98682009D01*
X69246540Y-98682011D01*
X69302489Y-98737960D01*
X69302491Y-98737961D01*
X69302495Y-98737964D01*
X69339896Y-98759557D01*
X69371011Y-98777521D01*
X69447438Y-98798000D01*
X69447440Y-98798000D01*
X87526560Y-98798000D01*
X87526562Y-98798000D01*
X87602989Y-98777521D01*
X87671511Y-98737960D01*
X87727460Y-98682011D01*
X87767021Y-98613489D01*
X87787500Y-98537062D01*
X87787500Y-92922000D01*
X87807185Y-92854961D01*
X87859989Y-92809206D01*
X87911500Y-92798000D01*
X103428714Y-92798000D01*
X103495753Y-92817685D01*
X103541508Y-92870489D01*
X103551452Y-92939647D01*
X103522427Y-93003203D01*
X103507379Y-93017853D01*
X103439642Y-93073442D01*
X103320864Y-93218173D01*
X103320862Y-93218176D01*
X103232604Y-93383297D01*
X103178253Y-93562466D01*
X103178252Y-93562468D01*
X103159901Y-93748800D01*
X103178252Y-93935131D01*
X103178253Y-93935133D01*
X103232604Y-94114302D01*
X103320862Y-94279423D01*
X103320864Y-94279426D01*
X103439642Y-94424157D01*
X103584373Y-94542935D01*
X103584376Y-94542937D01*
X103748951Y-94630903D01*
X103749499Y-94631196D01*
X103928666Y-94685546D01*
X103928668Y-94685547D01*
X103945374Y-94687192D01*
X104115000Y-94703899D01*
X104301331Y-94685547D01*
X104480501Y-94631196D01*
X104645625Y-94542936D01*
X104790357Y-94424157D01*
X104909136Y-94279425D01*
X104997396Y-94114301D01*
X105051747Y-93935131D01*
X105070099Y-93748800D01*
X105051747Y-93562469D01*
X104997396Y-93383299D01*
X104909136Y-93218175D01*
X104909135Y-93218173D01*
X104790357Y-93073442D01*
X104722621Y-93017853D01*
X104683287Y-92960108D01*
X104681416Y-92890263D01*
X104717603Y-92830495D01*
X104780359Y-92799779D01*
X104801286Y-92798000D01*
X105968714Y-92798000D01*
X106035753Y-92817685D01*
X106081508Y-92870489D01*
X106091452Y-92939647D01*
X106062427Y-93003203D01*
X106047379Y-93017853D01*
X105979642Y-93073442D01*
X105860864Y-93218173D01*
X105860862Y-93218176D01*
X105772604Y-93383297D01*
X105718253Y-93562466D01*
X105718252Y-93562468D01*
X105699901Y-93748800D01*
X105718252Y-93935131D01*
X105718253Y-93935133D01*
X105772604Y-94114302D01*
X105860862Y-94279423D01*
X105860864Y-94279426D01*
X105979642Y-94424157D01*
X106094663Y-94518552D01*
X106124375Y-94542936D01*
X106288955Y-94630905D01*
X106338797Y-94679866D01*
X106354500Y-94740262D01*
X106354500Y-111344467D01*
X106334815Y-111411506D01*
X106318181Y-111432148D01*
X104026848Y-113723481D01*
X103965525Y-113756966D01*
X103939167Y-113759800D01*
X90499362Y-113759800D01*
X90432323Y-113740115D01*
X90411681Y-113723481D01*
X90120841Y-113432641D01*
X90120840Y-113432640D01*
X90109202Y-113425921D01*
X90109202Y-113425920D01*
X90109200Y-113425920D01*
X90077398Y-113407559D01*
X90052319Y-113393079D01*
X90026842Y-113386252D01*
X89975891Y-113372600D01*
X86174638Y-113372600D01*
X86127863Y-113385133D01*
X86098206Y-113393080D01*
X86098205Y-113393081D01*
X86092985Y-113396095D01*
X86025084Y-113412564D01*
X85959058Y-113389709D01*
X85915870Y-113334786D01*
X85908252Y-113271058D01*
X85926247Y-113145900D01*
X85905765Y-113003443D01*
X85845977Y-112872527D01*
X85751728Y-112763757D01*
X85630653Y-112685947D01*
X85630651Y-112685946D01*
X85630649Y-112685945D01*
X85628670Y-112685041D01*
X85627025Y-112683616D01*
X85623193Y-112681153D01*
X85623547Y-112680601D01*
X85575867Y-112639285D01*
X85556184Y-112572246D01*
X85575870Y-112505207D01*
X85592498Y-112484572D01*
X89677460Y-108399611D01*
X89701817Y-108357423D01*
X89717021Y-108331089D01*
X89737500Y-108254662D01*
X89737500Y-105762445D01*
X89757185Y-105695406D01*
X89809989Y-105649651D01*
X89826554Y-105643471D01*
X89847053Y-105637453D01*
X89968128Y-105559643D01*
X90062377Y-105450873D01*
X90122165Y-105319957D01*
X90142647Y-105177500D01*
X90122165Y-105035043D01*
X90062377Y-104904127D01*
X90058693Y-104896060D01*
X90060318Y-104895317D01*
X90043662Y-104838605D01*
X90063342Y-104771564D01*
X90100622Y-104734282D01*
X90171328Y-104688843D01*
X90265577Y-104580073D01*
X90325365Y-104449157D01*
X90345847Y-104306700D01*
X90325365Y-104164243D01*
X90265577Y-104033327D01*
X90171328Y-103924557D01*
X90050253Y-103846747D01*
X90050251Y-103846746D01*
X90050249Y-103846745D01*
X90050250Y-103846745D01*
X89912163Y-103806200D01*
X89912161Y-103806200D01*
X89768239Y-103806200D01*
X89768236Y-103806200D01*
X89630149Y-103846745D01*
X89509073Y-103924556D01*
X89414823Y-104033326D01*
X89414822Y-104033328D01*
X89355032Y-104164248D01*
X89354919Y-104164635D01*
X89354645Y-104165095D01*
X89351351Y-104172310D01*
X89350575Y-104171955D01*
X89323626Y-104217372D01*
X88852489Y-104688511D01*
X88796541Y-104744458D01*
X88796535Y-104744466D01*
X88756982Y-104812975D01*
X88756979Y-104812980D01*
X88736500Y-104889410D01*
X88736500Y-107829667D01*
X88716815Y-107896706D01*
X88700181Y-107917348D01*
X84265648Y-112351881D01*
X84204325Y-112385366D01*
X84177967Y-112388200D01*
X55612238Y-112388200D01*
X55574024Y-112398439D01*
X55535809Y-112408679D01*
X55535804Y-112408682D01*
X55467295Y-112448235D01*
X55467287Y-112448241D01*
X52684141Y-115231387D01*
X52684135Y-115231395D01*
X52644582Y-115299904D01*
X52644579Y-115299909D01*
X52624100Y-115376339D01*
X52624100Y-128724321D01*
X52604415Y-128791360D01*
X52593814Y-128805523D01*
X52534023Y-128874526D01*
X52534022Y-128874528D01*
X52474234Y-129005443D01*
X52453753Y-129147900D01*
X52474234Y-129290356D01*
X52534022Y-129421271D01*
X52534023Y-129421273D01*
X52628272Y-129530043D01*
X52749347Y-129607853D01*
X52749350Y-129607854D01*
X52749349Y-129607854D01*
X52887436Y-129648399D01*
X52887438Y-129648400D01*
X52887439Y-129648400D01*
X53031362Y-129648400D01*
X53031362Y-129648399D01*
X53169453Y-129607853D01*
X53290528Y-129530043D01*
X53384777Y-129421273D01*
X53444565Y-129290357D01*
X53465047Y-129147900D01*
X53444565Y-129005443D01*
X53384777Y-128874527D01*
X53384775Y-128874525D01*
X53384774Y-128874522D01*
X53383322Y-128872847D01*
X53382400Y-128870829D01*
X53379982Y-128867066D01*
X53380523Y-128866718D01*
X53354297Y-128809292D01*
X53364241Y-128740133D01*
X53409996Y-128687329D01*
X53477035Y-128667645D01*
X53511970Y-128672668D01*
X53547838Y-128683200D01*
X53547839Y-128683200D01*
X53691762Y-128683200D01*
X53691762Y-128683199D01*
X53829853Y-128642653D01*
X53950928Y-128564843D01*
X54045177Y-128456073D01*
X54104965Y-128325157D01*
X54125447Y-128182700D01*
X54104965Y-128040243D01*
X54045177Y-127909327D01*
X53950928Y-127800557D01*
X53829853Y-127722747D01*
X53829851Y-127722746D01*
X53829849Y-127722745D01*
X53829850Y-127722745D01*
X53714166Y-127688778D01*
X53655387Y-127651004D01*
X53626362Y-127587449D01*
X53625100Y-127569801D01*
X53625100Y-127308833D01*
X53644785Y-127241794D01*
X53697589Y-127196039D01*
X53766747Y-127186095D01*
X53784031Y-127189855D01*
X53817607Y-127199714D01*
X53852638Y-127210000D01*
X53852639Y-127210000D01*
X53996562Y-127210000D01*
X53996562Y-127209999D01*
X54134653Y-127169453D01*
X54255728Y-127091643D01*
X54289388Y-127052796D01*
X54348167Y-127015023D01*
X54383101Y-127010000D01*
X55577567Y-127010000D01*
X55644606Y-127029685D01*
X55665248Y-127046319D01*
X56280181Y-127661252D01*
X56313666Y-127722575D01*
X56316500Y-127748933D01*
X56316500Y-131595098D01*
X56296815Y-131662137D01*
X56244011Y-131707892D01*
X56227435Y-131714075D01*
X56152948Y-131735945D01*
X56031873Y-131813756D01*
X55937623Y-131922526D01*
X55937621Y-131922529D01*
X55921493Y-131957844D01*
X55875737Y-132010647D01*
X55808697Y-132030330D01*
X55741661Y-132010646D01*
X55709453Y-131989947D01*
X55709451Y-131989946D01*
X55709449Y-131989945D01*
X55709450Y-131989945D01*
X55571363Y-131949400D01*
X55571361Y-131949400D01*
X55427439Y-131949400D01*
X55427436Y-131949400D01*
X55289349Y-131989945D01*
X55168273Y-132067756D01*
X55074023Y-132176526D01*
X55074022Y-132176528D01*
X55014234Y-132307443D01*
X54993753Y-132449900D01*
X55014234Y-132592356D01*
X55074022Y-132723271D01*
X55074023Y-132723273D01*
X55168272Y-132832043D01*
X55289347Y-132909853D01*
X55289350Y-132909854D01*
X55289349Y-132909854D01*
X55396507Y-132941317D01*
X55424680Y-132949590D01*
X55427436Y-132950399D01*
X55427438Y-132950400D01*
X55523567Y-132950400D01*
X55590606Y-132970085D01*
X55611248Y-132986719D01*
X55660889Y-133036360D01*
X55660891Y-133036361D01*
X55660895Y-133036364D01*
X55729404Y-133075917D01*
X55729411Y-133075921D01*
X55805838Y-133096400D01*
X55805840Y-133096400D01*
X56651089Y-133096400D01*
X56651091Y-133096400D01*
X56727518Y-133075921D01*
X56796040Y-133036360D01*
X56851989Y-132980411D01*
X57314660Y-132517740D01*
X57354222Y-132449217D01*
X57374700Y-132372791D01*
X57374700Y-132293667D01*
X57374700Y-127325638D01*
X57394385Y-127258599D01*
X57404987Y-127244435D01*
X57405324Y-127244044D01*
X57405328Y-127244043D01*
X57499577Y-127135273D01*
X57559365Y-127004357D01*
X57579847Y-126861900D01*
X57559365Y-126719443D01*
X57499577Y-126588527D01*
X57405328Y-126479757D01*
X57284253Y-126401947D01*
X57284251Y-126401946D01*
X57284249Y-126401945D01*
X57284250Y-126401945D01*
X57146163Y-126361400D01*
X57146161Y-126361400D01*
X57002239Y-126361400D01*
X57002236Y-126361400D01*
X56864149Y-126401945D01*
X56743073Y-126479756D01*
X56648823Y-126588526D01*
X56648822Y-126588528D01*
X56589034Y-126719443D01*
X56573916Y-126824593D01*
X56544890Y-126888148D01*
X56486112Y-126925922D01*
X56416242Y-126925922D01*
X56363497Y-126894626D01*
X55937914Y-126469042D01*
X55937911Y-126469040D01*
X55931681Y-126465443D01*
X55931681Y-126465442D01*
X55869389Y-126429479D01*
X55869390Y-126429479D01*
X55843913Y-126422652D01*
X55792962Y-126409000D01*
X55792960Y-126409000D01*
X54383101Y-126409000D01*
X54316062Y-126389315D01*
X54289388Y-126366203D01*
X54285226Y-126361400D01*
X54255728Y-126327357D01*
X54134653Y-126249547D01*
X54134651Y-126249546D01*
X54134649Y-126249545D01*
X54134650Y-126249545D01*
X53996563Y-126209000D01*
X53996561Y-126209000D01*
X53852639Y-126209000D01*
X53852635Y-126209000D01*
X53784034Y-126229143D01*
X53714164Y-126229143D01*
X53655386Y-126191368D01*
X53626362Y-126127812D01*
X53625100Y-126110166D01*
X53625100Y-123297900D01*
X56326153Y-123297900D01*
X56346634Y-123440356D01*
X56389107Y-123533357D01*
X56406423Y-123571273D01*
X56500672Y-123680043D01*
X56621747Y-123757853D01*
X56621750Y-123757854D01*
X56621749Y-123757854D01*
X56759836Y-123798399D01*
X56759838Y-123798400D01*
X56759839Y-123798400D01*
X56903762Y-123798400D01*
X56903762Y-123798399D01*
X57041853Y-123757853D01*
X57162928Y-123680043D01*
X57162928Y-123680042D01*
X57165976Y-123678084D01*
X57233015Y-123658400D01*
X57528387Y-123658400D01*
X57595424Y-123678083D01*
X57641747Y-123707853D01*
X57641748Y-123707853D01*
X57641751Y-123707855D01*
X57779836Y-123748399D01*
X57779838Y-123748400D01*
X57779839Y-123748400D01*
X57923762Y-123748400D01*
X57923762Y-123748399D01*
X57984098Y-123730683D01*
X58061848Y-123707855D01*
X58061849Y-123707854D01*
X58061853Y-123707853D01*
X58108175Y-123678083D01*
X58175213Y-123658400D01*
X58512826Y-123658400D01*
X58579864Y-123678084D01*
X58641749Y-123717854D01*
X58758062Y-123752006D01*
X58810809Y-123783302D01*
X59164981Y-124137474D01*
X59198466Y-124198797D01*
X59201300Y-124225155D01*
X59201300Y-127731424D01*
X59181615Y-127798463D01*
X59171013Y-127812626D01*
X59087225Y-127909322D01*
X59087222Y-127909328D01*
X59027434Y-128040243D01*
X59006953Y-128182700D01*
X59027434Y-128325156D01*
X59047997Y-128370181D01*
X59087223Y-128456073D01*
X59181472Y-128564843D01*
X59302547Y-128642653D01*
X59302550Y-128642654D01*
X59302549Y-128642654D01*
X59440636Y-128683199D01*
X59440638Y-128683200D01*
X59440639Y-128683200D01*
X59584562Y-128683200D01*
X59584562Y-128683199D01*
X59722653Y-128642653D01*
X59843728Y-128564843D01*
X59937977Y-128456073D01*
X59997765Y-128325157D01*
X60018247Y-128182700D01*
X60003562Y-128080560D01*
X60002300Y-128062914D01*
X60002300Y-124225154D01*
X60021985Y-124158115D01*
X60038619Y-124137473D01*
X60301373Y-123874719D01*
X60362696Y-123841234D01*
X60389054Y-123838400D01*
X64964545Y-123838400D01*
X65031584Y-123858085D01*
X65052226Y-123874719D01*
X65134769Y-123957262D01*
X65168254Y-124018585D01*
X65169826Y-124027295D01*
X65174234Y-124057953D01*
X65174235Y-124057958D01*
X65219976Y-124158115D01*
X65234023Y-124188873D01*
X65328272Y-124297643D01*
X65449347Y-124375453D01*
X65449350Y-124375454D01*
X65449349Y-124375454D01*
X65565662Y-124409606D01*
X65618409Y-124440902D01*
X65817169Y-124639662D01*
X65850654Y-124700985D01*
X65852226Y-124709695D01*
X65856634Y-124740353D01*
X65856635Y-124740358D01*
X65891820Y-124817400D01*
X65916423Y-124871273D01*
X66010672Y-124980043D01*
X66131747Y-125057853D01*
X66131750Y-125057854D01*
X66131749Y-125057854D01*
X66248062Y-125092006D01*
X66300809Y-125123302D01*
X66548848Y-125371340D01*
X66582333Y-125432663D01*
X66583905Y-125441372D01*
X66586634Y-125460354D01*
X66586635Y-125460358D01*
X66633665Y-125563338D01*
X66646423Y-125591273D01*
X66740672Y-125700043D01*
X66861747Y-125777853D01*
X66861750Y-125777854D01*
X66861749Y-125777854D01*
X66968907Y-125809317D01*
X66978689Y-125812190D01*
X66999836Y-125818399D01*
X66999838Y-125818400D01*
X66999839Y-125818400D01*
X67143762Y-125818400D01*
X67143762Y-125818399D01*
X67281853Y-125777853D01*
X67402928Y-125700043D01*
X67497177Y-125591273D01*
X67556965Y-125460357D01*
X67577447Y-125317900D01*
X67556965Y-125175443D01*
X67497177Y-125044527D01*
X67402928Y-124935757D01*
X67368381Y-124913555D01*
X67281851Y-124857945D01*
X67151378Y-124819636D01*
X67098632Y-124788340D01*
X67011277Y-124700985D01*
X66866427Y-124556135D01*
X66832944Y-124494814D01*
X66831372Y-124486099D01*
X66826965Y-124455445D01*
X66826964Y-124455440D01*
X66790434Y-124375453D01*
X66767177Y-124324527D01*
X66672928Y-124215757D01*
X66631096Y-124188873D01*
X66551851Y-124137945D01*
X66435536Y-124103793D01*
X66382790Y-124072497D01*
X66184029Y-123873736D01*
X66150544Y-123812413D01*
X66148972Y-123803698D01*
X66144565Y-123773043D01*
X66137628Y-123757854D01*
X66101198Y-123678084D01*
X66084777Y-123642127D01*
X65990528Y-123533357D01*
X65929493Y-123494132D01*
X65869451Y-123455545D01*
X65753136Y-123421393D01*
X65700390Y-123390097D01*
X65427715Y-123117422D01*
X65427713Y-123117420D01*
X65382050Y-123091056D01*
X65336389Y-123064693D01*
X65285457Y-123051046D01*
X65234527Y-123037400D01*
X65234526Y-123037400D01*
X60232139Y-123037400D01*
X60232123Y-123037399D01*
X60224527Y-123037399D01*
X60119073Y-123037399D01*
X60051166Y-123055595D01*
X60017212Y-123064693D01*
X59954834Y-123100707D01*
X59929312Y-123115443D01*
X59925884Y-123117422D01*
X59689481Y-123353826D01*
X59628158Y-123387311D01*
X59558466Y-123382327D01*
X59514119Y-123353826D01*
X59376429Y-123216136D01*
X59342944Y-123154813D01*
X59341372Y-123146098D01*
X59336965Y-123115443D01*
X59277177Y-122984527D01*
X59182928Y-122875757D01*
X59061853Y-122797947D01*
X59061851Y-122797946D01*
X59061849Y-122797945D01*
X59061850Y-122797945D01*
X58923763Y-122757400D01*
X58923761Y-122757400D01*
X58779839Y-122757400D01*
X58779836Y-122757400D01*
X58641750Y-122797945D01*
X58641748Y-122797945D01*
X58579864Y-122837716D01*
X58512826Y-122857400D01*
X58206333Y-122857400D01*
X58139294Y-122837715D01*
X58114115Y-122821533D01*
X58061851Y-122787945D01*
X57923763Y-122747400D01*
X57923761Y-122747400D01*
X57779839Y-122747400D01*
X57779836Y-122747400D01*
X57641749Y-122787945D01*
X57641748Y-122787945D01*
X57579975Y-122827645D01*
X57564306Y-122837715D01*
X57497267Y-122857400D01*
X57108533Y-122857400D01*
X57050500Y-122840360D01*
X57049920Y-122841631D01*
X57041848Y-122837944D01*
X56903763Y-122797400D01*
X56903761Y-122797400D01*
X56759839Y-122797400D01*
X56759836Y-122797400D01*
X56621749Y-122837945D01*
X56500673Y-122915756D01*
X56406423Y-123024526D01*
X56406422Y-123024528D01*
X56346634Y-123155443D01*
X56326153Y-123297900D01*
X53625100Y-123297900D01*
X53625100Y-118933810D01*
X103630500Y-118933810D01*
X103630500Y-119163789D01*
X103630501Y-119163805D01*
X103660518Y-119391809D01*
X103660519Y-119391814D01*
X103660520Y-119391820D01*
X103703349Y-119551661D01*
X103720046Y-119613975D01*
X103720049Y-119613985D01*
X103808057Y-119826454D01*
X103808061Y-119826464D01*
X103923055Y-120025639D01*
X104063064Y-120208103D01*
X104063070Y-120208110D01*
X104225689Y-120370729D01*
X104225696Y-120370735D01*
X104408160Y-120510744D01*
X104607335Y-120625738D01*
X104607336Y-120625738D01*
X104607339Y-120625740D01*
X104819824Y-120713754D01*
X105041980Y-120773280D01*
X105270004Y-120803300D01*
X105270011Y-120803300D01*
X105499989Y-120803300D01*
X105499996Y-120803300D01*
X105728020Y-120773280D01*
X105950176Y-120713754D01*
X106162661Y-120625740D01*
X106361840Y-120510744D01*
X106544305Y-120370734D01*
X106706934Y-120208105D01*
X106846944Y-120025640D01*
X106961940Y-119826461D01*
X107049954Y-119613976D01*
X107109480Y-119391820D01*
X107139500Y-119163796D01*
X107139500Y-118933804D01*
X107109480Y-118705780D01*
X107049954Y-118483624D01*
X106961940Y-118271139D01*
X106846944Y-118071960D01*
X106706934Y-117889495D01*
X106706929Y-117889489D01*
X106544310Y-117726870D01*
X106544303Y-117726864D01*
X106361839Y-117586855D01*
X106162664Y-117471861D01*
X106162654Y-117471857D01*
X105950185Y-117383849D01*
X105950178Y-117383847D01*
X105950176Y-117383846D01*
X105728020Y-117324320D01*
X105728014Y-117324319D01*
X105728009Y-117324318D01*
X105500005Y-117294301D01*
X105500002Y-117294300D01*
X105499996Y-117294300D01*
X105270004Y-117294300D01*
X105269998Y-117294300D01*
X105269994Y-117294301D01*
X105041990Y-117324318D01*
X105041983Y-117324319D01*
X105041980Y-117324320D01*
X104819824Y-117383846D01*
X104819814Y-117383849D01*
X104607345Y-117471857D01*
X104607335Y-117471861D01*
X104408160Y-117586855D01*
X104225696Y-117726864D01*
X104225689Y-117726870D01*
X104063070Y-117889489D01*
X104063064Y-117889496D01*
X103923055Y-118071960D01*
X103808061Y-118271135D01*
X103808057Y-118271145D01*
X103720049Y-118483614D01*
X103720046Y-118483624D01*
X103660521Y-118705777D01*
X103660518Y-118705790D01*
X103630501Y-118933794D01*
X103630500Y-118933810D01*
X53625100Y-118933810D01*
X53625100Y-115801333D01*
X53644785Y-115734294D01*
X53661419Y-115713652D01*
X53841571Y-115533500D01*
X61800953Y-115533500D01*
X61821434Y-115675956D01*
X61866003Y-115773546D01*
X61881223Y-115806873D01*
X61975472Y-115915643D01*
X62096547Y-115993453D01*
X62096550Y-115993454D01*
X62096549Y-115993454D01*
X62182930Y-116018817D01*
X62231880Y-116033190D01*
X62234636Y-116033999D01*
X62234638Y-116034000D01*
X62330767Y-116034000D01*
X62397806Y-116053685D01*
X62418448Y-116070319D01*
X62564540Y-116216411D01*
X62620489Y-116272360D01*
X62620491Y-116272361D01*
X62620495Y-116272364D01*
X62677493Y-116305271D01*
X62689011Y-116311921D01*
X62765438Y-116332400D01*
X62844562Y-116332400D01*
X64896099Y-116332400D01*
X64963138Y-116352085D01*
X64989811Y-116375196D01*
X65023472Y-116414043D01*
X65144547Y-116491853D01*
X65144550Y-116491854D01*
X65144549Y-116491854D01*
X65282636Y-116532399D01*
X65282638Y-116532400D01*
X65282639Y-116532400D01*
X65426562Y-116532400D01*
X65426562Y-116532399D01*
X65564653Y-116491853D01*
X65685728Y-116414043D01*
X65779977Y-116305273D01*
X65839765Y-116174357D01*
X65860247Y-116031900D01*
X65839765Y-115889443D01*
X65779977Y-115758527D01*
X65685728Y-115649757D01*
X65564653Y-115571947D01*
X65564651Y-115571946D01*
X65564649Y-115571945D01*
X65564650Y-115571945D01*
X65426563Y-115531400D01*
X65426561Y-115531400D01*
X65282639Y-115531400D01*
X65282636Y-115531400D01*
X65144549Y-115571945D01*
X65023473Y-115649756D01*
X65023472Y-115649756D01*
X65023472Y-115649757D01*
X65000771Y-115675956D01*
X64989812Y-115688603D01*
X64931033Y-115726377D01*
X64896099Y-115731400D01*
X62980833Y-115731400D01*
X62913794Y-115711715D01*
X62893152Y-115695081D01*
X62845995Y-115647924D01*
X62812510Y-115586601D01*
X62810939Y-115542594D01*
X62812247Y-115533500D01*
X62791765Y-115391043D01*
X62731977Y-115260127D01*
X62637728Y-115151357D01*
X62516653Y-115073547D01*
X62516651Y-115073546D01*
X62516649Y-115073545D01*
X62516650Y-115073545D01*
X62378563Y-115033000D01*
X62378561Y-115033000D01*
X62234639Y-115033000D01*
X62234636Y-115033000D01*
X62096549Y-115073545D01*
X61975473Y-115151356D01*
X61881223Y-115260126D01*
X61881222Y-115260128D01*
X61821434Y-115391043D01*
X61800953Y-115533500D01*
X53841571Y-115533500D01*
X55892352Y-113482719D01*
X55953675Y-113449234D01*
X55980033Y-113446400D01*
X62317950Y-113446400D01*
X62384989Y-113466085D01*
X62430744Y-113518889D01*
X62440688Y-113588047D01*
X62411663Y-113651602D01*
X62338425Y-113736122D01*
X62338422Y-113736128D01*
X62278634Y-113867043D01*
X62258153Y-114009500D01*
X62278634Y-114151956D01*
X62321040Y-114244811D01*
X62338423Y-114282873D01*
X62432672Y-114391643D01*
X62553747Y-114469453D01*
X62553750Y-114469454D01*
X62553749Y-114469454D01*
X62660907Y-114500917D01*
X62689080Y-114509190D01*
X62691836Y-114509999D01*
X62691838Y-114510000D01*
X62787967Y-114510000D01*
X62855006Y-114529685D01*
X62875648Y-114546319D01*
X62929740Y-114600411D01*
X62985689Y-114656360D01*
X62985691Y-114656361D01*
X62985695Y-114656364D01*
X63054204Y-114695917D01*
X63054211Y-114695921D01*
X63130638Y-114716400D01*
X63130640Y-114716400D01*
X64784560Y-114716400D01*
X64784562Y-114716400D01*
X64860989Y-114695921D01*
X64929511Y-114656360D01*
X64985460Y-114600411D01*
X65137952Y-114447919D01*
X65199275Y-114414434D01*
X65225633Y-114411600D01*
X70860345Y-114411600D01*
X70927384Y-114431285D01*
X70954057Y-114454396D01*
X71017872Y-114528043D01*
X71138947Y-114605853D01*
X71138950Y-114605854D01*
X71138949Y-114605854D01*
X71246107Y-114637317D01*
X71265684Y-114643066D01*
X71277036Y-114646399D01*
X71277038Y-114646400D01*
X71277039Y-114646400D01*
X71420962Y-114646400D01*
X71420962Y-114646399D01*
X71559053Y-114605853D01*
X71680128Y-114528043D01*
X71713788Y-114489196D01*
X71772567Y-114451423D01*
X71807501Y-114446400D01*
X73681102Y-114446400D01*
X73748141Y-114466085D01*
X73793896Y-114518889D01*
X73803840Y-114588047D01*
X73800916Y-114601487D01*
X73780153Y-114745900D01*
X73800634Y-114888356D01*
X73846105Y-114987922D01*
X73860423Y-115019273D01*
X73954672Y-115128043D01*
X74075747Y-115205853D01*
X74075750Y-115205854D01*
X74075749Y-115205854D01*
X74213836Y-115246399D01*
X74213838Y-115246400D01*
X74213839Y-115246400D01*
X74357762Y-115246400D01*
X74357762Y-115246399D01*
X74495853Y-115205853D01*
X74616928Y-115128043D01*
X74650588Y-115089196D01*
X74709367Y-115051423D01*
X74744301Y-115046400D01*
X83085567Y-115046400D01*
X83152606Y-115066085D01*
X83173248Y-115082719D01*
X83798940Y-115708411D01*
X83854889Y-115764360D01*
X83854891Y-115764361D01*
X83854895Y-115764364D01*
X83897099Y-115788730D01*
X83923411Y-115803921D01*
X83999838Y-115824400D01*
X118730208Y-115824400D01*
X118797247Y-115844085D01*
X118843002Y-115896889D01*
X118852946Y-115966047D01*
X118848869Y-115984395D01*
X118838426Y-116018818D01*
X118819843Y-116207500D01*
X118838426Y-116396181D01*
X118856772Y-116456660D01*
X118893463Y-116577615D01*
X118893464Y-116577618D01*
X118893465Y-116577619D01*
X118893466Y-116577622D01*
X118982834Y-116744818D01*
X118982838Y-116744825D01*
X119103116Y-116891383D01*
X119249674Y-117011661D01*
X119249681Y-117011665D01*
X119416877Y-117101033D01*
X119416878Y-117101033D01*
X119416885Y-117101037D01*
X119598317Y-117156073D01*
X119598316Y-117156073D01*
X119615233Y-117157739D01*
X119787000Y-117174657D01*
X119975683Y-117156073D01*
X120157115Y-117101037D01*
X120324324Y-117011662D01*
X120470883Y-116891383D01*
X120591162Y-116744824D01*
X120649942Y-116634855D01*
X120698904Y-116585011D01*
X120767041Y-116569550D01*
X120832721Y-116593381D01*
X120875090Y-116648939D01*
X120883300Y-116693308D01*
X120883300Y-118261691D01*
X120863615Y-118328730D01*
X120810811Y-118374485D01*
X120741653Y-118384429D01*
X120678097Y-118355404D01*
X120649942Y-118320144D01*
X120591165Y-118210181D01*
X120591161Y-118210174D01*
X120470883Y-118063616D01*
X120324325Y-117943338D01*
X120324318Y-117943334D01*
X120157122Y-117853966D01*
X120157119Y-117853965D01*
X120157118Y-117853964D01*
X120157115Y-117853963D01*
X119975683Y-117798927D01*
X119975681Y-117798926D01*
X119975683Y-117798926D01*
X119787000Y-117780343D01*
X119598318Y-117798926D01*
X119491194Y-117831421D01*
X119416885Y-117853963D01*
X119416882Y-117853964D01*
X119416880Y-117853965D01*
X119416877Y-117853966D01*
X119249681Y-117943334D01*
X119249674Y-117943338D01*
X119103116Y-118063616D01*
X118982838Y-118210174D01*
X118982834Y-118210181D01*
X118893466Y-118377377D01*
X118893465Y-118377380D01*
X118893464Y-118377382D01*
X118893463Y-118377385D01*
X118870921Y-118451694D01*
X118838426Y-118558818D01*
X118819843Y-118747500D01*
X118838426Y-118936181D01*
X118894802Y-119122029D01*
X118895425Y-119191896D01*
X118863822Y-119245705D01*
X116955385Y-121154144D01*
X116899437Y-121210091D01*
X116899431Y-121210099D01*
X116859878Y-121278608D01*
X116859875Y-121278613D01*
X116839396Y-121355043D01*
X116839396Y-137457194D01*
X116819711Y-137524233D01*
X116809110Y-137538396D01*
X116745223Y-137612127D01*
X116745222Y-137612128D01*
X116685434Y-137743043D01*
X116664953Y-137885500D01*
X116685434Y-138027956D01*
X116742736Y-138153428D01*
X116745223Y-138158873D01*
X116839472Y-138267643D01*
X116960547Y-138345453D01*
X116960550Y-138345454D01*
X116960549Y-138345454D01*
X117098636Y-138385999D01*
X117098638Y-138386000D01*
X117098639Y-138386000D01*
X117242562Y-138386000D01*
X117242562Y-138385999D01*
X117380653Y-138345453D01*
X117501728Y-138267643D01*
X117595977Y-138158873D01*
X117655765Y-138027957D01*
X117676247Y-137885500D01*
X117655765Y-137743043D01*
X117595977Y-137612127D01*
X117595975Y-137612125D01*
X117595974Y-137612122D01*
X117501733Y-137503362D01*
X117501727Y-137503356D01*
X117497354Y-137500546D01*
X117451600Y-137447741D01*
X117440396Y-137396232D01*
X117440396Y-135657747D01*
X118736500Y-135657747D01*
X118736500Y-137397252D01*
X118748131Y-137455729D01*
X118748132Y-137455730D01*
X118792447Y-137522052D01*
X118858769Y-137566367D01*
X118858770Y-137566368D01*
X118917247Y-137577999D01*
X118917250Y-137578000D01*
X118917252Y-137578000D01*
X120656750Y-137578000D01*
X120656751Y-137577999D01*
X120671568Y-137575052D01*
X120715229Y-137566368D01*
X120715229Y-137566367D01*
X120715231Y-137566367D01*
X120781552Y-137522052D01*
X120825867Y-137455731D01*
X120825867Y-137455729D01*
X120825868Y-137455729D01*
X120837499Y-137397252D01*
X120837500Y-137397250D01*
X120837500Y-135657749D01*
X120837499Y-135657747D01*
X120825868Y-135599270D01*
X120825867Y-135599269D01*
X120781552Y-135532947D01*
X120715230Y-135488632D01*
X120715229Y-135488631D01*
X120656752Y-135477000D01*
X120656748Y-135477000D01*
X118917252Y-135477000D01*
X118917247Y-135477000D01*
X118858770Y-135488631D01*
X118858769Y-135488632D01*
X118792447Y-135532947D01*
X118748132Y-135599269D01*
X118748131Y-135599270D01*
X118736500Y-135657747D01*
X117440396Y-135657747D01*
X117440396Y-129825229D01*
X117460081Y-129758190D01*
X117512885Y-129712435D01*
X117582043Y-129702491D01*
X117645599Y-129731516D01*
X117652077Y-129737548D01*
X118863823Y-130949294D01*
X118897308Y-131010617D01*
X118894803Y-131072970D01*
X118893464Y-131077381D01*
X118893463Y-131077385D01*
X118869474Y-131156467D01*
X118838426Y-131258818D01*
X118819843Y-131447500D01*
X118838426Y-131636181D01*
X118856390Y-131695400D01*
X118893463Y-131817615D01*
X118893464Y-131817618D01*
X118893465Y-131817619D01*
X118893466Y-131817622D01*
X118982834Y-131984818D01*
X118982838Y-131984825D01*
X119103116Y-132131383D01*
X119249674Y-132251661D01*
X119249681Y-132251665D01*
X119416877Y-132341033D01*
X119416878Y-132341033D01*
X119416885Y-132341037D01*
X119598317Y-132396073D01*
X119598316Y-132396073D01*
X119615233Y-132397739D01*
X119787000Y-132414657D01*
X119975683Y-132396073D01*
X120157115Y-132341037D01*
X120324324Y-132251662D01*
X120470883Y-132131383D01*
X120591162Y-131984824D01*
X120680537Y-131817615D01*
X120735573Y-131636183D01*
X120754157Y-131447500D01*
X120735573Y-131258817D01*
X120680537Y-131077385D01*
X120591162Y-130910176D01*
X120591161Y-130910174D01*
X120470883Y-130763616D01*
X120324325Y-130643338D01*
X120324318Y-130643334D01*
X120157122Y-130553966D01*
X120157119Y-130553965D01*
X120157118Y-130553964D01*
X120157115Y-130553963D01*
X119975683Y-130498927D01*
X119975681Y-130498926D01*
X119975683Y-130498926D01*
X119787000Y-130480343D01*
X119598318Y-130498926D01*
X119514596Y-130524323D01*
X119416885Y-130553963D01*
X119416881Y-130553964D01*
X119412470Y-130555303D01*
X119342603Y-130555926D01*
X119288794Y-130524323D01*
X118076715Y-129312244D01*
X118043230Y-129250921D01*
X118040396Y-129224563D01*
X118040396Y-128907500D01*
X118819843Y-128907500D01*
X118838426Y-129096181D01*
X118838427Y-129096183D01*
X118893463Y-129277615D01*
X118893464Y-129277618D01*
X118893465Y-129277619D01*
X118893466Y-129277622D01*
X118982834Y-129444818D01*
X118982838Y-129444825D01*
X119103116Y-129591383D01*
X119249674Y-129711661D01*
X119249681Y-129711665D01*
X119416877Y-129801033D01*
X119416878Y-129801033D01*
X119416885Y-129801037D01*
X119598317Y-129856073D01*
X119598316Y-129856073D01*
X119615233Y-129857739D01*
X119787000Y-129874657D01*
X119975683Y-129856073D01*
X120157115Y-129801037D01*
X120324324Y-129711662D01*
X120470883Y-129591383D01*
X120591162Y-129444824D01*
X120680537Y-129277615D01*
X120735573Y-129096183D01*
X120754157Y-128907500D01*
X120735573Y-128718817D01*
X120680537Y-128537385D01*
X120591162Y-128370176D01*
X120591161Y-128370174D01*
X120470883Y-128223616D01*
X120324325Y-128103338D01*
X120324318Y-128103334D01*
X120157122Y-128013966D01*
X120157119Y-128013965D01*
X120157118Y-128013964D01*
X120157115Y-128013963D01*
X119975683Y-127958927D01*
X119975681Y-127958926D01*
X119975683Y-127958926D01*
X119787000Y-127940343D01*
X119598318Y-127958926D01*
X119491194Y-127991421D01*
X119416885Y-128013963D01*
X119416882Y-128013964D01*
X119416880Y-128013965D01*
X119416877Y-128013966D01*
X119249681Y-128103334D01*
X119249674Y-128103338D01*
X119103116Y-128223616D01*
X118982838Y-128370174D01*
X118982834Y-128370181D01*
X118893466Y-128537377D01*
X118893465Y-128537380D01*
X118838426Y-128718818D01*
X118819843Y-128907500D01*
X118040396Y-128907500D01*
X118040396Y-127192580D01*
X118060081Y-127125541D01*
X118112885Y-127079786D01*
X118182043Y-127069842D01*
X118199326Y-127073602D01*
X118220388Y-127079786D01*
X118317838Y-127108400D01*
X118317839Y-127108400D01*
X118461762Y-127108400D01*
X118461762Y-127108399D01*
X118599853Y-127067853D01*
X118720928Y-126990043D01*
X118795070Y-126904478D01*
X118853848Y-126866703D01*
X118923717Y-126866703D01*
X118982496Y-126904477D01*
X118984636Y-126907015D01*
X119103116Y-127051383D01*
X119249674Y-127171661D01*
X119249681Y-127171665D01*
X119416877Y-127261033D01*
X119416878Y-127261033D01*
X119416885Y-127261037D01*
X119598317Y-127316073D01*
X119598316Y-127316073D01*
X119615233Y-127317739D01*
X119787000Y-127334657D01*
X119975683Y-127316073D01*
X120157115Y-127261037D01*
X120324324Y-127171662D01*
X120470883Y-127051383D01*
X120591162Y-126904824D01*
X120680537Y-126737615D01*
X120735573Y-126556183D01*
X120754157Y-126367500D01*
X120735573Y-126178817D01*
X120680537Y-125997385D01*
X120680533Y-125997377D01*
X120591165Y-125830181D01*
X120591161Y-125830174D01*
X120470883Y-125683616D01*
X120324325Y-125563338D01*
X120324318Y-125563334D01*
X120157122Y-125473966D01*
X120157119Y-125473965D01*
X120157118Y-125473964D01*
X120157115Y-125473963D01*
X119975683Y-125418927D01*
X119975681Y-125418926D01*
X119975683Y-125418926D01*
X119787000Y-125400343D01*
X119598318Y-125418926D01*
X119491194Y-125451421D01*
X119416885Y-125473963D01*
X119416882Y-125473964D01*
X119416880Y-125473965D01*
X119416877Y-125473966D01*
X119249681Y-125563334D01*
X119249674Y-125563338D01*
X119103116Y-125683616D01*
X118982838Y-125830174D01*
X118982833Y-125830181D01*
X118974458Y-125845852D01*
X118925496Y-125895697D01*
X118857358Y-125911157D01*
X118791678Y-125887325D01*
X118749309Y-125831767D01*
X118741100Y-125787399D01*
X118741100Y-124407600D01*
X118760785Y-124340561D01*
X118813589Y-124294806D01*
X118882747Y-124284862D01*
X118946303Y-124313887D01*
X118974459Y-124349149D01*
X118982834Y-124364818D01*
X118982838Y-124364825D01*
X119103116Y-124511383D01*
X119249674Y-124631661D01*
X119249681Y-124631665D01*
X119416877Y-124721033D01*
X119416878Y-124721033D01*
X119416885Y-124721037D01*
X119598317Y-124776073D01*
X119598316Y-124776073D01*
X119615233Y-124777739D01*
X119787000Y-124794657D01*
X119975683Y-124776073D01*
X120157115Y-124721037D01*
X120324324Y-124631662D01*
X120470883Y-124511383D01*
X120591162Y-124364824D01*
X120680537Y-124197615D01*
X120735573Y-124016183D01*
X120754157Y-123827500D01*
X120735573Y-123638817D01*
X120680537Y-123457385D01*
X120672050Y-123441507D01*
X120591165Y-123290181D01*
X120591161Y-123290174D01*
X120470883Y-123143616D01*
X120324325Y-123023338D01*
X120324318Y-123023334D01*
X120157122Y-122933966D01*
X120157119Y-122933965D01*
X120157118Y-122933964D01*
X120157115Y-122933963D01*
X119975683Y-122878927D01*
X119975681Y-122878926D01*
X119975683Y-122878926D01*
X119787000Y-122860343D01*
X119598318Y-122878926D01*
X119491194Y-122911421D01*
X119416885Y-122933963D01*
X119416882Y-122933964D01*
X119416880Y-122933965D01*
X119416877Y-122933966D01*
X119249681Y-123023334D01*
X119249674Y-123023338D01*
X119103116Y-123143616D01*
X118982838Y-123290174D01*
X118982833Y-123290181D01*
X118974458Y-123305852D01*
X118925496Y-123355697D01*
X118857358Y-123371157D01*
X118791678Y-123347325D01*
X118749309Y-123291767D01*
X118741100Y-123247399D01*
X118741100Y-122770532D01*
X118760785Y-122703493D01*
X118777415Y-122682855D01*
X119262153Y-122198116D01*
X119323474Y-122164633D01*
X119393165Y-122169617D01*
X119408284Y-122176440D01*
X119412729Y-122178815D01*
X119416885Y-122181037D01*
X119598317Y-122236073D01*
X119598316Y-122236073D01*
X119615233Y-122237739D01*
X119787000Y-122254657D01*
X119975683Y-122236073D01*
X120157115Y-122181037D01*
X120324324Y-122091662D01*
X120470883Y-121971383D01*
X120591162Y-121824824D01*
X120680537Y-121657615D01*
X120735573Y-121476183D01*
X120754157Y-121287500D01*
X120748770Y-121232810D01*
X120761788Y-121164167D01*
X120784489Y-121132980D01*
X121274820Y-120642650D01*
X121336142Y-120609166D01*
X121405834Y-120614150D01*
X121461767Y-120656022D01*
X121486184Y-120721486D01*
X121486500Y-120730332D01*
X121486500Y-147113000D01*
X121466815Y-147180039D01*
X121414011Y-147225794D01*
X121362500Y-147237000D01*
X68265919Y-147237000D01*
X68198880Y-147217315D01*
X68153125Y-147164511D01*
X68143181Y-147095353D01*
X68172206Y-147031797D01*
X68178238Y-147025319D01*
X68184711Y-147018845D01*
X68184714Y-147018842D01*
X68261375Y-146904111D01*
X68314180Y-146776628D01*
X68341100Y-146641293D01*
X68341100Y-141677307D01*
X68341100Y-141677304D01*
X68314181Y-141541977D01*
X68314180Y-141541976D01*
X68314180Y-141541972D01*
X68294528Y-141494527D01*
X68261376Y-141414490D01*
X68242178Y-141385759D01*
X68242177Y-141385757D01*
X68184714Y-141299757D01*
X68184712Y-141299754D01*
X66584639Y-139699681D01*
X66551154Y-139638358D01*
X66556138Y-139568666D01*
X66598010Y-139512733D01*
X66663474Y-139488316D01*
X66672320Y-139488000D01*
X69880702Y-139488000D01*
X69947741Y-139507685D01*
X69993496Y-139560489D01*
X70003440Y-139629647D01*
X70000516Y-139643087D01*
X69979753Y-139787500D01*
X70000234Y-139929956D01*
X70048887Y-140036489D01*
X70060023Y-140060873D01*
X70154272Y-140169643D01*
X70275347Y-140247453D01*
X70275350Y-140247454D01*
X70275349Y-140247454D01*
X70413436Y-140287999D01*
X70413438Y-140288000D01*
X70413439Y-140288000D01*
X70557362Y-140288000D01*
X70557362Y-140287999D01*
X70695453Y-140247453D01*
X70816528Y-140169643D01*
X70910777Y-140060873D01*
X70921914Y-140036486D01*
X70967667Y-139983685D01*
X71034706Y-139964000D01*
X72443167Y-139964000D01*
X72510206Y-139983685D01*
X72530848Y-140000319D01*
X74161781Y-141631252D01*
X74195266Y-141692575D01*
X74198100Y-141718933D01*
X74198100Y-145854560D01*
X74178415Y-145921599D01*
X74167813Y-145935762D01*
X74073225Y-146044922D01*
X74073222Y-146044928D01*
X74013434Y-146175843D01*
X73992953Y-146318300D01*
X74013434Y-146460756D01*
X74073222Y-146591671D01*
X74073223Y-146591673D01*
X74167472Y-146700443D01*
X74288547Y-146778253D01*
X74288550Y-146778254D01*
X74288549Y-146778254D01*
X74426636Y-146818799D01*
X74426638Y-146818800D01*
X74426639Y-146818800D01*
X74570562Y-146818800D01*
X74570562Y-146818799D01*
X74708653Y-146778253D01*
X74829728Y-146700443D01*
X74923977Y-146591673D01*
X74983765Y-146460757D01*
X75004247Y-146318300D01*
X74983765Y-146175843D01*
X74923977Y-146044927D01*
X74923975Y-146044925D01*
X74923974Y-146044922D01*
X74829387Y-145935762D01*
X74800362Y-145872206D01*
X74799100Y-145854560D01*
X74799100Y-144537495D01*
X116981451Y-144537495D01*
X116981451Y-144537504D01*
X117001616Y-144806601D01*
X117061664Y-145069688D01*
X117061666Y-145069695D01*
X117155839Y-145309643D01*
X117160257Y-145320898D01*
X117295185Y-145554602D01*
X117340359Y-145611248D01*
X117463442Y-145765589D01*
X117559331Y-145854560D01*
X117661259Y-145949135D01*
X117884226Y-146101151D01*
X118127359Y-146218238D01*
X118385228Y-146297780D01*
X118385229Y-146297780D01*
X118385232Y-146297781D01*
X118652063Y-146337999D01*
X118652068Y-146337999D01*
X118652071Y-146338000D01*
X118652072Y-146338000D01*
X118921928Y-146338000D01*
X118921929Y-146338000D01*
X118925910Y-146337400D01*
X119188767Y-146297781D01*
X119188768Y-146297780D01*
X119188772Y-146297780D01*
X119446641Y-146218238D01*
X119689775Y-146101151D01*
X119912741Y-145949135D01*
X120110561Y-145765585D01*
X120278815Y-145554602D01*
X120413743Y-145320898D01*
X120512334Y-145069695D01*
X120572383Y-144806603D01*
X120591960Y-144545357D01*
X120592549Y-144537504D01*
X120592549Y-144537495D01*
X120572383Y-144268398D01*
X120534904Y-144104191D01*
X120512334Y-144005305D01*
X120413743Y-143754102D01*
X120278815Y-143520398D01*
X120110561Y-143309415D01*
X120110560Y-143309414D01*
X120110557Y-143309410D01*
X119912741Y-143125865D01*
X119897018Y-143115145D01*
X119689775Y-142973849D01*
X119689769Y-142973846D01*
X119689768Y-142973845D01*
X119689767Y-142973844D01*
X119446643Y-142856763D01*
X119446645Y-142856763D01*
X119188773Y-142777220D01*
X119188767Y-142777218D01*
X118921936Y-142737000D01*
X118921929Y-142737000D01*
X118652071Y-142737000D01*
X118652063Y-142737000D01*
X118385232Y-142777218D01*
X118385226Y-142777220D01*
X118127358Y-142856762D01*
X117884230Y-142973846D01*
X117661258Y-143125865D01*
X117463442Y-143309410D01*
X117295185Y-143520398D01*
X117160258Y-143754099D01*
X117160256Y-143754103D01*
X117061666Y-144005304D01*
X117061664Y-144005311D01*
X117001616Y-144268398D01*
X116981451Y-144537495D01*
X74799100Y-144537495D01*
X74799100Y-141503539D01*
X74799100Y-141503538D01*
X74778621Y-141427111D01*
X74754747Y-141385759D01*
X74739064Y-141358595D01*
X74739058Y-141358587D01*
X73080152Y-139699681D01*
X73046667Y-139638358D01*
X73051651Y-139568666D01*
X73093523Y-139512733D01*
X73158987Y-139488316D01*
X73167833Y-139488000D01*
X79134236Y-139488000D01*
X79201275Y-139507685D01*
X79247030Y-139560489D01*
X79256974Y-139629647D01*
X79255853Y-139636191D01*
X79216500Y-139834030D01*
X79216500Y-140340969D01*
X79256868Y-140543912D01*
X79256870Y-140543920D01*
X79310568Y-140673559D01*
X79336059Y-140735098D01*
X79359647Y-140770400D01*
X79451024Y-140907157D01*
X79597342Y-141053475D01*
X79597345Y-141053477D01*
X79769402Y-141168441D01*
X79960580Y-141247630D01*
X80112216Y-141277792D01*
X80163530Y-141287999D01*
X80163534Y-141288000D01*
X80163535Y-141288000D01*
X80370466Y-141288000D01*
X80370467Y-141287999D01*
X80573420Y-141247630D01*
X80764598Y-141168441D01*
X80936655Y-141053477D01*
X81082977Y-140907155D01*
X81197941Y-140735098D01*
X81277130Y-140543920D01*
X81317500Y-140340965D01*
X81317500Y-139834035D01*
X81277130Y-139631080D01*
X81197941Y-139439902D01*
X81197940Y-139439900D01*
X81197940Y-139439899D01*
X81091694Y-139280890D01*
X81070816Y-139214213D01*
X81089301Y-139146833D01*
X81141280Y-139100143D01*
X81194796Y-139088000D01*
X81291167Y-139088000D01*
X81358206Y-139107685D01*
X81378848Y-139124319D01*
X81680181Y-139425652D01*
X81713666Y-139486975D01*
X81716500Y-139513333D01*
X81716500Y-140891769D01*
X81719353Y-140922199D01*
X81719353Y-140922201D01*
X81764206Y-141050380D01*
X81764207Y-141050382D01*
X81844850Y-141159650D01*
X81954118Y-141240293D01*
X81996845Y-141255244D01*
X82082299Y-141285146D01*
X82112730Y-141288000D01*
X82112734Y-141288000D01*
X83421270Y-141288000D01*
X83451699Y-141285146D01*
X83451701Y-141285146D01*
X83515790Y-141262719D01*
X83579882Y-141240293D01*
X83689150Y-141159650D01*
X83769793Y-141050382D01*
X83801524Y-140959701D01*
X83814646Y-140922201D01*
X83814646Y-140922199D01*
X83817500Y-140891769D01*
X83817500Y-139283230D01*
X83814646Y-139252800D01*
X83814646Y-139252798D01*
X83769793Y-139124619D01*
X83769792Y-139124617D01*
X83769572Y-139124319D01*
X83689150Y-139015350D01*
X83579882Y-138934707D01*
X83579880Y-138934706D01*
X83563689Y-138929041D01*
X83506913Y-138888320D01*
X83481166Y-138823367D01*
X83494622Y-138754805D01*
X83543010Y-138704403D01*
X83604644Y-138688000D01*
X88740081Y-138688000D01*
X88807120Y-138707685D01*
X88852875Y-138760489D01*
X88862819Y-138829647D01*
X88833794Y-138893203D01*
X88787534Y-138926561D01*
X88785581Y-138927369D01*
X88785580Y-138927370D01*
X88749406Y-138942354D01*
X88594403Y-139006558D01*
X88422342Y-139121524D01*
X88276024Y-139267842D01*
X88161058Y-139439903D01*
X88081870Y-139631079D01*
X88081868Y-139631087D01*
X88041500Y-139834030D01*
X88041500Y-140340969D01*
X88081868Y-140543912D01*
X88081870Y-140543920D01*
X88135568Y-140673559D01*
X88161059Y-140735098D01*
X88184647Y-140770400D01*
X88276024Y-140907157D01*
X88422342Y-141053475D01*
X88422345Y-141053477D01*
X88594402Y-141168441D01*
X88785580Y-141247630D01*
X88937216Y-141277792D01*
X88988530Y-141287999D01*
X88988534Y-141288000D01*
X88988535Y-141288000D01*
X89195466Y-141288000D01*
X89195467Y-141287999D01*
X89398420Y-141247630D01*
X89589598Y-141168441D01*
X89761655Y-141053477D01*
X89907977Y-140907155D01*
X90022941Y-140735098D01*
X90102130Y-140543920D01*
X90142500Y-140340965D01*
X90142500Y-139834035D01*
X90102130Y-139631080D01*
X90022941Y-139439902D01*
X89907977Y-139267845D01*
X89907975Y-139267842D01*
X89761657Y-139121524D01*
X89605959Y-139017491D01*
X89589598Y-139006559D01*
X89542878Y-138987207D01*
X89434594Y-138942354D01*
X89398420Y-138927370D01*
X89398418Y-138927369D01*
X89396466Y-138926561D01*
X89342063Y-138882720D01*
X89319998Y-138816426D01*
X89337277Y-138748727D01*
X89388414Y-138701116D01*
X89443919Y-138688000D01*
X89716167Y-138688000D01*
X89783206Y-138707685D01*
X89803848Y-138724319D01*
X90505181Y-139425652D01*
X90538666Y-139486975D01*
X90541500Y-139513333D01*
X90541500Y-140891769D01*
X90544353Y-140922199D01*
X90544353Y-140922201D01*
X90589206Y-141050380D01*
X90589207Y-141050382D01*
X90669850Y-141159650D01*
X90779118Y-141240293D01*
X90821845Y-141255244D01*
X90907299Y-141285146D01*
X90937730Y-141288000D01*
X90937734Y-141288000D01*
X92246270Y-141288000D01*
X92276699Y-141285146D01*
X92276701Y-141285146D01*
X92340790Y-141262719D01*
X92404882Y-141240293D01*
X92514150Y-141159650D01*
X92594793Y-141050382D01*
X92626524Y-140959701D01*
X92639646Y-140922201D01*
X92639646Y-140922199D01*
X92642500Y-140891769D01*
X92642500Y-139886530D01*
X99186500Y-139886530D01*
X99186500Y-140343469D01*
X99226868Y-140546412D01*
X99226870Y-140546420D01*
X99305022Y-140735096D01*
X99306059Y-140737598D01*
X99351334Y-140805357D01*
X99421024Y-140909657D01*
X99567342Y-141055975D01*
X99567345Y-141055977D01*
X99739402Y-141170941D01*
X99930580Y-141250130D01*
X100119187Y-141287646D01*
X100133530Y-141290499D01*
X100133534Y-141290500D01*
X100133535Y-141290500D01*
X100340466Y-141290500D01*
X100340467Y-141290499D01*
X100543420Y-141250130D01*
X100734598Y-141170941D01*
X100906655Y-141055977D01*
X101052977Y-140909655D01*
X101167941Y-140737598D01*
X101247130Y-140546420D01*
X101287500Y-140343465D01*
X101287500Y-139886535D01*
X101247130Y-139683580D01*
X101167941Y-139492402D01*
X101063257Y-139335730D01*
X101686500Y-139335730D01*
X101686500Y-140894269D01*
X101689353Y-140924699D01*
X101689353Y-140924701D01*
X101733332Y-141050382D01*
X101734207Y-141052882D01*
X101814850Y-141162150D01*
X101924118Y-141242793D01*
X101945089Y-141250131D01*
X102052299Y-141287646D01*
X102082730Y-141290500D01*
X102082734Y-141290500D01*
X103391270Y-141290500D01*
X103421699Y-141287646D01*
X103421701Y-141287646D01*
X103485790Y-141265219D01*
X103549882Y-141242793D01*
X103659150Y-141162150D01*
X103739793Y-141052882D01*
X103766834Y-140975603D01*
X103784646Y-140924701D01*
X103784646Y-140924699D01*
X103787500Y-140894269D01*
X103787500Y-139335730D01*
X103786093Y-139320730D01*
X110716500Y-139320730D01*
X110716500Y-140929269D01*
X110719353Y-140959699D01*
X110719353Y-140959701D01*
X110764206Y-141087880D01*
X110764207Y-141087882D01*
X110844850Y-141197150D01*
X110954118Y-141277793D01*
X110983288Y-141288000D01*
X111082299Y-141322646D01*
X111112730Y-141325500D01*
X111112734Y-141325500D01*
X112421270Y-141325500D01*
X112451699Y-141322646D01*
X112451701Y-141322646D01*
X112517121Y-141299754D01*
X112579882Y-141277793D01*
X112689150Y-141197150D01*
X112769793Y-141087882D01*
X112809081Y-140975603D01*
X112814646Y-140959701D01*
X112814646Y-140959699D01*
X112817500Y-140929269D01*
X112817500Y-139320730D01*
X112814646Y-139290300D01*
X112814646Y-139290298D01*
X112769793Y-139162119D01*
X112769792Y-139162117D01*
X112758512Y-139146833D01*
X112689150Y-139052850D01*
X112579882Y-138972207D01*
X112579880Y-138972206D01*
X112451700Y-138927353D01*
X112421270Y-138924500D01*
X112421266Y-138924500D01*
X112191500Y-138924500D01*
X112124461Y-138904815D01*
X112078706Y-138852011D01*
X112067500Y-138800500D01*
X112067500Y-136280308D01*
X112087185Y-136213269D01*
X112097782Y-136199111D01*
X112160377Y-136126873D01*
X112220165Y-135995957D01*
X112240647Y-135853500D01*
X112220165Y-135711043D01*
X112160377Y-135580127D01*
X112066128Y-135471357D01*
X111945053Y-135393547D01*
X111945051Y-135393546D01*
X111945049Y-135393545D01*
X111945050Y-135393545D01*
X111806963Y-135353000D01*
X111806961Y-135353000D01*
X111663039Y-135353000D01*
X111663036Y-135353000D01*
X111524949Y-135393545D01*
X111403873Y-135471356D01*
X111309623Y-135580126D01*
X111309622Y-135580128D01*
X111249834Y-135711043D01*
X111229353Y-135853500D01*
X111249834Y-135995956D01*
X111264300Y-136027631D01*
X111309623Y-136126873D01*
X111403872Y-136235643D01*
X111409537Y-136239284D01*
X111455292Y-136292083D01*
X111466500Y-136343600D01*
X111466500Y-138800500D01*
X111446815Y-138867539D01*
X111394011Y-138913294D01*
X111342500Y-138924500D01*
X111112730Y-138924500D01*
X111082300Y-138927353D01*
X111082298Y-138927353D01*
X110954119Y-138972206D01*
X110954117Y-138972207D01*
X110844850Y-139052850D01*
X110764207Y-139162117D01*
X110764206Y-139162119D01*
X110719353Y-139290298D01*
X110719353Y-139290300D01*
X110716500Y-139320730D01*
X103786093Y-139320730D01*
X103784646Y-139305300D01*
X103784646Y-139305298D01*
X103739793Y-139177119D01*
X103739792Y-139177117D01*
X103659150Y-139067850D01*
X103549882Y-138987207D01*
X103549880Y-138987206D01*
X103421700Y-138942353D01*
X103391270Y-138939500D01*
X103391266Y-138939500D01*
X103161500Y-138939500D01*
X103094461Y-138919815D01*
X103048706Y-138867011D01*
X103037500Y-138815500D01*
X103037500Y-136721156D01*
X103057185Y-136654117D01*
X103069543Y-136639858D01*
X103068720Y-136639145D01*
X103074526Y-136632444D01*
X103074528Y-136632443D01*
X103168777Y-136523673D01*
X103228565Y-136392757D01*
X103249047Y-136250300D01*
X103228565Y-136107843D01*
X103168777Y-135976927D01*
X103074528Y-135868157D01*
X102953453Y-135790347D01*
X102953451Y-135790346D01*
X102953449Y-135790345D01*
X102953450Y-135790345D01*
X102815363Y-135749800D01*
X102815361Y-135749800D01*
X102671439Y-135749800D01*
X102671436Y-135749800D01*
X102533349Y-135790345D01*
X102412273Y-135868156D01*
X102318023Y-135976926D01*
X102318022Y-135976928D01*
X102258234Y-136107843D01*
X102237753Y-136250300D01*
X102258234Y-136392756D01*
X102292141Y-136467000D01*
X102318023Y-136523673D01*
X102406214Y-136625452D01*
X102435238Y-136689005D01*
X102436500Y-136706652D01*
X102436500Y-138815500D01*
X102416815Y-138882539D01*
X102364011Y-138928294D01*
X102312500Y-138939500D01*
X102082730Y-138939500D01*
X102052300Y-138942353D01*
X102052298Y-138942353D01*
X101924119Y-138987206D01*
X101924117Y-138987207D01*
X101814850Y-139067850D01*
X101734207Y-139177117D01*
X101734206Y-139177119D01*
X101689353Y-139305298D01*
X101689353Y-139305300D01*
X101686500Y-139335730D01*
X101063257Y-139335730D01*
X101052977Y-139320345D01*
X101052975Y-139320342D01*
X100906657Y-139174024D01*
X100796085Y-139100143D01*
X100734598Y-139059059D01*
X100719608Y-139052850D01*
X100543420Y-138979870D01*
X100543412Y-138979868D01*
X100340469Y-138939500D01*
X100340465Y-138939500D01*
X100133535Y-138939500D01*
X100133530Y-138939500D01*
X99930587Y-138979868D01*
X99930579Y-138979870D01*
X99739403Y-139059058D01*
X99567342Y-139174024D01*
X99421024Y-139320342D01*
X99306058Y-139492403D01*
X99226870Y-139683579D01*
X99226868Y-139683587D01*
X99186500Y-139886530D01*
X92642500Y-139886530D01*
X92642500Y-139283230D01*
X92639646Y-139252800D01*
X92639646Y-139252798D01*
X92594793Y-139124619D01*
X92594792Y-139124617D01*
X92594572Y-139124319D01*
X92514150Y-139015350D01*
X92404882Y-138934707D01*
X92404880Y-138934706D01*
X92276700Y-138889853D01*
X92246270Y-138887000D01*
X92246266Y-138887000D01*
X90937734Y-138887000D01*
X90937730Y-138887000D01*
X90907301Y-138889853D01*
X90901310Y-138891162D01*
X90831615Y-138886236D01*
X90787170Y-138857699D01*
X90076510Y-138147039D01*
X90067542Y-138141862D01*
X90049605Y-138131506D01*
X90049604Y-138131505D01*
X90028797Y-138119492D01*
X90007990Y-138107479D01*
X89982513Y-138100652D01*
X89931562Y-138087000D01*
X89931560Y-138087000D01*
X59138325Y-138087000D01*
X59071286Y-138067315D01*
X59050644Y-138050681D01*
X58856395Y-137856432D01*
X58822910Y-137795109D01*
X58821339Y-137751102D01*
X58822647Y-137742008D01*
X58802165Y-137599551D01*
X58742377Y-137468635D01*
X58648128Y-137359865D01*
X58527053Y-137282055D01*
X58527051Y-137282054D01*
X58527049Y-137282053D01*
X58527050Y-137282053D01*
X58388963Y-137241508D01*
X58388961Y-137241508D01*
X58245039Y-137241508D01*
X58245036Y-137241508D01*
X58106949Y-137282053D01*
X57985873Y-137359864D01*
X57891623Y-137468634D01*
X57891622Y-137468636D01*
X57831834Y-137599551D01*
X57811353Y-137742008D01*
X57831834Y-137884464D01*
X57877449Y-137984345D01*
X57891623Y-138015381D01*
X57985872Y-138124151D01*
X58106947Y-138201961D01*
X58106950Y-138201962D01*
X58106949Y-138201962D01*
X58250197Y-138244023D01*
X58308976Y-138281797D01*
X58338001Y-138345352D01*
X58328058Y-138414511D01*
X58282303Y-138467315D01*
X58215264Y-138487000D01*
X56677433Y-138487000D01*
X56610394Y-138467315D01*
X56564639Y-138414511D01*
X56554695Y-138380647D01*
X56549620Y-138345352D01*
X56543365Y-138301843D01*
X56483577Y-138170927D01*
X56389328Y-138062157D01*
X56268253Y-137984347D01*
X56268251Y-137984346D01*
X56268249Y-137984345D01*
X56268250Y-137984345D01*
X56130163Y-137943800D01*
X56130161Y-137943800D01*
X56090433Y-137943800D01*
X56023394Y-137924115D01*
X55977639Y-137871311D01*
X55967695Y-137802153D01*
X55996720Y-137738597D01*
X56023394Y-137715484D01*
X56033728Y-137708843D01*
X56127977Y-137600073D01*
X56187765Y-137469157D01*
X56208247Y-137326700D01*
X56187765Y-137184243D01*
X56127977Y-137053327D01*
X56033728Y-136944557D01*
X55912653Y-136866747D01*
X55912651Y-136866746D01*
X55912649Y-136866745D01*
X55912650Y-136866745D01*
X55774563Y-136826200D01*
X55774561Y-136826200D01*
X55630639Y-136826200D01*
X55630636Y-136826200D01*
X55492549Y-136866745D01*
X55371473Y-136944556D01*
X55277223Y-137053326D01*
X55277222Y-137053328D01*
X55217434Y-137184243D01*
X55196953Y-137326699D01*
X55198261Y-137335796D01*
X55188317Y-137404955D01*
X55163265Y-137441063D01*
X55162550Y-137441779D01*
X55162489Y-137441840D01*
X55106541Y-137497787D01*
X55106535Y-137497795D01*
X55066982Y-137566304D01*
X55066979Y-137566309D01*
X55058072Y-137599551D01*
X55046500Y-137642738D01*
X55046500Y-138941062D01*
X55056898Y-138979868D01*
X55066979Y-139017490D01*
X55066980Y-139017491D01*
X55098169Y-139071512D01*
X55106540Y-139086011D01*
X55106542Y-139086013D01*
X55178248Y-139157719D01*
X55211733Y-139219042D01*
X55206749Y-139288734D01*
X55164877Y-139344667D01*
X55099413Y-139369084D01*
X55090567Y-139369400D01*
X45884119Y-139369400D01*
X45817080Y-139349715D01*
X45796438Y-139333081D01*
X44158619Y-137695262D01*
X44125134Y-137633939D01*
X44122300Y-137607581D01*
X44122300Y-135198904D01*
X44095381Y-135063577D01*
X44095380Y-135063576D01*
X44095380Y-135063572D01*
X44095378Y-135063567D01*
X44042578Y-134936095D01*
X44042571Y-134936082D01*
X43965914Y-134821358D01*
X43965911Y-134821354D01*
X43868345Y-134723788D01*
X43868341Y-134723785D01*
X43753617Y-134647128D01*
X43753604Y-134647121D01*
X43626132Y-134594321D01*
X43626122Y-134594318D01*
X43490795Y-134567400D01*
X43490793Y-134567400D01*
X43352807Y-134567400D01*
X43352805Y-134567400D01*
X43217477Y-134594318D01*
X43217467Y-134594321D01*
X43089995Y-134647121D01*
X43089982Y-134647128D01*
X42975258Y-134723785D01*
X42975254Y-134723788D01*
X42877688Y-134821354D01*
X42877685Y-134821358D01*
X42801028Y-134936082D01*
X42801021Y-134936095D01*
X42748221Y-135063567D01*
X42748218Y-135063577D01*
X42721300Y-135198904D01*
X42721300Y-135198907D01*
X42721300Y-137880106D01*
X42721300Y-138018094D01*
X42721300Y-138018096D01*
X42721299Y-138018096D01*
X42748218Y-138153422D01*
X42748221Y-138153432D01*
X42801022Y-138280907D01*
X42877687Y-138395645D01*
X45096053Y-140614011D01*
X45096057Y-140614014D01*
X45185173Y-140673559D01*
X45210789Y-140690675D01*
X45210790Y-140690675D01*
X45210791Y-140690676D01*
X45338267Y-140743478D01*
X45338272Y-140743480D01*
X45338276Y-140743480D01*
X45338277Y-140743481D01*
X45473604Y-140770400D01*
X45473607Y-140770400D01*
X55116678Y-140770400D01*
X55183717Y-140790085D01*
X55229472Y-140842889D01*
X55239416Y-140912047D01*
X55210391Y-140975601D01*
X55175623Y-141015727D01*
X55175622Y-141015728D01*
X55115834Y-141146643D01*
X55095353Y-141289100D01*
X55115834Y-141431556D01*
X55144593Y-141494528D01*
X55175623Y-141562473D01*
X55269872Y-141671243D01*
X55269875Y-141671244D01*
X55270213Y-141671635D01*
X55299238Y-141735191D01*
X55300500Y-141752838D01*
X55300500Y-142688066D01*
X55280815Y-142755105D01*
X55264181Y-142775747D01*
X54970420Y-143069507D01*
X54909097Y-143102992D01*
X54847805Y-143100803D01*
X54758564Y-143074600D01*
X54758561Y-143074600D01*
X54614639Y-143074600D01*
X54614636Y-143074600D01*
X54476549Y-143115145D01*
X54355473Y-143192956D01*
X54261223Y-143301726D01*
X54261222Y-143301728D01*
X54201434Y-143432643D01*
X54180953Y-143575100D01*
X54201434Y-143717556D01*
X54218125Y-143754103D01*
X54261223Y-143848473D01*
X54355472Y-143957243D01*
X54476547Y-144035053D01*
X54476554Y-144035055D01*
X54478524Y-144035955D01*
X54480169Y-144037380D01*
X54484007Y-144039847D01*
X54483652Y-144040398D01*
X54531329Y-144081709D01*
X54551015Y-144148748D01*
X54531332Y-144215788D01*
X54514697Y-144236432D01*
X54368889Y-144382240D01*
X54312941Y-144438187D01*
X54312939Y-144438190D01*
X54283094Y-144489883D01*
X54242751Y-144532195D01*
X54222272Y-144545356D01*
X54222266Y-144545362D01*
X54128025Y-144654122D01*
X54128022Y-144654128D01*
X54068234Y-144785043D01*
X54047753Y-144927500D01*
X54068234Y-145069956D01*
X54113446Y-145168955D01*
X54128023Y-145200873D01*
X54222272Y-145309643D01*
X54343347Y-145387453D01*
X54343350Y-145387454D01*
X54343349Y-145387454D01*
X54481436Y-145427999D01*
X54481438Y-145428000D01*
X54481439Y-145428000D01*
X54625362Y-145428000D01*
X54625362Y-145427999D01*
X54763453Y-145387453D01*
X54884528Y-145309643D01*
X54978777Y-145200873D01*
X55038565Y-145069957D01*
X55059047Y-144927500D01*
X55038565Y-144785043D01*
X55026173Y-144757908D01*
X55004562Y-144710586D01*
X54994618Y-144641428D01*
X55023643Y-144577872D01*
X55029661Y-144571408D01*
X57365460Y-142235611D01*
X57405022Y-142167088D01*
X57425500Y-142090662D01*
X57425500Y-142011538D01*
X57425500Y-141651238D01*
X57445185Y-141584199D01*
X57455787Y-141570035D01*
X57456124Y-141569644D01*
X57456128Y-141569643D01*
X57550377Y-141460873D01*
X57610165Y-141329957D01*
X57630647Y-141187500D01*
X57610165Y-141045043D01*
X57596777Y-141015727D01*
X57564893Y-140945912D01*
X57554949Y-140876753D01*
X57583974Y-140813197D01*
X57642752Y-140775423D01*
X57677687Y-140770400D01*
X65622681Y-140770400D01*
X65689720Y-140790085D01*
X65710362Y-140806719D01*
X66903781Y-142000138D01*
X66937266Y-142061461D01*
X66940100Y-142087819D01*
X66940100Y-146641293D01*
X66940100Y-146641295D01*
X66940099Y-146641295D01*
X66967018Y-146776622D01*
X66967021Y-146776632D01*
X67019821Y-146904104D01*
X67019828Y-146904117D01*
X67096485Y-147018841D01*
X67096488Y-147018845D01*
X67102962Y-147025319D01*
X67136447Y-147086642D01*
X67131463Y-147156334D01*
X67089591Y-147212267D01*
X67024127Y-147236684D01*
X67015281Y-147237000D01*
X49612544Y-147237000D01*
X49545505Y-147217315D01*
X49499750Y-147164511D01*
X49489806Y-147095353D01*
X49518831Y-147031797D01*
X49524863Y-147025319D01*
X53625863Y-142924319D01*
X53687186Y-142890834D01*
X53713544Y-142888000D01*
X53738962Y-142888000D01*
X53738962Y-142887999D01*
X53877053Y-142847453D01*
X53998128Y-142769643D01*
X54092377Y-142660873D01*
X54152165Y-142529957D01*
X54168447Y-142416708D01*
X54197470Y-142353156D01*
X54203490Y-142346690D01*
X54245463Y-142304718D01*
X54306786Y-142271233D01*
X54333143Y-142268400D01*
X54453762Y-142268400D01*
X54453762Y-142268399D01*
X54591853Y-142227853D01*
X54712928Y-142150043D01*
X54807177Y-142041273D01*
X54866965Y-141910357D01*
X54887447Y-141767900D01*
X54866965Y-141625443D01*
X54807177Y-141494527D01*
X54712928Y-141385757D01*
X54591853Y-141307947D01*
X54591851Y-141307946D01*
X54591849Y-141307945D01*
X54591850Y-141307945D01*
X54453763Y-141267400D01*
X54453761Y-141267400D01*
X54309839Y-141267400D01*
X54309836Y-141267400D01*
X54171749Y-141307945D01*
X54050673Y-141385756D01*
X53956423Y-141494526D01*
X53956422Y-141494528D01*
X53896635Y-141625442D01*
X53896633Y-141625448D01*
X53896337Y-141627510D01*
X53895472Y-141629402D01*
X53894137Y-141633951D01*
X53893482Y-141633758D01*
X53867308Y-141691063D01*
X53861283Y-141697534D01*
X53708135Y-141850682D01*
X53646815Y-141884166D01*
X53620456Y-141887000D01*
X53595036Y-141887000D01*
X53456949Y-141927545D01*
X53335873Y-142005356D01*
X53241623Y-142114126D01*
X53241622Y-142114128D01*
X53181834Y-142245043D01*
X53165552Y-142358288D01*
X53136526Y-142421843D01*
X53130495Y-142428321D01*
X49228577Y-146330239D01*
X49167254Y-146363724D01*
X49105962Y-146361535D01*
X49023764Y-146337400D01*
X49023761Y-146337400D01*
X48879839Y-146337400D01*
X48879836Y-146337400D01*
X48741749Y-146377945D01*
X48617624Y-146457716D01*
X48550585Y-146477400D01*
X48441580Y-146477400D01*
X48374541Y-146457715D01*
X48347866Y-146434601D01*
X48312130Y-146393358D01*
X48262612Y-146361535D01*
X48191053Y-146315547D01*
X48191051Y-146315546D01*
X48191049Y-146315545D01*
X48191050Y-146315545D01*
X48052963Y-146275000D01*
X48052961Y-146275000D01*
X47909039Y-146275000D01*
X47909036Y-146275000D01*
X47770949Y-146315545D01*
X47649873Y-146393356D01*
X47555623Y-146502126D01*
X47555622Y-146502128D01*
X47495834Y-146633043D01*
X47475353Y-146775500D01*
X47495834Y-146917956D01*
X47559307Y-147056940D01*
X47557250Y-147057879D01*
X47573436Y-147112997D01*
X47553753Y-147180037D01*
X47500951Y-147225793D01*
X47449436Y-147237000D01*
X32911500Y-147237000D01*
X32844461Y-147217315D01*
X32798706Y-147164511D01*
X32787500Y-147113000D01*
X32787500Y-144537495D01*
X33681451Y-144537495D01*
X33681451Y-144537504D01*
X33701616Y-144806601D01*
X33761664Y-145069688D01*
X33761666Y-145069695D01*
X33855839Y-145309643D01*
X33860257Y-145320898D01*
X33995185Y-145554602D01*
X34040359Y-145611248D01*
X34163442Y-145765589D01*
X34259331Y-145854560D01*
X34361259Y-145949135D01*
X34584226Y-146101151D01*
X34827359Y-146218238D01*
X35085228Y-146297780D01*
X35085229Y-146297780D01*
X35085232Y-146297781D01*
X35352063Y-146337999D01*
X35352068Y-146337999D01*
X35352071Y-146338000D01*
X35352072Y-146338000D01*
X35621928Y-146338000D01*
X35621929Y-146338000D01*
X35625910Y-146337400D01*
X35888767Y-146297781D01*
X35888768Y-146297780D01*
X35888772Y-146297780D01*
X36146641Y-146218238D01*
X36389775Y-146101151D01*
X36612741Y-145949135D01*
X36810561Y-145765585D01*
X36978815Y-145554602D01*
X37113743Y-145320898D01*
X37212334Y-145069695D01*
X37272383Y-144806603D01*
X37291960Y-144545357D01*
X37292549Y-144537504D01*
X37292549Y-144537495D01*
X37272383Y-144268398D01*
X37234904Y-144104191D01*
X37212334Y-144005305D01*
X37113743Y-143754102D01*
X36978815Y-143520398D01*
X36810561Y-143309415D01*
X36810560Y-143309414D01*
X36810557Y-143309410D01*
X36612741Y-143125865D01*
X36597018Y-143115145D01*
X36389775Y-142973849D01*
X36389769Y-142973846D01*
X36389768Y-142973845D01*
X36389767Y-142973844D01*
X36146643Y-142856763D01*
X36146645Y-142856763D01*
X35888773Y-142777220D01*
X35888767Y-142777218D01*
X35621936Y-142737000D01*
X35621929Y-142737000D01*
X35352071Y-142737000D01*
X35352063Y-142737000D01*
X35085232Y-142777218D01*
X35085226Y-142777220D01*
X34827358Y-142856762D01*
X34584230Y-142973846D01*
X34361258Y-143125865D01*
X34163442Y-143309410D01*
X33995185Y-143520398D01*
X33860258Y-143754099D01*
X33860256Y-143754103D01*
X33761666Y-144005304D01*
X33761664Y-144005311D01*
X33701616Y-144268398D01*
X33681451Y-144537495D01*
X32787500Y-144537495D01*
X32787500Y-136863230D01*
X38604000Y-136863230D01*
X38604000Y-138171769D01*
X38606853Y-138202199D01*
X38606853Y-138202201D01*
X38651706Y-138330380D01*
X38651707Y-138330382D01*
X38732350Y-138439650D01*
X38841618Y-138520293D01*
X38884345Y-138535244D01*
X38969799Y-138565146D01*
X39000230Y-138568000D01*
X39000234Y-138568000D01*
X40558770Y-138568000D01*
X40589199Y-138565146D01*
X40589201Y-138565146D01*
X40653290Y-138542719D01*
X40717382Y-138520293D01*
X40826650Y-138439650D01*
X40907293Y-138330382D01*
X40937511Y-138244023D01*
X40952146Y-138202201D01*
X40952146Y-138202199D01*
X40955000Y-138171769D01*
X40955000Y-136863230D01*
X40952146Y-136832800D01*
X40952146Y-136832798D01*
X40913080Y-136721156D01*
X40907293Y-136704618D01*
X40826650Y-136595350D01*
X40717382Y-136514707D01*
X40717380Y-136514706D01*
X40589200Y-136469853D01*
X40558770Y-136467000D01*
X40558766Y-136467000D01*
X39000234Y-136467000D01*
X39000230Y-136467000D01*
X38969800Y-136469853D01*
X38969798Y-136469853D01*
X38841619Y-136514706D01*
X38841617Y-136514707D01*
X38732350Y-136595350D01*
X38651707Y-136704617D01*
X38651706Y-136704619D01*
X38606853Y-136832798D01*
X38606853Y-136832800D01*
X38604000Y-136863230D01*
X32787500Y-136863230D01*
X32787500Y-132414030D01*
X38604000Y-132414030D01*
X38604000Y-132620969D01*
X38644368Y-132823912D01*
X38644370Y-132823920D01*
X38696424Y-132949590D01*
X38723559Y-133015098D01*
X38764197Y-133075917D01*
X38838524Y-133187157D01*
X38984842Y-133333475D01*
X38984845Y-133333477D01*
X39156902Y-133448441D01*
X39348080Y-133527630D01*
X39551030Y-133567999D01*
X39551034Y-133568000D01*
X39551035Y-133568000D01*
X40007966Y-133568000D01*
X40007967Y-133567999D01*
X40210920Y-133527630D01*
X40402098Y-133448441D01*
X40452830Y-133414542D01*
X40519508Y-133393665D01*
X40586888Y-133412150D01*
X40633578Y-133464129D01*
X40644754Y-133533099D01*
X40616868Y-133597162D01*
X40609402Y-133605326D01*
X40254815Y-133959912D01*
X40193492Y-133993397D01*
X40142943Y-133993848D01*
X40007969Y-133967000D01*
X40007965Y-133967000D01*
X39551035Y-133967000D01*
X39551030Y-133967000D01*
X39348087Y-134007368D01*
X39348079Y-134007370D01*
X39156903Y-134086558D01*
X38984842Y-134201524D01*
X38838524Y-134347842D01*
X38723558Y-134519903D01*
X38644370Y-134711079D01*
X38644368Y-134711087D01*
X38604000Y-134914030D01*
X38604000Y-135120969D01*
X38644368Y-135323912D01*
X38644370Y-135323920D01*
X38723559Y-135515098D01*
X38735486Y-135532948D01*
X38838524Y-135687157D01*
X38984842Y-135833475D01*
X38984845Y-135833477D01*
X39156902Y-135948441D01*
X39348080Y-136027630D01*
X39551030Y-136067999D01*
X39551034Y-136068000D01*
X39551035Y-136068000D01*
X40007966Y-136068000D01*
X40007967Y-136067999D01*
X40210920Y-136027630D01*
X40402098Y-135948441D01*
X40574155Y-135833477D01*
X40720477Y-135687155D01*
X40835441Y-135515098D01*
X40914630Y-135323920D01*
X40955000Y-135120965D01*
X40955000Y-134914035D01*
X40914630Y-134711080D01*
X40835441Y-134519902D01*
X40775550Y-134430268D01*
X40754673Y-134363591D01*
X40773158Y-134296210D01*
X40790967Y-134273702D01*
X41810352Y-133254319D01*
X41871675Y-133220834D01*
X41898033Y-133218000D01*
X43953045Y-133218000D01*
X43953047Y-133218000D01*
X44029474Y-133197521D01*
X44097996Y-133157960D01*
X44153945Y-133102011D01*
X45579860Y-131676096D01*
X45588068Y-131661879D01*
X45619421Y-131607574D01*
X45639900Y-131531147D01*
X45639900Y-127247819D01*
X45659585Y-127180780D01*
X45676219Y-127160138D01*
X46247238Y-126589119D01*
X46308561Y-126555634D01*
X46334919Y-126552800D01*
X46826760Y-126552800D01*
X46826762Y-126552800D01*
X46903189Y-126532321D01*
X46971711Y-126492760D01*
X47027660Y-126436811D01*
X47615151Y-125849318D01*
X47676474Y-125815834D01*
X47702832Y-125813000D01*
X47798962Y-125813000D01*
X47798962Y-125812999D01*
X47937053Y-125772453D01*
X48058128Y-125694643D01*
X48152377Y-125585873D01*
X48212165Y-125454957D01*
X48232647Y-125312500D01*
X48212165Y-125170043D01*
X48152377Y-125039127D01*
X48058128Y-124930357D01*
X47937053Y-124852547D01*
X47937051Y-124852546D01*
X47937049Y-124852545D01*
X47937050Y-124852545D01*
X47798963Y-124812000D01*
X47798961Y-124812000D01*
X47655039Y-124812000D01*
X47655036Y-124812000D01*
X47516949Y-124852545D01*
X47395873Y-124930356D01*
X47395872Y-124930356D01*
X47395872Y-124930357D01*
X47392811Y-124933888D01*
X47334034Y-124971662D01*
X47264165Y-124971662D01*
X47205388Y-124933888D01*
X47202328Y-124930357D01*
X47081253Y-124852547D01*
X47081251Y-124852546D01*
X47081249Y-124852545D01*
X47081250Y-124852545D01*
X46943163Y-124812000D01*
X46943161Y-124812000D01*
X46799239Y-124812000D01*
X46799236Y-124812000D01*
X46661149Y-124852545D01*
X46540072Y-124930356D01*
X46486872Y-124991752D01*
X46428093Y-125029526D01*
X46425257Y-125030322D01*
X46417212Y-125032477D01*
X46348689Y-125072040D01*
X46348686Y-125072042D01*
X44692541Y-126728187D01*
X44692535Y-126728195D01*
X44652982Y-126796704D01*
X44652979Y-126796709D01*
X44632500Y-126873139D01*
X44632500Y-131156467D01*
X44612815Y-131223506D01*
X44596181Y-131244148D01*
X43659648Y-132180681D01*
X43598325Y-132214166D01*
X43571967Y-132217000D01*
X40999936Y-132217000D01*
X40932897Y-132197315D01*
X40887142Y-132144511D01*
X40885375Y-132140453D01*
X40835441Y-132019903D01*
X40835441Y-132019902D01*
X40720477Y-131847845D01*
X40720475Y-131847842D01*
X40574157Y-131701524D01*
X40433549Y-131607574D01*
X40402098Y-131586559D01*
X40268322Y-131531147D01*
X40210920Y-131507370D01*
X40210912Y-131507368D01*
X40007969Y-131467000D01*
X40007965Y-131467000D01*
X39551035Y-131467000D01*
X39551030Y-131467000D01*
X39348087Y-131507368D01*
X39348079Y-131507370D01*
X39156903Y-131586558D01*
X38984842Y-131701524D01*
X38838524Y-131847842D01*
X38723558Y-132019903D01*
X38644370Y-132211079D01*
X38644368Y-132211087D01*
X38604000Y-132414030D01*
X32787500Y-132414030D01*
X32787500Y-122927747D01*
X34416500Y-122927747D01*
X34416500Y-124667252D01*
X34428131Y-124725729D01*
X34428132Y-124725730D01*
X34472447Y-124792052D01*
X34538769Y-124836367D01*
X34538770Y-124836368D01*
X34597247Y-124847999D01*
X34597250Y-124848000D01*
X34597252Y-124848000D01*
X36336750Y-124848000D01*
X36336751Y-124847999D01*
X36351568Y-124845052D01*
X36395229Y-124836368D01*
X36395229Y-124836367D01*
X36395231Y-124836367D01*
X36461552Y-124792052D01*
X36505867Y-124725731D01*
X36505867Y-124725729D01*
X36505868Y-124725729D01*
X36517499Y-124667252D01*
X36517500Y-124667250D01*
X36517500Y-122927749D01*
X36517499Y-122927747D01*
X36505868Y-122869270D01*
X36505867Y-122869269D01*
X36461552Y-122802947D01*
X36395230Y-122758632D01*
X36395229Y-122758631D01*
X36336752Y-122747000D01*
X36336748Y-122747000D01*
X34597252Y-122747000D01*
X34597247Y-122747000D01*
X34538770Y-122758631D01*
X34538769Y-122758632D01*
X34472447Y-122802947D01*
X34428132Y-122869269D01*
X34428131Y-122869270D01*
X34416500Y-122927747D01*
X32787500Y-122927747D01*
X32787500Y-121257500D01*
X34411417Y-121257500D01*
X34431699Y-121463432D01*
X34448578Y-121519075D01*
X34491768Y-121661454D01*
X34589315Y-121843950D01*
X34589317Y-121843952D01*
X34720589Y-122003910D01*
X34817209Y-122083202D01*
X34880550Y-122135185D01*
X35063046Y-122232732D01*
X35261066Y-122292800D01*
X35261065Y-122292800D01*
X35279529Y-122294618D01*
X35467000Y-122313083D01*
X35672934Y-122292800D01*
X35870954Y-122232732D01*
X36053450Y-122135185D01*
X36213410Y-122003910D01*
X36344685Y-121843950D01*
X36442232Y-121661454D01*
X36502300Y-121463434D01*
X36522583Y-121257500D01*
X36502300Y-121051566D01*
X36442232Y-120853546D01*
X36344685Y-120671050D01*
X36292702Y-120607709D01*
X36213410Y-120511089D01*
X36053452Y-120379817D01*
X36053453Y-120379817D01*
X36053450Y-120379815D01*
X35870954Y-120282268D01*
X35672934Y-120222200D01*
X35672932Y-120222199D01*
X35672934Y-120222199D01*
X35467000Y-120201917D01*
X35261067Y-120222199D01*
X35063043Y-120282269D01*
X34991813Y-120320343D01*
X34880550Y-120379815D01*
X34880548Y-120379816D01*
X34880547Y-120379817D01*
X34720589Y-120511089D01*
X34589317Y-120671047D01*
X34491769Y-120853543D01*
X34431699Y-121051567D01*
X34411417Y-121257500D01*
X32787500Y-121257500D01*
X32787500Y-118717500D01*
X34411417Y-118717500D01*
X34431699Y-118923432D01*
X34435567Y-118936183D01*
X34491768Y-119121454D01*
X34589315Y-119303950D01*
X34589317Y-119303952D01*
X34720589Y-119463910D01*
X34817209Y-119543202D01*
X34880550Y-119595185D01*
X35063046Y-119692732D01*
X35261066Y-119752800D01*
X35261065Y-119752800D01*
X35279529Y-119754618D01*
X35467000Y-119773083D01*
X35672934Y-119752800D01*
X35870954Y-119692732D01*
X36053450Y-119595185D01*
X36213410Y-119463910D01*
X36344685Y-119303950D01*
X36442232Y-119121454D01*
X36502300Y-118923434D01*
X36522583Y-118717500D01*
X36502300Y-118511566D01*
X36442232Y-118313546D01*
X36344685Y-118131050D01*
X36292702Y-118067709D01*
X36213410Y-117971089D01*
X36053452Y-117839817D01*
X36053453Y-117839817D01*
X36053450Y-117839815D01*
X35870954Y-117742268D01*
X35672934Y-117682200D01*
X35672932Y-117682199D01*
X35672934Y-117682199D01*
X35467000Y-117661917D01*
X35261067Y-117682199D01*
X35113820Y-117726866D01*
X35063930Y-117742000D01*
X35063043Y-117742269D01*
X34991813Y-117780343D01*
X34880550Y-117839815D01*
X34880548Y-117839816D01*
X34880547Y-117839817D01*
X34720589Y-117971089D01*
X34589317Y-118131047D01*
X34491769Y-118313543D01*
X34431699Y-118511567D01*
X34411417Y-118717500D01*
X32787500Y-118717500D01*
X32787500Y-116177500D01*
X34411417Y-116177500D01*
X34431699Y-116383432D01*
X34440985Y-116414043D01*
X34491768Y-116581454D01*
X34589315Y-116763950D01*
X34623969Y-116806177D01*
X34720589Y-116923910D01*
X34817209Y-117003202D01*
X34880550Y-117055185D01*
X35063046Y-117152732D01*
X35261066Y-117212800D01*
X35261065Y-117212800D01*
X35279529Y-117214618D01*
X35467000Y-117233083D01*
X35672934Y-117212800D01*
X35870954Y-117152732D01*
X36053450Y-117055185D01*
X36213410Y-116923910D01*
X36222213Y-116913183D01*
X50042500Y-116913183D01*
X50042500Y-117061816D01*
X50071493Y-117207572D01*
X50071495Y-117207580D01*
X50128371Y-117344891D01*
X50210939Y-117468464D01*
X50210945Y-117468471D01*
X50316028Y-117573554D01*
X50316035Y-117573560D01*
X50439608Y-117656128D01*
X50439609Y-117656128D01*
X50439610Y-117656129D01*
X50576920Y-117713005D01*
X50722683Y-117741999D01*
X50722687Y-117742000D01*
X50722688Y-117742000D01*
X50871313Y-117742000D01*
X50871314Y-117741999D01*
X51017080Y-117713005D01*
X51154390Y-117656129D01*
X51277966Y-117573559D01*
X51383059Y-117468466D01*
X51465629Y-117344890D01*
X51522505Y-117207580D01*
X51551500Y-117061812D01*
X51551500Y-116913188D01*
X51522505Y-116767420D01*
X51465629Y-116630110D01*
X51433118Y-116581454D01*
X51383060Y-116506535D01*
X51383054Y-116506528D01*
X51277971Y-116401445D01*
X51277964Y-116401439D01*
X51154391Y-116318871D01*
X51017080Y-116261995D01*
X51017072Y-116261993D01*
X50871316Y-116233000D01*
X50871312Y-116233000D01*
X50722688Y-116233000D01*
X50722683Y-116233000D01*
X50576927Y-116261993D01*
X50576919Y-116261995D01*
X50439608Y-116318871D01*
X50316035Y-116401439D01*
X50316028Y-116401445D01*
X50210945Y-116506528D01*
X50210939Y-116506535D01*
X50128371Y-116630108D01*
X50071495Y-116767419D01*
X50071493Y-116767427D01*
X50042500Y-116913183D01*
X36222213Y-116913183D01*
X36344685Y-116763950D01*
X36442232Y-116581454D01*
X36502300Y-116383434D01*
X36522583Y-116177500D01*
X36502300Y-115971566D01*
X36442232Y-115773546D01*
X36344685Y-115591050D01*
X36292702Y-115527709D01*
X36213410Y-115431089D01*
X36053567Y-115299911D01*
X36053450Y-115299815D01*
X35870954Y-115202268D01*
X35672934Y-115142200D01*
X35672932Y-115142199D01*
X35672934Y-115142199D01*
X35467000Y-115121917D01*
X35261067Y-115142199D01*
X35063043Y-115202269D01*
X34953523Y-115260810D01*
X34880550Y-115299815D01*
X34880548Y-115299816D01*
X34880547Y-115299817D01*
X34720589Y-115431089D01*
X34589317Y-115591047D01*
X34491769Y-115773543D01*
X34431699Y-115971567D01*
X34411417Y-116177500D01*
X32787500Y-116177500D01*
X32787500Y-108133230D01*
X38669000Y-108133230D01*
X38669000Y-109441769D01*
X38671853Y-109472199D01*
X38671853Y-109472201D01*
X38716706Y-109600380D01*
X38716707Y-109600382D01*
X38797350Y-109709650D01*
X38906618Y-109790293D01*
X38949345Y-109805244D01*
X39034799Y-109835146D01*
X39065230Y-109838000D01*
X39065234Y-109838000D01*
X40673770Y-109838000D01*
X40704199Y-109835146D01*
X40704201Y-109835146D01*
X40768290Y-109812719D01*
X40832382Y-109790293D01*
X40941650Y-109709650D01*
X41022293Y-109600382D01*
X41030619Y-109576587D01*
X49892499Y-109576587D01*
X49927258Y-109751327D01*
X49927260Y-109751333D01*
X49995442Y-109915939D01*
X50094430Y-110064087D01*
X50220412Y-110190069D01*
X50220415Y-110190071D01*
X50368559Y-110289057D01*
X50533167Y-110357240D01*
X50533171Y-110357240D01*
X50533172Y-110357241D01*
X50707912Y-110392000D01*
X50707915Y-110392000D01*
X50886087Y-110392000D01*
X51003649Y-110368614D01*
X51060833Y-110357240D01*
X51225441Y-110289057D01*
X51373585Y-110190071D01*
X51499571Y-110064085D01*
X51598557Y-109915941D01*
X51666740Y-109751333D01*
X51678114Y-109694149D01*
X51701500Y-109576587D01*
X51701500Y-109398412D01*
X51666741Y-109223672D01*
X51666740Y-109223671D01*
X51666740Y-109223667D01*
X51598557Y-109059059D01*
X51499571Y-108910915D01*
X51499569Y-108910912D01*
X51373587Y-108784930D01*
X51299513Y-108735436D01*
X51225441Y-108685943D01*
X51153461Y-108656128D01*
X51060833Y-108617760D01*
X51060827Y-108617758D01*
X50886087Y-108583000D01*
X50886085Y-108583000D01*
X50707915Y-108583000D01*
X50707913Y-108583000D01*
X50533172Y-108617758D01*
X50533166Y-108617760D01*
X50368560Y-108685942D01*
X50220412Y-108784930D01*
X50094430Y-108910912D01*
X49995442Y-109059060D01*
X49927260Y-109223666D01*
X49927258Y-109223672D01*
X49892500Y-109398412D01*
X49892500Y-109398415D01*
X49892500Y-109576585D01*
X49892500Y-109576587D01*
X49892499Y-109576587D01*
X41030619Y-109576587D01*
X41057580Y-109499538D01*
X41067146Y-109472201D01*
X41067146Y-109472199D01*
X41070000Y-109441769D01*
X41070000Y-108133230D01*
X41067146Y-108102800D01*
X41067146Y-108102798D01*
X41022293Y-107974619D01*
X41022292Y-107974617D01*
X40941650Y-107865350D01*
X40832382Y-107784707D01*
X40832380Y-107784706D01*
X40704200Y-107739853D01*
X40673770Y-107737000D01*
X40673766Y-107737000D01*
X39065234Y-107737000D01*
X39065230Y-107737000D01*
X39034800Y-107739853D01*
X39034798Y-107739853D01*
X38906619Y-107784706D01*
X38906617Y-107784707D01*
X38797350Y-107865350D01*
X38716707Y-107974617D01*
X38716706Y-107974619D01*
X38671853Y-108102798D01*
X38671853Y-108102800D01*
X38669000Y-108133230D01*
X32787500Y-108133230D01*
X32787500Y-107608700D01*
X59057753Y-107608700D01*
X59078234Y-107751156D01*
X59114553Y-107830681D01*
X59138023Y-107882073D01*
X59232272Y-107990843D01*
X59353347Y-108068653D01*
X59353350Y-108068654D01*
X59353349Y-108068654D01*
X59460507Y-108100117D01*
X59488680Y-108108390D01*
X59491436Y-108109199D01*
X59491438Y-108109200D01*
X59587567Y-108109200D01*
X59654606Y-108128885D01*
X59675248Y-108145519D01*
X59937689Y-108407960D01*
X59997029Y-108442220D01*
X60006208Y-108447520D01*
X60006212Y-108447522D01*
X60082638Y-108468000D01*
X60161762Y-108468000D01*
X64078027Y-108468000D01*
X64145066Y-108487685D01*
X64159226Y-108498284D01*
X64159868Y-108498840D01*
X64159871Y-108498842D01*
X64159872Y-108498843D01*
X64280947Y-108576653D01*
X64280950Y-108576654D01*
X64280949Y-108576654D01*
X64419036Y-108617199D01*
X64419038Y-108617200D01*
X64419039Y-108617200D01*
X64562962Y-108617200D01*
X64562962Y-108617199D01*
X64701053Y-108576653D01*
X64822128Y-108498843D01*
X64822131Y-108498840D01*
X64822774Y-108498284D01*
X64823546Y-108497931D01*
X64829589Y-108494048D01*
X64830147Y-108494916D01*
X64886331Y-108469261D01*
X64903973Y-108468000D01*
X65749760Y-108468000D01*
X65749762Y-108468000D01*
X65826189Y-108447521D01*
X65894711Y-108407960D01*
X65950660Y-108352011D01*
X67325551Y-106977118D01*
X67386874Y-106943634D01*
X67413232Y-106940800D01*
X67509362Y-106940800D01*
X67509362Y-106940799D01*
X67647453Y-106900253D01*
X67768528Y-106822443D01*
X67862777Y-106713673D01*
X67922565Y-106582757D01*
X67943047Y-106440300D01*
X67922565Y-106297843D01*
X67862777Y-106166927D01*
X67768528Y-106058157D01*
X67647453Y-105980347D01*
X67647451Y-105980346D01*
X67647449Y-105980345D01*
X67647450Y-105980345D01*
X67509363Y-105939800D01*
X67509361Y-105939800D01*
X67365439Y-105939800D01*
X67365436Y-105939800D01*
X67227349Y-105980345D01*
X67106273Y-106058156D01*
X67012023Y-106166926D01*
X67012022Y-106166928D01*
X66952234Y-106297843D01*
X66931753Y-106440300D01*
X66931753Y-106440301D01*
X66933061Y-106449403D01*
X66923113Y-106518561D01*
X66898003Y-106554724D01*
X66066697Y-107386031D01*
X66005374Y-107419516D01*
X65935683Y-107414532D01*
X65879749Y-107372660D01*
X65855332Y-107307196D01*
X65856278Y-107280702D01*
X65860247Y-107253100D01*
X65839765Y-107110643D01*
X65779977Y-106979727D01*
X65685728Y-106870957D01*
X65564653Y-106793147D01*
X65564651Y-106793146D01*
X65564649Y-106793145D01*
X65564650Y-106793145D01*
X65426563Y-106752600D01*
X65426561Y-106752600D01*
X65282639Y-106752600D01*
X65282636Y-106752600D01*
X65144549Y-106793145D01*
X65023473Y-106870956D01*
X65023472Y-106870956D01*
X65023472Y-106870957D01*
X64962748Y-106941037D01*
X64945794Y-106960603D01*
X64887016Y-106998377D01*
X64852081Y-107003400D01*
X62714301Y-107003400D01*
X62647262Y-106983715D01*
X62620588Y-106960603D01*
X62617602Y-106957157D01*
X62586928Y-106921757D01*
X62465853Y-106843947D01*
X62465851Y-106843946D01*
X62465849Y-106843945D01*
X62465850Y-106843945D01*
X62327763Y-106803400D01*
X62327761Y-106803400D01*
X62183839Y-106803400D01*
X62183836Y-106803400D01*
X62045749Y-106843945D01*
X61924673Y-106921756D01*
X61830423Y-107030526D01*
X61830422Y-107030528D01*
X61770634Y-107161443D01*
X61750153Y-107303900D01*
X61770634Y-107446356D01*
X61830422Y-107577271D01*
X61830425Y-107577277D01*
X61903663Y-107661798D01*
X61932688Y-107725353D01*
X61922744Y-107794512D01*
X61876989Y-107847316D01*
X61809950Y-107867000D01*
X60298033Y-107867000D01*
X60230994Y-107847315D01*
X60210352Y-107830681D01*
X60102795Y-107723124D01*
X60069310Y-107661801D01*
X60067739Y-107617794D01*
X60069047Y-107608700D01*
X60048565Y-107466243D01*
X59988777Y-107335327D01*
X59894528Y-107226557D01*
X59773453Y-107148747D01*
X59773451Y-107148746D01*
X59773449Y-107148745D01*
X59773450Y-107148745D01*
X59635363Y-107108200D01*
X59635361Y-107108200D01*
X59491439Y-107108200D01*
X59491436Y-107108200D01*
X59353349Y-107148745D01*
X59232273Y-107226556D01*
X59138023Y-107335326D01*
X59138022Y-107335328D01*
X59078234Y-107466243D01*
X59057753Y-107608700D01*
X32787500Y-107608700D01*
X32787500Y-106184030D01*
X38669000Y-106184030D01*
X38669000Y-106390969D01*
X38709368Y-106593912D01*
X38709370Y-106593920D01*
X38788558Y-106785096D01*
X38903524Y-106957157D01*
X39049842Y-107103475D01*
X39049845Y-107103477D01*
X39221902Y-107218441D01*
X39413080Y-107297630D01*
X39602592Y-107335326D01*
X39616030Y-107337999D01*
X39616034Y-107338000D01*
X39616035Y-107338000D01*
X40122966Y-107338000D01*
X40122967Y-107337999D01*
X40325920Y-107297630D01*
X40517098Y-107218441D01*
X40689155Y-107103477D01*
X40835477Y-106957155D01*
X40950441Y-106785098D01*
X41029630Y-106593920D01*
X41070000Y-106390965D01*
X41070000Y-106184035D01*
X41029630Y-105981080D01*
X40950441Y-105789902D01*
X40835477Y-105617845D01*
X40835475Y-105617842D01*
X40689157Y-105471524D01*
X40577522Y-105396933D01*
X40517098Y-105356559D01*
X40428733Y-105319957D01*
X40325920Y-105277370D01*
X40325912Y-105277368D01*
X40122969Y-105237000D01*
X40122965Y-105237000D01*
X39616035Y-105237000D01*
X39616030Y-105237000D01*
X39413087Y-105277368D01*
X39413079Y-105277370D01*
X39221903Y-105356558D01*
X39049842Y-105471524D01*
X38903524Y-105617842D01*
X38788558Y-105789903D01*
X38709370Y-105981079D01*
X38709368Y-105981087D01*
X38669000Y-106184030D01*
X32787500Y-106184030D01*
X32787500Y-102833500D01*
X52352153Y-102833500D01*
X52372634Y-102975956D01*
X52432422Y-103106871D01*
X52432423Y-103106873D01*
X52526672Y-103215643D01*
X52647747Y-103293453D01*
X52647750Y-103293454D01*
X52647749Y-103293454D01*
X52734130Y-103318817D01*
X52783080Y-103333190D01*
X52785836Y-103333999D01*
X52785838Y-103334000D01*
X52881967Y-103334000D01*
X52949006Y-103353685D01*
X52969648Y-103370319D01*
X52978089Y-103378760D01*
X52978091Y-103378761D01*
X52978095Y-103378764D01*
X53035093Y-103411671D01*
X53046611Y-103418321D01*
X53123038Y-103438800D01*
X53202162Y-103438800D01*
X63880099Y-103438800D01*
X63947138Y-103458485D01*
X63973811Y-103481596D01*
X64007472Y-103520443D01*
X64128547Y-103598253D01*
X64128550Y-103598254D01*
X64128549Y-103598254D01*
X64266636Y-103638799D01*
X64266638Y-103638800D01*
X64266639Y-103638800D01*
X64410562Y-103638800D01*
X64410562Y-103638799D01*
X64548653Y-103598253D01*
X64669728Y-103520443D01*
X64703388Y-103481596D01*
X64762167Y-103443823D01*
X64797101Y-103438800D01*
X66826499Y-103438800D01*
X66893538Y-103458485D01*
X66920211Y-103481596D01*
X66953872Y-103520443D01*
X67074947Y-103598253D01*
X67074950Y-103598254D01*
X67074949Y-103598254D01*
X67213036Y-103638799D01*
X67213038Y-103638800D01*
X67213039Y-103638800D01*
X67356962Y-103638800D01*
X67356962Y-103638799D01*
X67495053Y-103598253D01*
X67616128Y-103520443D01*
X67710377Y-103411673D01*
X67770165Y-103280757D01*
X67790647Y-103138300D01*
X67770165Y-102995843D01*
X67710377Y-102864927D01*
X67616128Y-102756157D01*
X67495053Y-102678347D01*
X67495051Y-102678346D01*
X67495049Y-102678345D01*
X67495050Y-102678345D01*
X67356963Y-102637800D01*
X67356961Y-102637800D01*
X67213039Y-102637800D01*
X67213036Y-102637800D01*
X67074949Y-102678345D01*
X66953873Y-102756156D01*
X66920212Y-102795003D01*
X66861433Y-102832777D01*
X66826499Y-102837800D01*
X64797101Y-102837800D01*
X64730062Y-102818115D01*
X64703388Y-102795003D01*
X64669728Y-102756157D01*
X64548653Y-102678347D01*
X64548651Y-102678346D01*
X64548649Y-102678345D01*
X64548650Y-102678345D01*
X64410563Y-102637800D01*
X64410561Y-102637800D01*
X64266639Y-102637800D01*
X64266636Y-102637800D01*
X64128549Y-102678345D01*
X64007473Y-102756156D01*
X63973812Y-102795003D01*
X63915033Y-102832777D01*
X63880099Y-102837800D01*
X53471512Y-102837800D01*
X53404473Y-102818115D01*
X53358718Y-102765311D01*
X53348774Y-102731446D01*
X53342965Y-102691043D01*
X53318649Y-102637800D01*
X53283177Y-102560127D01*
X53188928Y-102451357D01*
X53067853Y-102373547D01*
X53067851Y-102373546D01*
X53067849Y-102373545D01*
X53067850Y-102373545D01*
X52929763Y-102333000D01*
X52929761Y-102333000D01*
X52785839Y-102333000D01*
X52785836Y-102333000D01*
X52647749Y-102373545D01*
X52526673Y-102451356D01*
X52432423Y-102560126D01*
X52432422Y-102560128D01*
X52372634Y-102691043D01*
X52352153Y-102833500D01*
X32787500Y-102833500D01*
X32787500Y-98617100D01*
X59260953Y-98617100D01*
X59281434Y-98759556D01*
X59341222Y-98890471D01*
X59341223Y-98890473D01*
X59435472Y-98999243D01*
X59556547Y-99077053D01*
X59556550Y-99077054D01*
X59556549Y-99077054D01*
X59663707Y-99108517D01*
X59691880Y-99116790D01*
X59694636Y-99117599D01*
X59694638Y-99117600D01*
X59790767Y-99117600D01*
X59857806Y-99137285D01*
X59878448Y-99153919D01*
X60592940Y-99868411D01*
X60648889Y-99924360D01*
X60648891Y-99924361D01*
X60648895Y-99924364D01*
X60717404Y-99963917D01*
X60717411Y-99963921D01*
X60793838Y-99984400D01*
X60872962Y-99984400D01*
X65737567Y-99984400D01*
X65804606Y-100004085D01*
X65825248Y-100020719D01*
X71113781Y-105309252D01*
X71147266Y-105370575D01*
X71150100Y-105396933D01*
X71150100Y-108427317D01*
X71130415Y-108494356D01*
X71093142Y-108531630D01*
X71078975Y-108540735D01*
X71068670Y-108547358D01*
X71068666Y-108547362D01*
X70974425Y-108656122D01*
X70974422Y-108656128D01*
X70914634Y-108787043D01*
X70894153Y-108929500D01*
X70914634Y-109071956D01*
X70974422Y-109202871D01*
X70974423Y-109202873D01*
X71068672Y-109311643D01*
X71189747Y-109389453D01*
X71189750Y-109389454D01*
X71189749Y-109389454D01*
X71327836Y-109429999D01*
X71327838Y-109430000D01*
X71327839Y-109430000D01*
X71471762Y-109430000D01*
X71480540Y-109428738D01*
X71481087Y-109432543D01*
X71532645Y-109432274D01*
X71591620Y-109469740D01*
X71620977Y-109533143D01*
X71611395Y-109602352D01*
X71586015Y-109639113D01*
X71511646Y-109713482D01*
X71450325Y-109746966D01*
X71423966Y-109749800D01*
X71327836Y-109749800D01*
X71189749Y-109790345D01*
X71068673Y-109868156D01*
X70974423Y-109976926D01*
X70974422Y-109976928D01*
X70914634Y-110107843D01*
X70894153Y-110250300D01*
X70914634Y-110392756D01*
X70937862Y-110443617D01*
X70974423Y-110523673D01*
X71068672Y-110632443D01*
X71189747Y-110710253D01*
X71189750Y-110710254D01*
X71189749Y-110710254D01*
X71327836Y-110750799D01*
X71327838Y-110750800D01*
X71327839Y-110750800D01*
X71471762Y-110750800D01*
X71471762Y-110750799D01*
X71609853Y-110710253D01*
X71730928Y-110632443D01*
X71825177Y-110523673D01*
X71884965Y-110392757D01*
X71905447Y-110250300D01*
X71904139Y-110241205D01*
X71914079Y-110172049D01*
X71939192Y-110135877D01*
X72351460Y-109723611D01*
X72391022Y-109655088D01*
X72411500Y-109578662D01*
X72411500Y-109499538D01*
X72411500Y-105181538D01*
X72404111Y-105153963D01*
X72391022Y-105105112D01*
X72351460Y-105036589D01*
X68682371Y-101367500D01*
X80106153Y-101367500D01*
X80126634Y-101509956D01*
X80186375Y-101640768D01*
X80186423Y-101640873D01*
X80280672Y-101749643D01*
X80401747Y-101827453D01*
X80401750Y-101827454D01*
X80401749Y-101827454D01*
X80539836Y-101867999D01*
X80539838Y-101868000D01*
X80539839Y-101868000D01*
X80683762Y-101868000D01*
X80683762Y-101867999D01*
X80821853Y-101827453D01*
X80942928Y-101749643D01*
X80942931Y-101749640D01*
X80949633Y-101743834D01*
X80951443Y-101745923D01*
X80998276Y-101715824D01*
X81033215Y-101710800D01*
X81197905Y-101710800D01*
X81264944Y-101730485D01*
X81279112Y-101741090D01*
X81280666Y-101742437D01*
X81280672Y-101742443D01*
X81401747Y-101820253D01*
X81401750Y-101820254D01*
X81401749Y-101820254D01*
X81539836Y-101860799D01*
X81539838Y-101860800D01*
X81539839Y-101860800D01*
X81683762Y-101860800D01*
X81683762Y-101860799D01*
X81821853Y-101820253D01*
X81942928Y-101742443D01*
X81942936Y-101742433D01*
X81944488Y-101741090D01*
X81946372Y-101740229D01*
X81950389Y-101737648D01*
X81950760Y-101738225D01*
X82008043Y-101712063D01*
X82025695Y-101710800D01*
X91185542Y-101710800D01*
X91185544Y-101710800D01*
X91274688Y-101686914D01*
X91354612Y-101640770D01*
X92838469Y-100156912D01*
X92884614Y-100076988D01*
X92908500Y-99987844D01*
X92908500Y-97085000D01*
X92928185Y-97017961D01*
X92980989Y-96972206D01*
X93032500Y-96961000D01*
X93137905Y-96961000D01*
X93204944Y-96980685D01*
X93219112Y-96991290D01*
X93220666Y-96992637D01*
X93220672Y-96992643D01*
X93341747Y-97070453D01*
X93341750Y-97070454D01*
X93341749Y-97070454D01*
X93479836Y-97110999D01*
X93479838Y-97111000D01*
X93479839Y-97111000D01*
X93623762Y-97111000D01*
X93623762Y-97110999D01*
X93761853Y-97070453D01*
X93882928Y-96992643D01*
X93977177Y-96883873D01*
X94036965Y-96752957D01*
X94057447Y-96610500D01*
X94036965Y-96468043D01*
X93977177Y-96337127D01*
X93882928Y-96228357D01*
X93761853Y-96150547D01*
X93761851Y-96150546D01*
X93761849Y-96150545D01*
X93761850Y-96150545D01*
X93623763Y-96110000D01*
X93623761Y-96110000D01*
X93479839Y-96110000D01*
X93479836Y-96110000D01*
X93341749Y-96150545D01*
X93220676Y-96228354D01*
X93220674Y-96228355D01*
X93220672Y-96228357D01*
X93220670Y-96228358D01*
X93219112Y-96229710D01*
X93217227Y-96230570D01*
X93213211Y-96233152D01*
X93212839Y-96232574D01*
X93155557Y-96258737D01*
X93137905Y-96260000D01*
X92971895Y-96260000D01*
X92904856Y-96240315D01*
X92890688Y-96229710D01*
X92889132Y-96228362D01*
X92889128Y-96228357D01*
X92768053Y-96150547D01*
X92768051Y-96150546D01*
X92768049Y-96150545D01*
X92768050Y-96150545D01*
X92629963Y-96110000D01*
X92629961Y-96110000D01*
X92486039Y-96110000D01*
X92486036Y-96110000D01*
X92347949Y-96150545D01*
X92226873Y-96228356D01*
X92226872Y-96228356D01*
X92226872Y-96228357D01*
X92223218Y-96232574D01*
X92132623Y-96337126D01*
X92132622Y-96337128D01*
X92072834Y-96468043D01*
X92052353Y-96610500D01*
X92072834Y-96752956D01*
X92132622Y-96883871D01*
X92132623Y-96883873D01*
X92177213Y-96935333D01*
X92206238Y-96998888D01*
X92207500Y-97016535D01*
X92207500Y-99745156D01*
X92187815Y-99812195D01*
X92171181Y-99832837D01*
X91030537Y-100973481D01*
X90969214Y-101006966D01*
X90942856Y-101009800D01*
X82025695Y-101009800D01*
X81958656Y-100990115D01*
X81944488Y-100979510D01*
X81942932Y-100978162D01*
X81942928Y-100978157D01*
X81821853Y-100900347D01*
X81821851Y-100900346D01*
X81821849Y-100900345D01*
X81821850Y-100900345D01*
X81683763Y-100859800D01*
X81683761Y-100859800D01*
X81539839Y-100859800D01*
X81539836Y-100859800D01*
X81401749Y-100900345D01*
X81280676Y-100978154D01*
X81280674Y-100978155D01*
X81280672Y-100978157D01*
X81280670Y-100978158D01*
X81279112Y-100979510D01*
X81277227Y-100980370D01*
X81273211Y-100982952D01*
X81272839Y-100982374D01*
X81215557Y-101008537D01*
X81197905Y-101009800D01*
X81017372Y-101009800D01*
X80950333Y-100990116D01*
X80933830Y-100979510D01*
X80821853Y-100907547D01*
X80821851Y-100907546D01*
X80821849Y-100907545D01*
X80821850Y-100907545D01*
X80683763Y-100867000D01*
X80683761Y-100867000D01*
X80539839Y-100867000D01*
X80539836Y-100867000D01*
X80401749Y-100907545D01*
X80280673Y-100985356D01*
X80186423Y-101094126D01*
X80186422Y-101094128D01*
X80126634Y-101225043D01*
X80106153Y-101367500D01*
X68682371Y-101367500D01*
X66351911Y-99037040D01*
X66351910Y-99037039D01*
X66351907Y-99037037D01*
X66333903Y-99026643D01*
X66333901Y-99026642D01*
X66283391Y-98997480D01*
X66283390Y-98997479D01*
X66257913Y-98990652D01*
X66206962Y-98977000D01*
X66206960Y-98977000D01*
X61771233Y-98977000D01*
X61704194Y-98957315D01*
X61683552Y-98940681D01*
X61474395Y-98731524D01*
X61440910Y-98670201D01*
X61439339Y-98626194D01*
X61440647Y-98617100D01*
X61420165Y-98474643D01*
X61360377Y-98343727D01*
X61266128Y-98234957D01*
X61145053Y-98157147D01*
X61145051Y-98157146D01*
X61145049Y-98157145D01*
X61145050Y-98157145D01*
X61006963Y-98116600D01*
X61006961Y-98116600D01*
X60863039Y-98116600D01*
X60863036Y-98116600D01*
X60724949Y-98157145D01*
X60603873Y-98234956D01*
X60509623Y-98343726D01*
X60509622Y-98343728D01*
X60463594Y-98444515D01*
X60417839Y-98497319D01*
X60350799Y-98517003D01*
X60283760Y-98497318D01*
X60238006Y-98444515D01*
X60191977Y-98343728D01*
X60191976Y-98343726D01*
X60097728Y-98234957D01*
X59976653Y-98157147D01*
X59976651Y-98157146D01*
X59976649Y-98157145D01*
X59976650Y-98157145D01*
X59838563Y-98116600D01*
X59838561Y-98116600D01*
X59694639Y-98116600D01*
X59694636Y-98116600D01*
X59556549Y-98157145D01*
X59435473Y-98234956D01*
X59341223Y-98343726D01*
X59341222Y-98343728D01*
X59281434Y-98474643D01*
X59260953Y-98617100D01*
X32787500Y-98617100D01*
X32787500Y-95497495D01*
X33681451Y-95497495D01*
X33681451Y-95497504D01*
X33701616Y-95766601D01*
X33761664Y-96029688D01*
X33761666Y-96029695D01*
X33839635Y-96228356D01*
X33860257Y-96280898D01*
X33995185Y-96514602D01*
X34104127Y-96651210D01*
X34163442Y-96725589D01*
X34334031Y-96883871D01*
X34361259Y-96909135D01*
X34584226Y-97061151D01*
X34827359Y-97178238D01*
X35085228Y-97257780D01*
X35085229Y-97257780D01*
X35085232Y-97257781D01*
X35352063Y-97297999D01*
X35352068Y-97297999D01*
X35352071Y-97298000D01*
X35352072Y-97298000D01*
X35621928Y-97298000D01*
X35621929Y-97298000D01*
X35621936Y-97297999D01*
X35888767Y-97257781D01*
X35888768Y-97257780D01*
X35888772Y-97257780D01*
X36146641Y-97178238D01*
X36389775Y-97061151D01*
X36612741Y-96909135D01*
X36810561Y-96725585D01*
X36978815Y-96514602D01*
X37113743Y-96280898D01*
X37212334Y-96029695D01*
X37272383Y-95766603D01*
X37292549Y-95497500D01*
X37272383Y-95228397D01*
X37212334Y-94965305D01*
X37113743Y-94714102D01*
X36978815Y-94480398D01*
X36810561Y-94269415D01*
X36810560Y-94269414D01*
X36810557Y-94269410D01*
X36612741Y-94085865D01*
X36389775Y-93933849D01*
X36389769Y-93933846D01*
X36389768Y-93933845D01*
X36389767Y-93933844D01*
X36146643Y-93816763D01*
X36146645Y-93816763D01*
X35888773Y-93737220D01*
X35888767Y-93737218D01*
X35621936Y-93697000D01*
X35621929Y-93697000D01*
X35352071Y-93697000D01*
X35352063Y-93697000D01*
X35085232Y-93737218D01*
X35085226Y-93737220D01*
X34827358Y-93816762D01*
X34584230Y-93933846D01*
X34361258Y-94085865D01*
X34163442Y-94269410D01*
X33995185Y-94480398D01*
X33860258Y-94714099D01*
X33860256Y-94714103D01*
X33761666Y-94965304D01*
X33761664Y-94965311D01*
X33701616Y-95228398D01*
X33681451Y-95497495D01*
X32787500Y-95497495D01*
X32787500Y-92922000D01*
X32807185Y-92854961D01*
X32859989Y-92809206D01*
X32911500Y-92798000D01*
X69062500Y-92798000D01*
X69129539Y-92817685D01*
G37*
G04 #@! TD.AperFunction*
G04 #@! TA.AperFunction,Conductor*
G36*
X108196458Y-92817685D02*
G01*
X108242213Y-92870489D01*
X108252157Y-92939647D01*
X108251036Y-92946192D01*
X108244500Y-92979049D01*
X108244500Y-94518552D01*
X108256131Y-94577029D01*
X108256132Y-94577030D01*
X108300447Y-94643352D01*
X108366769Y-94687667D01*
X108366770Y-94687668D01*
X108425247Y-94699299D01*
X108425250Y-94699300D01*
X108425252Y-94699300D01*
X109964750Y-94699300D01*
X109964751Y-94699299D01*
X109979568Y-94696352D01*
X110023229Y-94687668D01*
X110023229Y-94687667D01*
X110023231Y-94687667D01*
X110089552Y-94643352D01*
X110133867Y-94577031D01*
X110133867Y-94577029D01*
X110133868Y-94577029D01*
X110145499Y-94518552D01*
X110145500Y-94518550D01*
X110145500Y-92979049D01*
X110138964Y-92946192D01*
X110145191Y-92876600D01*
X110188054Y-92821423D01*
X110253943Y-92798178D01*
X110260581Y-92798000D01*
X121362500Y-92798000D01*
X121429539Y-92817685D01*
X121475294Y-92870489D01*
X121486500Y-92922000D01*
X121486500Y-114140667D01*
X121466815Y-114207706D01*
X121414011Y-114253461D01*
X121344853Y-114263405D01*
X121281297Y-114234380D01*
X121274819Y-114228348D01*
X120789920Y-113743449D01*
X120756435Y-113682126D01*
X120754198Y-113667922D01*
X120754156Y-113667502D01*
X120754157Y-113667500D01*
X120735573Y-113478817D01*
X120680537Y-113297385D01*
X120680533Y-113297377D01*
X120591165Y-113130181D01*
X120591161Y-113130174D01*
X120470883Y-112983616D01*
X120324325Y-112863338D01*
X120324318Y-112863334D01*
X120157122Y-112773966D01*
X120157119Y-112773965D01*
X120157118Y-112773964D01*
X120157115Y-112773963D01*
X119975683Y-112718927D01*
X119975681Y-112718926D01*
X119975683Y-112718926D01*
X119787000Y-112700343D01*
X119598318Y-112718926D01*
X119491194Y-112751421D01*
X119416885Y-112773963D01*
X119416882Y-112773964D01*
X119416880Y-112773965D01*
X119416877Y-112773966D01*
X119249681Y-112863334D01*
X119249674Y-112863338D01*
X119103116Y-112983616D01*
X118982838Y-113130174D01*
X118982834Y-113130181D01*
X118893466Y-113297377D01*
X118893465Y-113297380D01*
X118838426Y-113478818D01*
X118819843Y-113667500D01*
X118838426Y-113856181D01*
X118838427Y-113856183D01*
X118893463Y-114037615D01*
X118893464Y-114037618D01*
X118893465Y-114037619D01*
X118893466Y-114037622D01*
X118982834Y-114204818D01*
X118982838Y-114204825D01*
X119103116Y-114351383D01*
X119249674Y-114471661D01*
X119249681Y-114471665D01*
X119416877Y-114561033D01*
X119416878Y-114561033D01*
X119416885Y-114561037D01*
X119598317Y-114616073D01*
X119598316Y-114616073D01*
X119615233Y-114617739D01*
X119787000Y-114634657D01*
X119975683Y-114616073D01*
X120157115Y-114561037D01*
X120324324Y-114471662D01*
X120426315Y-114387958D01*
X120490623Y-114360646D01*
X120559490Y-114372436D01*
X120592660Y-114396131D01*
X120846981Y-114650452D01*
X120880466Y-114711775D01*
X120883300Y-114738133D01*
X120883300Y-115721691D01*
X120863615Y-115788730D01*
X120810811Y-115834485D01*
X120741653Y-115844429D01*
X120678097Y-115815404D01*
X120649942Y-115780144D01*
X120591165Y-115670181D01*
X120591161Y-115670174D01*
X120470883Y-115523616D01*
X120324325Y-115403338D01*
X120324318Y-115403334D01*
X120157122Y-115313966D01*
X120157119Y-115313965D01*
X120157118Y-115313964D01*
X120157115Y-115313963D01*
X119975683Y-115258927D01*
X119975681Y-115258926D01*
X119975683Y-115258926D01*
X119787000Y-115240343D01*
X119598318Y-115258926D01*
X119517517Y-115283437D01*
X119416885Y-115313963D01*
X119416881Y-115313964D01*
X119412470Y-115315303D01*
X119342603Y-115315926D01*
X119294777Y-115287837D01*
X119294356Y-115288386D01*
X119289933Y-115284992D01*
X119288794Y-115284323D01*
X119287912Y-115283441D01*
X119287907Y-115283437D01*
X119263595Y-115269401D01*
X119248716Y-115260811D01*
X119248715Y-115260810D01*
X119219394Y-115243881D01*
X119219391Y-115243879D01*
X119172799Y-115231395D01*
X119142962Y-115223400D01*
X119142960Y-115223400D01*
X115411033Y-115223400D01*
X115343994Y-115203715D01*
X115298239Y-115150911D01*
X115288295Y-115081753D01*
X115317320Y-115018197D01*
X115323352Y-115011719D01*
X116081610Y-114253461D01*
X116852260Y-113482811D01*
X116891822Y-113414288D01*
X116912300Y-113337862D01*
X116912300Y-113258738D01*
X116912300Y-112204133D01*
X116931985Y-112137094D01*
X116948619Y-112116452D01*
X117600752Y-111464319D01*
X117662075Y-111430834D01*
X117688433Y-111428000D01*
X118781930Y-111428000D01*
X118848969Y-111447685D01*
X118891288Y-111493547D01*
X118982834Y-111664818D01*
X118982838Y-111664825D01*
X119103116Y-111811383D01*
X119249674Y-111931661D01*
X119249681Y-111931665D01*
X119416877Y-112021033D01*
X119416878Y-112021033D01*
X119416885Y-112021037D01*
X119598317Y-112076073D01*
X119598316Y-112076073D01*
X119615233Y-112077739D01*
X119787000Y-112094657D01*
X119975683Y-112076073D01*
X120157115Y-112021037D01*
X120324324Y-111931662D01*
X120470883Y-111811383D01*
X120591162Y-111664824D01*
X120680537Y-111497615D01*
X120735573Y-111316183D01*
X120754157Y-111127500D01*
X120735573Y-110938817D01*
X120680537Y-110757385D01*
X120680533Y-110757377D01*
X120591165Y-110590181D01*
X120591161Y-110590174D01*
X120470883Y-110443616D01*
X120324325Y-110323338D01*
X120324318Y-110323334D01*
X120157122Y-110233966D01*
X120157119Y-110233965D01*
X120157118Y-110233964D01*
X120157115Y-110233963D01*
X119975683Y-110178927D01*
X119975681Y-110178926D01*
X119975683Y-110178926D01*
X119787000Y-110160343D01*
X119598318Y-110178926D01*
X119491194Y-110211421D01*
X119416885Y-110233963D01*
X119416882Y-110233964D01*
X119416880Y-110233965D01*
X119416877Y-110233966D01*
X119249681Y-110323334D01*
X119249674Y-110323338D01*
X119103116Y-110443616D01*
X118982838Y-110590174D01*
X118982834Y-110590181D01*
X118891288Y-110761453D01*
X118842326Y-110811297D01*
X118781930Y-110827000D01*
X117473038Y-110827000D01*
X117396610Y-110847478D01*
X117328089Y-110887040D01*
X117328086Y-110887042D01*
X116666781Y-111548348D01*
X116605458Y-111581833D01*
X116535766Y-111576849D01*
X116479833Y-111534977D01*
X116455416Y-111469513D01*
X116455100Y-111460667D01*
X116455100Y-108624700D01*
X117233353Y-108624700D01*
X117253834Y-108767156D01*
X117309023Y-108888000D01*
X117313623Y-108898073D01*
X117407872Y-109006843D01*
X117528947Y-109084653D01*
X117528950Y-109084654D01*
X117528949Y-109084654D01*
X117636107Y-109116117D01*
X117665758Y-109124824D01*
X117667036Y-109125199D01*
X117667038Y-109125200D01*
X117667039Y-109125200D01*
X117810962Y-109125200D01*
X117810962Y-109125199D01*
X117949053Y-109084653D01*
X118070128Y-109006843D01*
X118136021Y-108930798D01*
X118194799Y-108893023D01*
X118229734Y-108888000D01*
X118781930Y-108888000D01*
X118848969Y-108907685D01*
X118891288Y-108953547D01*
X118982834Y-109124818D01*
X118982838Y-109124825D01*
X119103116Y-109271383D01*
X119249674Y-109391661D01*
X119249681Y-109391665D01*
X119416877Y-109481033D01*
X119416878Y-109481033D01*
X119416885Y-109481037D01*
X119598317Y-109536073D01*
X119598316Y-109536073D01*
X119615233Y-109537739D01*
X119787000Y-109554657D01*
X119975683Y-109536073D01*
X120157115Y-109481037D01*
X120324324Y-109391662D01*
X120470883Y-109271383D01*
X120591162Y-109124824D01*
X120680537Y-108957615D01*
X120735573Y-108776183D01*
X120754157Y-108587500D01*
X120735573Y-108398817D01*
X120680537Y-108217385D01*
X120680533Y-108217377D01*
X120591165Y-108050181D01*
X120591161Y-108050174D01*
X120470883Y-107903616D01*
X120324325Y-107783338D01*
X120324318Y-107783334D01*
X120157122Y-107693966D01*
X120157119Y-107693965D01*
X120157118Y-107693964D01*
X120157115Y-107693963D01*
X119975683Y-107638927D01*
X119975681Y-107638926D01*
X119975683Y-107638926D01*
X119787000Y-107620343D01*
X119598318Y-107638926D01*
X119522920Y-107661798D01*
X119416885Y-107693963D01*
X119416882Y-107693964D01*
X119416880Y-107693965D01*
X119416877Y-107693966D01*
X119249681Y-107783334D01*
X119249674Y-107783338D01*
X119103116Y-107903616D01*
X118982838Y-108050174D01*
X118982834Y-108050181D01*
X118891288Y-108221453D01*
X118842326Y-108271297D01*
X118781930Y-108287000D01*
X118165267Y-108287000D01*
X118098228Y-108267315D01*
X118071556Y-108244205D01*
X118070128Y-108242557D01*
X118037289Y-108221453D01*
X117949053Y-108164747D01*
X117949051Y-108164746D01*
X117949049Y-108164745D01*
X117949050Y-108164745D01*
X117810963Y-108124200D01*
X117810961Y-108124200D01*
X117667039Y-108124200D01*
X117667036Y-108124200D01*
X117528949Y-108164745D01*
X117407873Y-108242556D01*
X117313623Y-108351326D01*
X117313622Y-108351328D01*
X117253834Y-108482243D01*
X117233353Y-108624700D01*
X116455100Y-108624700D01*
X116455100Y-106047500D01*
X118819843Y-106047500D01*
X118838426Y-106236181D01*
X118838427Y-106236183D01*
X118893463Y-106417615D01*
X118893464Y-106417618D01*
X118893465Y-106417619D01*
X118893466Y-106417622D01*
X118982834Y-106584818D01*
X118982838Y-106584825D01*
X119103116Y-106731383D01*
X119249674Y-106851661D01*
X119249681Y-106851665D01*
X119416877Y-106941033D01*
X119416878Y-106941033D01*
X119416885Y-106941037D01*
X119598317Y-106996073D01*
X119598316Y-106996073D01*
X119615233Y-106997739D01*
X119787000Y-107014657D01*
X119975683Y-106996073D01*
X120157115Y-106941037D01*
X120324324Y-106851662D01*
X120470883Y-106731383D01*
X120591162Y-106584824D01*
X120680537Y-106417615D01*
X120735573Y-106236183D01*
X120754157Y-106047500D01*
X120735573Y-105858817D01*
X120680537Y-105677385D01*
X120659193Y-105637453D01*
X120591165Y-105510181D01*
X120591161Y-105510174D01*
X120470883Y-105363616D01*
X120324325Y-105243338D01*
X120324318Y-105243334D01*
X120157122Y-105153966D01*
X120157119Y-105153965D01*
X120157118Y-105153964D01*
X120157115Y-105153963D01*
X119975683Y-105098927D01*
X119975681Y-105098926D01*
X119975683Y-105098926D01*
X119787000Y-105080343D01*
X119598318Y-105098926D01*
X119491194Y-105131421D01*
X119416885Y-105153963D01*
X119416882Y-105153964D01*
X119416880Y-105153965D01*
X119416877Y-105153966D01*
X119249681Y-105243334D01*
X119249674Y-105243338D01*
X119103116Y-105363616D01*
X118982838Y-105510174D01*
X118982834Y-105510181D01*
X118893466Y-105677377D01*
X118893465Y-105677380D01*
X118893464Y-105677382D01*
X118893463Y-105677385D01*
X118870921Y-105751694D01*
X118838426Y-105858818D01*
X118819843Y-106047500D01*
X116455100Y-106047500D01*
X116455100Y-104533333D01*
X116474785Y-104466294D01*
X116491419Y-104445652D01*
X117092752Y-103844319D01*
X117154075Y-103810834D01*
X117180433Y-103808000D01*
X118781930Y-103808000D01*
X118848969Y-103827685D01*
X118891288Y-103873547D01*
X118982834Y-104044818D01*
X118982838Y-104044825D01*
X119103116Y-104191383D01*
X119249674Y-104311661D01*
X119249681Y-104311665D01*
X119416877Y-104401033D01*
X119416878Y-104401033D01*
X119416885Y-104401037D01*
X119598317Y-104456073D01*
X119598316Y-104456073D01*
X119615233Y-104457739D01*
X119787000Y-104474657D01*
X119975683Y-104456073D01*
X120157115Y-104401037D01*
X120324324Y-104311662D01*
X120470883Y-104191383D01*
X120591162Y-104044824D01*
X120680537Y-103877615D01*
X120735573Y-103696183D01*
X120754157Y-103507500D01*
X120735573Y-103318817D01*
X120680537Y-103137385D01*
X120664227Y-103106871D01*
X120591165Y-102970181D01*
X120591161Y-102970174D01*
X120470883Y-102823616D01*
X120324325Y-102703338D01*
X120324318Y-102703334D01*
X120157122Y-102613966D01*
X120157119Y-102613965D01*
X120157118Y-102613964D01*
X120157115Y-102613963D01*
X119975683Y-102558927D01*
X119975681Y-102558926D01*
X119975683Y-102558926D01*
X119787000Y-102540343D01*
X119598318Y-102558926D01*
X119491194Y-102591421D01*
X119416885Y-102613963D01*
X119416882Y-102613964D01*
X119416880Y-102613965D01*
X119416877Y-102613966D01*
X119249681Y-102703334D01*
X119249674Y-102703338D01*
X119103116Y-102823616D01*
X118982838Y-102970174D01*
X118982834Y-102970181D01*
X118891288Y-103141453D01*
X118842326Y-103191297D01*
X118781930Y-103207000D01*
X116965038Y-103207000D01*
X116888610Y-103227478D01*
X116820089Y-103267040D01*
X116820086Y-103267042D01*
X115914141Y-104172987D01*
X115914135Y-104172995D01*
X115874582Y-104241504D01*
X115874579Y-104241509D01*
X115854100Y-104317939D01*
X115854100Y-112919267D01*
X115834415Y-112986306D01*
X115817781Y-113006948D01*
X114542448Y-114282281D01*
X114481125Y-114315766D01*
X114454767Y-114318600D01*
X104581033Y-114318600D01*
X104513994Y-114298915D01*
X104468239Y-114246111D01*
X104458295Y-114176953D01*
X104487320Y-114113397D01*
X104493352Y-114106919D01*
X105681004Y-112919267D01*
X106895460Y-111704811D01*
X106935021Y-111636289D01*
X106955500Y-111559862D01*
X106955500Y-95497495D01*
X116981451Y-95497495D01*
X116981451Y-95497504D01*
X117001616Y-95766601D01*
X117061664Y-96029688D01*
X117061666Y-96029695D01*
X117139635Y-96228356D01*
X117160257Y-96280898D01*
X117295185Y-96514602D01*
X117404127Y-96651210D01*
X117463442Y-96725589D01*
X117634031Y-96883871D01*
X117661259Y-96909135D01*
X117884226Y-97061151D01*
X118127359Y-97178238D01*
X118385228Y-97257780D01*
X118385229Y-97257780D01*
X118385232Y-97257781D01*
X118652063Y-97297999D01*
X118652068Y-97297999D01*
X118652071Y-97298000D01*
X118652072Y-97298000D01*
X118921928Y-97298000D01*
X118921929Y-97298000D01*
X118921936Y-97297999D01*
X119188767Y-97257781D01*
X119188768Y-97257780D01*
X119188772Y-97257780D01*
X119446641Y-97178238D01*
X119689775Y-97061151D01*
X119912741Y-96909135D01*
X120110561Y-96725585D01*
X120278815Y-96514602D01*
X120413743Y-96280898D01*
X120512334Y-96029695D01*
X120572383Y-95766603D01*
X120592549Y-95497500D01*
X120572383Y-95228397D01*
X120512334Y-94965305D01*
X120413743Y-94714102D01*
X120278815Y-94480398D01*
X120110561Y-94269415D01*
X120110560Y-94269414D01*
X120110557Y-94269410D01*
X119912741Y-94085865D01*
X119689775Y-93933849D01*
X119689769Y-93933846D01*
X119689768Y-93933845D01*
X119689767Y-93933844D01*
X119446643Y-93816763D01*
X119446645Y-93816763D01*
X119188773Y-93737220D01*
X119188767Y-93737218D01*
X118921936Y-93697000D01*
X118921929Y-93697000D01*
X118652071Y-93697000D01*
X118652063Y-93697000D01*
X118385232Y-93737218D01*
X118385226Y-93737220D01*
X118127358Y-93816762D01*
X117884230Y-93933846D01*
X117661258Y-94085865D01*
X117463442Y-94269410D01*
X117295185Y-94480398D01*
X117160258Y-94714099D01*
X117160256Y-94714103D01*
X117061666Y-94965304D01*
X117061664Y-94965311D01*
X117001616Y-95228398D01*
X116981451Y-95497495D01*
X106955500Y-95497495D01*
X106955500Y-94740262D01*
X106975185Y-94673223D01*
X107021044Y-94630905D01*
X107185625Y-94542936D01*
X107330357Y-94424157D01*
X107449136Y-94279425D01*
X107537396Y-94114301D01*
X107591747Y-93935131D01*
X107610099Y-93748800D01*
X107591747Y-93562469D01*
X107537396Y-93383299D01*
X107449136Y-93218175D01*
X107449135Y-93218173D01*
X107330357Y-93073442D01*
X107262621Y-93017853D01*
X107223287Y-92960108D01*
X107221416Y-92890263D01*
X107257603Y-92830495D01*
X107320359Y-92799779D01*
X107341286Y-92798000D01*
X108129419Y-92798000D01*
X108196458Y-92817685D01*
G37*
G04 #@! TD.AperFunction*
M02*
