%TF.GenerationSoftware,KiCad,Pcbnew,8.0.3-8.0.3-0~ubuntu22.04.1*%
%TF.CreationDate,2024-07-11T21:41:11+07:00*%
%TF.ProjectId,kh-gift-hw,6b682d67-6966-4742-9d68-772e6b696361,rev?*%
%TF.SameCoordinates,Original*%
%TF.FileFunction,Drillmap*%
%TF.FilePolarity,Positive*%
%FSLAX45Y45*%
G04 Gerber Fmt 4.5, Leading zero omitted, Abs format (unit mm)*
G04 Created by KiCad (PCBNEW 8.0.3-8.0.3-0~ubuntu22.04.1) date 2024-07-11 21:41:11*
%MOMM*%
%LPD*%
G01*
G04 APERTURE LIST*
%ADD10C,0.120000*%
%ADD11C,0.200000*%
%ADD12C,0.100000*%
%ADD13C,0.130000*%
%ADD14C,0.300000*%
G04 APERTURE END LIST*
D10*
X3248700Y-9249750D02*
X6948700Y-9249750D01*
X3248700Y-14753750D02*
X3248700Y-9249750D01*
X6948700Y-9849750D02*
X6948700Y-9249750D01*
X6948700Y-9849750D02*
X8748700Y-9849750D01*
X8748700Y-9249750D02*
X12178700Y-9249750D01*
X8748700Y-9849750D02*
X8748700Y-9249750D01*
X12178700Y-9249750D02*
X12178700Y-14753750D01*
X12178700Y-14753750D02*
X3248700Y-14753750D01*
X3698700Y-9549750D02*
G75*
G02*
X3398700Y-9549750I-150000J0D01*
G01*
X3398700Y-9549750D02*
G75*
G02*
X3698700Y-9549750I150000J0D01*
G01*
X3698700Y-14453750D02*
G75*
G02*
X3398700Y-14453750I-150000J0D01*
G01*
X3398700Y-14453750D02*
G75*
G02*
X3698700Y-14453750I150000J0D01*
G01*
X12028700Y-9549750D02*
G75*
G02*
X11728700Y-9549750I-150000J0D01*
G01*
X11728700Y-9549750D02*
G75*
G02*
X12028700Y-9549750I150000J0D01*
G01*
X12028700Y-14453750D02*
G75*
G02*
X11728700Y-14453750I-150000J0D01*
G01*
X11728700Y-14453750D02*
G75*
G02*
X12028700Y-14453750I150000J0D01*
G01*
D11*
D12*
X5029700Y-11648750D02*
X5129700Y-11748750D01*
X5129700Y-11648750D02*
X5029700Y-11748750D01*
D13*
X5144700Y-10948750D02*
G75*
G02*
X5014700Y-10948750I-65000J0D01*
G01*
X5014700Y-10948750D02*
G75*
G02*
X5144700Y-10948750I65000J0D01*
G01*
D14*
X10538500Y-11754880D02*
X10538500Y-12054880D01*
X10388500Y-11904880D02*
X10688500Y-11904880D01*
D11*
X3503477Y-15071234D02*
X3503477Y-14871234D01*
X3503477Y-14871234D02*
X3551096Y-14871234D01*
X3551096Y-14871234D02*
X3579667Y-14880758D01*
X3579667Y-14880758D02*
X3598715Y-14899805D01*
X3598715Y-14899805D02*
X3608239Y-14918853D01*
X3608239Y-14918853D02*
X3617762Y-14956948D01*
X3617762Y-14956948D02*
X3617762Y-14985519D01*
X3617762Y-14985519D02*
X3608239Y-15023615D01*
X3608239Y-15023615D02*
X3598715Y-15042662D01*
X3598715Y-15042662D02*
X3579667Y-15061710D01*
X3579667Y-15061710D02*
X3551096Y-15071234D01*
X3551096Y-15071234D02*
X3503477Y-15071234D01*
X3703477Y-15071234D02*
X3703477Y-14937900D01*
X3703477Y-14975996D02*
X3713001Y-14956948D01*
X3713001Y-14956948D02*
X3722524Y-14947424D01*
X3722524Y-14947424D02*
X3741572Y-14937900D01*
X3741572Y-14937900D02*
X3760620Y-14937900D01*
X3827286Y-15071234D02*
X3827286Y-14937900D01*
X3827286Y-14871234D02*
X3817762Y-14880758D01*
X3817762Y-14880758D02*
X3827286Y-14890281D01*
X3827286Y-14890281D02*
X3836810Y-14880758D01*
X3836810Y-14880758D02*
X3827286Y-14871234D01*
X3827286Y-14871234D02*
X3827286Y-14890281D01*
X3951096Y-15071234D02*
X3932048Y-15061710D01*
X3932048Y-15061710D02*
X3922524Y-15042662D01*
X3922524Y-15042662D02*
X3922524Y-14871234D01*
X4055858Y-15071234D02*
X4036810Y-15061710D01*
X4036810Y-15061710D02*
X4027286Y-15042662D01*
X4027286Y-15042662D02*
X4027286Y-14871234D01*
X4284429Y-15071234D02*
X4284429Y-14871234D01*
X4284429Y-14871234D02*
X4351096Y-15014091D01*
X4351096Y-15014091D02*
X4417763Y-14871234D01*
X4417763Y-14871234D02*
X4417763Y-15071234D01*
X4598715Y-15071234D02*
X4598715Y-14966472D01*
X4598715Y-14966472D02*
X4589191Y-14947424D01*
X4589191Y-14947424D02*
X4570144Y-14937900D01*
X4570144Y-14937900D02*
X4532048Y-14937900D01*
X4532048Y-14937900D02*
X4513001Y-14947424D01*
X4598715Y-15061710D02*
X4579667Y-15071234D01*
X4579667Y-15071234D02*
X4532048Y-15071234D01*
X4532048Y-15071234D02*
X4513001Y-15061710D01*
X4513001Y-15061710D02*
X4503477Y-15042662D01*
X4503477Y-15042662D02*
X4503477Y-15023615D01*
X4503477Y-15023615D02*
X4513001Y-15004567D01*
X4513001Y-15004567D02*
X4532048Y-14995043D01*
X4532048Y-14995043D02*
X4579667Y-14995043D01*
X4579667Y-14995043D02*
X4598715Y-14985519D01*
X4693953Y-14937900D02*
X4693953Y-15137900D01*
X4693953Y-14947424D02*
X4713001Y-14937900D01*
X4713001Y-14937900D02*
X4751096Y-14937900D01*
X4751096Y-14937900D02*
X4770144Y-14947424D01*
X4770144Y-14947424D02*
X4779667Y-14956948D01*
X4779667Y-14956948D02*
X4789191Y-14975996D01*
X4789191Y-14975996D02*
X4789191Y-15033138D01*
X4789191Y-15033138D02*
X4779667Y-15052186D01*
X4779667Y-15052186D02*
X4770144Y-15061710D01*
X4770144Y-15061710D02*
X4751096Y-15071234D01*
X4751096Y-15071234D02*
X4713001Y-15071234D01*
X4713001Y-15071234D02*
X4693953Y-15061710D01*
X4874905Y-15052186D02*
X4884429Y-15061710D01*
X4884429Y-15061710D02*
X4874905Y-15071234D01*
X4874905Y-15071234D02*
X4865382Y-15061710D01*
X4865382Y-15061710D02*
X4874905Y-15052186D01*
X4874905Y-15052186D02*
X4874905Y-15071234D01*
X4874905Y-14947424D02*
X4884429Y-14956948D01*
X4884429Y-14956948D02*
X4874905Y-14966472D01*
X4874905Y-14966472D02*
X4865382Y-14956948D01*
X4865382Y-14956948D02*
X4874905Y-14947424D01*
X4874905Y-14947424D02*
X4874905Y-14966472D01*
D12*
X3142700Y-15349750D02*
X3242700Y-15449750D01*
X3242700Y-15349750D02*
X3142700Y-15449750D01*
D11*
X3608239Y-15491234D02*
X3493953Y-15491234D01*
X3551096Y-15491234D02*
X3551096Y-15291234D01*
X3551096Y-15291234D02*
X3532048Y-15319805D01*
X3532048Y-15319805D02*
X3513001Y-15338853D01*
X3513001Y-15338853D02*
X3493953Y-15348377D01*
X3693953Y-15472186D02*
X3703477Y-15481710D01*
X3703477Y-15481710D02*
X3693953Y-15491234D01*
X3693953Y-15491234D02*
X3684429Y-15481710D01*
X3684429Y-15481710D02*
X3693953Y-15472186D01*
X3693953Y-15472186D02*
X3693953Y-15491234D01*
X3827286Y-15291234D02*
X3846334Y-15291234D01*
X3846334Y-15291234D02*
X3865382Y-15300758D01*
X3865382Y-15300758D02*
X3874905Y-15310281D01*
X3874905Y-15310281D02*
X3884429Y-15329329D01*
X3884429Y-15329329D02*
X3893953Y-15367424D01*
X3893953Y-15367424D02*
X3893953Y-15415043D01*
X3893953Y-15415043D02*
X3884429Y-15453138D01*
X3884429Y-15453138D02*
X3874905Y-15472186D01*
X3874905Y-15472186D02*
X3865382Y-15481710D01*
X3865382Y-15481710D02*
X3846334Y-15491234D01*
X3846334Y-15491234D02*
X3827286Y-15491234D01*
X3827286Y-15491234D02*
X3808239Y-15481710D01*
X3808239Y-15481710D02*
X3798715Y-15472186D01*
X3798715Y-15472186D02*
X3789191Y-15453138D01*
X3789191Y-15453138D02*
X3779667Y-15415043D01*
X3779667Y-15415043D02*
X3779667Y-15367424D01*
X3779667Y-15367424D02*
X3789191Y-15329329D01*
X3789191Y-15329329D02*
X3798715Y-15310281D01*
X3798715Y-15310281D02*
X3808239Y-15300758D01*
X3808239Y-15300758D02*
X3827286Y-15291234D01*
X4017762Y-15291234D02*
X4036810Y-15291234D01*
X4036810Y-15291234D02*
X4055858Y-15300758D01*
X4055858Y-15300758D02*
X4065382Y-15310281D01*
X4065382Y-15310281D02*
X4074905Y-15329329D01*
X4074905Y-15329329D02*
X4084429Y-15367424D01*
X4084429Y-15367424D02*
X4084429Y-15415043D01*
X4084429Y-15415043D02*
X4074905Y-15453138D01*
X4074905Y-15453138D02*
X4065382Y-15472186D01*
X4065382Y-15472186D02*
X4055858Y-15481710D01*
X4055858Y-15481710D02*
X4036810Y-15491234D01*
X4036810Y-15491234D02*
X4017762Y-15491234D01*
X4017762Y-15491234D02*
X3998715Y-15481710D01*
X3998715Y-15481710D02*
X3989191Y-15472186D01*
X3989191Y-15472186D02*
X3979667Y-15453138D01*
X3979667Y-15453138D02*
X3970143Y-15415043D01*
X3970143Y-15415043D02*
X3970143Y-15367424D01*
X3970143Y-15367424D02*
X3979667Y-15329329D01*
X3979667Y-15329329D02*
X3989191Y-15310281D01*
X3989191Y-15310281D02*
X3998715Y-15300758D01*
X3998715Y-15300758D02*
X4017762Y-15291234D01*
X4208239Y-15291234D02*
X4227286Y-15291234D01*
X4227286Y-15291234D02*
X4246334Y-15300758D01*
X4246334Y-15300758D02*
X4255858Y-15310281D01*
X4255858Y-15310281D02*
X4265382Y-15329329D01*
X4265382Y-15329329D02*
X4274905Y-15367424D01*
X4274905Y-15367424D02*
X4274905Y-15415043D01*
X4274905Y-15415043D02*
X4265382Y-15453138D01*
X4265382Y-15453138D02*
X4255858Y-15472186D01*
X4255858Y-15472186D02*
X4246334Y-15481710D01*
X4246334Y-15481710D02*
X4227286Y-15491234D01*
X4227286Y-15491234D02*
X4208239Y-15491234D01*
X4208239Y-15491234D02*
X4189191Y-15481710D01*
X4189191Y-15481710D02*
X4179667Y-15472186D01*
X4179667Y-15472186D02*
X4170143Y-15453138D01*
X4170143Y-15453138D02*
X4160620Y-15415043D01*
X4160620Y-15415043D02*
X4160620Y-15367424D01*
X4160620Y-15367424D02*
X4170143Y-15329329D01*
X4170143Y-15329329D02*
X4179667Y-15310281D01*
X4179667Y-15310281D02*
X4189191Y-15300758D01*
X4189191Y-15300758D02*
X4208239Y-15291234D01*
X4360620Y-15491234D02*
X4360620Y-15357900D01*
X4360620Y-15376948D02*
X4370144Y-15367424D01*
X4370144Y-15367424D02*
X4389191Y-15357900D01*
X4389191Y-15357900D02*
X4417763Y-15357900D01*
X4417763Y-15357900D02*
X4436810Y-15367424D01*
X4436810Y-15367424D02*
X4446334Y-15386472D01*
X4446334Y-15386472D02*
X4446334Y-15491234D01*
X4446334Y-15386472D02*
X4455858Y-15367424D01*
X4455858Y-15367424D02*
X4474905Y-15357900D01*
X4474905Y-15357900D02*
X4503477Y-15357900D01*
X4503477Y-15357900D02*
X4522525Y-15367424D01*
X4522525Y-15367424D02*
X4532048Y-15386472D01*
X4532048Y-15386472D02*
X4532048Y-15491234D01*
X4627286Y-15491234D02*
X4627286Y-15357900D01*
X4627286Y-15376948D02*
X4636810Y-15367424D01*
X4636810Y-15367424D02*
X4655858Y-15357900D01*
X4655858Y-15357900D02*
X4684429Y-15357900D01*
X4684429Y-15357900D02*
X4703477Y-15367424D01*
X4703477Y-15367424D02*
X4713001Y-15386472D01*
X4713001Y-15386472D02*
X4713001Y-15491234D01*
X4713001Y-15386472D02*
X4722525Y-15367424D01*
X4722525Y-15367424D02*
X4741572Y-15357900D01*
X4741572Y-15357900D02*
X4770144Y-15357900D01*
X4770144Y-15357900D02*
X4789191Y-15367424D01*
X4789191Y-15367424D02*
X4798715Y-15386472D01*
X4798715Y-15386472D02*
X4798715Y-15491234D01*
X5189191Y-15281710D02*
X5017763Y-15538853D01*
X5446334Y-15291234D02*
X5465382Y-15291234D01*
X5465382Y-15291234D02*
X5484429Y-15300758D01*
X5484429Y-15300758D02*
X5493953Y-15310281D01*
X5493953Y-15310281D02*
X5503477Y-15329329D01*
X5503477Y-15329329D02*
X5513001Y-15367424D01*
X5513001Y-15367424D02*
X5513001Y-15415043D01*
X5513001Y-15415043D02*
X5503477Y-15453138D01*
X5503477Y-15453138D02*
X5493953Y-15472186D01*
X5493953Y-15472186D02*
X5484429Y-15481710D01*
X5484429Y-15481710D02*
X5465382Y-15491234D01*
X5465382Y-15491234D02*
X5446334Y-15491234D01*
X5446334Y-15491234D02*
X5427287Y-15481710D01*
X5427287Y-15481710D02*
X5417763Y-15472186D01*
X5417763Y-15472186D02*
X5408239Y-15453138D01*
X5408239Y-15453138D02*
X5398715Y-15415043D01*
X5398715Y-15415043D02*
X5398715Y-15367424D01*
X5398715Y-15367424D02*
X5408239Y-15329329D01*
X5408239Y-15329329D02*
X5417763Y-15310281D01*
X5417763Y-15310281D02*
X5427287Y-15300758D01*
X5427287Y-15300758D02*
X5446334Y-15291234D01*
X5598715Y-15472186D02*
X5608239Y-15481710D01*
X5608239Y-15481710D02*
X5598715Y-15491234D01*
X5598715Y-15491234D02*
X5589191Y-15481710D01*
X5589191Y-15481710D02*
X5598715Y-15472186D01*
X5598715Y-15472186D02*
X5598715Y-15491234D01*
X5732048Y-15291234D02*
X5751096Y-15291234D01*
X5751096Y-15291234D02*
X5770144Y-15300758D01*
X5770144Y-15300758D02*
X5779667Y-15310281D01*
X5779667Y-15310281D02*
X5789191Y-15329329D01*
X5789191Y-15329329D02*
X5798715Y-15367424D01*
X5798715Y-15367424D02*
X5798715Y-15415043D01*
X5798715Y-15415043D02*
X5789191Y-15453138D01*
X5789191Y-15453138D02*
X5779667Y-15472186D01*
X5779667Y-15472186D02*
X5770144Y-15481710D01*
X5770144Y-15481710D02*
X5751096Y-15491234D01*
X5751096Y-15491234D02*
X5732048Y-15491234D01*
X5732048Y-15491234D02*
X5713001Y-15481710D01*
X5713001Y-15481710D02*
X5703477Y-15472186D01*
X5703477Y-15472186D02*
X5693953Y-15453138D01*
X5693953Y-15453138D02*
X5684429Y-15415043D01*
X5684429Y-15415043D02*
X5684429Y-15367424D01*
X5684429Y-15367424D02*
X5693953Y-15329329D01*
X5693953Y-15329329D02*
X5703477Y-15310281D01*
X5703477Y-15310281D02*
X5713001Y-15300758D01*
X5713001Y-15300758D02*
X5732048Y-15291234D01*
X5865382Y-15291234D02*
X5989191Y-15291234D01*
X5989191Y-15291234D02*
X5922525Y-15367424D01*
X5922525Y-15367424D02*
X5951096Y-15367424D01*
X5951096Y-15367424D02*
X5970144Y-15376948D01*
X5970144Y-15376948D02*
X5979667Y-15386472D01*
X5979667Y-15386472D02*
X5989191Y-15405519D01*
X5989191Y-15405519D02*
X5989191Y-15453138D01*
X5989191Y-15453138D02*
X5979667Y-15472186D01*
X5979667Y-15472186D02*
X5970144Y-15481710D01*
X5970144Y-15481710D02*
X5951096Y-15491234D01*
X5951096Y-15491234D02*
X5893953Y-15491234D01*
X5893953Y-15491234D02*
X5874906Y-15481710D01*
X5874906Y-15481710D02*
X5865382Y-15472186D01*
X6084429Y-15491234D02*
X6122525Y-15491234D01*
X6122525Y-15491234D02*
X6141572Y-15481710D01*
X6141572Y-15481710D02*
X6151096Y-15472186D01*
X6151096Y-15472186D02*
X6170144Y-15443615D01*
X6170144Y-15443615D02*
X6179667Y-15405519D01*
X6179667Y-15405519D02*
X6179667Y-15329329D01*
X6179667Y-15329329D02*
X6170144Y-15310281D01*
X6170144Y-15310281D02*
X6160620Y-15300758D01*
X6160620Y-15300758D02*
X6141572Y-15291234D01*
X6141572Y-15291234D02*
X6103477Y-15291234D01*
X6103477Y-15291234D02*
X6084429Y-15300758D01*
X6084429Y-15300758D02*
X6074906Y-15310281D01*
X6074906Y-15310281D02*
X6065382Y-15329329D01*
X6065382Y-15329329D02*
X6065382Y-15376948D01*
X6065382Y-15376948D02*
X6074906Y-15395996D01*
X6074906Y-15395996D02*
X6084429Y-15405519D01*
X6084429Y-15405519D02*
X6103477Y-15415043D01*
X6103477Y-15415043D02*
X6141572Y-15415043D01*
X6141572Y-15415043D02*
X6160620Y-15405519D01*
X6160620Y-15405519D02*
X6170144Y-15395996D01*
X6170144Y-15395996D02*
X6179667Y-15376948D01*
X6351096Y-15357900D02*
X6351096Y-15491234D01*
X6303477Y-15281710D02*
X6255858Y-15424567D01*
X6255858Y-15424567D02*
X6379667Y-15424567D01*
X6446334Y-15291234D02*
X6446334Y-15329329D01*
X6522525Y-15291234D02*
X6522525Y-15329329D01*
X6817763Y-15567424D02*
X6808239Y-15557900D01*
X6808239Y-15557900D02*
X6789191Y-15529329D01*
X6789191Y-15529329D02*
X6779668Y-15510281D01*
X6779668Y-15510281D02*
X6770144Y-15481710D01*
X6770144Y-15481710D02*
X6760620Y-15434091D01*
X6760620Y-15434091D02*
X6760620Y-15395996D01*
X6760620Y-15395996D02*
X6770144Y-15348377D01*
X6770144Y-15348377D02*
X6779668Y-15319805D01*
X6779668Y-15319805D02*
X6789191Y-15300758D01*
X6789191Y-15300758D02*
X6808239Y-15272186D01*
X6808239Y-15272186D02*
X6817763Y-15262662D01*
X6998715Y-15491234D02*
X6884429Y-15491234D01*
X6941572Y-15491234D02*
X6941572Y-15291234D01*
X6941572Y-15291234D02*
X6922525Y-15319805D01*
X6922525Y-15319805D02*
X6903477Y-15338853D01*
X6903477Y-15338853D02*
X6884429Y-15348377D01*
X7236810Y-15491234D02*
X7236810Y-15291234D01*
X7322525Y-15491234D02*
X7322525Y-15386472D01*
X7322525Y-15386472D02*
X7313001Y-15367424D01*
X7313001Y-15367424D02*
X7293953Y-15357900D01*
X7293953Y-15357900D02*
X7265382Y-15357900D01*
X7265382Y-15357900D02*
X7246334Y-15367424D01*
X7246334Y-15367424D02*
X7236810Y-15376948D01*
X7446334Y-15491234D02*
X7427287Y-15481710D01*
X7427287Y-15481710D02*
X7417763Y-15472186D01*
X7417763Y-15472186D02*
X7408239Y-15453138D01*
X7408239Y-15453138D02*
X7408239Y-15395996D01*
X7408239Y-15395996D02*
X7417763Y-15376948D01*
X7417763Y-15376948D02*
X7427287Y-15367424D01*
X7427287Y-15367424D02*
X7446334Y-15357900D01*
X7446334Y-15357900D02*
X7474906Y-15357900D01*
X7474906Y-15357900D02*
X7493953Y-15367424D01*
X7493953Y-15367424D02*
X7503477Y-15376948D01*
X7503477Y-15376948D02*
X7513001Y-15395996D01*
X7513001Y-15395996D02*
X7513001Y-15453138D01*
X7513001Y-15453138D02*
X7503477Y-15472186D01*
X7503477Y-15472186D02*
X7493953Y-15481710D01*
X7493953Y-15481710D02*
X7474906Y-15491234D01*
X7474906Y-15491234D02*
X7446334Y-15491234D01*
X7627287Y-15491234D02*
X7608239Y-15481710D01*
X7608239Y-15481710D02*
X7598715Y-15462662D01*
X7598715Y-15462662D02*
X7598715Y-15291234D01*
X7779668Y-15481710D02*
X7760620Y-15491234D01*
X7760620Y-15491234D02*
X7722525Y-15491234D01*
X7722525Y-15491234D02*
X7703477Y-15481710D01*
X7703477Y-15481710D02*
X7693953Y-15462662D01*
X7693953Y-15462662D02*
X7693953Y-15386472D01*
X7693953Y-15386472D02*
X7703477Y-15367424D01*
X7703477Y-15367424D02*
X7722525Y-15357900D01*
X7722525Y-15357900D02*
X7760620Y-15357900D01*
X7760620Y-15357900D02*
X7779668Y-15367424D01*
X7779668Y-15367424D02*
X7789191Y-15386472D01*
X7789191Y-15386472D02*
X7789191Y-15405519D01*
X7789191Y-15405519D02*
X7693953Y-15424567D01*
X7855858Y-15567424D02*
X7865382Y-15557900D01*
X7865382Y-15557900D02*
X7884430Y-15529329D01*
X7884430Y-15529329D02*
X7893953Y-15510281D01*
X7893953Y-15510281D02*
X7903477Y-15481710D01*
X7903477Y-15481710D02*
X7913001Y-15434091D01*
X7913001Y-15434091D02*
X7913001Y-15395996D01*
X7913001Y-15395996D02*
X7903477Y-15348377D01*
X7903477Y-15348377D02*
X7893953Y-15319805D01*
X7893953Y-15319805D02*
X7884430Y-15300758D01*
X7884430Y-15300758D02*
X7865382Y-15272186D01*
X7865382Y-15272186D02*
X7855858Y-15262662D01*
X8217763Y-15567424D02*
X8208239Y-15557900D01*
X8208239Y-15557900D02*
X8189191Y-15529329D01*
X8189191Y-15529329D02*
X8179668Y-15510281D01*
X8179668Y-15510281D02*
X8170144Y-15481710D01*
X8170144Y-15481710D02*
X8160620Y-15434091D01*
X8160620Y-15434091D02*
X8160620Y-15395996D01*
X8160620Y-15395996D02*
X8170144Y-15348377D01*
X8170144Y-15348377D02*
X8179668Y-15319805D01*
X8179668Y-15319805D02*
X8189191Y-15300758D01*
X8189191Y-15300758D02*
X8208239Y-15272186D01*
X8208239Y-15272186D02*
X8217763Y-15262662D01*
X8293953Y-15357900D02*
X8293953Y-15491234D01*
X8293953Y-15376948D02*
X8303477Y-15367424D01*
X8303477Y-15367424D02*
X8322525Y-15357900D01*
X8322525Y-15357900D02*
X8351096Y-15357900D01*
X8351096Y-15357900D02*
X8370144Y-15367424D01*
X8370144Y-15367424D02*
X8379668Y-15386472D01*
X8379668Y-15386472D02*
X8379668Y-15491234D01*
X8503477Y-15491234D02*
X8484430Y-15481710D01*
X8484430Y-15481710D02*
X8474906Y-15472186D01*
X8474906Y-15472186D02*
X8465382Y-15453138D01*
X8465382Y-15453138D02*
X8465382Y-15395996D01*
X8465382Y-15395996D02*
X8474906Y-15376948D01*
X8474906Y-15376948D02*
X8484430Y-15367424D01*
X8484430Y-15367424D02*
X8503477Y-15357900D01*
X8503477Y-15357900D02*
X8532049Y-15357900D01*
X8532049Y-15357900D02*
X8551096Y-15367424D01*
X8551096Y-15367424D02*
X8560620Y-15376948D01*
X8560620Y-15376948D02*
X8570144Y-15395996D01*
X8570144Y-15395996D02*
X8570144Y-15453138D01*
X8570144Y-15453138D02*
X8560620Y-15472186D01*
X8560620Y-15472186D02*
X8551096Y-15481710D01*
X8551096Y-15481710D02*
X8532049Y-15491234D01*
X8532049Y-15491234D02*
X8503477Y-15491234D01*
X8627287Y-15357900D02*
X8703477Y-15357900D01*
X8655858Y-15291234D02*
X8655858Y-15462662D01*
X8655858Y-15462662D02*
X8665382Y-15481710D01*
X8665382Y-15481710D02*
X8684430Y-15491234D01*
X8684430Y-15491234D02*
X8703477Y-15491234D01*
X8922525Y-15357900D02*
X8922525Y-15557900D01*
X8922525Y-15367424D02*
X8941573Y-15357900D01*
X8941573Y-15357900D02*
X8979668Y-15357900D01*
X8979668Y-15357900D02*
X8998715Y-15367424D01*
X8998715Y-15367424D02*
X9008239Y-15376948D01*
X9008239Y-15376948D02*
X9017763Y-15395996D01*
X9017763Y-15395996D02*
X9017763Y-15453138D01*
X9017763Y-15453138D02*
X9008239Y-15472186D01*
X9008239Y-15472186D02*
X8998715Y-15481710D01*
X8998715Y-15481710D02*
X8979668Y-15491234D01*
X8979668Y-15491234D02*
X8941573Y-15491234D01*
X8941573Y-15491234D02*
X8922525Y-15481710D01*
X9132049Y-15491234D02*
X9113001Y-15481710D01*
X9113001Y-15481710D02*
X9103477Y-15462662D01*
X9103477Y-15462662D02*
X9103477Y-15291234D01*
X9293954Y-15491234D02*
X9293954Y-15386472D01*
X9293954Y-15386472D02*
X9284430Y-15367424D01*
X9284430Y-15367424D02*
X9265382Y-15357900D01*
X9265382Y-15357900D02*
X9227287Y-15357900D01*
X9227287Y-15357900D02*
X9208239Y-15367424D01*
X9293954Y-15481710D02*
X9274906Y-15491234D01*
X9274906Y-15491234D02*
X9227287Y-15491234D01*
X9227287Y-15491234D02*
X9208239Y-15481710D01*
X9208239Y-15481710D02*
X9198715Y-15462662D01*
X9198715Y-15462662D02*
X9198715Y-15443615D01*
X9198715Y-15443615D02*
X9208239Y-15424567D01*
X9208239Y-15424567D02*
X9227287Y-15415043D01*
X9227287Y-15415043D02*
X9274906Y-15415043D01*
X9274906Y-15415043D02*
X9293954Y-15405519D01*
X9360620Y-15357900D02*
X9436811Y-15357900D01*
X9389192Y-15291234D02*
X9389192Y-15462662D01*
X9389192Y-15462662D02*
X9398715Y-15481710D01*
X9398715Y-15481710D02*
X9417763Y-15491234D01*
X9417763Y-15491234D02*
X9436811Y-15491234D01*
X9579668Y-15481710D02*
X9560620Y-15491234D01*
X9560620Y-15491234D02*
X9522525Y-15491234D01*
X9522525Y-15491234D02*
X9503477Y-15481710D01*
X9503477Y-15481710D02*
X9493954Y-15462662D01*
X9493954Y-15462662D02*
X9493954Y-15386472D01*
X9493954Y-15386472D02*
X9503477Y-15367424D01*
X9503477Y-15367424D02*
X9522525Y-15357900D01*
X9522525Y-15357900D02*
X9560620Y-15357900D01*
X9560620Y-15357900D02*
X9579668Y-15367424D01*
X9579668Y-15367424D02*
X9589192Y-15386472D01*
X9589192Y-15386472D02*
X9589192Y-15405519D01*
X9589192Y-15405519D02*
X9493954Y-15424567D01*
X9760620Y-15491234D02*
X9760620Y-15291234D01*
X9760620Y-15481710D02*
X9741573Y-15491234D01*
X9741573Y-15491234D02*
X9703477Y-15491234D01*
X9703477Y-15491234D02*
X9684430Y-15481710D01*
X9684430Y-15481710D02*
X9674906Y-15472186D01*
X9674906Y-15472186D02*
X9665382Y-15453138D01*
X9665382Y-15453138D02*
X9665382Y-15395996D01*
X9665382Y-15395996D02*
X9674906Y-15376948D01*
X9674906Y-15376948D02*
X9684430Y-15367424D01*
X9684430Y-15367424D02*
X9703477Y-15357900D01*
X9703477Y-15357900D02*
X9741573Y-15357900D01*
X9741573Y-15357900D02*
X9760620Y-15367424D01*
X9836811Y-15567424D02*
X9846335Y-15557900D01*
X9846335Y-15557900D02*
X9865382Y-15529329D01*
X9865382Y-15529329D02*
X9874906Y-15510281D01*
X9874906Y-15510281D02*
X9884430Y-15481710D01*
X9884430Y-15481710D02*
X9893954Y-15434091D01*
X9893954Y-15434091D02*
X9893954Y-15395996D01*
X9893954Y-15395996D02*
X9884430Y-15348377D01*
X9884430Y-15348377D02*
X9874906Y-15319805D01*
X9874906Y-15319805D02*
X9865382Y-15300758D01*
X9865382Y-15300758D02*
X9846335Y-15272186D01*
X9846335Y-15272186D02*
X9836811Y-15262662D01*
D13*
X3242700Y-15663750D02*
G75*
G02*
X3112700Y-15663750I-65000J0D01*
G01*
X3112700Y-15663750D02*
G75*
G02*
X3242700Y-15663750I65000J0D01*
G01*
D11*
X3608239Y-15755234D02*
X3493953Y-15755234D01*
X3551096Y-15755234D02*
X3551096Y-15555234D01*
X3551096Y-15555234D02*
X3532048Y-15583805D01*
X3532048Y-15583805D02*
X3513001Y-15602853D01*
X3513001Y-15602853D02*
X3493953Y-15612377D01*
X3693953Y-15736186D02*
X3703477Y-15745710D01*
X3703477Y-15745710D02*
X3693953Y-15755234D01*
X3693953Y-15755234D02*
X3684429Y-15745710D01*
X3684429Y-15745710D02*
X3693953Y-15736186D01*
X3693953Y-15736186D02*
X3693953Y-15755234D01*
X3770143Y-15555234D02*
X3893953Y-15555234D01*
X3893953Y-15555234D02*
X3827286Y-15631424D01*
X3827286Y-15631424D02*
X3855858Y-15631424D01*
X3855858Y-15631424D02*
X3874905Y-15640948D01*
X3874905Y-15640948D02*
X3884429Y-15650472D01*
X3884429Y-15650472D02*
X3893953Y-15669519D01*
X3893953Y-15669519D02*
X3893953Y-15717138D01*
X3893953Y-15717138D02*
X3884429Y-15736186D01*
X3884429Y-15736186D02*
X3874905Y-15745710D01*
X3874905Y-15745710D02*
X3855858Y-15755234D01*
X3855858Y-15755234D02*
X3798715Y-15755234D01*
X3798715Y-15755234D02*
X3779667Y-15745710D01*
X3779667Y-15745710D02*
X3770143Y-15736186D01*
X4017762Y-15555234D02*
X4036810Y-15555234D01*
X4036810Y-15555234D02*
X4055858Y-15564758D01*
X4055858Y-15564758D02*
X4065382Y-15574281D01*
X4065382Y-15574281D02*
X4074905Y-15593329D01*
X4074905Y-15593329D02*
X4084429Y-15631424D01*
X4084429Y-15631424D02*
X4084429Y-15679043D01*
X4084429Y-15679043D02*
X4074905Y-15717138D01*
X4074905Y-15717138D02*
X4065382Y-15736186D01*
X4065382Y-15736186D02*
X4055858Y-15745710D01*
X4055858Y-15745710D02*
X4036810Y-15755234D01*
X4036810Y-15755234D02*
X4017762Y-15755234D01*
X4017762Y-15755234D02*
X3998715Y-15745710D01*
X3998715Y-15745710D02*
X3989191Y-15736186D01*
X3989191Y-15736186D02*
X3979667Y-15717138D01*
X3979667Y-15717138D02*
X3970143Y-15679043D01*
X3970143Y-15679043D02*
X3970143Y-15631424D01*
X3970143Y-15631424D02*
X3979667Y-15593329D01*
X3979667Y-15593329D02*
X3989191Y-15574281D01*
X3989191Y-15574281D02*
X3998715Y-15564758D01*
X3998715Y-15564758D02*
X4017762Y-15555234D01*
X4208239Y-15555234D02*
X4227286Y-15555234D01*
X4227286Y-15555234D02*
X4246334Y-15564758D01*
X4246334Y-15564758D02*
X4255858Y-15574281D01*
X4255858Y-15574281D02*
X4265382Y-15593329D01*
X4265382Y-15593329D02*
X4274905Y-15631424D01*
X4274905Y-15631424D02*
X4274905Y-15679043D01*
X4274905Y-15679043D02*
X4265382Y-15717138D01*
X4265382Y-15717138D02*
X4255858Y-15736186D01*
X4255858Y-15736186D02*
X4246334Y-15745710D01*
X4246334Y-15745710D02*
X4227286Y-15755234D01*
X4227286Y-15755234D02*
X4208239Y-15755234D01*
X4208239Y-15755234D02*
X4189191Y-15745710D01*
X4189191Y-15745710D02*
X4179667Y-15736186D01*
X4179667Y-15736186D02*
X4170143Y-15717138D01*
X4170143Y-15717138D02*
X4160620Y-15679043D01*
X4160620Y-15679043D02*
X4160620Y-15631424D01*
X4160620Y-15631424D02*
X4170143Y-15593329D01*
X4170143Y-15593329D02*
X4179667Y-15574281D01*
X4179667Y-15574281D02*
X4189191Y-15564758D01*
X4189191Y-15564758D02*
X4208239Y-15555234D01*
X4360620Y-15755234D02*
X4360620Y-15621900D01*
X4360620Y-15640948D02*
X4370144Y-15631424D01*
X4370144Y-15631424D02*
X4389191Y-15621900D01*
X4389191Y-15621900D02*
X4417763Y-15621900D01*
X4417763Y-15621900D02*
X4436810Y-15631424D01*
X4436810Y-15631424D02*
X4446334Y-15650472D01*
X4446334Y-15650472D02*
X4446334Y-15755234D01*
X4446334Y-15650472D02*
X4455858Y-15631424D01*
X4455858Y-15631424D02*
X4474905Y-15621900D01*
X4474905Y-15621900D02*
X4503477Y-15621900D01*
X4503477Y-15621900D02*
X4522525Y-15631424D01*
X4522525Y-15631424D02*
X4532048Y-15650472D01*
X4532048Y-15650472D02*
X4532048Y-15755234D01*
X4627286Y-15755234D02*
X4627286Y-15621900D01*
X4627286Y-15640948D02*
X4636810Y-15631424D01*
X4636810Y-15631424D02*
X4655858Y-15621900D01*
X4655858Y-15621900D02*
X4684429Y-15621900D01*
X4684429Y-15621900D02*
X4703477Y-15631424D01*
X4703477Y-15631424D02*
X4713001Y-15650472D01*
X4713001Y-15650472D02*
X4713001Y-15755234D01*
X4713001Y-15650472D02*
X4722525Y-15631424D01*
X4722525Y-15631424D02*
X4741572Y-15621900D01*
X4741572Y-15621900D02*
X4770144Y-15621900D01*
X4770144Y-15621900D02*
X4789191Y-15631424D01*
X4789191Y-15631424D02*
X4798715Y-15650472D01*
X4798715Y-15650472D02*
X4798715Y-15755234D01*
X5189191Y-15545710D02*
X5017763Y-15802853D01*
X5446334Y-15555234D02*
X5465382Y-15555234D01*
X5465382Y-15555234D02*
X5484429Y-15564758D01*
X5484429Y-15564758D02*
X5493953Y-15574281D01*
X5493953Y-15574281D02*
X5503477Y-15593329D01*
X5503477Y-15593329D02*
X5513001Y-15631424D01*
X5513001Y-15631424D02*
X5513001Y-15679043D01*
X5513001Y-15679043D02*
X5503477Y-15717138D01*
X5503477Y-15717138D02*
X5493953Y-15736186D01*
X5493953Y-15736186D02*
X5484429Y-15745710D01*
X5484429Y-15745710D02*
X5465382Y-15755234D01*
X5465382Y-15755234D02*
X5446334Y-15755234D01*
X5446334Y-15755234D02*
X5427287Y-15745710D01*
X5427287Y-15745710D02*
X5417763Y-15736186D01*
X5417763Y-15736186D02*
X5408239Y-15717138D01*
X5408239Y-15717138D02*
X5398715Y-15679043D01*
X5398715Y-15679043D02*
X5398715Y-15631424D01*
X5398715Y-15631424D02*
X5408239Y-15593329D01*
X5408239Y-15593329D02*
X5417763Y-15574281D01*
X5417763Y-15574281D02*
X5427287Y-15564758D01*
X5427287Y-15564758D02*
X5446334Y-15555234D01*
X5598715Y-15736186D02*
X5608239Y-15745710D01*
X5608239Y-15745710D02*
X5598715Y-15755234D01*
X5598715Y-15755234D02*
X5589191Y-15745710D01*
X5589191Y-15745710D02*
X5598715Y-15736186D01*
X5598715Y-15736186D02*
X5598715Y-15755234D01*
X5732048Y-15555234D02*
X5751096Y-15555234D01*
X5751096Y-15555234D02*
X5770144Y-15564758D01*
X5770144Y-15564758D02*
X5779667Y-15574281D01*
X5779667Y-15574281D02*
X5789191Y-15593329D01*
X5789191Y-15593329D02*
X5798715Y-15631424D01*
X5798715Y-15631424D02*
X5798715Y-15679043D01*
X5798715Y-15679043D02*
X5789191Y-15717138D01*
X5789191Y-15717138D02*
X5779667Y-15736186D01*
X5779667Y-15736186D02*
X5770144Y-15745710D01*
X5770144Y-15745710D02*
X5751096Y-15755234D01*
X5751096Y-15755234D02*
X5732048Y-15755234D01*
X5732048Y-15755234D02*
X5713001Y-15745710D01*
X5713001Y-15745710D02*
X5703477Y-15736186D01*
X5703477Y-15736186D02*
X5693953Y-15717138D01*
X5693953Y-15717138D02*
X5684429Y-15679043D01*
X5684429Y-15679043D02*
X5684429Y-15631424D01*
X5684429Y-15631424D02*
X5693953Y-15593329D01*
X5693953Y-15593329D02*
X5703477Y-15574281D01*
X5703477Y-15574281D02*
X5713001Y-15564758D01*
X5713001Y-15564758D02*
X5732048Y-15555234D01*
X5979667Y-15555234D02*
X5884429Y-15555234D01*
X5884429Y-15555234D02*
X5874906Y-15650472D01*
X5874906Y-15650472D02*
X5884429Y-15640948D01*
X5884429Y-15640948D02*
X5903477Y-15631424D01*
X5903477Y-15631424D02*
X5951096Y-15631424D01*
X5951096Y-15631424D02*
X5970144Y-15640948D01*
X5970144Y-15640948D02*
X5979667Y-15650472D01*
X5979667Y-15650472D02*
X5989191Y-15669519D01*
X5989191Y-15669519D02*
X5989191Y-15717138D01*
X5989191Y-15717138D02*
X5979667Y-15736186D01*
X5979667Y-15736186D02*
X5970144Y-15745710D01*
X5970144Y-15745710D02*
X5951096Y-15755234D01*
X5951096Y-15755234D02*
X5903477Y-15755234D01*
X5903477Y-15755234D02*
X5884429Y-15745710D01*
X5884429Y-15745710D02*
X5874906Y-15736186D01*
X6179667Y-15755234D02*
X6065382Y-15755234D01*
X6122525Y-15755234D02*
X6122525Y-15555234D01*
X6122525Y-15555234D02*
X6103477Y-15583805D01*
X6103477Y-15583805D02*
X6084429Y-15602853D01*
X6084429Y-15602853D02*
X6065382Y-15612377D01*
X6255858Y-15574281D02*
X6265382Y-15564758D01*
X6265382Y-15564758D02*
X6284429Y-15555234D01*
X6284429Y-15555234D02*
X6332048Y-15555234D01*
X6332048Y-15555234D02*
X6351096Y-15564758D01*
X6351096Y-15564758D02*
X6360620Y-15574281D01*
X6360620Y-15574281D02*
X6370144Y-15593329D01*
X6370144Y-15593329D02*
X6370144Y-15612377D01*
X6370144Y-15612377D02*
X6360620Y-15640948D01*
X6360620Y-15640948D02*
X6246334Y-15755234D01*
X6246334Y-15755234D02*
X6370144Y-15755234D01*
X6446334Y-15555234D02*
X6446334Y-15593329D01*
X6522525Y-15555234D02*
X6522525Y-15593329D01*
X6817763Y-15831424D02*
X6808239Y-15821900D01*
X6808239Y-15821900D02*
X6789191Y-15793329D01*
X6789191Y-15793329D02*
X6779668Y-15774281D01*
X6779668Y-15774281D02*
X6770144Y-15745710D01*
X6770144Y-15745710D02*
X6760620Y-15698091D01*
X6760620Y-15698091D02*
X6760620Y-15659996D01*
X6760620Y-15659996D02*
X6770144Y-15612377D01*
X6770144Y-15612377D02*
X6779668Y-15583805D01*
X6779668Y-15583805D02*
X6789191Y-15564758D01*
X6789191Y-15564758D02*
X6808239Y-15536186D01*
X6808239Y-15536186D02*
X6817763Y-15526662D01*
X6998715Y-15755234D02*
X6884429Y-15755234D01*
X6941572Y-15755234D02*
X6941572Y-15555234D01*
X6941572Y-15555234D02*
X6922525Y-15583805D01*
X6922525Y-15583805D02*
X6903477Y-15602853D01*
X6903477Y-15602853D02*
X6884429Y-15612377D01*
X7236810Y-15755234D02*
X7236810Y-15555234D01*
X7322525Y-15755234D02*
X7322525Y-15650472D01*
X7322525Y-15650472D02*
X7313001Y-15631424D01*
X7313001Y-15631424D02*
X7293953Y-15621900D01*
X7293953Y-15621900D02*
X7265382Y-15621900D01*
X7265382Y-15621900D02*
X7246334Y-15631424D01*
X7246334Y-15631424D02*
X7236810Y-15640948D01*
X7446334Y-15755234D02*
X7427287Y-15745710D01*
X7427287Y-15745710D02*
X7417763Y-15736186D01*
X7417763Y-15736186D02*
X7408239Y-15717138D01*
X7408239Y-15717138D02*
X7408239Y-15659996D01*
X7408239Y-15659996D02*
X7417763Y-15640948D01*
X7417763Y-15640948D02*
X7427287Y-15631424D01*
X7427287Y-15631424D02*
X7446334Y-15621900D01*
X7446334Y-15621900D02*
X7474906Y-15621900D01*
X7474906Y-15621900D02*
X7493953Y-15631424D01*
X7493953Y-15631424D02*
X7503477Y-15640948D01*
X7503477Y-15640948D02*
X7513001Y-15659996D01*
X7513001Y-15659996D02*
X7513001Y-15717138D01*
X7513001Y-15717138D02*
X7503477Y-15736186D01*
X7503477Y-15736186D02*
X7493953Y-15745710D01*
X7493953Y-15745710D02*
X7474906Y-15755234D01*
X7474906Y-15755234D02*
X7446334Y-15755234D01*
X7627287Y-15755234D02*
X7608239Y-15745710D01*
X7608239Y-15745710D02*
X7598715Y-15726662D01*
X7598715Y-15726662D02*
X7598715Y-15555234D01*
X7779668Y-15745710D02*
X7760620Y-15755234D01*
X7760620Y-15755234D02*
X7722525Y-15755234D01*
X7722525Y-15755234D02*
X7703477Y-15745710D01*
X7703477Y-15745710D02*
X7693953Y-15726662D01*
X7693953Y-15726662D02*
X7693953Y-15650472D01*
X7693953Y-15650472D02*
X7703477Y-15631424D01*
X7703477Y-15631424D02*
X7722525Y-15621900D01*
X7722525Y-15621900D02*
X7760620Y-15621900D01*
X7760620Y-15621900D02*
X7779668Y-15631424D01*
X7779668Y-15631424D02*
X7789191Y-15650472D01*
X7789191Y-15650472D02*
X7789191Y-15669519D01*
X7789191Y-15669519D02*
X7693953Y-15688567D01*
X7855858Y-15831424D02*
X7865382Y-15821900D01*
X7865382Y-15821900D02*
X7884430Y-15793329D01*
X7884430Y-15793329D02*
X7893953Y-15774281D01*
X7893953Y-15774281D02*
X7903477Y-15745710D01*
X7903477Y-15745710D02*
X7913001Y-15698091D01*
X7913001Y-15698091D02*
X7913001Y-15659996D01*
X7913001Y-15659996D02*
X7903477Y-15612377D01*
X7903477Y-15612377D02*
X7893953Y-15583805D01*
X7893953Y-15583805D02*
X7884430Y-15564758D01*
X7884430Y-15564758D02*
X7865382Y-15536186D01*
X7865382Y-15536186D02*
X7855858Y-15526662D01*
X8217763Y-15831424D02*
X8208239Y-15821900D01*
X8208239Y-15821900D02*
X8189191Y-15793329D01*
X8189191Y-15793329D02*
X8179668Y-15774281D01*
X8179668Y-15774281D02*
X8170144Y-15745710D01*
X8170144Y-15745710D02*
X8160620Y-15698091D01*
X8160620Y-15698091D02*
X8160620Y-15659996D01*
X8160620Y-15659996D02*
X8170144Y-15612377D01*
X8170144Y-15612377D02*
X8179668Y-15583805D01*
X8179668Y-15583805D02*
X8189191Y-15564758D01*
X8189191Y-15564758D02*
X8208239Y-15536186D01*
X8208239Y-15536186D02*
X8217763Y-15526662D01*
X8293953Y-15621900D02*
X8293953Y-15755234D01*
X8293953Y-15640948D02*
X8303477Y-15631424D01*
X8303477Y-15631424D02*
X8322525Y-15621900D01*
X8322525Y-15621900D02*
X8351096Y-15621900D01*
X8351096Y-15621900D02*
X8370144Y-15631424D01*
X8370144Y-15631424D02*
X8379668Y-15650472D01*
X8379668Y-15650472D02*
X8379668Y-15755234D01*
X8503477Y-15755234D02*
X8484430Y-15745710D01*
X8484430Y-15745710D02*
X8474906Y-15736186D01*
X8474906Y-15736186D02*
X8465382Y-15717138D01*
X8465382Y-15717138D02*
X8465382Y-15659996D01*
X8465382Y-15659996D02*
X8474906Y-15640948D01*
X8474906Y-15640948D02*
X8484430Y-15631424D01*
X8484430Y-15631424D02*
X8503477Y-15621900D01*
X8503477Y-15621900D02*
X8532049Y-15621900D01*
X8532049Y-15621900D02*
X8551096Y-15631424D01*
X8551096Y-15631424D02*
X8560620Y-15640948D01*
X8560620Y-15640948D02*
X8570144Y-15659996D01*
X8570144Y-15659996D02*
X8570144Y-15717138D01*
X8570144Y-15717138D02*
X8560620Y-15736186D01*
X8560620Y-15736186D02*
X8551096Y-15745710D01*
X8551096Y-15745710D02*
X8532049Y-15755234D01*
X8532049Y-15755234D02*
X8503477Y-15755234D01*
X8627287Y-15621900D02*
X8703477Y-15621900D01*
X8655858Y-15555234D02*
X8655858Y-15726662D01*
X8655858Y-15726662D02*
X8665382Y-15745710D01*
X8665382Y-15745710D02*
X8684430Y-15755234D01*
X8684430Y-15755234D02*
X8703477Y-15755234D01*
X8922525Y-15621900D02*
X8922525Y-15821900D01*
X8922525Y-15631424D02*
X8941573Y-15621900D01*
X8941573Y-15621900D02*
X8979668Y-15621900D01*
X8979668Y-15621900D02*
X8998715Y-15631424D01*
X8998715Y-15631424D02*
X9008239Y-15640948D01*
X9008239Y-15640948D02*
X9017763Y-15659996D01*
X9017763Y-15659996D02*
X9017763Y-15717138D01*
X9017763Y-15717138D02*
X9008239Y-15736186D01*
X9008239Y-15736186D02*
X8998715Y-15745710D01*
X8998715Y-15745710D02*
X8979668Y-15755234D01*
X8979668Y-15755234D02*
X8941573Y-15755234D01*
X8941573Y-15755234D02*
X8922525Y-15745710D01*
X9132049Y-15755234D02*
X9113001Y-15745710D01*
X9113001Y-15745710D02*
X9103477Y-15726662D01*
X9103477Y-15726662D02*
X9103477Y-15555234D01*
X9293954Y-15755234D02*
X9293954Y-15650472D01*
X9293954Y-15650472D02*
X9284430Y-15631424D01*
X9284430Y-15631424D02*
X9265382Y-15621900D01*
X9265382Y-15621900D02*
X9227287Y-15621900D01*
X9227287Y-15621900D02*
X9208239Y-15631424D01*
X9293954Y-15745710D02*
X9274906Y-15755234D01*
X9274906Y-15755234D02*
X9227287Y-15755234D01*
X9227287Y-15755234D02*
X9208239Y-15745710D01*
X9208239Y-15745710D02*
X9198715Y-15726662D01*
X9198715Y-15726662D02*
X9198715Y-15707615D01*
X9198715Y-15707615D02*
X9208239Y-15688567D01*
X9208239Y-15688567D02*
X9227287Y-15679043D01*
X9227287Y-15679043D02*
X9274906Y-15679043D01*
X9274906Y-15679043D02*
X9293954Y-15669519D01*
X9360620Y-15621900D02*
X9436811Y-15621900D01*
X9389192Y-15555234D02*
X9389192Y-15726662D01*
X9389192Y-15726662D02*
X9398715Y-15745710D01*
X9398715Y-15745710D02*
X9417763Y-15755234D01*
X9417763Y-15755234D02*
X9436811Y-15755234D01*
X9579668Y-15745710D02*
X9560620Y-15755234D01*
X9560620Y-15755234D02*
X9522525Y-15755234D01*
X9522525Y-15755234D02*
X9503477Y-15745710D01*
X9503477Y-15745710D02*
X9493954Y-15726662D01*
X9493954Y-15726662D02*
X9493954Y-15650472D01*
X9493954Y-15650472D02*
X9503477Y-15631424D01*
X9503477Y-15631424D02*
X9522525Y-15621900D01*
X9522525Y-15621900D02*
X9560620Y-15621900D01*
X9560620Y-15621900D02*
X9579668Y-15631424D01*
X9579668Y-15631424D02*
X9589192Y-15650472D01*
X9589192Y-15650472D02*
X9589192Y-15669519D01*
X9589192Y-15669519D02*
X9493954Y-15688567D01*
X9760620Y-15755234D02*
X9760620Y-15555234D01*
X9760620Y-15745710D02*
X9741573Y-15755234D01*
X9741573Y-15755234D02*
X9703477Y-15755234D01*
X9703477Y-15755234D02*
X9684430Y-15745710D01*
X9684430Y-15745710D02*
X9674906Y-15736186D01*
X9674906Y-15736186D02*
X9665382Y-15717138D01*
X9665382Y-15717138D02*
X9665382Y-15659996D01*
X9665382Y-15659996D02*
X9674906Y-15640948D01*
X9674906Y-15640948D02*
X9684430Y-15631424D01*
X9684430Y-15631424D02*
X9703477Y-15621900D01*
X9703477Y-15621900D02*
X9741573Y-15621900D01*
X9741573Y-15621900D02*
X9760620Y-15631424D01*
X9836811Y-15831424D02*
X9846335Y-15821900D01*
X9846335Y-15821900D02*
X9865382Y-15793329D01*
X9865382Y-15793329D02*
X9874906Y-15774281D01*
X9874906Y-15774281D02*
X9884430Y-15745710D01*
X9884430Y-15745710D02*
X9893954Y-15698091D01*
X9893954Y-15698091D02*
X9893954Y-15659996D01*
X9893954Y-15659996D02*
X9884430Y-15612377D01*
X9884430Y-15612377D02*
X9874906Y-15583805D01*
X9874906Y-15583805D02*
X9865382Y-15564758D01*
X9865382Y-15564758D02*
X9846335Y-15536186D01*
X9846335Y-15536186D02*
X9836811Y-15526662D01*
X3142700Y-15827750D02*
X3142700Y-16027750D01*
X3042700Y-15927750D02*
X3242700Y-15927750D01*
X3484429Y-15819234D02*
X3608239Y-15819234D01*
X3608239Y-15819234D02*
X3541572Y-15895424D01*
X3541572Y-15895424D02*
X3570143Y-15895424D01*
X3570143Y-15895424D02*
X3589191Y-15904948D01*
X3589191Y-15904948D02*
X3598715Y-15914472D01*
X3598715Y-15914472D02*
X3608239Y-15933519D01*
X3608239Y-15933519D02*
X3608239Y-15981138D01*
X3608239Y-15981138D02*
X3598715Y-16000186D01*
X3598715Y-16000186D02*
X3589191Y-16009710D01*
X3589191Y-16009710D02*
X3570143Y-16019234D01*
X3570143Y-16019234D02*
X3513001Y-16019234D01*
X3513001Y-16019234D02*
X3493953Y-16009710D01*
X3493953Y-16009710D02*
X3484429Y-16000186D01*
X3693953Y-16000186D02*
X3703477Y-16009710D01*
X3703477Y-16009710D02*
X3693953Y-16019234D01*
X3693953Y-16019234D02*
X3684429Y-16009710D01*
X3684429Y-16009710D02*
X3693953Y-16000186D01*
X3693953Y-16000186D02*
X3693953Y-16019234D01*
X3827286Y-15819234D02*
X3846334Y-15819234D01*
X3846334Y-15819234D02*
X3865382Y-15828758D01*
X3865382Y-15828758D02*
X3874905Y-15838281D01*
X3874905Y-15838281D02*
X3884429Y-15857329D01*
X3884429Y-15857329D02*
X3893953Y-15895424D01*
X3893953Y-15895424D02*
X3893953Y-15943043D01*
X3893953Y-15943043D02*
X3884429Y-15981138D01*
X3884429Y-15981138D02*
X3874905Y-16000186D01*
X3874905Y-16000186D02*
X3865382Y-16009710D01*
X3865382Y-16009710D02*
X3846334Y-16019234D01*
X3846334Y-16019234D02*
X3827286Y-16019234D01*
X3827286Y-16019234D02*
X3808239Y-16009710D01*
X3808239Y-16009710D02*
X3798715Y-16000186D01*
X3798715Y-16000186D02*
X3789191Y-15981138D01*
X3789191Y-15981138D02*
X3779667Y-15943043D01*
X3779667Y-15943043D02*
X3779667Y-15895424D01*
X3779667Y-15895424D02*
X3789191Y-15857329D01*
X3789191Y-15857329D02*
X3798715Y-15838281D01*
X3798715Y-15838281D02*
X3808239Y-15828758D01*
X3808239Y-15828758D02*
X3827286Y-15819234D01*
X4017762Y-15819234D02*
X4036810Y-15819234D01*
X4036810Y-15819234D02*
X4055858Y-15828758D01*
X4055858Y-15828758D02*
X4065382Y-15838281D01*
X4065382Y-15838281D02*
X4074905Y-15857329D01*
X4074905Y-15857329D02*
X4084429Y-15895424D01*
X4084429Y-15895424D02*
X4084429Y-15943043D01*
X4084429Y-15943043D02*
X4074905Y-15981138D01*
X4074905Y-15981138D02*
X4065382Y-16000186D01*
X4065382Y-16000186D02*
X4055858Y-16009710D01*
X4055858Y-16009710D02*
X4036810Y-16019234D01*
X4036810Y-16019234D02*
X4017762Y-16019234D01*
X4017762Y-16019234D02*
X3998715Y-16009710D01*
X3998715Y-16009710D02*
X3989191Y-16000186D01*
X3989191Y-16000186D02*
X3979667Y-15981138D01*
X3979667Y-15981138D02*
X3970143Y-15943043D01*
X3970143Y-15943043D02*
X3970143Y-15895424D01*
X3970143Y-15895424D02*
X3979667Y-15857329D01*
X3979667Y-15857329D02*
X3989191Y-15838281D01*
X3989191Y-15838281D02*
X3998715Y-15828758D01*
X3998715Y-15828758D02*
X4017762Y-15819234D01*
X4208239Y-15819234D02*
X4227286Y-15819234D01*
X4227286Y-15819234D02*
X4246334Y-15828758D01*
X4246334Y-15828758D02*
X4255858Y-15838281D01*
X4255858Y-15838281D02*
X4265382Y-15857329D01*
X4265382Y-15857329D02*
X4274905Y-15895424D01*
X4274905Y-15895424D02*
X4274905Y-15943043D01*
X4274905Y-15943043D02*
X4265382Y-15981138D01*
X4265382Y-15981138D02*
X4255858Y-16000186D01*
X4255858Y-16000186D02*
X4246334Y-16009710D01*
X4246334Y-16009710D02*
X4227286Y-16019234D01*
X4227286Y-16019234D02*
X4208239Y-16019234D01*
X4208239Y-16019234D02*
X4189191Y-16009710D01*
X4189191Y-16009710D02*
X4179667Y-16000186D01*
X4179667Y-16000186D02*
X4170143Y-15981138D01*
X4170143Y-15981138D02*
X4160620Y-15943043D01*
X4160620Y-15943043D02*
X4160620Y-15895424D01*
X4160620Y-15895424D02*
X4170143Y-15857329D01*
X4170143Y-15857329D02*
X4179667Y-15838281D01*
X4179667Y-15838281D02*
X4189191Y-15828758D01*
X4189191Y-15828758D02*
X4208239Y-15819234D01*
X4360620Y-16019234D02*
X4360620Y-15885900D01*
X4360620Y-15904948D02*
X4370144Y-15895424D01*
X4370144Y-15895424D02*
X4389191Y-15885900D01*
X4389191Y-15885900D02*
X4417763Y-15885900D01*
X4417763Y-15885900D02*
X4436810Y-15895424D01*
X4436810Y-15895424D02*
X4446334Y-15914472D01*
X4446334Y-15914472D02*
X4446334Y-16019234D01*
X4446334Y-15914472D02*
X4455858Y-15895424D01*
X4455858Y-15895424D02*
X4474905Y-15885900D01*
X4474905Y-15885900D02*
X4503477Y-15885900D01*
X4503477Y-15885900D02*
X4522525Y-15895424D01*
X4522525Y-15895424D02*
X4532048Y-15914472D01*
X4532048Y-15914472D02*
X4532048Y-16019234D01*
X4627286Y-16019234D02*
X4627286Y-15885900D01*
X4627286Y-15904948D02*
X4636810Y-15895424D01*
X4636810Y-15895424D02*
X4655858Y-15885900D01*
X4655858Y-15885900D02*
X4684429Y-15885900D01*
X4684429Y-15885900D02*
X4703477Y-15895424D01*
X4703477Y-15895424D02*
X4713001Y-15914472D01*
X4713001Y-15914472D02*
X4713001Y-16019234D01*
X4713001Y-15914472D02*
X4722525Y-15895424D01*
X4722525Y-15895424D02*
X4741572Y-15885900D01*
X4741572Y-15885900D02*
X4770144Y-15885900D01*
X4770144Y-15885900D02*
X4789191Y-15895424D01*
X4789191Y-15895424D02*
X4798715Y-15914472D01*
X4798715Y-15914472D02*
X4798715Y-16019234D01*
X5189191Y-15809710D02*
X5017763Y-16066853D01*
X5446334Y-15819234D02*
X5465382Y-15819234D01*
X5465382Y-15819234D02*
X5484429Y-15828758D01*
X5484429Y-15828758D02*
X5493953Y-15838281D01*
X5493953Y-15838281D02*
X5503477Y-15857329D01*
X5503477Y-15857329D02*
X5513001Y-15895424D01*
X5513001Y-15895424D02*
X5513001Y-15943043D01*
X5513001Y-15943043D02*
X5503477Y-15981138D01*
X5503477Y-15981138D02*
X5493953Y-16000186D01*
X5493953Y-16000186D02*
X5484429Y-16009710D01*
X5484429Y-16009710D02*
X5465382Y-16019234D01*
X5465382Y-16019234D02*
X5446334Y-16019234D01*
X5446334Y-16019234D02*
X5427287Y-16009710D01*
X5427287Y-16009710D02*
X5417763Y-16000186D01*
X5417763Y-16000186D02*
X5408239Y-15981138D01*
X5408239Y-15981138D02*
X5398715Y-15943043D01*
X5398715Y-15943043D02*
X5398715Y-15895424D01*
X5398715Y-15895424D02*
X5408239Y-15857329D01*
X5408239Y-15857329D02*
X5417763Y-15838281D01*
X5417763Y-15838281D02*
X5427287Y-15828758D01*
X5427287Y-15828758D02*
X5446334Y-15819234D01*
X5598715Y-16000186D02*
X5608239Y-16009710D01*
X5608239Y-16009710D02*
X5598715Y-16019234D01*
X5598715Y-16019234D02*
X5589191Y-16009710D01*
X5589191Y-16009710D02*
X5598715Y-16000186D01*
X5598715Y-16000186D02*
X5598715Y-16019234D01*
X5798715Y-16019234D02*
X5684429Y-16019234D01*
X5741572Y-16019234D02*
X5741572Y-15819234D01*
X5741572Y-15819234D02*
X5722525Y-15847805D01*
X5722525Y-15847805D02*
X5703477Y-15866853D01*
X5703477Y-15866853D02*
X5684429Y-15876377D01*
X5989191Y-16019234D02*
X5874906Y-16019234D01*
X5932048Y-16019234D02*
X5932048Y-15819234D01*
X5932048Y-15819234D02*
X5913001Y-15847805D01*
X5913001Y-15847805D02*
X5893953Y-15866853D01*
X5893953Y-15866853D02*
X5874906Y-15876377D01*
X6103477Y-15904948D02*
X6084429Y-15895424D01*
X6084429Y-15895424D02*
X6074906Y-15885900D01*
X6074906Y-15885900D02*
X6065382Y-15866853D01*
X6065382Y-15866853D02*
X6065382Y-15857329D01*
X6065382Y-15857329D02*
X6074906Y-15838281D01*
X6074906Y-15838281D02*
X6084429Y-15828758D01*
X6084429Y-15828758D02*
X6103477Y-15819234D01*
X6103477Y-15819234D02*
X6141572Y-15819234D01*
X6141572Y-15819234D02*
X6160620Y-15828758D01*
X6160620Y-15828758D02*
X6170144Y-15838281D01*
X6170144Y-15838281D02*
X6179667Y-15857329D01*
X6179667Y-15857329D02*
X6179667Y-15866853D01*
X6179667Y-15866853D02*
X6170144Y-15885900D01*
X6170144Y-15885900D02*
X6160620Y-15895424D01*
X6160620Y-15895424D02*
X6141572Y-15904948D01*
X6141572Y-15904948D02*
X6103477Y-15904948D01*
X6103477Y-15904948D02*
X6084429Y-15914472D01*
X6084429Y-15914472D02*
X6074906Y-15923996D01*
X6074906Y-15923996D02*
X6065382Y-15943043D01*
X6065382Y-15943043D02*
X6065382Y-15981138D01*
X6065382Y-15981138D02*
X6074906Y-16000186D01*
X6074906Y-16000186D02*
X6084429Y-16009710D01*
X6084429Y-16009710D02*
X6103477Y-16019234D01*
X6103477Y-16019234D02*
X6141572Y-16019234D01*
X6141572Y-16019234D02*
X6160620Y-16009710D01*
X6160620Y-16009710D02*
X6170144Y-16000186D01*
X6170144Y-16000186D02*
X6179667Y-15981138D01*
X6179667Y-15981138D02*
X6179667Y-15943043D01*
X6179667Y-15943043D02*
X6170144Y-15923996D01*
X6170144Y-15923996D02*
X6160620Y-15914472D01*
X6160620Y-15914472D02*
X6141572Y-15904948D01*
X6370144Y-16019234D02*
X6255858Y-16019234D01*
X6313001Y-16019234D02*
X6313001Y-15819234D01*
X6313001Y-15819234D02*
X6293953Y-15847805D01*
X6293953Y-15847805D02*
X6274906Y-15866853D01*
X6274906Y-15866853D02*
X6255858Y-15876377D01*
X6446334Y-15819234D02*
X6446334Y-15857329D01*
X6522525Y-15819234D02*
X6522525Y-15857329D01*
X6817763Y-16095424D02*
X6808239Y-16085900D01*
X6808239Y-16085900D02*
X6789191Y-16057329D01*
X6789191Y-16057329D02*
X6779668Y-16038281D01*
X6779668Y-16038281D02*
X6770144Y-16009710D01*
X6770144Y-16009710D02*
X6760620Y-15962091D01*
X6760620Y-15962091D02*
X6760620Y-15923996D01*
X6760620Y-15923996D02*
X6770144Y-15876377D01*
X6770144Y-15876377D02*
X6779668Y-15847805D01*
X6779668Y-15847805D02*
X6789191Y-15828758D01*
X6789191Y-15828758D02*
X6808239Y-15800186D01*
X6808239Y-15800186D02*
X6817763Y-15790662D01*
X6998715Y-16019234D02*
X6884429Y-16019234D01*
X6941572Y-16019234D02*
X6941572Y-15819234D01*
X6941572Y-15819234D02*
X6922525Y-15847805D01*
X6922525Y-15847805D02*
X6903477Y-15866853D01*
X6903477Y-15866853D02*
X6884429Y-15876377D01*
X7236810Y-16019234D02*
X7236810Y-15819234D01*
X7322525Y-16019234D02*
X7322525Y-15914472D01*
X7322525Y-15914472D02*
X7313001Y-15895424D01*
X7313001Y-15895424D02*
X7293953Y-15885900D01*
X7293953Y-15885900D02*
X7265382Y-15885900D01*
X7265382Y-15885900D02*
X7246334Y-15895424D01*
X7246334Y-15895424D02*
X7236810Y-15904948D01*
X7446334Y-16019234D02*
X7427287Y-16009710D01*
X7427287Y-16009710D02*
X7417763Y-16000186D01*
X7417763Y-16000186D02*
X7408239Y-15981138D01*
X7408239Y-15981138D02*
X7408239Y-15923996D01*
X7408239Y-15923996D02*
X7417763Y-15904948D01*
X7417763Y-15904948D02*
X7427287Y-15895424D01*
X7427287Y-15895424D02*
X7446334Y-15885900D01*
X7446334Y-15885900D02*
X7474906Y-15885900D01*
X7474906Y-15885900D02*
X7493953Y-15895424D01*
X7493953Y-15895424D02*
X7503477Y-15904948D01*
X7503477Y-15904948D02*
X7513001Y-15923996D01*
X7513001Y-15923996D02*
X7513001Y-15981138D01*
X7513001Y-15981138D02*
X7503477Y-16000186D01*
X7503477Y-16000186D02*
X7493953Y-16009710D01*
X7493953Y-16009710D02*
X7474906Y-16019234D01*
X7474906Y-16019234D02*
X7446334Y-16019234D01*
X7627287Y-16019234D02*
X7608239Y-16009710D01*
X7608239Y-16009710D02*
X7598715Y-15990662D01*
X7598715Y-15990662D02*
X7598715Y-15819234D01*
X7779668Y-16009710D02*
X7760620Y-16019234D01*
X7760620Y-16019234D02*
X7722525Y-16019234D01*
X7722525Y-16019234D02*
X7703477Y-16009710D01*
X7703477Y-16009710D02*
X7693953Y-15990662D01*
X7693953Y-15990662D02*
X7693953Y-15914472D01*
X7693953Y-15914472D02*
X7703477Y-15895424D01*
X7703477Y-15895424D02*
X7722525Y-15885900D01*
X7722525Y-15885900D02*
X7760620Y-15885900D01*
X7760620Y-15885900D02*
X7779668Y-15895424D01*
X7779668Y-15895424D02*
X7789191Y-15914472D01*
X7789191Y-15914472D02*
X7789191Y-15933519D01*
X7789191Y-15933519D02*
X7693953Y-15952567D01*
X7855858Y-16095424D02*
X7865382Y-16085900D01*
X7865382Y-16085900D02*
X7884430Y-16057329D01*
X7884430Y-16057329D02*
X7893953Y-16038281D01*
X7893953Y-16038281D02*
X7903477Y-16009710D01*
X7903477Y-16009710D02*
X7913001Y-15962091D01*
X7913001Y-15962091D02*
X7913001Y-15923996D01*
X7913001Y-15923996D02*
X7903477Y-15876377D01*
X7903477Y-15876377D02*
X7893953Y-15847805D01*
X7893953Y-15847805D02*
X7884430Y-15828758D01*
X7884430Y-15828758D02*
X7865382Y-15800186D01*
X7865382Y-15800186D02*
X7855858Y-15790662D01*
X8217763Y-16095424D02*
X8208239Y-16085900D01*
X8208239Y-16085900D02*
X8189191Y-16057329D01*
X8189191Y-16057329D02*
X8179668Y-16038281D01*
X8179668Y-16038281D02*
X8170144Y-16009710D01*
X8170144Y-16009710D02*
X8160620Y-15962091D01*
X8160620Y-15962091D02*
X8160620Y-15923996D01*
X8160620Y-15923996D02*
X8170144Y-15876377D01*
X8170144Y-15876377D02*
X8179668Y-15847805D01*
X8179668Y-15847805D02*
X8189191Y-15828758D01*
X8189191Y-15828758D02*
X8208239Y-15800186D01*
X8208239Y-15800186D02*
X8217763Y-15790662D01*
X8293953Y-15885900D02*
X8293953Y-16019234D01*
X8293953Y-15904948D02*
X8303477Y-15895424D01*
X8303477Y-15895424D02*
X8322525Y-15885900D01*
X8322525Y-15885900D02*
X8351096Y-15885900D01*
X8351096Y-15885900D02*
X8370144Y-15895424D01*
X8370144Y-15895424D02*
X8379668Y-15914472D01*
X8379668Y-15914472D02*
X8379668Y-16019234D01*
X8503477Y-16019234D02*
X8484430Y-16009710D01*
X8484430Y-16009710D02*
X8474906Y-16000186D01*
X8474906Y-16000186D02*
X8465382Y-15981138D01*
X8465382Y-15981138D02*
X8465382Y-15923996D01*
X8465382Y-15923996D02*
X8474906Y-15904948D01*
X8474906Y-15904948D02*
X8484430Y-15895424D01*
X8484430Y-15895424D02*
X8503477Y-15885900D01*
X8503477Y-15885900D02*
X8532049Y-15885900D01*
X8532049Y-15885900D02*
X8551096Y-15895424D01*
X8551096Y-15895424D02*
X8560620Y-15904948D01*
X8560620Y-15904948D02*
X8570144Y-15923996D01*
X8570144Y-15923996D02*
X8570144Y-15981138D01*
X8570144Y-15981138D02*
X8560620Y-16000186D01*
X8560620Y-16000186D02*
X8551096Y-16009710D01*
X8551096Y-16009710D02*
X8532049Y-16019234D01*
X8532049Y-16019234D02*
X8503477Y-16019234D01*
X8627287Y-15885900D02*
X8703477Y-15885900D01*
X8655858Y-15819234D02*
X8655858Y-15990662D01*
X8655858Y-15990662D02*
X8665382Y-16009710D01*
X8665382Y-16009710D02*
X8684430Y-16019234D01*
X8684430Y-16019234D02*
X8703477Y-16019234D01*
X8922525Y-15885900D02*
X8922525Y-16085900D01*
X8922525Y-15895424D02*
X8941573Y-15885900D01*
X8941573Y-15885900D02*
X8979668Y-15885900D01*
X8979668Y-15885900D02*
X8998715Y-15895424D01*
X8998715Y-15895424D02*
X9008239Y-15904948D01*
X9008239Y-15904948D02*
X9017763Y-15923996D01*
X9017763Y-15923996D02*
X9017763Y-15981138D01*
X9017763Y-15981138D02*
X9008239Y-16000186D01*
X9008239Y-16000186D02*
X8998715Y-16009710D01*
X8998715Y-16009710D02*
X8979668Y-16019234D01*
X8979668Y-16019234D02*
X8941573Y-16019234D01*
X8941573Y-16019234D02*
X8922525Y-16009710D01*
X9132049Y-16019234D02*
X9113001Y-16009710D01*
X9113001Y-16009710D02*
X9103477Y-15990662D01*
X9103477Y-15990662D02*
X9103477Y-15819234D01*
X9293954Y-16019234D02*
X9293954Y-15914472D01*
X9293954Y-15914472D02*
X9284430Y-15895424D01*
X9284430Y-15895424D02*
X9265382Y-15885900D01*
X9265382Y-15885900D02*
X9227287Y-15885900D01*
X9227287Y-15885900D02*
X9208239Y-15895424D01*
X9293954Y-16009710D02*
X9274906Y-16019234D01*
X9274906Y-16019234D02*
X9227287Y-16019234D01*
X9227287Y-16019234D02*
X9208239Y-16009710D01*
X9208239Y-16009710D02*
X9198715Y-15990662D01*
X9198715Y-15990662D02*
X9198715Y-15971615D01*
X9198715Y-15971615D02*
X9208239Y-15952567D01*
X9208239Y-15952567D02*
X9227287Y-15943043D01*
X9227287Y-15943043D02*
X9274906Y-15943043D01*
X9274906Y-15943043D02*
X9293954Y-15933519D01*
X9360620Y-15885900D02*
X9436811Y-15885900D01*
X9389192Y-15819234D02*
X9389192Y-15990662D01*
X9389192Y-15990662D02*
X9398715Y-16009710D01*
X9398715Y-16009710D02*
X9417763Y-16019234D01*
X9417763Y-16019234D02*
X9436811Y-16019234D01*
X9579668Y-16009710D02*
X9560620Y-16019234D01*
X9560620Y-16019234D02*
X9522525Y-16019234D01*
X9522525Y-16019234D02*
X9503477Y-16009710D01*
X9503477Y-16009710D02*
X9493954Y-15990662D01*
X9493954Y-15990662D02*
X9493954Y-15914472D01*
X9493954Y-15914472D02*
X9503477Y-15895424D01*
X9503477Y-15895424D02*
X9522525Y-15885900D01*
X9522525Y-15885900D02*
X9560620Y-15885900D01*
X9560620Y-15885900D02*
X9579668Y-15895424D01*
X9579668Y-15895424D02*
X9589192Y-15914472D01*
X9589192Y-15914472D02*
X9589192Y-15933519D01*
X9589192Y-15933519D02*
X9493954Y-15952567D01*
X9760620Y-16019234D02*
X9760620Y-15819234D01*
X9760620Y-16009710D02*
X9741573Y-16019234D01*
X9741573Y-16019234D02*
X9703477Y-16019234D01*
X9703477Y-16019234D02*
X9684430Y-16009710D01*
X9684430Y-16009710D02*
X9674906Y-16000186D01*
X9674906Y-16000186D02*
X9665382Y-15981138D01*
X9665382Y-15981138D02*
X9665382Y-15923996D01*
X9665382Y-15923996D02*
X9674906Y-15904948D01*
X9674906Y-15904948D02*
X9684430Y-15895424D01*
X9684430Y-15895424D02*
X9703477Y-15885900D01*
X9703477Y-15885900D02*
X9741573Y-15885900D01*
X9741573Y-15885900D02*
X9760620Y-15895424D01*
X9836811Y-16095424D02*
X9846335Y-16085900D01*
X9846335Y-16085900D02*
X9865382Y-16057329D01*
X9865382Y-16057329D02*
X9874906Y-16038281D01*
X9874906Y-16038281D02*
X9884430Y-16009710D01*
X9884430Y-16009710D02*
X9893954Y-15962091D01*
X9893954Y-15962091D02*
X9893954Y-15923996D01*
X9893954Y-15923996D02*
X9884430Y-15876377D01*
X9884430Y-15876377D02*
X9874906Y-15847805D01*
X9874906Y-15847805D02*
X9865382Y-15828758D01*
X9865382Y-15828758D02*
X9846335Y-15800186D01*
X9846335Y-15800186D02*
X9836811Y-15790662D01*
M02*
