G04 #@! TF.GenerationSoftware,KiCad,Pcbnew,8.0.0-8.0.0-1~ubuntu22.04.1*
G04 #@! TF.CreationDate,2024-03-02T20:24:16+07:00*
G04 #@! TF.ProjectId,kh-gift-hw,6b682d67-6966-4742-9d68-772e6b696361,rev?*
G04 #@! TF.SameCoordinates,Original*
G04 #@! TF.FileFunction,Legend,Bot*
G04 #@! TF.FilePolarity,Positive*
%FSLAX46Y46*%
G04 Gerber Fmt 4.6, Leading zero omitted, Abs format (unit mm)*
G04 Created by KiCad (PCBNEW 8.0.0-8.0.0-1~ubuntu22.04.1) date 2024-03-02 20:24:16*
%MOMM*%
%LPD*%
G01*
G04 APERTURE LIST*
G04 Aperture macros list*
%AMRoundRect*
0 Rectangle with rounded corners*
0 $1 Rounding radius*
0 $2 $3 $4 $5 $6 $7 $8 $9 X,Y pos of 4 corners*
0 Add a 4 corners polygon primitive as box body*
4,1,4,$2,$3,$4,$5,$6,$7,$8,$9,$2,$3,0*
0 Add four circle primitives for the rounded corners*
1,1,$1+$1,$2,$3*
1,1,$1+$1,$4,$5*
1,1,$1+$1,$6,$7*
1,1,$1+$1,$8,$9*
0 Add four rect primitives between the rounded corners*
20,1,$1+$1,$2,$3,$4,$5,0*
20,1,$1+$1,$4,$5,$6,$7,0*
20,1,$1+$1,$6,$7,$8,$9,0*
20,1,$1+$1,$8,$9,$2,$3,0*%
G04 Aperture macros list end*
%ADD10C,1.000000*%
%ADD11RoundRect,0.250000X0.600000X0.750000X-0.600000X0.750000X-0.600000X-0.750000X0.600000X-0.750000X0*%
%ADD12O,1.700000X2.000000*%
%ADD13C,1.000000*%
%ADD14C,1.300000*%
%ADD15R,1.700000X1.700000*%
%ADD16C,1.524000*%
%ADD17O,1.700000X1.700000*%
%ADD18RoundRect,0.250000X0.750000X-0.600000X0.750000X0.600000X-0.750000X0.600000X-0.750000X-0.600000X0*%
%ADD19O,2.000000X1.700000*%
%ADD20C,0.800000*%
%ADD21C,3.000000*%
%ADD22R,1.500000X1.500000*%
%ADD23C,1.500000*%
%ADD24RoundRect,0.250000X0.600000X0.725000X-0.600000X0.725000X-0.600000X-0.725000X0.600000X-0.725000X0*%
%ADD25O,1.700000X1.950000*%
%ADD26RoundRect,0.250000X0.725000X-0.600000X0.725000X0.600000X-0.725000X0.600000X-0.725000X-0.600000X0*%
%ADD27O,1.950000X1.700000*%
G04 APERTURE END LIST*
D10*
X37487000Y-95497500D02*
G75*
G02*
X33487000Y-95497500I-2000000J0D01*
G01*
X33487000Y-95497500D02*
G75*
G02*
X37487000Y-95497500I2000000J0D01*
G01*
X37487000Y-144537500D02*
G75*
G02*
X33487000Y-144537500I-2000000J0D01*
G01*
X33487000Y-144537500D02*
G75*
G02*
X37487000Y-144537500I2000000J0D01*
G01*
X120787000Y-95497500D02*
G75*
G02*
X116787000Y-95497500I-2000000J0D01*
G01*
X116787000Y-95497500D02*
G75*
G02*
X120787000Y-95497500I2000000J0D01*
G01*
X120787000Y-144537500D02*
G75*
G02*
X116787000Y-144537500I-2000000J0D01*
G01*
X116787000Y-144537500D02*
G75*
G02*
X120787000Y-144537500I2000000J0D01*
G01*
%LPC*%
D11*
X111767000Y-140125000D03*
D12*
X109267000Y-140125000D03*
D13*
X50797000Y-116987500D03*
D14*
X50797000Y-109487500D03*
D15*
X119787000Y-136527500D03*
D16*
X119787000Y-133987500D03*
X119787000Y-131447500D03*
X119787000Y-128907500D03*
X119787000Y-126367500D03*
X119787000Y-123827500D03*
X119787000Y-121287500D03*
X119787000Y-118747500D03*
X119787000Y-116207500D03*
X119787000Y-113667500D03*
X119787000Y-111127500D03*
X119787000Y-108587500D03*
X119787000Y-106047500D03*
X119787000Y-103507500D03*
D15*
X35467000Y-123797500D03*
D17*
X35467000Y-121257500D03*
X35467000Y-118717500D03*
X35467000Y-116177500D03*
D18*
X39869500Y-108787500D03*
D19*
X39869500Y-106287500D03*
D11*
X91592000Y-140087500D03*
D12*
X89092000Y-140087500D03*
D20*
X75992000Y-105007500D03*
X75992000Y-106007500D03*
X75992000Y-107007500D03*
X75992000Y-108007500D03*
X75992000Y-109007500D03*
X76992000Y-105007500D03*
X76992000Y-106007500D03*
X76992000Y-107007500D03*
X76992000Y-108007500D03*
X76992000Y-109007500D03*
X77992000Y-105007500D03*
X77992000Y-106007500D03*
X77992000Y-107007500D03*
X77992000Y-108007500D03*
X77992000Y-109007500D03*
X78992000Y-105007500D03*
X78992000Y-106007500D03*
X78992000Y-107007500D03*
X78992000Y-108007500D03*
X78992000Y-109007500D03*
X79992000Y-105007500D03*
X79992000Y-106007500D03*
X79992000Y-107007500D03*
X79992000Y-108007500D03*
X79992000Y-109007500D03*
D21*
X105385000Y-119048800D03*
D22*
X109195000Y-93748800D03*
D23*
X106655000Y-93748800D03*
X104115000Y-93748800D03*
X101575000Y-93748800D03*
D24*
X102737000Y-140115000D03*
D25*
X100237000Y-140115000D03*
X97737000Y-140115000D03*
D26*
X39779500Y-137517500D03*
D27*
X39779500Y-135017500D03*
X39779500Y-132517500D03*
X39779500Y-130017500D03*
D11*
X82767000Y-140087500D03*
D12*
X80267000Y-140087500D03*
%LPD*%
M02*
