G04 #@! TF.GenerationSoftware,KiCad,Pcbnew,8.0.3-8.0.3-0~ubuntu22.04.1*
G04 #@! TF.CreationDate,2024-07-11T21:40:33+07:00*
G04 #@! TF.ProjectId,kh-gift-hw,6b682d67-6966-4742-9d68-772e6b696361,rev?*
G04 #@! TF.SameCoordinates,Original*
G04 #@! TF.FileFunction,Soldermask,Top*
G04 #@! TF.FilePolarity,Negative*
%FSLAX46Y46*%
G04 Gerber Fmt 4.6, Leading zero omitted, Abs format (unit mm)*
G04 Created by KiCad (PCBNEW 8.0.3-8.0.3-0~ubuntu22.04.1) date 2024-07-11 21:40:33*
%MOMM*%
%LPD*%
G01*
G04 APERTURE LIST*
G04 Aperture macros list*
%AMRoundRect*
0 Rectangle with rounded corners*
0 $1 Rounding radius*
0 $2 $3 $4 $5 $6 $7 $8 $9 X,Y pos of 4 corners*
0 Add a 4 corners polygon primitive as box body*
4,1,4,$2,$3,$4,$5,$6,$7,$8,$9,$2,$3,0*
0 Add four circle primitives for the rounded corners*
1,1,$1+$1,$2,$3*
1,1,$1+$1,$4,$5*
1,1,$1+$1,$6,$7*
1,1,$1+$1,$8,$9*
0 Add four rect primitives between the rounded corners*
20,1,$1+$1,$2,$3,$4,$5,0*
20,1,$1+$1,$4,$5,$6,$7,0*
20,1,$1+$1,$6,$7,$8,$9,0*
20,1,$1+$1,$8,$9,$2,$3,0*%
G04 Aperture macros list end*
%ADD10RoundRect,0.150000X0.150000X-0.825000X0.150000X0.825000X-0.150000X0.825000X-0.150000X-0.825000X0*%
%ADD11RoundRect,0.062500X-0.062500X0.337500X-0.062500X-0.337500X0.062500X-0.337500X0.062500X0.337500X0*%
%ADD12RoundRect,0.062500X-0.337500X0.062500X-0.337500X-0.062500X0.337500X-0.062500X0.337500X0.062500X0*%
%ADD13R,3.350000X3.350000*%
%ADD14RoundRect,0.200000X-0.200000X-0.275000X0.200000X-0.275000X0.200000X0.275000X-0.200000X0.275000X0*%
%ADD15RoundRect,0.150000X-0.587500X-0.150000X0.587500X-0.150000X0.587500X0.150000X-0.587500X0.150000X0*%
%ADD16RoundRect,0.250000X0.600000X0.750000X-0.600000X0.750000X-0.600000X-0.750000X0.600000X-0.750000X0*%
%ADD17O,1.700000X2.000000*%
%ADD18RoundRect,0.150000X-0.150000X0.512500X-0.150000X-0.512500X0.150000X-0.512500X0.150000X0.512500X0*%
%ADD19RoundRect,0.225000X0.250000X-0.225000X0.250000X0.225000X-0.250000X0.225000X-0.250000X-0.225000X0*%
%ADD20RoundRect,0.200000X0.275000X-0.200000X0.275000X0.200000X-0.275000X0.200000X-0.275000X-0.200000X0*%
%ADD21RoundRect,0.250000X-0.650000X1.000000X-0.650000X-1.000000X0.650000X-1.000000X0.650000X1.000000X0*%
%ADD22RoundRect,0.200000X-0.275000X0.200000X-0.275000X-0.200000X0.275000X-0.200000X0.275000X0.200000X0*%
%ADD23R,1.300000X1.550000*%
%ADD24RoundRect,0.225000X0.225000X0.250000X-0.225000X0.250000X-0.225000X-0.250000X0.225000X-0.250000X0*%
%ADD25RoundRect,0.237500X0.237500X-0.287500X0.237500X0.287500X-0.237500X0.287500X-0.237500X-0.287500X0*%
%ADD26RoundRect,0.200000X0.200000X0.275000X-0.200000X0.275000X-0.200000X-0.275000X0.200000X-0.275000X0*%
%ADD27RoundRect,0.250000X1.100000X-0.325000X1.100000X0.325000X-1.100000X0.325000X-1.100000X-0.325000X0*%
%ADD28C,1.000000*%
%ADD29C,1.300000*%
%ADD30R,2.600000X3.540000*%
%ADD31R,2.600000X3.660000*%
%ADD32R,2.000000X1.500000*%
%ADD33R,2.000000X3.800000*%
%ADD34RoundRect,0.250000X0.325000X1.100000X-0.325000X1.100000X-0.325000X-1.100000X0.325000X-1.100000X0*%
%ADD35RoundRect,0.250000X-1.100000X0.325000X-1.100000X-0.325000X1.100000X-0.325000X1.100000X0.325000X0*%
%ADD36R,1.700000X1.700000*%
%ADD37C,1.524000*%
%ADD38O,1.700000X1.700000*%
%ADD39RoundRect,0.250000X0.750000X-0.600000X0.750000X0.600000X-0.750000X0.600000X-0.750000X-0.600000X0*%
%ADD40O,2.000000X1.700000*%
%ADD41RoundRect,0.056280X-1.030720X-0.345720X1.030720X-0.345720X1.030720X0.345720X-1.030720X0.345720X0*%
%ADD42RoundRect,0.102000X-1.206500X-1.651000X1.206500X-1.651000X1.206500X1.651000X-1.206500X1.651000X0*%
%ADD43RoundRect,0.237500X0.287500X0.237500X-0.287500X0.237500X-0.287500X-0.237500X0.287500X-0.237500X0*%
%ADD44O,3.000000X0.900000*%
%ADD45C,0.800000*%
%ADD46R,5.000000X5.000000*%
%ADD47C,3.000000*%
%ADD48R,1.500000X1.500000*%
%ADD49C,1.500000*%
%ADD50RoundRect,0.250000X0.600000X0.725000X-0.600000X0.725000X-0.600000X-0.725000X0.600000X-0.725000X0*%
%ADD51O,1.700000X1.950000*%
%ADD52RoundRect,0.150000X-0.150000X0.587500X-0.150000X-0.587500X0.150000X-0.587500X0.150000X0.587500X0*%
%ADD53RoundRect,0.250000X-0.325000X-1.100000X0.325000X-1.100000X0.325000X1.100000X-0.325000X1.100000X0*%
%ADD54R,2.195000X2.195000*%
%ADD55RoundRect,0.225000X-0.225000X-0.250000X0.225000X-0.250000X0.225000X0.250000X-0.225000X0.250000X0*%
%ADD56RoundRect,0.250000X0.725000X-0.600000X0.725000X0.600000X-0.725000X0.600000X-0.725000X-0.600000X0*%
%ADD57O,1.950000X1.700000*%
%ADD58R,1.800000X1.000000*%
%ADD59R,4.700000X1.180000*%
%ADD60RoundRect,0.150000X0.512500X0.150000X-0.512500X0.150000X-0.512500X-0.150000X0.512500X-0.150000X0*%
%ADD61RoundRect,0.237500X-0.237500X0.287500X-0.237500X-0.287500X0.237500X-0.287500X0.237500X0.287500X0*%
G04 APERTURE END LIST*
D10*
X57142000Y-101972500D03*
X58412000Y-101972500D03*
X59682000Y-101972500D03*
X60952000Y-101972500D03*
X60952000Y-97022500D03*
X59682000Y-97022500D03*
X58412000Y-97022500D03*
X57142000Y-97022500D03*
D11*
X49171200Y-126446700D03*
X48671200Y-126446700D03*
X48171200Y-126446700D03*
X47671200Y-126446700D03*
X47171200Y-126446700D03*
X46671200Y-126446700D03*
X46171200Y-126446700D03*
D12*
X45221200Y-127396700D03*
X45221200Y-127896700D03*
X45221200Y-128396700D03*
X45221200Y-128896700D03*
X45221200Y-129396700D03*
X45221200Y-129896700D03*
X45221200Y-130396700D03*
D11*
X46171200Y-131346700D03*
X46671200Y-131346700D03*
X47171200Y-131346700D03*
X47671200Y-131346700D03*
X48171200Y-131346700D03*
X48671200Y-131346700D03*
X49171200Y-131346700D03*
D12*
X50121200Y-130396700D03*
X50121200Y-129896700D03*
X50121200Y-129396700D03*
X50121200Y-128896700D03*
X50121200Y-128396700D03*
X50121200Y-127896700D03*
X50121200Y-127396700D03*
D13*
X47671200Y-128896700D03*
D14*
X53261200Y-129676700D03*
X54911200Y-129676700D03*
D15*
X51542000Y-135222500D03*
X51542000Y-137122500D03*
X53417000Y-136172500D03*
D16*
X111767000Y-140125000D03*
D17*
X109267000Y-140125000D03*
D18*
X70492000Y-143310000D03*
X69542000Y-143310000D03*
X68592000Y-143310000D03*
X68592000Y-145585000D03*
X69542000Y-145585000D03*
X70492000Y-145585000D03*
D15*
X56807000Y-124752700D03*
X56807000Y-126652700D03*
X58682000Y-125702700D03*
D19*
X46871200Y-124041700D03*
X46871200Y-122491700D03*
D14*
X53236200Y-126666700D03*
X54886200Y-126666700D03*
D20*
X73567000Y-146472500D03*
X73567000Y-144822500D03*
D21*
X59717000Y-136897500D03*
X59717000Y-140897500D03*
D14*
X53286200Y-131226700D03*
X54936200Y-131226700D03*
D22*
X57192000Y-140147500D03*
X57192000Y-141797500D03*
X59947000Y-93397500D03*
X59947000Y-95047500D03*
D23*
X44987000Y-93732500D03*
X44987000Y-101682500D03*
X40487000Y-93732500D03*
X40487000Y-101682500D03*
D19*
X46677000Y-146412500D03*
X46677000Y-144862500D03*
D22*
X58422000Y-93422500D03*
X58422000Y-95072500D03*
D24*
X63299800Y-108833900D03*
X61749800Y-108833900D03*
D25*
X55651800Y-138547500D03*
X55651800Y-136797500D03*
D26*
X45123000Y-136869500D03*
X43473000Y-136869500D03*
D27*
X56542000Y-146272500D03*
X56542000Y-143322500D03*
D24*
X63267000Y-110977500D03*
X61717000Y-110977500D03*
D28*
X50797000Y-116987500D03*
D29*
X50797000Y-109487500D03*
D30*
X50797000Y-105257500D03*
D31*
X50797000Y-121057500D03*
D32*
X66192000Y-134822500D03*
X66192000Y-137122500D03*
D33*
X72492000Y-137122500D03*
D32*
X66192000Y-139422500D03*
D34*
X66474000Y-98312300D03*
X63524000Y-98312300D03*
D27*
X44312000Y-146522500D03*
X44312000Y-143572500D03*
D14*
X61684800Y-107303900D03*
X63334800Y-107303900D03*
D15*
X56809500Y-131262700D03*
X56809500Y-133162700D03*
X58684500Y-132212700D03*
D35*
X44242000Y-138597500D03*
X44242000Y-141547500D03*
D22*
X45321200Y-122446700D03*
X45321200Y-124096700D03*
D36*
X119787000Y-136527500D03*
D37*
X119787000Y-133987500D03*
X119787000Y-131447500D03*
X119787000Y-128907500D03*
X119787000Y-126367500D03*
X119787000Y-123827500D03*
X119787000Y-121287500D03*
X119787000Y-118747500D03*
X119787000Y-116207500D03*
X119787000Y-113667500D03*
X119787000Y-111127500D03*
X119787000Y-108587500D03*
X119787000Y-106047500D03*
X119787000Y-103507500D03*
D36*
X35467000Y-123797500D03*
D38*
X35467000Y-121257500D03*
X35467000Y-118717500D03*
X35467000Y-116177500D03*
D39*
X39869500Y-108787500D03*
D40*
X39869500Y-106287500D03*
D26*
X103644000Y-127510500D03*
X101994000Y-127510500D03*
D16*
X91592000Y-140087500D03*
D17*
X89092000Y-140087500D03*
D41*
X48717000Y-142387500D03*
X48717000Y-143657500D03*
X48717000Y-144927500D03*
X48717000Y-146197500D03*
X53667000Y-146197500D03*
X53667000Y-144927500D03*
X53667000Y-143657500D03*
X53667000Y-142387500D03*
D42*
X51192000Y-144292500D03*
D19*
X48371200Y-124041700D03*
X48371200Y-122491700D03*
D15*
X51542000Y-138722500D03*
X51542000Y-140622500D03*
X53417000Y-139672500D03*
D43*
X58364500Y-129722700D03*
X56614500Y-129722700D03*
D19*
X56897000Y-95022500D03*
X56897000Y-93472500D03*
D22*
X72042000Y-144822500D03*
X72042000Y-146472500D03*
D14*
X47717000Y-136249500D03*
X49367000Y-136249500D03*
D44*
X69392000Y-100097500D03*
X69392000Y-101367500D03*
X69392000Y-102637500D03*
X69392000Y-103907500D03*
X69392000Y-105177500D03*
X69392000Y-106447500D03*
X69392000Y-107717500D03*
X69392000Y-108987500D03*
X69392000Y-110257500D03*
X69392000Y-111527500D03*
X69392000Y-112797500D03*
X69392000Y-114067500D03*
X69392000Y-115337500D03*
X69392000Y-116607500D03*
X69392000Y-117907500D03*
X69392000Y-119177500D03*
X69392000Y-120447500D03*
X69392000Y-121717500D03*
X69392000Y-122987500D03*
X87392000Y-122987500D03*
X87392000Y-121717500D03*
X87392000Y-120447500D03*
X87392000Y-119177500D03*
X87392000Y-117907500D03*
X87422000Y-116607500D03*
X87422000Y-115337500D03*
X87422000Y-114067500D03*
X87422000Y-112797500D03*
X87422000Y-111527500D03*
X87422000Y-110257500D03*
X87422000Y-108987500D03*
X87422000Y-107717500D03*
X87422000Y-106447500D03*
X87422000Y-105177500D03*
X87422000Y-103907500D03*
X87422000Y-102637500D03*
X87422000Y-101367500D03*
X87422000Y-100097500D03*
D45*
X75992000Y-105007500D03*
X75992000Y-106007500D03*
X75992000Y-107007500D03*
X75992000Y-108007500D03*
X75992000Y-109007500D03*
X76992000Y-105007500D03*
X76992000Y-106007500D03*
X76992000Y-107007500D03*
X76992000Y-108007500D03*
X76992000Y-109007500D03*
D46*
X77982000Y-107027500D03*
D45*
X77992000Y-105007500D03*
X77992000Y-106007500D03*
X77992000Y-107007500D03*
X77992000Y-108007500D03*
X77992000Y-109007500D03*
X78992000Y-105007500D03*
X78992000Y-106007500D03*
X78992000Y-107007500D03*
X78992000Y-108007500D03*
X78992000Y-109007500D03*
X79992000Y-105007500D03*
X79992000Y-106007500D03*
X79992000Y-107007500D03*
X79992000Y-108007500D03*
X79992000Y-109007500D03*
D47*
X105385000Y-119048800D03*
D48*
X109195000Y-93748800D03*
D49*
X106655000Y-93748800D03*
X104115000Y-93748800D03*
X101575000Y-93748800D03*
D50*
X102737000Y-140115000D03*
D51*
X100237000Y-140115000D03*
X97737000Y-140115000D03*
D14*
X101994000Y-132970500D03*
X103644000Y-132970500D03*
D25*
X57175800Y-138547500D03*
X57175800Y-136797500D03*
D34*
X66474000Y-95010300D03*
X63524000Y-95010300D03*
D23*
X52467000Y-93712500D03*
X52467000Y-101662500D03*
X47967000Y-93712500D03*
X47967000Y-101662500D03*
D27*
X63217000Y-140097500D03*
X63217000Y-137147500D03*
D22*
X76227000Y-138112500D03*
X76227000Y-139762500D03*
D27*
X95479000Y-96536100D03*
X95479000Y-93586100D03*
D14*
X61684800Y-114009500D03*
X63334800Y-114009500D03*
D22*
X55667000Y-140147500D03*
X55667000Y-141797500D03*
D52*
X103714000Y-129295500D03*
X101814000Y-129295500D03*
X102764000Y-131170500D03*
D53*
X72217000Y-142397500D03*
X75167000Y-142397500D03*
D54*
X106124000Y-126630500D03*
X106124000Y-134030500D03*
X113524000Y-134030500D03*
D27*
X59767000Y-146272500D03*
X59767000Y-143322500D03*
D55*
X59499600Y-104001900D03*
X61049600Y-104001900D03*
D22*
X46677000Y-141832500D03*
X46677000Y-143482500D03*
D14*
X61672000Y-112487500D03*
X63322000Y-112487500D03*
D43*
X58367000Y-128182700D03*
X56617000Y-128182700D03*
D56*
X39779500Y-137517500D03*
D57*
X39779500Y-135017500D03*
X39779500Y-132517500D03*
X39779500Y-130017500D03*
D26*
X63334800Y-115533500D03*
X61684800Y-115533500D03*
D58*
X55065000Y-102387500D03*
X55065000Y-99887500D03*
D14*
X53241200Y-128176700D03*
X54891200Y-128176700D03*
D16*
X82767000Y-140087500D03*
D17*
X80267000Y-140087500D03*
D59*
X64667000Y-145757500D03*
X64667000Y-142447500D03*
D60*
X49142000Y-139724500D03*
X49142000Y-138774500D03*
X49142000Y-137824500D03*
X46867000Y-137824500D03*
X46867000Y-138774500D03*
X46867000Y-139724500D03*
D61*
X74677000Y-138057500D03*
X74677000Y-139807500D03*
M02*
