M48
; DRILL file {KiCad 8.0.0-8.0.0-1~ubuntu22.04.1} date 2024-03-02T20:26:06+0700
; FORMAT={-:-/ absolute / metric / decimal}
; #@! TF.CreationDate,2024-03-02T20:26:06+07:00
; #@! TF.GenerationSoftware,Kicad,Pcbnew,8.0.0-8.0.0-1~ubuntu22.04.1
; #@! TF.FileFunction,Plated,1,2,PTH
FMAT,2
METRIC
; #@! TA.AperFunction,Plated,PTH,ViaDrill
T1C0.300
; #@! TA.AperFunction,Plated,PTH,ComponentDrill
T2C0.400
; #@! TA.AperFunction,Plated,PTH,ComponentDrill
T3C0.762
; #@! TA.AperFunction,Plated,PTH,ComponentDrill
T4C0.800
; #@! TA.AperFunction,Plated,PTH,ComponentDrill
T5C0.950
; #@! TA.AperFunction,Plated,PTH,ComponentDrill
T6C1.000
%
G90
G05
T1
X34.392Y-101.817
X34.392Y-103.722
X34.392Y-131.662
X34.392Y-133.567
X34.392Y-135.472
X36.297Y-101.817
X36.297Y-103.722
X36.297Y-131.662
X36.297Y-133.567
X36.297Y-135.472
X39.294Y-93.181
X39.294Y-94.248
X39.294Y-101.157
X39.294Y-102.173
X42.698Y-143.575
X42.698Y-144.388
X43.409Y-135.193
X43.409Y-135.803
X43.409Y-136.362
X43.561Y-143.575
X43.561Y-144.439
X44.425Y-143.575
X44.425Y-144.439
X45.187Y-112.612
X45.187Y-114.517
X45.187Y-116.422
X45.339Y-143.575
X45.339Y-144.439
X46.457Y-132.933
X46.457Y-134.202
X46.609Y-127.929
X46.609Y-128.894
X46.609Y-129.961
X46.66Y-101.157
X46.66Y-102.072
X46.762Y-93.232
X46.762Y-94.248
X46.871Y-125.312
X47.092Y-112.612
X47.092Y-114.517
X47.092Y-116.422
X47.625Y-129.961
X47.671Y-128.897
X47.676Y-127.929
X47.727Y-125.312
X47.727Y-132.933
X47.727Y-134.202
X47.829Y-120.461
X47.829Y-121.325
X47.981Y-146.775
X48.362Y-96.102
X48.362Y-98.007
X48.591Y-146.775
X48.692Y-127.929
X48.692Y-128.894
X48.692Y-129.961
X48.743Y-120.461
X48.743Y-121.325
X48.845Y-135.193
X48.997Y-112.612
X48.997Y-114.517
X48.997Y-116.422
X49.657Y-134.38
X49.657Y-135.193
X50.267Y-96.102
X50.267Y-98.007
X50.267Y-125.312
X50.267Y-126.582
X50.978Y-137.784
X51.029Y-136.311
X51.537Y-125.312
X51.537Y-126.582
X51.791Y-136.311
X51.842Y-137.835
X52.858Y-102.834
X52.959Y-129.148
X53.62Y-128.183
X53.721Y-141.695
X53.925Y-126.709
X54.077Y-96.737
X54.179Y-141.34
X54.553Y-144.927
X54.687Y-143.575
X55.347Y-96.737
X55.347Y-104.992
X55.347Y-106.262
X55.499Y-132.45
X55.601Y-141.289
X55.703Y-137.327
X55.753Y-93.131
X55.804Y-93.893
X55.982Y-116.422
X55.982Y-118.328
X55.982Y-120.232
X56.058Y-138.444
X56.363Y-132.196
X56.617Y-104.992
X56.617Y-106.262
X56.617Y-123.865
X56.617Y-144.134
X57.074Y-126.862
X57.125Y-141.188
X57.227Y-123.865
X57.481Y-144.083
X57.836Y-123.865
X57.887Y-116.422
X57.887Y-118.328
X57.887Y-120.232
X58.317Y-137.742
X59.055Y-144.083
X59.513Y-128.183
X59.563Y-107.609
X59.767Y-98.617
X59.97Y-144.083
X60.783Y-108.929
X60.935Y-98.617
X60.935Y-144.083
X61.392Y-111.317
X61.799Y-94.299
X61.799Y-94.959
X61.9Y-101.563
X61.9Y-102.275
X61.951Y-97.906
X61.951Y-98.566
X62.154Y-103.799
X62.154Y-104.713
X62.256Y-107.304
X62.256Y-110.606
X62.307Y-115.533
X62.408Y-94.299
X62.408Y-94.959
X62.561Y-97.906
X62.561Y-98.566
X62.764Y-114.009
X62.967Y-119.597
X62.967Y-121.502
X62.967Y-143.727
X63.272Y-134.787
X63.272Y-135.803
X64.288Y-134.787
X64.288Y-135.803
X64.339Y-103.138
X64.44Y-113.746
X64.491Y-108.117
X64.872Y-130.392
X64.872Y-132.297
X64.872Y-143.727
X65.355Y-107.253
X65.355Y-116.032
X65.659Y-123.915
X66.117Y-124.322
X66.574Y-124.779
X66.777Y-130.392
X66.777Y-132.297
X67.285Y-103.138
X67.437Y-106.44
X67.641Y-145.353
X67.641Y-145.963
X67.641Y-146.572
X69.52Y-143.118
X69.52Y-143.778
X70.485Y-139.787
X71.197Y-146.775
X71.349Y-114.146
X71.4Y-108.929
X71.4Y-110.25
X71.552Y-117.566
X71.552Y-118.378
X71.603Y-99.735
X71.603Y-100.395
X71.857Y-122.137
X71.857Y-123.407
X72.06Y-128.183
X72.06Y-145.861
X72.213Y-99.735
X72.213Y-100.395
X72.314Y-117.566
X72.314Y-118.429
X73.127Y-122.137
X73.127Y-123.407
X74.286Y-114.746
X74.499Y-146.318
X76.378Y-141.543
X76.378Y-142.508
X76.378Y-143.575
X78.207Y-117.692
X78.207Y-119.597
X80.112Y-117.692
X80.112Y-119.597
X82.652Y-126.582
X82.652Y-128.487
X82.652Y-130.392
X84.151Y-101.36
X84.557Y-126.582
X84.557Y-128.487
X84.557Y-130.392
X84.608Y-114.924
X84.76Y-101.36
X85.421Y-113.146
X86.462Y-126.582
X86.462Y-128.487
X86.462Y-130.392
X87.097Y-143.727
X87.097Y-145.632
X88.215Y-98.211
X88.215Y-98.871
X88.824Y-98.211
X88.824Y-98.871
X89.637Y-105.177
X89.637Y-143.727
X89.637Y-145.632
X89.688Y-114.273
X89.84Y-104.307
X92.177Y-143.727
X92.177Y-145.632
X92.558Y-96.611
X93.32Y-96.611
X99.162Y-103.722
X99.162Y-105.627
X99.162Y-107.532
X99.391Y-93.232
X99.391Y-94.147
X100.737Y-128.767
X100.737Y-129.732
X101.067Y-103.722
X101.067Y-105.627
X101.067Y-107.532
X102.743Y-136.25
X102.972Y-103.722
X102.972Y-105.627
X102.972Y-107.532
X108.687Y-103.722
X108.687Y-105.627
X108.687Y-107.532
X109.449Y-129.63
X109.449Y-131.535
X110.592Y-103.722
X110.592Y-105.627
X110.592Y-107.532
X111.354Y-129.63
X111.354Y-131.535
X111.735Y-135.853
X112.497Y-103.722
X112.497Y-105.627
X112.497Y-107.532
X117.171Y-137.886
X117.739Y-108.625
X117.74Y-124.093
X118.39Y-126.608
T2
X75.992Y-105.007
X75.992Y-106.007
X75.992Y-107.007
X75.992Y-108.007
X75.992Y-109.007
X76.992Y-105.007
X76.992Y-106.007
X76.992Y-107.007
X76.992Y-108.007
X76.992Y-109.007
X77.992Y-105.007
X77.992Y-106.007
X77.992Y-107.007
X77.992Y-108.007
X77.992Y-109.007
X78.992Y-105.007
X78.992Y-106.007
X78.992Y-107.007
X78.992Y-108.007
X78.992Y-109.007
X79.992Y-105.007
X79.992Y-106.007
X79.992Y-107.007
X79.992Y-108.007
X79.992Y-109.007
T3
X119.787Y-103.507
X119.787Y-106.047
X119.787Y-108.587
X119.787Y-111.127
X119.787Y-113.667
X119.787Y-116.207
X119.787Y-118.747
X119.787Y-121.287
X119.787Y-123.828
X119.787Y-126.367
X119.787Y-128.907
X119.787Y-131.447
X119.787Y-133.987
X119.787Y-136.528
T4
X101.575Y-93.749
X104.115Y-93.749
X106.655Y-93.749
X109.195Y-93.749
T5
X39.779Y-130.017
X39.779Y-132.517
X39.779Y-135.017
X39.779Y-137.517
X97.737Y-140.115
X100.237Y-140.115
X102.737Y-140.115
T6
X35.467Y-116.177
X35.467Y-118.718
X35.467Y-121.257
X35.467Y-123.797
X39.869Y-106.287
X39.869Y-108.787
X80.267Y-140.088
X82.767Y-140.088
X89.092Y-140.088
X91.592Y-140.088
X109.267Y-140.125
X111.767Y-140.125
M30
