%TF.GenerationSoftware,KiCad,Pcbnew,8.0.3-8.0.3-0~ubuntu22.04.1*%
%TF.CreationDate,2024-07-11T21:41:11+07:00*%
%TF.ProjectId,kh-gift-hw,6b682d67-6966-4742-9d68-772e6b696361,rev?*%
%TF.SameCoordinates,Original*%
%TF.FileFunction,Drillmap*%
%TF.FilePolarity,Positive*%
%FSLAX45Y45*%
G04 Gerber Fmt 4.5, Leading zero omitted, Abs format (unit mm)*
G04 Created by KiCad (PCBNEW 8.0.3-8.0.3-0~ubuntu22.04.1) date 2024-07-11 21:41:11*
%MOMM*%
%LPD*%
G01*
G04 APERTURE LIST*
%ADD10C,0.120000*%
%ADD11C,0.200000*%
%ADD12C,0.100000*%
G04 APERTURE END LIST*
D10*
X3248700Y-9249750D02*
X6948700Y-9249750D01*
X3248700Y-14753750D02*
X3248700Y-9249750D01*
X6948700Y-9849750D02*
X6948700Y-9249750D01*
X6948700Y-9849750D02*
X8748700Y-9849750D01*
X8748700Y-9249750D02*
X12178700Y-9249750D01*
X8748700Y-9849750D02*
X8748700Y-9249750D01*
X12178700Y-9249750D02*
X12178700Y-14753750D01*
X12178700Y-14753750D02*
X3248700Y-14753750D01*
X3698700Y-9549750D02*
G75*
G02*
X3398700Y-9549750I-150000J0D01*
G01*
X3398700Y-9549750D02*
G75*
G02*
X3698700Y-9549750I150000J0D01*
G01*
X3698700Y-14453750D02*
G75*
G02*
X3398700Y-14453750I-150000J0D01*
G01*
X3398700Y-14453750D02*
G75*
G02*
X3698700Y-14453750I150000J0D01*
G01*
X12028700Y-9549750D02*
G75*
G02*
X11728700Y-9549750I-150000J0D01*
G01*
X11728700Y-9549750D02*
G75*
G02*
X12028700Y-9549750I150000J0D01*
G01*
X12028700Y-14453750D02*
G75*
G02*
X11728700Y-14453750I-150000J0D01*
G01*
X11728700Y-14453750D02*
G75*
G02*
X12028700Y-14453750I150000J0D01*
G01*
D11*
D12*
X3424200Y-10166750D02*
X3454200Y-10196750D01*
X3454200Y-10166750D02*
X3424200Y-10196750D01*
X3424200Y-10357250D02*
X3454200Y-10387250D01*
X3454200Y-10357250D02*
X3424200Y-10387250D01*
X3424200Y-13151250D02*
X3454200Y-13181250D01*
X3454200Y-13151250D02*
X3424200Y-13181250D01*
X3424200Y-13341750D02*
X3454200Y-13371750D01*
X3454200Y-13341750D02*
X3424200Y-13371750D01*
X3424200Y-13532250D02*
X3454200Y-13562250D01*
X3454200Y-13532250D02*
X3424200Y-13562250D01*
X3614700Y-10166750D02*
X3644700Y-10196750D01*
X3644700Y-10166750D02*
X3614700Y-10196750D01*
X3614700Y-10357250D02*
X3644700Y-10387250D01*
X3644700Y-10357250D02*
X3614700Y-10387250D01*
X3614700Y-13151250D02*
X3644700Y-13181250D01*
X3644700Y-13151250D02*
X3614700Y-13181250D01*
X3614700Y-13341750D02*
X3644700Y-13371750D01*
X3644700Y-13341750D02*
X3614700Y-13371750D01*
X3614700Y-13532250D02*
X3644700Y-13562250D01*
X3644700Y-13532250D02*
X3614700Y-13562250D01*
X3914420Y-9303150D02*
X3944420Y-9333150D01*
X3944420Y-9303150D02*
X3914420Y-9333150D01*
X3914420Y-9409830D02*
X3944420Y-9439830D01*
X3944420Y-9409830D02*
X3914420Y-9439830D01*
X3914420Y-10100710D02*
X3944420Y-10130710D01*
X3944420Y-10100710D02*
X3914420Y-10130710D01*
X3914420Y-10202310D02*
X3944420Y-10232310D01*
X3944420Y-10202310D02*
X3914420Y-10232310D01*
X4254780Y-14342510D02*
X4284780Y-14372510D01*
X4284780Y-14342510D02*
X4254780Y-14372510D01*
X4254780Y-14423790D02*
X4284780Y-14453790D01*
X4284780Y-14423790D02*
X4254780Y-14453790D01*
X4327180Y-13511790D02*
X4357180Y-13541790D01*
X4357180Y-13511790D02*
X4327180Y-13541790D01*
X4327180Y-13591790D02*
X4357180Y-13621790D01*
X4357180Y-13591790D02*
X4327180Y-13621790D01*
X4332300Y-13671950D02*
X4362300Y-13701950D01*
X4362300Y-13671950D02*
X4332300Y-13701950D01*
X4341140Y-14342510D02*
X4371140Y-14372510D01*
X4371140Y-14342510D02*
X4341140Y-14372510D01*
X4341140Y-14428870D02*
X4371140Y-14458870D01*
X4371140Y-14428870D02*
X4341140Y-14458870D01*
X4427500Y-14342510D02*
X4457500Y-14372510D01*
X4457500Y-14342510D02*
X4427500Y-14372510D01*
X4427500Y-14428870D02*
X4457500Y-14458870D01*
X4457500Y-14428870D02*
X4427500Y-14458870D01*
X4503700Y-11246250D02*
X4533700Y-11276250D01*
X4533700Y-11246250D02*
X4503700Y-11276250D01*
X4503700Y-11436750D02*
X4533700Y-11466750D01*
X4533700Y-11436750D02*
X4503700Y-11466750D01*
X4503700Y-11627250D02*
X4533700Y-11657250D01*
X4533700Y-11627250D02*
X4503700Y-11657250D01*
X4518940Y-14342510D02*
X4548940Y-14372510D01*
X4548940Y-14342510D02*
X4518940Y-14372510D01*
X4518940Y-14428870D02*
X4548940Y-14458870D01*
X4548940Y-14428870D02*
X4518940Y-14458870D01*
X4630700Y-13278250D02*
X4660700Y-13308250D01*
X4660700Y-13278250D02*
X4630700Y-13308250D01*
X4630700Y-13405250D02*
X4660700Y-13435250D01*
X4660700Y-13405250D02*
X4630700Y-13435250D01*
X4645940Y-12777870D02*
X4675940Y-12807870D01*
X4675940Y-12777870D02*
X4645940Y-12807870D01*
X4645940Y-12874390D02*
X4675940Y-12904390D01*
X4675940Y-12874390D02*
X4645940Y-12904390D01*
X4645940Y-12981070D02*
X4675940Y-13011070D01*
X4675940Y-12981070D02*
X4645940Y-13011070D01*
X4651020Y-10100710D02*
X4681020Y-10130710D01*
X4681020Y-10100710D02*
X4651020Y-10130710D01*
X4651020Y-10192150D02*
X4681020Y-10222150D01*
X4681020Y-10192150D02*
X4651020Y-10222150D01*
X4661180Y-9308230D02*
X4691180Y-9338230D01*
X4691180Y-9308230D02*
X4661180Y-9338230D01*
X4661180Y-9409830D02*
X4691180Y-9439830D01*
X4691180Y-9409830D02*
X4661180Y-9439830D01*
X4672120Y-12516250D02*
X4702120Y-12546250D01*
X4702120Y-12516250D02*
X4672120Y-12546250D01*
X4694200Y-11246250D02*
X4724200Y-11276250D01*
X4724200Y-11246250D02*
X4694200Y-11276250D01*
X4694200Y-11436750D02*
X4724200Y-11466750D01*
X4724200Y-11436750D02*
X4694200Y-11466750D01*
X4694200Y-11627250D02*
X4724200Y-11657250D01*
X4724200Y-11627250D02*
X4694200Y-11657250D01*
X4747540Y-12981070D02*
X4777540Y-13011070D01*
X4777540Y-12981070D02*
X4747540Y-13011070D01*
X4752120Y-12874670D02*
X4782120Y-12904670D01*
X4782120Y-12874670D02*
X4752120Y-12904670D01*
X4752620Y-12777870D02*
X4782620Y-12807870D01*
X4782620Y-12777870D02*
X4752620Y-12807870D01*
X4757700Y-12516250D02*
X4787700Y-12546250D01*
X4787700Y-12516250D02*
X4757700Y-12546250D01*
X4757700Y-13278250D02*
X4787700Y-13308250D01*
X4787700Y-13278250D02*
X4757700Y-13308250D01*
X4757700Y-13405250D02*
X4787700Y-13435250D01*
X4787700Y-13405250D02*
X4757700Y-13435250D01*
X4767860Y-12031110D02*
X4797860Y-12061110D01*
X4797860Y-12031110D02*
X4767860Y-12061110D01*
X4767860Y-12117470D02*
X4797860Y-12147470D01*
X4797860Y-12117470D02*
X4767860Y-12147470D01*
X4783100Y-14662550D02*
X4813100Y-14692550D01*
X4813100Y-14662550D02*
X4783100Y-14692550D01*
X4821200Y-9595250D02*
X4851200Y-9625250D01*
X4851200Y-9595250D02*
X4821200Y-9625250D01*
X4821200Y-9785750D02*
X4851200Y-9815750D01*
X4851200Y-9785750D02*
X4821200Y-9815750D01*
X4854220Y-12777870D02*
X4884220Y-12807870D01*
X4884220Y-12777870D02*
X4854220Y-12807870D01*
X4854220Y-12874390D02*
X4884220Y-12904390D01*
X4884220Y-12874390D02*
X4854220Y-12904390D01*
X4854220Y-12981070D02*
X4884220Y-13011070D01*
X4884220Y-12981070D02*
X4854220Y-13011070D01*
X4859300Y-12031110D02*
X4889300Y-12061110D01*
X4889300Y-12031110D02*
X4859300Y-12061110D01*
X4859300Y-12117470D02*
X4889300Y-12147470D01*
X4889300Y-12117470D02*
X4859300Y-12147470D01*
X4880180Y-14668790D02*
X4910180Y-14698790D01*
X4910180Y-14668790D02*
X4880180Y-14698790D01*
X4884700Y-11246250D02*
X4914700Y-11276250D01*
X4914700Y-11246250D02*
X4884700Y-11276250D01*
X4884700Y-11436750D02*
X4914700Y-11466750D01*
X4914700Y-11436750D02*
X4884700Y-11466750D01*
X4884700Y-11627250D02*
X4914700Y-11657250D01*
X4914700Y-11627250D02*
X4884700Y-11657250D01*
X5011700Y-9595250D02*
X5041700Y-9625250D01*
X5041700Y-9595250D02*
X5011700Y-9625250D01*
X5011700Y-9785750D02*
X5041700Y-9815750D01*
X5041700Y-9785750D02*
X5011700Y-9815750D01*
X5011700Y-12516250D02*
X5041700Y-12546250D01*
X5041700Y-12516250D02*
X5011700Y-12546250D01*
X5011700Y-12643250D02*
X5041700Y-12673250D01*
X5041700Y-12643250D02*
X5011700Y-12673250D01*
X5039180Y-13764790D02*
X5069180Y-13794790D01*
X5069180Y-13764790D02*
X5039180Y-13794790D01*
X5076180Y-13593790D02*
X5106180Y-13623790D01*
X5106180Y-13593790D02*
X5076180Y-13623790D01*
X5138700Y-12516250D02*
X5168700Y-12546250D01*
X5168700Y-12516250D02*
X5138700Y-12546250D01*
X5138700Y-12643250D02*
X5168700Y-12673250D01*
X5168700Y-12643250D02*
X5138700Y-12673250D01*
X5175180Y-13767790D02*
X5205180Y-13797790D01*
X5205180Y-13767790D02*
X5175180Y-13797790D01*
X5187180Y-13617790D02*
X5217180Y-13647790D01*
X5217180Y-13617790D02*
X5187180Y-13647790D01*
X5270780Y-10268350D02*
X5300780Y-10298350D01*
X5300780Y-10268350D02*
X5270780Y-10298350D01*
X5280940Y-12899790D02*
X5310940Y-12929790D01*
X5310940Y-12899790D02*
X5280940Y-12929790D01*
X5346980Y-12803270D02*
X5376980Y-12833270D01*
X5376980Y-12803270D02*
X5346980Y-12833270D01*
X5351700Y-14223750D02*
X5381700Y-14253750D01*
X5381700Y-14223750D02*
X5351700Y-14253750D01*
X5377460Y-12655950D02*
X5407460Y-12685950D01*
X5407460Y-12655950D02*
X5377460Y-12685950D01*
X5392700Y-9658750D02*
X5422700Y-9688750D01*
X5422700Y-9658750D02*
X5392700Y-9688750D01*
X5423180Y-14161790D02*
X5453180Y-14191790D01*
X5453180Y-14161790D02*
X5423180Y-14191790D01*
X5440340Y-14477750D02*
X5470340Y-14507750D01*
X5470340Y-14477750D02*
X5440340Y-14507750D01*
X5453660Y-14342510D02*
X5483660Y-14372510D01*
X5483660Y-14342510D02*
X5453660Y-14372510D01*
X5519700Y-9658750D02*
X5549700Y-9688750D01*
X5549700Y-9658750D02*
X5519700Y-9688750D01*
X5519700Y-10484250D02*
X5549700Y-10514250D01*
X5549700Y-10484250D02*
X5519700Y-10514250D01*
X5519700Y-10611250D02*
X5549700Y-10641250D01*
X5549700Y-10611250D02*
X5519700Y-10641250D01*
X5534940Y-13229990D02*
X5564940Y-13259990D01*
X5564940Y-13229990D02*
X5534940Y-13259990D01*
X5545100Y-14113910D02*
X5575100Y-14143910D01*
X5575100Y-14113910D02*
X5545100Y-14143910D01*
X5555260Y-13717670D02*
X5585260Y-13747670D01*
X5585260Y-13717670D02*
X5555260Y-13747670D01*
X5560340Y-9298070D02*
X5590340Y-9328070D01*
X5590340Y-9298070D02*
X5560340Y-9328070D01*
X5563180Y-9404790D02*
X5593180Y-9434790D01*
X5593180Y-9404790D02*
X5563180Y-9434790D01*
X5583200Y-11627250D02*
X5613200Y-11657250D01*
X5613200Y-11627250D02*
X5583200Y-11657250D01*
X5583200Y-11817750D02*
X5613200Y-11847750D01*
X5613200Y-11817750D02*
X5583200Y-11847750D01*
X5583200Y-12008250D02*
X5613200Y-12038250D01*
X5613200Y-12008250D02*
X5583200Y-12038250D01*
X5590820Y-13829430D02*
X5620820Y-13859430D01*
X5620820Y-13829430D02*
X5590820Y-13859430D01*
X5621300Y-13204590D02*
X5651300Y-13234590D01*
X5651300Y-13204590D02*
X5621300Y-13234590D01*
X5646700Y-10484250D02*
X5676700Y-10514250D01*
X5676700Y-10484250D02*
X5646700Y-10514250D01*
X5646700Y-10611250D02*
X5676700Y-10641250D01*
X5676700Y-10611250D02*
X5646700Y-10641250D01*
X5646700Y-14398390D02*
X5676700Y-14428390D01*
X5676700Y-14398390D02*
X5646700Y-14428390D01*
X5668180Y-12314790D02*
X5698180Y-12344790D01*
X5698180Y-12314790D02*
X5668180Y-12344790D01*
X5692420Y-12671190D02*
X5722420Y-12701190D01*
X5722420Y-12671190D02*
X5692420Y-12701190D01*
X5697500Y-14103750D02*
X5727500Y-14133750D01*
X5727500Y-14103750D02*
X5697500Y-14133750D01*
X5733060Y-14393310D02*
X5763060Y-14423310D01*
X5763060Y-14393310D02*
X5733060Y-14423310D01*
X5770180Y-12309790D02*
X5800180Y-12339790D01*
X5800180Y-12309790D02*
X5770180Y-12339790D01*
X5773700Y-11627250D02*
X5803700Y-11657250D01*
X5803700Y-11627250D02*
X5773700Y-11657250D01*
X5773700Y-11817750D02*
X5803700Y-11847750D01*
X5803700Y-11817750D02*
X5773700Y-11847750D01*
X5773700Y-12008250D02*
X5803700Y-12038250D01*
X5803700Y-12008250D02*
X5773700Y-12038250D01*
X5816700Y-13759201D02*
X5846700Y-13789201D01*
X5846700Y-13759201D02*
X5816700Y-13789201D01*
X5870180Y-12310790D02*
X5900180Y-12340790D01*
X5900180Y-12310790D02*
X5870180Y-12340790D01*
X5890540Y-14393310D02*
X5920540Y-14423310D01*
X5920540Y-14393310D02*
X5890540Y-14423310D01*
X5936260Y-12803270D02*
X5966260Y-12833270D01*
X5966260Y-12803270D02*
X5936260Y-12833270D01*
X5941340Y-10745870D02*
X5971340Y-10775870D01*
X5971340Y-10745870D02*
X5941340Y-10775870D01*
X5961660Y-9846710D02*
X5991660Y-9876710D01*
X5991660Y-9846710D02*
X5961660Y-9876710D01*
X5981980Y-14393310D02*
X6011980Y-14423310D01*
X6011980Y-14393310D02*
X5981980Y-14423310D01*
X6063260Y-10877950D02*
X6093260Y-10907950D01*
X6093260Y-10877950D02*
X6063260Y-10907950D01*
X6078500Y-9846710D02*
X6108500Y-9876710D01*
X6108500Y-9846710D02*
X6078500Y-9876710D01*
X6078500Y-14393310D02*
X6108500Y-14423310D01*
X6108500Y-14393310D02*
X6078500Y-14423310D01*
X6124220Y-11116710D02*
X6154220Y-11146710D01*
X6154220Y-11116710D02*
X6124220Y-11146710D01*
X6175020Y-10212470D02*
X6205020Y-10242470D01*
X6205020Y-10212470D02*
X6175020Y-10242470D01*
X6177180Y-10087790D02*
X6207180Y-10117790D01*
X6207180Y-10087790D02*
X6177180Y-10117790D01*
X6198180Y-9516790D02*
X6228180Y-9546790D01*
X6228180Y-9516790D02*
X6198180Y-9546790D01*
X6199180Y-9381790D02*
X6229180Y-9411790D01*
X6229180Y-9381790D02*
X6199180Y-9411790D01*
X6200420Y-10364870D02*
X6230420Y-10394870D01*
X6230420Y-10364870D02*
X6200420Y-10394870D01*
X6200420Y-10456310D02*
X6230420Y-10486310D01*
X6230420Y-10456310D02*
X6200420Y-10486310D01*
X6210580Y-10715390D02*
X6240580Y-10745390D01*
X6240580Y-10715390D02*
X6210580Y-10745390D01*
X6210580Y-11045590D02*
X6240580Y-11075590D01*
X6240580Y-11045590D02*
X6210580Y-11075590D01*
X6215660Y-11538350D02*
X6245660Y-11568350D01*
X6245660Y-11538350D02*
X6215660Y-11568350D01*
X6221180Y-9836790D02*
X6251180Y-9866790D01*
X6251180Y-9836790D02*
X6221180Y-9866790D01*
X6222180Y-9715790D02*
X6252180Y-9745790D01*
X6252180Y-9715790D02*
X6222180Y-9745790D01*
X6261380Y-11385950D02*
X6291380Y-11415950D01*
X6291380Y-11385950D02*
X6261380Y-11415950D01*
X6281700Y-11944750D02*
X6311700Y-11974750D01*
X6311700Y-11944750D02*
X6281700Y-11974750D01*
X6281700Y-12135250D02*
X6311700Y-12165250D01*
X6311700Y-12135250D02*
X6281700Y-12165250D01*
X6281700Y-14357750D02*
X6311700Y-14387750D01*
X6311700Y-14357750D02*
X6281700Y-14387750D01*
X6312180Y-13463670D02*
X6342180Y-13493670D01*
X6342180Y-13463670D02*
X6312180Y-13493670D01*
X6312180Y-13565270D02*
X6342180Y-13595270D01*
X6342180Y-13565270D02*
X6312180Y-13595270D01*
X6413780Y-13463670D02*
X6443780Y-13493670D01*
X6443780Y-13463670D02*
X6413780Y-13493670D01*
X6413780Y-13565270D02*
X6443780Y-13595270D01*
X6443780Y-13565270D02*
X6413780Y-13595270D01*
X6418860Y-10298830D02*
X6448860Y-10328830D01*
X6448860Y-10298830D02*
X6418860Y-10328830D01*
X6429020Y-11359590D02*
X6459020Y-11389590D01*
X6459020Y-11359590D02*
X6429020Y-11389590D01*
X6434100Y-10796670D02*
X6464100Y-10826670D01*
X6464100Y-10796670D02*
X6434100Y-10826670D01*
X6472200Y-13024250D02*
X6502200Y-13054250D01*
X6502200Y-13024250D02*
X6472200Y-13054250D01*
X6472200Y-13214750D02*
X6502200Y-13244750D01*
X6502200Y-13214750D02*
X6472200Y-13244750D01*
X6472200Y-14357750D02*
X6502200Y-14387750D01*
X6502200Y-14357750D02*
X6472200Y-14387750D01*
X6520460Y-10710310D02*
X6550460Y-10740310D01*
X6550460Y-10710310D02*
X6520460Y-10740310D01*
X6520460Y-11588190D02*
X6550460Y-11618190D01*
X6550460Y-11588190D02*
X6520460Y-11618190D01*
X6550940Y-12376550D02*
X6580940Y-12406550D01*
X6580940Y-12376550D02*
X6550940Y-12406550D01*
X6550940Y-12376550D02*
X6580940Y-12406550D01*
X6580940Y-12376550D02*
X6550940Y-12406550D01*
X6619180Y-12444790D02*
X6649180Y-12474790D01*
X6649180Y-12444790D02*
X6619180Y-12474790D01*
X6662700Y-13024250D02*
X6692700Y-13054250D01*
X6692700Y-13024250D02*
X6662700Y-13054250D01*
X6662700Y-13214750D02*
X6692700Y-13244750D01*
X6692700Y-13214750D02*
X6662700Y-13244750D01*
X6692180Y-12516790D02*
X6722180Y-12546790D01*
X6722180Y-12516790D02*
X6692180Y-12546790D01*
X6713500Y-10298830D02*
X6743500Y-10328830D01*
X6743500Y-10298830D02*
X6713500Y-10328830D01*
X6728740Y-10629030D02*
X6758740Y-10659030D01*
X6758740Y-10629030D02*
X6728740Y-10659030D01*
X6749060Y-14520310D02*
X6779060Y-14550310D01*
X6779060Y-14520310D02*
X6749060Y-14550310D01*
X6749060Y-14642230D02*
X6779060Y-14672230D01*
X6779060Y-14642230D02*
X6749060Y-14672230D01*
X6898180Y-14201790D02*
X6928180Y-14231790D01*
X6928180Y-14201790D02*
X6898180Y-14231790D01*
X6937020Y-14362830D02*
X6967020Y-14392830D01*
X6967020Y-14362830D02*
X6937020Y-14392830D01*
X7033540Y-13963750D02*
X7063540Y-13993750D01*
X7063540Y-13963750D02*
X7033540Y-13993750D01*
X7104660Y-14662550D02*
X7134660Y-14692550D01*
X7134660Y-14662550D02*
X7104660Y-14692550D01*
X7119900Y-11399590D02*
X7149900Y-11429590D01*
X7149900Y-11399590D02*
X7119900Y-11429590D01*
X7124980Y-10877950D02*
X7154980Y-10907950D01*
X7154980Y-10877950D02*
X7124980Y-10907950D01*
X7124980Y-11010030D02*
X7154980Y-11040030D01*
X7154980Y-11010030D02*
X7124980Y-11040030D01*
X7170700Y-12198750D02*
X7200700Y-12228750D01*
X7200700Y-12198750D02*
X7170700Y-12228750D01*
X7170700Y-12325750D02*
X7200700Y-12355750D01*
X7200700Y-12325750D02*
X7170700Y-12355750D01*
X7182180Y-11728790D02*
X7212180Y-11758790D01*
X7212180Y-11728790D02*
X7182180Y-11758790D01*
X7182180Y-11855790D02*
X7212180Y-11885790D01*
X7212180Y-11855790D02*
X7182180Y-11885790D01*
X7186180Y-9915790D02*
X7216180Y-9945790D01*
X7216180Y-9915790D02*
X7186180Y-9945790D01*
X7190180Y-10030790D02*
X7220180Y-10060790D01*
X7220180Y-10030790D02*
X7190180Y-10060790D01*
X7191020Y-14571110D02*
X7221020Y-14601110D01*
X7221020Y-14571110D02*
X7191020Y-14601110D01*
X7297700Y-12198750D02*
X7327700Y-12228750D01*
X7327700Y-12198750D02*
X7297700Y-12228750D01*
X7297700Y-12325750D02*
X7327700Y-12355750D01*
X7327700Y-12325750D02*
X7297700Y-12355750D01*
X7309180Y-11728790D02*
X7339180Y-11758790D01*
X7339180Y-11728790D02*
X7309180Y-11758790D01*
X7309180Y-11855790D02*
X7339180Y-11885790D01*
X7339180Y-11855790D02*
X7309180Y-11885790D01*
X7333180Y-9916790D02*
X7363180Y-9946790D01*
X7363180Y-9916790D02*
X7333180Y-9946790D01*
X7339180Y-10026790D02*
X7369180Y-10056790D01*
X7369180Y-10026790D02*
X7339180Y-10056790D01*
X7413580Y-11459590D02*
X7443580Y-11489590D01*
X7443580Y-11459590D02*
X7413580Y-11489590D01*
X7434860Y-14616830D02*
X7464860Y-14646830D01*
X7464860Y-14616830D02*
X7434860Y-14646830D01*
X7622820Y-14139310D02*
X7652820Y-14169310D01*
X7652820Y-14139310D02*
X7622820Y-14169310D01*
X7622820Y-14235830D02*
X7652820Y-14265830D01*
X7652820Y-14235830D02*
X7622820Y-14265830D01*
X7622820Y-14342510D02*
X7652820Y-14372510D01*
X7652820Y-14342510D02*
X7622820Y-14372510D01*
X7805700Y-11754250D02*
X7835700Y-11784250D01*
X7835700Y-11754250D02*
X7805700Y-11784250D01*
X7805700Y-11944750D02*
X7835700Y-11974750D01*
X7835700Y-11944750D02*
X7805700Y-11974750D01*
X7996200Y-11754250D02*
X8026200Y-11784250D01*
X8026200Y-11754250D02*
X7996200Y-11784250D01*
X7996200Y-11944750D02*
X8026200Y-11974750D01*
X8026200Y-11944750D02*
X7996200Y-11974750D01*
X8046180Y-10121750D02*
X8076180Y-10151750D01*
X8076180Y-10121750D02*
X8046180Y-10151750D01*
X8146180Y-10121030D02*
X8176180Y-10151030D01*
X8176180Y-10121030D02*
X8146180Y-10151030D01*
X8250200Y-12643250D02*
X8280200Y-12673250D01*
X8280200Y-12643250D02*
X8250200Y-12673250D01*
X8250200Y-12833750D02*
X8280200Y-12863750D01*
X8280200Y-12833750D02*
X8250200Y-12863750D01*
X8250200Y-13024250D02*
X8280200Y-13054250D01*
X8280200Y-13024250D02*
X8250200Y-13054250D01*
X8440700Y-12643250D02*
X8470700Y-12673250D01*
X8470700Y-12643250D02*
X8440700Y-12673250D01*
X8440700Y-12833750D02*
X8470700Y-12863750D01*
X8470700Y-12833750D02*
X8440700Y-12863750D01*
X8440700Y-13024250D02*
X8470700Y-13054250D01*
X8470700Y-13024250D02*
X8440700Y-13054250D01*
X8445780Y-11477390D02*
X8475780Y-11507390D01*
X8475780Y-11477390D02*
X8445780Y-11507390D01*
X8527060Y-11299590D02*
X8557060Y-11329590D01*
X8557060Y-11299590D02*
X8527060Y-11329590D01*
X8631200Y-12643250D02*
X8661200Y-12673250D01*
X8661200Y-12643250D02*
X8631200Y-12673250D01*
X8631200Y-12833750D02*
X8661200Y-12863750D01*
X8661200Y-12833750D02*
X8631200Y-12863750D01*
X8631200Y-13024250D02*
X8661200Y-13054250D01*
X8661200Y-13024250D02*
X8631200Y-13054250D01*
X8694700Y-14357750D02*
X8724700Y-14387750D01*
X8724700Y-14357750D02*
X8694700Y-14387750D01*
X8694700Y-14548250D02*
X8724700Y-14578250D01*
X8724700Y-14548250D02*
X8694700Y-14578250D01*
X8864180Y-9704790D02*
X8894180Y-9734790D01*
X8894180Y-9704790D02*
X8864180Y-9734790D01*
X8866180Y-9827790D02*
X8896180Y-9857790D01*
X8896180Y-9827790D02*
X8866180Y-9857790D01*
X8948700Y-10502750D02*
X8978700Y-10532750D01*
X8978700Y-10502750D02*
X8948700Y-10532750D01*
X8948700Y-14357750D02*
X8978700Y-14387750D01*
X8978700Y-14357750D02*
X8948700Y-14387750D01*
X8948700Y-14548250D02*
X8978700Y-14578250D01*
X8978700Y-14548250D02*
X8948700Y-14578250D01*
X8953780Y-11412310D02*
X8983780Y-11442310D01*
X8983780Y-11412310D02*
X8953780Y-11442310D01*
X8969020Y-10415670D02*
X8999020Y-10445670D01*
X8999020Y-10415670D02*
X8969020Y-10445670D01*
X9000180Y-9704790D02*
X9030180Y-9734790D01*
X9030180Y-9704790D02*
X9000180Y-9734790D01*
X9002180Y-9832790D02*
X9032180Y-9862790D01*
X9032180Y-9832790D02*
X9002180Y-9862790D01*
X9202700Y-14357750D02*
X9232700Y-14387750D01*
X9232700Y-14357750D02*
X9202700Y-14387750D01*
X9202700Y-14548250D02*
X9232700Y-14578250D01*
X9232700Y-14548250D02*
X9202700Y-14578250D01*
X9240800Y-9646050D02*
X9270800Y-9676050D01*
X9270800Y-9646050D02*
X9240800Y-9676050D01*
X9340180Y-9646050D02*
X9370180Y-9676050D01*
X9370180Y-9646050D02*
X9340180Y-9676050D01*
X9901200Y-10357250D02*
X9931200Y-10387250D01*
X9931200Y-10357250D02*
X9901200Y-10387250D01*
X9901200Y-10547750D02*
X9931200Y-10577750D01*
X9931200Y-10547750D02*
X9901200Y-10577750D01*
X9901200Y-10738250D02*
X9931200Y-10768250D01*
X9931200Y-10738250D02*
X9901200Y-10768250D01*
X9924060Y-9308230D02*
X9954060Y-9338230D01*
X9954060Y-9308230D02*
X9924060Y-9338230D01*
X9924060Y-9399670D02*
X9954060Y-9429670D01*
X9954060Y-9399670D02*
X9924060Y-9429670D01*
X10058680Y-12861690D02*
X10088680Y-12891690D01*
X10088680Y-12861690D02*
X10058680Y-12891690D01*
X10058680Y-12958210D02*
X10088680Y-12988210D01*
X10088680Y-12958210D02*
X10058680Y-12988210D01*
X10091700Y-10357250D02*
X10121700Y-10387250D01*
X10121700Y-10357250D02*
X10091700Y-10387250D01*
X10091700Y-10547750D02*
X10121700Y-10577750D01*
X10121700Y-10547750D02*
X10091700Y-10577750D01*
X10091700Y-10738250D02*
X10121700Y-10768250D01*
X10121700Y-10738250D02*
X10091700Y-10768250D01*
X10259340Y-13610030D02*
X10289340Y-13640030D01*
X10289340Y-13610030D02*
X10259340Y-13640030D01*
X10282200Y-10357250D02*
X10312200Y-10387250D01*
X10312200Y-10357250D02*
X10282200Y-10387250D01*
X10282200Y-10547750D02*
X10312200Y-10577750D01*
X10312200Y-10547750D02*
X10282200Y-10577750D01*
X10282200Y-10738250D02*
X10312200Y-10768250D01*
X10312200Y-10738250D02*
X10282200Y-10768250D01*
X10853700Y-10357250D02*
X10883700Y-10387250D01*
X10883700Y-10357250D02*
X10853700Y-10387250D01*
X10853700Y-10547750D02*
X10883700Y-10577750D01*
X10883700Y-10547750D02*
X10853700Y-10577750D01*
X10853700Y-10738250D02*
X10883700Y-10768250D01*
X10883700Y-10738250D02*
X10853700Y-10768250D01*
X10929900Y-12948050D02*
X10959900Y-12978050D01*
X10959900Y-12948050D02*
X10929900Y-12978050D01*
X10929900Y-13138550D02*
X10959900Y-13168550D01*
X10959900Y-13138550D02*
X10929900Y-13168550D01*
X11044200Y-10357250D02*
X11074200Y-10387250D01*
X11074200Y-10357250D02*
X11044200Y-10387250D01*
X11044200Y-10547750D02*
X11074200Y-10577750D01*
X11074200Y-10547750D02*
X11044200Y-10577750D01*
X11044200Y-10738250D02*
X11074200Y-10768250D01*
X11074200Y-10738250D02*
X11044200Y-10768250D01*
X11120400Y-12948050D02*
X11150400Y-12978050D01*
X11150400Y-12948050D02*
X11120400Y-12978050D01*
X11120400Y-13138550D02*
X11150400Y-13168550D01*
X11150400Y-13138550D02*
X11120400Y-13168550D01*
X11158500Y-13570350D02*
X11188500Y-13600350D01*
X11188500Y-13570350D02*
X11158500Y-13600350D01*
X11234700Y-10357250D02*
X11264700Y-10387250D01*
X11264700Y-10357250D02*
X11234700Y-10387250D01*
X11234700Y-10547750D02*
X11264700Y-10577750D01*
X11264700Y-10547750D02*
X11234700Y-10577750D01*
X11234700Y-10738250D02*
X11264700Y-10768250D01*
X11264700Y-10738250D02*
X11234700Y-10768250D01*
X11702060Y-13773550D02*
X11732060Y-13803550D01*
X11732060Y-13773550D02*
X11702060Y-13803550D01*
X11758900Y-10847470D02*
X11788900Y-10877470D01*
X11788900Y-10847470D02*
X11758900Y-10877470D01*
X11758990Y-12394347D02*
X11788990Y-12424347D01*
X11788990Y-12394347D02*
X11758990Y-12424347D01*
X11823980Y-12645790D02*
X11853980Y-12675790D01*
X11853980Y-12645790D02*
X11823980Y-12675790D01*
X7619200Y-10500750D02*
G75*
G02*
X7579200Y-10500750I-20000J0D01*
G01*
X7579200Y-10500750D02*
G75*
G02*
X7619200Y-10500750I20000J0D01*
G01*
X7619200Y-10600750D02*
G75*
G02*
X7579200Y-10600750I-20000J0D01*
G01*
X7579200Y-10600750D02*
G75*
G02*
X7619200Y-10600750I20000J0D01*
G01*
X7619200Y-10700750D02*
G75*
G02*
X7579200Y-10700750I-20000J0D01*
G01*
X7579200Y-10700750D02*
G75*
G02*
X7619200Y-10700750I20000J0D01*
G01*
X7619200Y-10800750D02*
G75*
G02*
X7579200Y-10800750I-20000J0D01*
G01*
X7579200Y-10800750D02*
G75*
G02*
X7619200Y-10800750I20000J0D01*
G01*
X7619200Y-10900750D02*
G75*
G02*
X7579200Y-10900750I-20000J0D01*
G01*
X7579200Y-10900750D02*
G75*
G02*
X7619200Y-10900750I20000J0D01*
G01*
X7719200Y-10500750D02*
G75*
G02*
X7679200Y-10500750I-20000J0D01*
G01*
X7679200Y-10500750D02*
G75*
G02*
X7719200Y-10500750I20000J0D01*
G01*
X7719200Y-10600750D02*
G75*
G02*
X7679200Y-10600750I-20000J0D01*
G01*
X7679200Y-10600750D02*
G75*
G02*
X7719200Y-10600750I20000J0D01*
G01*
X7719200Y-10700750D02*
G75*
G02*
X7679200Y-10700750I-20000J0D01*
G01*
X7679200Y-10700750D02*
G75*
G02*
X7719200Y-10700750I20000J0D01*
G01*
X7719200Y-10800750D02*
G75*
G02*
X7679200Y-10800750I-20000J0D01*
G01*
X7679200Y-10800750D02*
G75*
G02*
X7719200Y-10800750I20000J0D01*
G01*
X7719200Y-10900750D02*
G75*
G02*
X7679200Y-10900750I-20000J0D01*
G01*
X7679200Y-10900750D02*
G75*
G02*
X7719200Y-10900750I20000J0D01*
G01*
X7819200Y-10500750D02*
G75*
G02*
X7779200Y-10500750I-20000J0D01*
G01*
X7779200Y-10500750D02*
G75*
G02*
X7819200Y-10500750I20000J0D01*
G01*
X7819200Y-10600750D02*
G75*
G02*
X7779200Y-10600750I-20000J0D01*
G01*
X7779200Y-10600750D02*
G75*
G02*
X7819200Y-10600750I20000J0D01*
G01*
X7819200Y-10700750D02*
G75*
G02*
X7779200Y-10700750I-20000J0D01*
G01*
X7779200Y-10700750D02*
G75*
G02*
X7819200Y-10700750I20000J0D01*
G01*
X7819200Y-10800750D02*
G75*
G02*
X7779200Y-10800750I-20000J0D01*
G01*
X7779200Y-10800750D02*
G75*
G02*
X7819200Y-10800750I20000J0D01*
G01*
X7819200Y-10900750D02*
G75*
G02*
X7779200Y-10900750I-20000J0D01*
G01*
X7779200Y-10900750D02*
G75*
G02*
X7819200Y-10900750I20000J0D01*
G01*
X7919200Y-10500750D02*
G75*
G02*
X7879200Y-10500750I-20000J0D01*
G01*
X7879200Y-10500750D02*
G75*
G02*
X7919200Y-10500750I20000J0D01*
G01*
X7919200Y-10600750D02*
G75*
G02*
X7879200Y-10600750I-20000J0D01*
G01*
X7879200Y-10600750D02*
G75*
G02*
X7919200Y-10600750I20000J0D01*
G01*
X7919200Y-10700750D02*
G75*
G02*
X7879200Y-10700750I-20000J0D01*
G01*
X7879200Y-10700750D02*
G75*
G02*
X7919200Y-10700750I20000J0D01*
G01*
X7919200Y-10800750D02*
G75*
G02*
X7879200Y-10800750I-20000J0D01*
G01*
X7879200Y-10800750D02*
G75*
G02*
X7919200Y-10800750I20000J0D01*
G01*
X7919200Y-10900750D02*
G75*
G02*
X7879200Y-10900750I-20000J0D01*
G01*
X7879200Y-10900750D02*
G75*
G02*
X7919200Y-10900750I20000J0D01*
G01*
X8019200Y-10500750D02*
G75*
G02*
X7979200Y-10500750I-20000J0D01*
G01*
X7979200Y-10500750D02*
G75*
G02*
X8019200Y-10500750I20000J0D01*
G01*
X8019200Y-10600750D02*
G75*
G02*
X7979200Y-10600750I-20000J0D01*
G01*
X7979200Y-10600750D02*
G75*
G02*
X8019200Y-10600750I20000J0D01*
G01*
X8019200Y-10700750D02*
G75*
G02*
X7979200Y-10700750I-20000J0D01*
G01*
X7979200Y-10700750D02*
G75*
G02*
X8019200Y-10700750I20000J0D01*
G01*
X8019200Y-10800750D02*
G75*
G02*
X7979200Y-10800750I-20000J0D01*
G01*
X7979200Y-10800750D02*
G75*
G02*
X8019200Y-10800750I20000J0D01*
G01*
X8019200Y-10900750D02*
G75*
G02*
X7979200Y-10900750I-20000J0D01*
G01*
X7979200Y-10900750D02*
G75*
G02*
X8019200Y-10900750I20000J0D01*
G01*
X11978700Y-10312650D02*
X11978700Y-10388850D01*
X11940600Y-10350750D02*
X12016800Y-10350750D01*
X11978700Y-10566650D02*
X11978700Y-10642850D01*
X11940600Y-10604750D02*
X12016800Y-10604750D01*
X11978700Y-10820650D02*
X11978700Y-10896850D01*
X11940600Y-10858750D02*
X12016800Y-10858750D01*
X11978700Y-11074650D02*
X11978700Y-11150850D01*
X11940600Y-11112750D02*
X12016800Y-11112750D01*
X11978700Y-11328650D02*
X11978700Y-11404850D01*
X11940600Y-11366750D02*
X12016800Y-11366750D01*
X11978700Y-11582650D02*
X11978700Y-11658850D01*
X11940600Y-11620750D02*
X12016800Y-11620750D01*
X11978700Y-11836650D02*
X11978700Y-11912850D01*
X11940600Y-11874750D02*
X12016800Y-11874750D01*
X11978700Y-12090650D02*
X11978700Y-12166850D01*
X11940600Y-12128750D02*
X12016800Y-12128750D01*
X11978700Y-12344650D02*
X11978700Y-12420850D01*
X11940600Y-12382750D02*
X12016800Y-12382750D01*
X11978700Y-12598650D02*
X11978700Y-12674850D01*
X11940600Y-12636750D02*
X12016800Y-12636750D01*
X11978700Y-12852650D02*
X11978700Y-12928850D01*
X11940600Y-12890750D02*
X12016800Y-12890750D01*
X11978700Y-13106650D02*
X11978700Y-13182850D01*
X11940600Y-13144750D02*
X12016800Y-13144750D01*
X11978700Y-13360650D02*
X11978700Y-13436850D01*
X11940600Y-13398750D02*
X12016800Y-13398750D01*
X11978700Y-13614650D02*
X11978700Y-13690850D01*
X11940600Y-13652750D02*
X12016800Y-13652750D01*
X10185785Y-9403165D02*
X10185785Y-9346596D01*
X10129216Y-9346596D01*
X10129216Y-9403165D01*
X10185785Y-9403165D01*
X10439785Y-9403165D02*
X10439785Y-9346596D01*
X10383216Y-9346596D01*
X10383216Y-9403165D01*
X10439785Y-9403165D01*
X10693785Y-9403165D02*
X10693785Y-9346596D01*
X10637216Y-9346596D01*
X10637216Y-9403165D01*
X10693785Y-9403165D01*
X10947785Y-9403165D02*
X10947785Y-9346596D01*
X10891216Y-9346596D01*
X10891216Y-9403165D01*
X10947785Y-9403165D01*
X3977950Y-13049250D02*
X4025450Y-13001750D01*
X3977950Y-12954250D01*
X3930450Y-13001750D01*
X3977950Y-13049250D01*
X3977950Y-13299250D02*
X4025450Y-13251750D01*
X3977950Y-13204250D01*
X3930450Y-13251750D01*
X3977950Y-13299250D01*
X3977950Y-13549250D02*
X4025450Y-13501750D01*
X3977950Y-13454250D01*
X3930450Y-13501750D01*
X3977950Y-13549250D01*
X3977950Y-13799250D02*
X4025450Y-13751750D01*
X3977950Y-13704250D01*
X3930450Y-13751750D01*
X3977950Y-13799250D01*
X9773700Y-14059000D02*
X9821200Y-14011500D01*
X9773700Y-13964000D01*
X9726200Y-14011500D01*
X9773700Y-14059000D01*
X10023700Y-14059000D02*
X10071200Y-14011500D01*
X10023700Y-13964000D01*
X9976200Y-14011500D01*
X10023700Y-14059000D01*
X10273700Y-14059000D02*
X10321200Y-14011500D01*
X10273700Y-13964000D01*
X10226200Y-14011500D01*
X10273700Y-14059000D01*
X3496700Y-11567750D02*
X3596700Y-11667750D01*
X3596700Y-11567750D02*
X3496700Y-11667750D01*
X3596700Y-11617750D02*
G75*
G02*
X3496700Y-11617750I-50000J0D01*
G01*
X3496700Y-11617750D02*
G75*
G02*
X3596700Y-11617750I50000J0D01*
G01*
X3496700Y-11821750D02*
X3596700Y-11921750D01*
X3596700Y-11821750D02*
X3496700Y-11921750D01*
X3596700Y-11871750D02*
G75*
G02*
X3496700Y-11871750I-50000J0D01*
G01*
X3496700Y-11871750D02*
G75*
G02*
X3596700Y-11871750I50000J0D01*
G01*
X3496700Y-12075750D02*
X3596700Y-12175750D01*
X3596700Y-12075750D02*
X3496700Y-12175750D01*
X3596700Y-12125750D02*
G75*
G02*
X3496700Y-12125750I-50000J0D01*
G01*
X3496700Y-12125750D02*
G75*
G02*
X3596700Y-12125750I50000J0D01*
G01*
X3496700Y-12329750D02*
X3596700Y-12429750D01*
X3596700Y-12329750D02*
X3496700Y-12429750D01*
X3596700Y-12379750D02*
G75*
G02*
X3496700Y-12379750I-50000J0D01*
G01*
X3496700Y-12379750D02*
G75*
G02*
X3596700Y-12379750I50000J0D01*
G01*
X3936950Y-10578750D02*
X4036950Y-10678750D01*
X4036950Y-10578750D02*
X3936950Y-10678750D01*
X4036950Y-10628750D02*
G75*
G02*
X3936950Y-10628750I-50000J0D01*
G01*
X3936950Y-10628750D02*
G75*
G02*
X4036950Y-10628750I50000J0D01*
G01*
X3936950Y-10828750D02*
X4036950Y-10928750D01*
X4036950Y-10828750D02*
X3936950Y-10928750D01*
X4036950Y-10878750D02*
G75*
G02*
X3936950Y-10878750I-50000J0D01*
G01*
X3936950Y-10878750D02*
G75*
G02*
X4036950Y-10878750I50000J0D01*
G01*
X7976700Y-13958750D02*
X8076700Y-14058750D01*
X8076700Y-13958750D02*
X7976700Y-14058750D01*
X8076700Y-14008750D02*
G75*
G02*
X7976700Y-14008750I-50000J0D01*
G01*
X7976700Y-14008750D02*
G75*
G02*
X8076700Y-14008750I50000J0D01*
G01*
X8226700Y-13958750D02*
X8326700Y-14058750D01*
X8326700Y-13958750D02*
X8226700Y-14058750D01*
X8326700Y-14008750D02*
G75*
G02*
X8226700Y-14008750I-50000J0D01*
G01*
X8226700Y-14008750D02*
G75*
G02*
X8326700Y-14008750I50000J0D01*
G01*
X8859200Y-13958750D02*
X8959200Y-14058750D01*
X8959200Y-13958750D02*
X8859200Y-14058750D01*
X8959200Y-14008750D02*
G75*
G02*
X8859200Y-14008750I-50000J0D01*
G01*
X8859200Y-14008750D02*
G75*
G02*
X8959200Y-14008750I50000J0D01*
G01*
X9109200Y-13958750D02*
X9209200Y-14058750D01*
X9209200Y-13958750D02*
X9109200Y-14058750D01*
X9209200Y-14008750D02*
G75*
G02*
X9109200Y-14008750I-50000J0D01*
G01*
X9109200Y-14008750D02*
G75*
G02*
X9209200Y-14008750I50000J0D01*
G01*
X10876700Y-13962500D02*
X10976700Y-14062500D01*
X10976700Y-13962500D02*
X10876700Y-14062500D01*
X10976700Y-14012500D02*
G75*
G02*
X10876700Y-14012500I-50000J0D01*
G01*
X10876700Y-14012500D02*
G75*
G02*
X10976700Y-14012500I50000J0D01*
G01*
X11126700Y-13962500D02*
X11226700Y-14062500D01*
X11226700Y-13962500D02*
X11126700Y-14062500D01*
X11226700Y-14012500D02*
G75*
G02*
X11126700Y-14012500I-50000J0D01*
G01*
X11126700Y-14012500D02*
G75*
G02*
X11226700Y-14012500I50000J0D01*
G01*
D11*
X3503477Y-15071234D02*
X3503477Y-14871234D01*
X3503477Y-14871234D02*
X3551096Y-14871234D01*
X3551096Y-14871234D02*
X3579667Y-14880758D01*
X3579667Y-14880758D02*
X3598715Y-14899805D01*
X3598715Y-14899805D02*
X3608239Y-14918853D01*
X3608239Y-14918853D02*
X3617762Y-14956948D01*
X3617762Y-14956948D02*
X3617762Y-14985519D01*
X3617762Y-14985519D02*
X3608239Y-15023615D01*
X3608239Y-15023615D02*
X3598715Y-15042662D01*
X3598715Y-15042662D02*
X3579667Y-15061710D01*
X3579667Y-15061710D02*
X3551096Y-15071234D01*
X3551096Y-15071234D02*
X3503477Y-15071234D01*
X3703477Y-15071234D02*
X3703477Y-14937900D01*
X3703477Y-14975996D02*
X3713001Y-14956948D01*
X3713001Y-14956948D02*
X3722524Y-14947424D01*
X3722524Y-14947424D02*
X3741572Y-14937900D01*
X3741572Y-14937900D02*
X3760620Y-14937900D01*
X3827286Y-15071234D02*
X3827286Y-14937900D01*
X3827286Y-14871234D02*
X3817762Y-14880758D01*
X3817762Y-14880758D02*
X3827286Y-14890281D01*
X3827286Y-14890281D02*
X3836810Y-14880758D01*
X3836810Y-14880758D02*
X3827286Y-14871234D01*
X3827286Y-14871234D02*
X3827286Y-14890281D01*
X3951096Y-15071234D02*
X3932048Y-15061710D01*
X3932048Y-15061710D02*
X3922524Y-15042662D01*
X3922524Y-15042662D02*
X3922524Y-14871234D01*
X4055858Y-15071234D02*
X4036810Y-15061710D01*
X4036810Y-15061710D02*
X4027286Y-15042662D01*
X4027286Y-15042662D02*
X4027286Y-14871234D01*
X4284429Y-15071234D02*
X4284429Y-14871234D01*
X4284429Y-14871234D02*
X4351096Y-15014091D01*
X4351096Y-15014091D02*
X4417763Y-14871234D01*
X4417763Y-14871234D02*
X4417763Y-15071234D01*
X4598715Y-15071234D02*
X4598715Y-14966472D01*
X4598715Y-14966472D02*
X4589191Y-14947424D01*
X4589191Y-14947424D02*
X4570144Y-14937900D01*
X4570144Y-14937900D02*
X4532048Y-14937900D01*
X4532048Y-14937900D02*
X4513001Y-14947424D01*
X4598715Y-15061710D02*
X4579667Y-15071234D01*
X4579667Y-15071234D02*
X4532048Y-15071234D01*
X4532048Y-15071234D02*
X4513001Y-15061710D01*
X4513001Y-15061710D02*
X4503477Y-15042662D01*
X4503477Y-15042662D02*
X4503477Y-15023615D01*
X4503477Y-15023615D02*
X4513001Y-15004567D01*
X4513001Y-15004567D02*
X4532048Y-14995043D01*
X4532048Y-14995043D02*
X4579667Y-14995043D01*
X4579667Y-14995043D02*
X4598715Y-14985519D01*
X4693953Y-14937900D02*
X4693953Y-15137900D01*
X4693953Y-14947424D02*
X4713001Y-14937900D01*
X4713001Y-14937900D02*
X4751096Y-14937900D01*
X4751096Y-14937900D02*
X4770144Y-14947424D01*
X4770144Y-14947424D02*
X4779667Y-14956948D01*
X4779667Y-14956948D02*
X4789191Y-14975996D01*
X4789191Y-14975996D02*
X4789191Y-15033138D01*
X4789191Y-15033138D02*
X4779667Y-15052186D01*
X4779667Y-15052186D02*
X4770144Y-15061710D01*
X4770144Y-15061710D02*
X4751096Y-15071234D01*
X4751096Y-15071234D02*
X4713001Y-15071234D01*
X4713001Y-15071234D02*
X4693953Y-15061710D01*
X4874905Y-15052186D02*
X4884429Y-15061710D01*
X4884429Y-15061710D02*
X4874905Y-15071234D01*
X4874905Y-15071234D02*
X4865382Y-15061710D01*
X4865382Y-15061710D02*
X4874905Y-15052186D01*
X4874905Y-15052186D02*
X4874905Y-15071234D01*
X4874905Y-14947424D02*
X4884429Y-14956948D01*
X4884429Y-14956948D02*
X4874905Y-14966472D01*
X4874905Y-14966472D02*
X4865382Y-14956948D01*
X4865382Y-14956948D02*
X4874905Y-14947424D01*
X4874905Y-14947424D02*
X4874905Y-14966472D01*
D12*
X3212700Y-15384750D02*
X3242700Y-15414750D01*
X3242700Y-15384750D02*
X3212700Y-15414750D01*
D11*
X3541572Y-15291234D02*
X3560620Y-15291234D01*
X3560620Y-15291234D02*
X3579667Y-15300758D01*
X3579667Y-15300758D02*
X3589191Y-15310281D01*
X3589191Y-15310281D02*
X3598715Y-15329329D01*
X3598715Y-15329329D02*
X3608239Y-15367424D01*
X3608239Y-15367424D02*
X3608239Y-15415043D01*
X3608239Y-15415043D02*
X3598715Y-15453138D01*
X3598715Y-15453138D02*
X3589191Y-15472186D01*
X3589191Y-15472186D02*
X3579667Y-15481710D01*
X3579667Y-15481710D02*
X3560620Y-15491234D01*
X3560620Y-15491234D02*
X3541572Y-15491234D01*
X3541572Y-15491234D02*
X3522524Y-15481710D01*
X3522524Y-15481710D02*
X3513001Y-15472186D01*
X3513001Y-15472186D02*
X3503477Y-15453138D01*
X3503477Y-15453138D02*
X3493953Y-15415043D01*
X3493953Y-15415043D02*
X3493953Y-15367424D01*
X3493953Y-15367424D02*
X3503477Y-15329329D01*
X3503477Y-15329329D02*
X3513001Y-15310281D01*
X3513001Y-15310281D02*
X3522524Y-15300758D01*
X3522524Y-15300758D02*
X3541572Y-15291234D01*
X3693953Y-15472186D02*
X3703477Y-15481710D01*
X3703477Y-15481710D02*
X3693953Y-15491234D01*
X3693953Y-15491234D02*
X3684429Y-15481710D01*
X3684429Y-15481710D02*
X3693953Y-15472186D01*
X3693953Y-15472186D02*
X3693953Y-15491234D01*
X3770143Y-15291234D02*
X3893953Y-15291234D01*
X3893953Y-15291234D02*
X3827286Y-15367424D01*
X3827286Y-15367424D02*
X3855858Y-15367424D01*
X3855858Y-15367424D02*
X3874905Y-15376948D01*
X3874905Y-15376948D02*
X3884429Y-15386472D01*
X3884429Y-15386472D02*
X3893953Y-15405519D01*
X3893953Y-15405519D02*
X3893953Y-15453138D01*
X3893953Y-15453138D02*
X3884429Y-15472186D01*
X3884429Y-15472186D02*
X3874905Y-15481710D01*
X3874905Y-15481710D02*
X3855858Y-15491234D01*
X3855858Y-15491234D02*
X3798715Y-15491234D01*
X3798715Y-15491234D02*
X3779667Y-15481710D01*
X3779667Y-15481710D02*
X3770143Y-15472186D01*
X4017762Y-15291234D02*
X4036810Y-15291234D01*
X4036810Y-15291234D02*
X4055858Y-15300758D01*
X4055858Y-15300758D02*
X4065382Y-15310281D01*
X4065382Y-15310281D02*
X4074905Y-15329329D01*
X4074905Y-15329329D02*
X4084429Y-15367424D01*
X4084429Y-15367424D02*
X4084429Y-15415043D01*
X4084429Y-15415043D02*
X4074905Y-15453138D01*
X4074905Y-15453138D02*
X4065382Y-15472186D01*
X4065382Y-15472186D02*
X4055858Y-15481710D01*
X4055858Y-15481710D02*
X4036810Y-15491234D01*
X4036810Y-15491234D02*
X4017762Y-15491234D01*
X4017762Y-15491234D02*
X3998715Y-15481710D01*
X3998715Y-15481710D02*
X3989191Y-15472186D01*
X3989191Y-15472186D02*
X3979667Y-15453138D01*
X3979667Y-15453138D02*
X3970143Y-15415043D01*
X3970143Y-15415043D02*
X3970143Y-15367424D01*
X3970143Y-15367424D02*
X3979667Y-15329329D01*
X3979667Y-15329329D02*
X3989191Y-15310281D01*
X3989191Y-15310281D02*
X3998715Y-15300758D01*
X3998715Y-15300758D02*
X4017762Y-15291234D01*
X4208239Y-15291234D02*
X4227286Y-15291234D01*
X4227286Y-15291234D02*
X4246334Y-15300758D01*
X4246334Y-15300758D02*
X4255858Y-15310281D01*
X4255858Y-15310281D02*
X4265382Y-15329329D01*
X4265382Y-15329329D02*
X4274905Y-15367424D01*
X4274905Y-15367424D02*
X4274905Y-15415043D01*
X4274905Y-15415043D02*
X4265382Y-15453138D01*
X4265382Y-15453138D02*
X4255858Y-15472186D01*
X4255858Y-15472186D02*
X4246334Y-15481710D01*
X4246334Y-15481710D02*
X4227286Y-15491234D01*
X4227286Y-15491234D02*
X4208239Y-15491234D01*
X4208239Y-15491234D02*
X4189191Y-15481710D01*
X4189191Y-15481710D02*
X4179667Y-15472186D01*
X4179667Y-15472186D02*
X4170143Y-15453138D01*
X4170143Y-15453138D02*
X4160620Y-15415043D01*
X4160620Y-15415043D02*
X4160620Y-15367424D01*
X4160620Y-15367424D02*
X4170143Y-15329329D01*
X4170143Y-15329329D02*
X4179667Y-15310281D01*
X4179667Y-15310281D02*
X4189191Y-15300758D01*
X4189191Y-15300758D02*
X4208239Y-15291234D01*
X4360620Y-15491234D02*
X4360620Y-15357900D01*
X4360620Y-15376948D02*
X4370144Y-15367424D01*
X4370144Y-15367424D02*
X4389191Y-15357900D01*
X4389191Y-15357900D02*
X4417763Y-15357900D01*
X4417763Y-15357900D02*
X4436810Y-15367424D01*
X4436810Y-15367424D02*
X4446334Y-15386472D01*
X4446334Y-15386472D02*
X4446334Y-15491234D01*
X4446334Y-15386472D02*
X4455858Y-15367424D01*
X4455858Y-15367424D02*
X4474905Y-15357900D01*
X4474905Y-15357900D02*
X4503477Y-15357900D01*
X4503477Y-15357900D02*
X4522525Y-15367424D01*
X4522525Y-15367424D02*
X4532048Y-15386472D01*
X4532048Y-15386472D02*
X4532048Y-15491234D01*
X4627286Y-15491234D02*
X4627286Y-15357900D01*
X4627286Y-15376948D02*
X4636810Y-15367424D01*
X4636810Y-15367424D02*
X4655858Y-15357900D01*
X4655858Y-15357900D02*
X4684429Y-15357900D01*
X4684429Y-15357900D02*
X4703477Y-15367424D01*
X4703477Y-15367424D02*
X4713001Y-15386472D01*
X4713001Y-15386472D02*
X4713001Y-15491234D01*
X4713001Y-15386472D02*
X4722525Y-15367424D01*
X4722525Y-15367424D02*
X4741572Y-15357900D01*
X4741572Y-15357900D02*
X4770144Y-15357900D01*
X4770144Y-15357900D02*
X4789191Y-15367424D01*
X4789191Y-15367424D02*
X4798715Y-15386472D01*
X4798715Y-15386472D02*
X4798715Y-15491234D01*
X5189191Y-15281710D02*
X5017763Y-15538853D01*
X5446334Y-15291234D02*
X5465382Y-15291234D01*
X5465382Y-15291234D02*
X5484429Y-15300758D01*
X5484429Y-15300758D02*
X5493953Y-15310281D01*
X5493953Y-15310281D02*
X5503477Y-15329329D01*
X5503477Y-15329329D02*
X5513001Y-15367424D01*
X5513001Y-15367424D02*
X5513001Y-15415043D01*
X5513001Y-15415043D02*
X5503477Y-15453138D01*
X5503477Y-15453138D02*
X5493953Y-15472186D01*
X5493953Y-15472186D02*
X5484429Y-15481710D01*
X5484429Y-15481710D02*
X5465382Y-15491234D01*
X5465382Y-15491234D02*
X5446334Y-15491234D01*
X5446334Y-15491234D02*
X5427287Y-15481710D01*
X5427287Y-15481710D02*
X5417763Y-15472186D01*
X5417763Y-15472186D02*
X5408239Y-15453138D01*
X5408239Y-15453138D02*
X5398715Y-15415043D01*
X5398715Y-15415043D02*
X5398715Y-15367424D01*
X5398715Y-15367424D02*
X5408239Y-15329329D01*
X5408239Y-15329329D02*
X5417763Y-15310281D01*
X5417763Y-15310281D02*
X5427287Y-15300758D01*
X5427287Y-15300758D02*
X5446334Y-15291234D01*
X5598715Y-15472186D02*
X5608239Y-15481710D01*
X5608239Y-15481710D02*
X5598715Y-15491234D01*
X5598715Y-15491234D02*
X5589191Y-15481710D01*
X5589191Y-15481710D02*
X5598715Y-15472186D01*
X5598715Y-15472186D02*
X5598715Y-15491234D01*
X5732048Y-15291234D02*
X5751096Y-15291234D01*
X5751096Y-15291234D02*
X5770144Y-15300758D01*
X5770144Y-15300758D02*
X5779667Y-15310281D01*
X5779667Y-15310281D02*
X5789191Y-15329329D01*
X5789191Y-15329329D02*
X5798715Y-15367424D01*
X5798715Y-15367424D02*
X5798715Y-15415043D01*
X5798715Y-15415043D02*
X5789191Y-15453138D01*
X5789191Y-15453138D02*
X5779667Y-15472186D01*
X5779667Y-15472186D02*
X5770144Y-15481710D01*
X5770144Y-15481710D02*
X5751096Y-15491234D01*
X5751096Y-15491234D02*
X5732048Y-15491234D01*
X5732048Y-15491234D02*
X5713001Y-15481710D01*
X5713001Y-15481710D02*
X5703477Y-15472186D01*
X5703477Y-15472186D02*
X5693953Y-15453138D01*
X5693953Y-15453138D02*
X5684429Y-15415043D01*
X5684429Y-15415043D02*
X5684429Y-15367424D01*
X5684429Y-15367424D02*
X5693953Y-15329329D01*
X5693953Y-15329329D02*
X5703477Y-15310281D01*
X5703477Y-15310281D02*
X5713001Y-15300758D01*
X5713001Y-15300758D02*
X5732048Y-15291234D01*
X5989191Y-15491234D02*
X5874906Y-15491234D01*
X5932048Y-15491234D02*
X5932048Y-15291234D01*
X5932048Y-15291234D02*
X5913001Y-15319805D01*
X5913001Y-15319805D02*
X5893953Y-15338853D01*
X5893953Y-15338853D02*
X5874906Y-15348377D01*
X6179667Y-15491234D02*
X6065382Y-15491234D01*
X6122525Y-15491234D02*
X6122525Y-15291234D01*
X6122525Y-15291234D02*
X6103477Y-15319805D01*
X6103477Y-15319805D02*
X6084429Y-15338853D01*
X6084429Y-15338853D02*
X6065382Y-15348377D01*
X6293953Y-15376948D02*
X6274906Y-15367424D01*
X6274906Y-15367424D02*
X6265382Y-15357900D01*
X6265382Y-15357900D02*
X6255858Y-15338853D01*
X6255858Y-15338853D02*
X6255858Y-15329329D01*
X6255858Y-15329329D02*
X6265382Y-15310281D01*
X6265382Y-15310281D02*
X6274906Y-15300758D01*
X6274906Y-15300758D02*
X6293953Y-15291234D01*
X6293953Y-15291234D02*
X6332048Y-15291234D01*
X6332048Y-15291234D02*
X6351096Y-15300758D01*
X6351096Y-15300758D02*
X6360620Y-15310281D01*
X6360620Y-15310281D02*
X6370144Y-15329329D01*
X6370144Y-15329329D02*
X6370144Y-15338853D01*
X6370144Y-15338853D02*
X6360620Y-15357900D01*
X6360620Y-15357900D02*
X6351096Y-15367424D01*
X6351096Y-15367424D02*
X6332048Y-15376948D01*
X6332048Y-15376948D02*
X6293953Y-15376948D01*
X6293953Y-15376948D02*
X6274906Y-15386472D01*
X6274906Y-15386472D02*
X6265382Y-15395996D01*
X6265382Y-15395996D02*
X6255858Y-15415043D01*
X6255858Y-15415043D02*
X6255858Y-15453138D01*
X6255858Y-15453138D02*
X6265382Y-15472186D01*
X6265382Y-15472186D02*
X6274906Y-15481710D01*
X6274906Y-15481710D02*
X6293953Y-15491234D01*
X6293953Y-15491234D02*
X6332048Y-15491234D01*
X6332048Y-15491234D02*
X6351096Y-15481710D01*
X6351096Y-15481710D02*
X6360620Y-15472186D01*
X6360620Y-15472186D02*
X6370144Y-15453138D01*
X6370144Y-15453138D02*
X6370144Y-15415043D01*
X6370144Y-15415043D02*
X6360620Y-15395996D01*
X6360620Y-15395996D02*
X6351096Y-15386472D01*
X6351096Y-15386472D02*
X6332048Y-15376948D01*
X6446334Y-15291234D02*
X6446334Y-15329329D01*
X6522525Y-15291234D02*
X6522525Y-15329329D01*
X6817763Y-15567424D02*
X6808239Y-15557900D01*
X6808239Y-15557900D02*
X6789191Y-15529329D01*
X6789191Y-15529329D02*
X6779668Y-15510281D01*
X6779668Y-15510281D02*
X6770144Y-15481710D01*
X6770144Y-15481710D02*
X6760620Y-15434091D01*
X6760620Y-15434091D02*
X6760620Y-15395996D01*
X6760620Y-15395996D02*
X6770144Y-15348377D01*
X6770144Y-15348377D02*
X6779668Y-15319805D01*
X6779668Y-15319805D02*
X6789191Y-15300758D01*
X6789191Y-15300758D02*
X6808239Y-15272186D01*
X6808239Y-15272186D02*
X6817763Y-15262662D01*
X6884429Y-15310281D02*
X6893953Y-15300758D01*
X6893953Y-15300758D02*
X6913001Y-15291234D01*
X6913001Y-15291234D02*
X6960620Y-15291234D01*
X6960620Y-15291234D02*
X6979668Y-15300758D01*
X6979668Y-15300758D02*
X6989191Y-15310281D01*
X6989191Y-15310281D02*
X6998715Y-15329329D01*
X6998715Y-15329329D02*
X6998715Y-15348377D01*
X6998715Y-15348377D02*
X6989191Y-15376948D01*
X6989191Y-15376948D02*
X6874906Y-15491234D01*
X6874906Y-15491234D02*
X6998715Y-15491234D01*
X7170144Y-15357900D02*
X7170144Y-15491234D01*
X7122525Y-15281710D02*
X7074906Y-15424567D01*
X7074906Y-15424567D02*
X7198715Y-15424567D01*
X7379668Y-15491234D02*
X7265382Y-15491234D01*
X7322525Y-15491234D02*
X7322525Y-15291234D01*
X7322525Y-15291234D02*
X7303477Y-15319805D01*
X7303477Y-15319805D02*
X7284429Y-15338853D01*
X7284429Y-15338853D02*
X7265382Y-15348377D01*
X7617763Y-15491234D02*
X7617763Y-15291234D01*
X7703477Y-15491234D02*
X7703477Y-15386472D01*
X7703477Y-15386472D02*
X7693953Y-15367424D01*
X7693953Y-15367424D02*
X7674906Y-15357900D01*
X7674906Y-15357900D02*
X7646334Y-15357900D01*
X7646334Y-15357900D02*
X7627287Y-15367424D01*
X7627287Y-15367424D02*
X7617763Y-15376948D01*
X7827287Y-15491234D02*
X7808239Y-15481710D01*
X7808239Y-15481710D02*
X7798715Y-15472186D01*
X7798715Y-15472186D02*
X7789191Y-15453138D01*
X7789191Y-15453138D02*
X7789191Y-15395996D01*
X7789191Y-15395996D02*
X7798715Y-15376948D01*
X7798715Y-15376948D02*
X7808239Y-15367424D01*
X7808239Y-15367424D02*
X7827287Y-15357900D01*
X7827287Y-15357900D02*
X7855858Y-15357900D01*
X7855858Y-15357900D02*
X7874906Y-15367424D01*
X7874906Y-15367424D02*
X7884430Y-15376948D01*
X7884430Y-15376948D02*
X7893953Y-15395996D01*
X7893953Y-15395996D02*
X7893953Y-15453138D01*
X7893953Y-15453138D02*
X7884430Y-15472186D01*
X7884430Y-15472186D02*
X7874906Y-15481710D01*
X7874906Y-15481710D02*
X7855858Y-15491234D01*
X7855858Y-15491234D02*
X7827287Y-15491234D01*
X8008239Y-15491234D02*
X7989191Y-15481710D01*
X7989191Y-15481710D02*
X7979668Y-15462662D01*
X7979668Y-15462662D02*
X7979668Y-15291234D01*
X8160620Y-15481710D02*
X8141572Y-15491234D01*
X8141572Y-15491234D02*
X8103477Y-15491234D01*
X8103477Y-15491234D02*
X8084430Y-15481710D01*
X8084430Y-15481710D02*
X8074906Y-15462662D01*
X8074906Y-15462662D02*
X8074906Y-15386472D01*
X8074906Y-15386472D02*
X8084430Y-15367424D01*
X8084430Y-15367424D02*
X8103477Y-15357900D01*
X8103477Y-15357900D02*
X8141572Y-15357900D01*
X8141572Y-15357900D02*
X8160620Y-15367424D01*
X8160620Y-15367424D02*
X8170144Y-15386472D01*
X8170144Y-15386472D02*
X8170144Y-15405519D01*
X8170144Y-15405519D02*
X8074906Y-15424567D01*
X8246334Y-15481710D02*
X8265382Y-15491234D01*
X8265382Y-15491234D02*
X8303477Y-15491234D01*
X8303477Y-15491234D02*
X8322525Y-15481710D01*
X8322525Y-15481710D02*
X8332049Y-15462662D01*
X8332049Y-15462662D02*
X8332049Y-15453138D01*
X8332049Y-15453138D02*
X8322525Y-15434091D01*
X8322525Y-15434091D02*
X8303477Y-15424567D01*
X8303477Y-15424567D02*
X8274906Y-15424567D01*
X8274906Y-15424567D02*
X8255858Y-15415043D01*
X8255858Y-15415043D02*
X8246334Y-15395996D01*
X8246334Y-15395996D02*
X8246334Y-15386472D01*
X8246334Y-15386472D02*
X8255858Y-15367424D01*
X8255858Y-15367424D02*
X8274906Y-15357900D01*
X8274906Y-15357900D02*
X8303477Y-15357900D01*
X8303477Y-15357900D02*
X8322525Y-15367424D01*
X8398715Y-15567424D02*
X8408239Y-15557900D01*
X8408239Y-15557900D02*
X8427287Y-15529329D01*
X8427287Y-15529329D02*
X8436811Y-15510281D01*
X8436811Y-15510281D02*
X8446334Y-15481710D01*
X8446334Y-15481710D02*
X8455858Y-15434091D01*
X8455858Y-15434091D02*
X8455858Y-15395996D01*
X8455858Y-15395996D02*
X8446334Y-15348377D01*
X8446334Y-15348377D02*
X8436811Y-15319805D01*
X8436811Y-15319805D02*
X8427287Y-15300758D01*
X8427287Y-15300758D02*
X8408239Y-15272186D01*
X8408239Y-15272186D02*
X8398715Y-15262662D01*
D12*
X3242700Y-15663750D02*
G75*
G02*
X3202700Y-15663750I-20000J0D01*
G01*
X3202700Y-15663750D02*
G75*
G02*
X3242700Y-15663750I20000J0D01*
G01*
D11*
X3541572Y-15555234D02*
X3560620Y-15555234D01*
X3560620Y-15555234D02*
X3579667Y-15564758D01*
X3579667Y-15564758D02*
X3589191Y-15574281D01*
X3589191Y-15574281D02*
X3598715Y-15593329D01*
X3598715Y-15593329D02*
X3608239Y-15631424D01*
X3608239Y-15631424D02*
X3608239Y-15679043D01*
X3608239Y-15679043D02*
X3598715Y-15717138D01*
X3598715Y-15717138D02*
X3589191Y-15736186D01*
X3589191Y-15736186D02*
X3579667Y-15745710D01*
X3579667Y-15745710D02*
X3560620Y-15755234D01*
X3560620Y-15755234D02*
X3541572Y-15755234D01*
X3541572Y-15755234D02*
X3522524Y-15745710D01*
X3522524Y-15745710D02*
X3513001Y-15736186D01*
X3513001Y-15736186D02*
X3503477Y-15717138D01*
X3503477Y-15717138D02*
X3493953Y-15679043D01*
X3493953Y-15679043D02*
X3493953Y-15631424D01*
X3493953Y-15631424D02*
X3503477Y-15593329D01*
X3503477Y-15593329D02*
X3513001Y-15574281D01*
X3513001Y-15574281D02*
X3522524Y-15564758D01*
X3522524Y-15564758D02*
X3541572Y-15555234D01*
X3693953Y-15736186D02*
X3703477Y-15745710D01*
X3703477Y-15745710D02*
X3693953Y-15755234D01*
X3693953Y-15755234D02*
X3684429Y-15745710D01*
X3684429Y-15745710D02*
X3693953Y-15736186D01*
X3693953Y-15736186D02*
X3693953Y-15755234D01*
X3874905Y-15621900D02*
X3874905Y-15755234D01*
X3827286Y-15545710D02*
X3779667Y-15688567D01*
X3779667Y-15688567D02*
X3903477Y-15688567D01*
X4017762Y-15555234D02*
X4036810Y-15555234D01*
X4036810Y-15555234D02*
X4055858Y-15564758D01*
X4055858Y-15564758D02*
X4065382Y-15574281D01*
X4065382Y-15574281D02*
X4074905Y-15593329D01*
X4074905Y-15593329D02*
X4084429Y-15631424D01*
X4084429Y-15631424D02*
X4084429Y-15679043D01*
X4084429Y-15679043D02*
X4074905Y-15717138D01*
X4074905Y-15717138D02*
X4065382Y-15736186D01*
X4065382Y-15736186D02*
X4055858Y-15745710D01*
X4055858Y-15745710D02*
X4036810Y-15755234D01*
X4036810Y-15755234D02*
X4017762Y-15755234D01*
X4017762Y-15755234D02*
X3998715Y-15745710D01*
X3998715Y-15745710D02*
X3989191Y-15736186D01*
X3989191Y-15736186D02*
X3979667Y-15717138D01*
X3979667Y-15717138D02*
X3970143Y-15679043D01*
X3970143Y-15679043D02*
X3970143Y-15631424D01*
X3970143Y-15631424D02*
X3979667Y-15593329D01*
X3979667Y-15593329D02*
X3989191Y-15574281D01*
X3989191Y-15574281D02*
X3998715Y-15564758D01*
X3998715Y-15564758D02*
X4017762Y-15555234D01*
X4208239Y-15555234D02*
X4227286Y-15555234D01*
X4227286Y-15555234D02*
X4246334Y-15564758D01*
X4246334Y-15564758D02*
X4255858Y-15574281D01*
X4255858Y-15574281D02*
X4265382Y-15593329D01*
X4265382Y-15593329D02*
X4274905Y-15631424D01*
X4274905Y-15631424D02*
X4274905Y-15679043D01*
X4274905Y-15679043D02*
X4265382Y-15717138D01*
X4265382Y-15717138D02*
X4255858Y-15736186D01*
X4255858Y-15736186D02*
X4246334Y-15745710D01*
X4246334Y-15745710D02*
X4227286Y-15755234D01*
X4227286Y-15755234D02*
X4208239Y-15755234D01*
X4208239Y-15755234D02*
X4189191Y-15745710D01*
X4189191Y-15745710D02*
X4179667Y-15736186D01*
X4179667Y-15736186D02*
X4170143Y-15717138D01*
X4170143Y-15717138D02*
X4160620Y-15679043D01*
X4160620Y-15679043D02*
X4160620Y-15631424D01*
X4160620Y-15631424D02*
X4170143Y-15593329D01*
X4170143Y-15593329D02*
X4179667Y-15574281D01*
X4179667Y-15574281D02*
X4189191Y-15564758D01*
X4189191Y-15564758D02*
X4208239Y-15555234D01*
X4360620Y-15755234D02*
X4360620Y-15621900D01*
X4360620Y-15640948D02*
X4370144Y-15631424D01*
X4370144Y-15631424D02*
X4389191Y-15621900D01*
X4389191Y-15621900D02*
X4417763Y-15621900D01*
X4417763Y-15621900D02*
X4436810Y-15631424D01*
X4436810Y-15631424D02*
X4446334Y-15650472D01*
X4446334Y-15650472D02*
X4446334Y-15755234D01*
X4446334Y-15650472D02*
X4455858Y-15631424D01*
X4455858Y-15631424D02*
X4474905Y-15621900D01*
X4474905Y-15621900D02*
X4503477Y-15621900D01*
X4503477Y-15621900D02*
X4522525Y-15631424D01*
X4522525Y-15631424D02*
X4532048Y-15650472D01*
X4532048Y-15650472D02*
X4532048Y-15755234D01*
X4627286Y-15755234D02*
X4627286Y-15621900D01*
X4627286Y-15640948D02*
X4636810Y-15631424D01*
X4636810Y-15631424D02*
X4655858Y-15621900D01*
X4655858Y-15621900D02*
X4684429Y-15621900D01*
X4684429Y-15621900D02*
X4703477Y-15631424D01*
X4703477Y-15631424D02*
X4713001Y-15650472D01*
X4713001Y-15650472D02*
X4713001Y-15755234D01*
X4713001Y-15650472D02*
X4722525Y-15631424D01*
X4722525Y-15631424D02*
X4741572Y-15621900D01*
X4741572Y-15621900D02*
X4770144Y-15621900D01*
X4770144Y-15621900D02*
X4789191Y-15631424D01*
X4789191Y-15631424D02*
X4798715Y-15650472D01*
X4798715Y-15650472D02*
X4798715Y-15755234D01*
X5189191Y-15545710D02*
X5017763Y-15802853D01*
X5446334Y-15555234D02*
X5465382Y-15555234D01*
X5465382Y-15555234D02*
X5484429Y-15564758D01*
X5484429Y-15564758D02*
X5493953Y-15574281D01*
X5493953Y-15574281D02*
X5503477Y-15593329D01*
X5503477Y-15593329D02*
X5513001Y-15631424D01*
X5513001Y-15631424D02*
X5513001Y-15679043D01*
X5513001Y-15679043D02*
X5503477Y-15717138D01*
X5503477Y-15717138D02*
X5493953Y-15736186D01*
X5493953Y-15736186D02*
X5484429Y-15745710D01*
X5484429Y-15745710D02*
X5465382Y-15755234D01*
X5465382Y-15755234D02*
X5446334Y-15755234D01*
X5446334Y-15755234D02*
X5427287Y-15745710D01*
X5427287Y-15745710D02*
X5417763Y-15736186D01*
X5417763Y-15736186D02*
X5408239Y-15717138D01*
X5408239Y-15717138D02*
X5398715Y-15679043D01*
X5398715Y-15679043D02*
X5398715Y-15631424D01*
X5398715Y-15631424D02*
X5408239Y-15593329D01*
X5408239Y-15593329D02*
X5417763Y-15574281D01*
X5417763Y-15574281D02*
X5427287Y-15564758D01*
X5427287Y-15564758D02*
X5446334Y-15555234D01*
X5598715Y-15736186D02*
X5608239Y-15745710D01*
X5608239Y-15745710D02*
X5598715Y-15755234D01*
X5598715Y-15755234D02*
X5589191Y-15745710D01*
X5589191Y-15745710D02*
X5598715Y-15736186D01*
X5598715Y-15736186D02*
X5598715Y-15755234D01*
X5732048Y-15555234D02*
X5751096Y-15555234D01*
X5751096Y-15555234D02*
X5770144Y-15564758D01*
X5770144Y-15564758D02*
X5779667Y-15574281D01*
X5779667Y-15574281D02*
X5789191Y-15593329D01*
X5789191Y-15593329D02*
X5798715Y-15631424D01*
X5798715Y-15631424D02*
X5798715Y-15679043D01*
X5798715Y-15679043D02*
X5789191Y-15717138D01*
X5789191Y-15717138D02*
X5779667Y-15736186D01*
X5779667Y-15736186D02*
X5770144Y-15745710D01*
X5770144Y-15745710D02*
X5751096Y-15755234D01*
X5751096Y-15755234D02*
X5732048Y-15755234D01*
X5732048Y-15755234D02*
X5713001Y-15745710D01*
X5713001Y-15745710D02*
X5703477Y-15736186D01*
X5703477Y-15736186D02*
X5693953Y-15717138D01*
X5693953Y-15717138D02*
X5684429Y-15679043D01*
X5684429Y-15679043D02*
X5684429Y-15631424D01*
X5684429Y-15631424D02*
X5693953Y-15593329D01*
X5693953Y-15593329D02*
X5703477Y-15574281D01*
X5703477Y-15574281D02*
X5713001Y-15564758D01*
X5713001Y-15564758D02*
X5732048Y-15555234D01*
X5989191Y-15755234D02*
X5874906Y-15755234D01*
X5932048Y-15755234D02*
X5932048Y-15555234D01*
X5932048Y-15555234D02*
X5913001Y-15583805D01*
X5913001Y-15583805D02*
X5893953Y-15602853D01*
X5893953Y-15602853D02*
X5874906Y-15612377D01*
X6170144Y-15555234D02*
X6074906Y-15555234D01*
X6074906Y-15555234D02*
X6065382Y-15650472D01*
X6065382Y-15650472D02*
X6074906Y-15640948D01*
X6074906Y-15640948D02*
X6093953Y-15631424D01*
X6093953Y-15631424D02*
X6141572Y-15631424D01*
X6141572Y-15631424D02*
X6160620Y-15640948D01*
X6160620Y-15640948D02*
X6170144Y-15650472D01*
X6170144Y-15650472D02*
X6179667Y-15669519D01*
X6179667Y-15669519D02*
X6179667Y-15717138D01*
X6179667Y-15717138D02*
X6170144Y-15736186D01*
X6170144Y-15736186D02*
X6160620Y-15745710D01*
X6160620Y-15745710D02*
X6141572Y-15755234D01*
X6141572Y-15755234D02*
X6093953Y-15755234D01*
X6093953Y-15755234D02*
X6074906Y-15745710D01*
X6074906Y-15745710D02*
X6065382Y-15736186D01*
X6246334Y-15555234D02*
X6379667Y-15555234D01*
X6379667Y-15555234D02*
X6293953Y-15755234D01*
X6446334Y-15555234D02*
X6446334Y-15593329D01*
X6522525Y-15555234D02*
X6522525Y-15593329D01*
X6817763Y-15831424D02*
X6808239Y-15821900D01*
X6808239Y-15821900D02*
X6789191Y-15793329D01*
X6789191Y-15793329D02*
X6779668Y-15774281D01*
X6779668Y-15774281D02*
X6770144Y-15745710D01*
X6770144Y-15745710D02*
X6760620Y-15698091D01*
X6760620Y-15698091D02*
X6760620Y-15659996D01*
X6760620Y-15659996D02*
X6770144Y-15612377D01*
X6770144Y-15612377D02*
X6779668Y-15583805D01*
X6779668Y-15583805D02*
X6789191Y-15564758D01*
X6789191Y-15564758D02*
X6808239Y-15536186D01*
X6808239Y-15536186D02*
X6817763Y-15526662D01*
X6884429Y-15574281D02*
X6893953Y-15564758D01*
X6893953Y-15564758D02*
X6913001Y-15555234D01*
X6913001Y-15555234D02*
X6960620Y-15555234D01*
X6960620Y-15555234D02*
X6979668Y-15564758D01*
X6979668Y-15564758D02*
X6989191Y-15574281D01*
X6989191Y-15574281D02*
X6998715Y-15593329D01*
X6998715Y-15593329D02*
X6998715Y-15612377D01*
X6998715Y-15612377D02*
X6989191Y-15640948D01*
X6989191Y-15640948D02*
X6874906Y-15755234D01*
X6874906Y-15755234D02*
X6998715Y-15755234D01*
X7179668Y-15555234D02*
X7084429Y-15555234D01*
X7084429Y-15555234D02*
X7074906Y-15650472D01*
X7074906Y-15650472D02*
X7084429Y-15640948D01*
X7084429Y-15640948D02*
X7103477Y-15631424D01*
X7103477Y-15631424D02*
X7151096Y-15631424D01*
X7151096Y-15631424D02*
X7170144Y-15640948D01*
X7170144Y-15640948D02*
X7179668Y-15650472D01*
X7179668Y-15650472D02*
X7189191Y-15669519D01*
X7189191Y-15669519D02*
X7189191Y-15717138D01*
X7189191Y-15717138D02*
X7179668Y-15736186D01*
X7179668Y-15736186D02*
X7170144Y-15745710D01*
X7170144Y-15745710D02*
X7151096Y-15755234D01*
X7151096Y-15755234D02*
X7103477Y-15755234D01*
X7103477Y-15755234D02*
X7084429Y-15745710D01*
X7084429Y-15745710D02*
X7074906Y-15736186D01*
X7427287Y-15755234D02*
X7427287Y-15555234D01*
X7513001Y-15755234D02*
X7513001Y-15650472D01*
X7513001Y-15650472D02*
X7503477Y-15631424D01*
X7503477Y-15631424D02*
X7484430Y-15621900D01*
X7484430Y-15621900D02*
X7455858Y-15621900D01*
X7455858Y-15621900D02*
X7436810Y-15631424D01*
X7436810Y-15631424D02*
X7427287Y-15640948D01*
X7636810Y-15755234D02*
X7617763Y-15745710D01*
X7617763Y-15745710D02*
X7608239Y-15736186D01*
X7608239Y-15736186D02*
X7598715Y-15717138D01*
X7598715Y-15717138D02*
X7598715Y-15659996D01*
X7598715Y-15659996D02*
X7608239Y-15640948D01*
X7608239Y-15640948D02*
X7617763Y-15631424D01*
X7617763Y-15631424D02*
X7636810Y-15621900D01*
X7636810Y-15621900D02*
X7665382Y-15621900D01*
X7665382Y-15621900D02*
X7684430Y-15631424D01*
X7684430Y-15631424D02*
X7693953Y-15640948D01*
X7693953Y-15640948D02*
X7703477Y-15659996D01*
X7703477Y-15659996D02*
X7703477Y-15717138D01*
X7703477Y-15717138D02*
X7693953Y-15736186D01*
X7693953Y-15736186D02*
X7684430Y-15745710D01*
X7684430Y-15745710D02*
X7665382Y-15755234D01*
X7665382Y-15755234D02*
X7636810Y-15755234D01*
X7817763Y-15755234D02*
X7798715Y-15745710D01*
X7798715Y-15745710D02*
X7789191Y-15726662D01*
X7789191Y-15726662D02*
X7789191Y-15555234D01*
X7970144Y-15745710D02*
X7951096Y-15755234D01*
X7951096Y-15755234D02*
X7913001Y-15755234D01*
X7913001Y-15755234D02*
X7893953Y-15745710D01*
X7893953Y-15745710D02*
X7884430Y-15726662D01*
X7884430Y-15726662D02*
X7884430Y-15650472D01*
X7884430Y-15650472D02*
X7893953Y-15631424D01*
X7893953Y-15631424D02*
X7913001Y-15621900D01*
X7913001Y-15621900D02*
X7951096Y-15621900D01*
X7951096Y-15621900D02*
X7970144Y-15631424D01*
X7970144Y-15631424D02*
X7979668Y-15650472D01*
X7979668Y-15650472D02*
X7979668Y-15669519D01*
X7979668Y-15669519D02*
X7884430Y-15688567D01*
X8055858Y-15745710D02*
X8074906Y-15755234D01*
X8074906Y-15755234D02*
X8113001Y-15755234D01*
X8113001Y-15755234D02*
X8132049Y-15745710D01*
X8132049Y-15745710D02*
X8141572Y-15726662D01*
X8141572Y-15726662D02*
X8141572Y-15717138D01*
X8141572Y-15717138D02*
X8132049Y-15698091D01*
X8132049Y-15698091D02*
X8113001Y-15688567D01*
X8113001Y-15688567D02*
X8084430Y-15688567D01*
X8084430Y-15688567D02*
X8065382Y-15679043D01*
X8065382Y-15679043D02*
X8055858Y-15659996D01*
X8055858Y-15659996D02*
X8055858Y-15650472D01*
X8055858Y-15650472D02*
X8065382Y-15631424D01*
X8065382Y-15631424D02*
X8084430Y-15621900D01*
X8084430Y-15621900D02*
X8113001Y-15621900D01*
X8113001Y-15621900D02*
X8132049Y-15631424D01*
X8208239Y-15831424D02*
X8217763Y-15821900D01*
X8217763Y-15821900D02*
X8236811Y-15793329D01*
X8236811Y-15793329D02*
X8246334Y-15774281D01*
X8246334Y-15774281D02*
X8255858Y-15745710D01*
X8255858Y-15745710D02*
X8265382Y-15698091D01*
X8265382Y-15698091D02*
X8265382Y-15659996D01*
X8265382Y-15659996D02*
X8255858Y-15612377D01*
X8255858Y-15612377D02*
X8246334Y-15583805D01*
X8246334Y-15583805D02*
X8236811Y-15564758D01*
X8236811Y-15564758D02*
X8217763Y-15536186D01*
X8217763Y-15536186D02*
X8208239Y-15526662D01*
D12*
X3204600Y-15889650D02*
X3204600Y-15965850D01*
X3166500Y-15927750D02*
X3242700Y-15927750D01*
D11*
X3541572Y-15819234D02*
X3560620Y-15819234D01*
X3560620Y-15819234D02*
X3579667Y-15828758D01*
X3579667Y-15828758D02*
X3589191Y-15838281D01*
X3589191Y-15838281D02*
X3598715Y-15857329D01*
X3598715Y-15857329D02*
X3608239Y-15895424D01*
X3608239Y-15895424D02*
X3608239Y-15943043D01*
X3608239Y-15943043D02*
X3598715Y-15981138D01*
X3598715Y-15981138D02*
X3589191Y-16000186D01*
X3589191Y-16000186D02*
X3579667Y-16009710D01*
X3579667Y-16009710D02*
X3560620Y-16019234D01*
X3560620Y-16019234D02*
X3541572Y-16019234D01*
X3541572Y-16019234D02*
X3522524Y-16009710D01*
X3522524Y-16009710D02*
X3513001Y-16000186D01*
X3513001Y-16000186D02*
X3503477Y-15981138D01*
X3503477Y-15981138D02*
X3493953Y-15943043D01*
X3493953Y-15943043D02*
X3493953Y-15895424D01*
X3493953Y-15895424D02*
X3503477Y-15857329D01*
X3503477Y-15857329D02*
X3513001Y-15838281D01*
X3513001Y-15838281D02*
X3522524Y-15828758D01*
X3522524Y-15828758D02*
X3541572Y-15819234D01*
X3693953Y-16000186D02*
X3703477Y-16009710D01*
X3703477Y-16009710D02*
X3693953Y-16019234D01*
X3693953Y-16019234D02*
X3684429Y-16009710D01*
X3684429Y-16009710D02*
X3693953Y-16000186D01*
X3693953Y-16000186D02*
X3693953Y-16019234D01*
X3770143Y-15819234D02*
X3903477Y-15819234D01*
X3903477Y-15819234D02*
X3817762Y-16019234D01*
X4065382Y-15819234D02*
X4027286Y-15819234D01*
X4027286Y-15819234D02*
X4008239Y-15828758D01*
X4008239Y-15828758D02*
X3998715Y-15838281D01*
X3998715Y-15838281D02*
X3979667Y-15866853D01*
X3979667Y-15866853D02*
X3970143Y-15904948D01*
X3970143Y-15904948D02*
X3970143Y-15981138D01*
X3970143Y-15981138D02*
X3979667Y-16000186D01*
X3979667Y-16000186D02*
X3989191Y-16009710D01*
X3989191Y-16009710D02*
X4008239Y-16019234D01*
X4008239Y-16019234D02*
X4046334Y-16019234D01*
X4046334Y-16019234D02*
X4065382Y-16009710D01*
X4065382Y-16009710D02*
X4074905Y-16000186D01*
X4074905Y-16000186D02*
X4084429Y-15981138D01*
X4084429Y-15981138D02*
X4084429Y-15933519D01*
X4084429Y-15933519D02*
X4074905Y-15914472D01*
X4074905Y-15914472D02*
X4065382Y-15904948D01*
X4065382Y-15904948D02*
X4046334Y-15895424D01*
X4046334Y-15895424D02*
X4008239Y-15895424D01*
X4008239Y-15895424D02*
X3989191Y-15904948D01*
X3989191Y-15904948D02*
X3979667Y-15914472D01*
X3979667Y-15914472D02*
X3970143Y-15933519D01*
X4160620Y-15838281D02*
X4170143Y-15828758D01*
X4170143Y-15828758D02*
X4189191Y-15819234D01*
X4189191Y-15819234D02*
X4236810Y-15819234D01*
X4236810Y-15819234D02*
X4255858Y-15828758D01*
X4255858Y-15828758D02*
X4265382Y-15838281D01*
X4265382Y-15838281D02*
X4274905Y-15857329D01*
X4274905Y-15857329D02*
X4274905Y-15876377D01*
X4274905Y-15876377D02*
X4265382Y-15904948D01*
X4265382Y-15904948D02*
X4151096Y-16019234D01*
X4151096Y-16019234D02*
X4274905Y-16019234D01*
X4360620Y-16019234D02*
X4360620Y-15885900D01*
X4360620Y-15904948D02*
X4370144Y-15895424D01*
X4370144Y-15895424D02*
X4389191Y-15885900D01*
X4389191Y-15885900D02*
X4417763Y-15885900D01*
X4417763Y-15885900D02*
X4436810Y-15895424D01*
X4436810Y-15895424D02*
X4446334Y-15914472D01*
X4446334Y-15914472D02*
X4446334Y-16019234D01*
X4446334Y-15914472D02*
X4455858Y-15895424D01*
X4455858Y-15895424D02*
X4474905Y-15885900D01*
X4474905Y-15885900D02*
X4503477Y-15885900D01*
X4503477Y-15885900D02*
X4522525Y-15895424D01*
X4522525Y-15895424D02*
X4532048Y-15914472D01*
X4532048Y-15914472D02*
X4532048Y-16019234D01*
X4627286Y-16019234D02*
X4627286Y-15885900D01*
X4627286Y-15904948D02*
X4636810Y-15895424D01*
X4636810Y-15895424D02*
X4655858Y-15885900D01*
X4655858Y-15885900D02*
X4684429Y-15885900D01*
X4684429Y-15885900D02*
X4703477Y-15895424D01*
X4703477Y-15895424D02*
X4713001Y-15914472D01*
X4713001Y-15914472D02*
X4713001Y-16019234D01*
X4713001Y-15914472D02*
X4722525Y-15895424D01*
X4722525Y-15895424D02*
X4741572Y-15885900D01*
X4741572Y-15885900D02*
X4770144Y-15885900D01*
X4770144Y-15885900D02*
X4789191Y-15895424D01*
X4789191Y-15895424D02*
X4798715Y-15914472D01*
X4798715Y-15914472D02*
X4798715Y-16019234D01*
X5189191Y-15809710D02*
X5017763Y-16066853D01*
X5446334Y-15819234D02*
X5465382Y-15819234D01*
X5465382Y-15819234D02*
X5484429Y-15828758D01*
X5484429Y-15828758D02*
X5493953Y-15838281D01*
X5493953Y-15838281D02*
X5503477Y-15857329D01*
X5503477Y-15857329D02*
X5513001Y-15895424D01*
X5513001Y-15895424D02*
X5513001Y-15943043D01*
X5513001Y-15943043D02*
X5503477Y-15981138D01*
X5503477Y-15981138D02*
X5493953Y-16000186D01*
X5493953Y-16000186D02*
X5484429Y-16009710D01*
X5484429Y-16009710D02*
X5465382Y-16019234D01*
X5465382Y-16019234D02*
X5446334Y-16019234D01*
X5446334Y-16019234D02*
X5427287Y-16009710D01*
X5427287Y-16009710D02*
X5417763Y-16000186D01*
X5417763Y-16000186D02*
X5408239Y-15981138D01*
X5408239Y-15981138D02*
X5398715Y-15943043D01*
X5398715Y-15943043D02*
X5398715Y-15895424D01*
X5398715Y-15895424D02*
X5408239Y-15857329D01*
X5408239Y-15857329D02*
X5417763Y-15838281D01*
X5417763Y-15838281D02*
X5427287Y-15828758D01*
X5427287Y-15828758D02*
X5446334Y-15819234D01*
X5598715Y-16000186D02*
X5608239Y-16009710D01*
X5608239Y-16009710D02*
X5598715Y-16019234D01*
X5598715Y-16019234D02*
X5589191Y-16009710D01*
X5589191Y-16009710D02*
X5598715Y-16000186D01*
X5598715Y-16000186D02*
X5598715Y-16019234D01*
X5732048Y-15819234D02*
X5751096Y-15819234D01*
X5751096Y-15819234D02*
X5770144Y-15828758D01*
X5770144Y-15828758D02*
X5779667Y-15838281D01*
X5779667Y-15838281D02*
X5789191Y-15857329D01*
X5789191Y-15857329D02*
X5798715Y-15895424D01*
X5798715Y-15895424D02*
X5798715Y-15943043D01*
X5798715Y-15943043D02*
X5789191Y-15981138D01*
X5789191Y-15981138D02*
X5779667Y-16000186D01*
X5779667Y-16000186D02*
X5770144Y-16009710D01*
X5770144Y-16009710D02*
X5751096Y-16019234D01*
X5751096Y-16019234D02*
X5732048Y-16019234D01*
X5732048Y-16019234D02*
X5713001Y-16009710D01*
X5713001Y-16009710D02*
X5703477Y-16000186D01*
X5703477Y-16000186D02*
X5693953Y-15981138D01*
X5693953Y-15981138D02*
X5684429Y-15943043D01*
X5684429Y-15943043D02*
X5684429Y-15895424D01*
X5684429Y-15895424D02*
X5693953Y-15857329D01*
X5693953Y-15857329D02*
X5703477Y-15838281D01*
X5703477Y-15838281D02*
X5713001Y-15828758D01*
X5713001Y-15828758D02*
X5732048Y-15819234D01*
X5865382Y-15819234D02*
X5989191Y-15819234D01*
X5989191Y-15819234D02*
X5922525Y-15895424D01*
X5922525Y-15895424D02*
X5951096Y-15895424D01*
X5951096Y-15895424D02*
X5970144Y-15904948D01*
X5970144Y-15904948D02*
X5979667Y-15914472D01*
X5979667Y-15914472D02*
X5989191Y-15933519D01*
X5989191Y-15933519D02*
X5989191Y-15981138D01*
X5989191Y-15981138D02*
X5979667Y-16000186D01*
X5979667Y-16000186D02*
X5970144Y-16009710D01*
X5970144Y-16009710D02*
X5951096Y-16019234D01*
X5951096Y-16019234D02*
X5893953Y-16019234D01*
X5893953Y-16019234D02*
X5874906Y-16009710D01*
X5874906Y-16009710D02*
X5865382Y-16000186D01*
X6113001Y-15819234D02*
X6132048Y-15819234D01*
X6132048Y-15819234D02*
X6151096Y-15828758D01*
X6151096Y-15828758D02*
X6160620Y-15838281D01*
X6160620Y-15838281D02*
X6170144Y-15857329D01*
X6170144Y-15857329D02*
X6179667Y-15895424D01*
X6179667Y-15895424D02*
X6179667Y-15943043D01*
X6179667Y-15943043D02*
X6170144Y-15981138D01*
X6170144Y-15981138D02*
X6160620Y-16000186D01*
X6160620Y-16000186D02*
X6151096Y-16009710D01*
X6151096Y-16009710D02*
X6132048Y-16019234D01*
X6132048Y-16019234D02*
X6113001Y-16019234D01*
X6113001Y-16019234D02*
X6093953Y-16009710D01*
X6093953Y-16009710D02*
X6084429Y-16000186D01*
X6084429Y-16000186D02*
X6074906Y-15981138D01*
X6074906Y-15981138D02*
X6065382Y-15943043D01*
X6065382Y-15943043D02*
X6065382Y-15895424D01*
X6065382Y-15895424D02*
X6074906Y-15857329D01*
X6074906Y-15857329D02*
X6084429Y-15838281D01*
X6084429Y-15838281D02*
X6093953Y-15828758D01*
X6093953Y-15828758D02*
X6113001Y-15819234D01*
X6303477Y-15819234D02*
X6322525Y-15819234D01*
X6322525Y-15819234D02*
X6341572Y-15828758D01*
X6341572Y-15828758D02*
X6351096Y-15838281D01*
X6351096Y-15838281D02*
X6360620Y-15857329D01*
X6360620Y-15857329D02*
X6370144Y-15895424D01*
X6370144Y-15895424D02*
X6370144Y-15943043D01*
X6370144Y-15943043D02*
X6360620Y-15981138D01*
X6360620Y-15981138D02*
X6351096Y-16000186D01*
X6351096Y-16000186D02*
X6341572Y-16009710D01*
X6341572Y-16009710D02*
X6322525Y-16019234D01*
X6322525Y-16019234D02*
X6303477Y-16019234D01*
X6303477Y-16019234D02*
X6284429Y-16009710D01*
X6284429Y-16009710D02*
X6274906Y-16000186D01*
X6274906Y-16000186D02*
X6265382Y-15981138D01*
X6265382Y-15981138D02*
X6255858Y-15943043D01*
X6255858Y-15943043D02*
X6255858Y-15895424D01*
X6255858Y-15895424D02*
X6265382Y-15857329D01*
X6265382Y-15857329D02*
X6274906Y-15838281D01*
X6274906Y-15838281D02*
X6284429Y-15828758D01*
X6284429Y-15828758D02*
X6303477Y-15819234D01*
X6446334Y-15819234D02*
X6446334Y-15857329D01*
X6522525Y-15819234D02*
X6522525Y-15857329D01*
X6817763Y-16095424D02*
X6808239Y-16085900D01*
X6808239Y-16085900D02*
X6789191Y-16057329D01*
X6789191Y-16057329D02*
X6779668Y-16038281D01*
X6779668Y-16038281D02*
X6770144Y-16009710D01*
X6770144Y-16009710D02*
X6760620Y-15962091D01*
X6760620Y-15962091D02*
X6760620Y-15923996D01*
X6760620Y-15923996D02*
X6770144Y-15876377D01*
X6770144Y-15876377D02*
X6779668Y-15847805D01*
X6779668Y-15847805D02*
X6789191Y-15828758D01*
X6789191Y-15828758D02*
X6808239Y-15800186D01*
X6808239Y-15800186D02*
X6817763Y-15790662D01*
X6998715Y-16019234D02*
X6884429Y-16019234D01*
X6941572Y-16019234D02*
X6941572Y-15819234D01*
X6941572Y-15819234D02*
X6922525Y-15847805D01*
X6922525Y-15847805D02*
X6903477Y-15866853D01*
X6903477Y-15866853D02*
X6884429Y-15876377D01*
X7170144Y-15885900D02*
X7170144Y-16019234D01*
X7122525Y-15809710D02*
X7074906Y-15952567D01*
X7074906Y-15952567D02*
X7198715Y-15952567D01*
X7427287Y-16019234D02*
X7427287Y-15819234D01*
X7513001Y-16019234D02*
X7513001Y-15914472D01*
X7513001Y-15914472D02*
X7503477Y-15895424D01*
X7503477Y-15895424D02*
X7484430Y-15885900D01*
X7484430Y-15885900D02*
X7455858Y-15885900D01*
X7455858Y-15885900D02*
X7436810Y-15895424D01*
X7436810Y-15895424D02*
X7427287Y-15904948D01*
X7636810Y-16019234D02*
X7617763Y-16009710D01*
X7617763Y-16009710D02*
X7608239Y-16000186D01*
X7608239Y-16000186D02*
X7598715Y-15981138D01*
X7598715Y-15981138D02*
X7598715Y-15923996D01*
X7598715Y-15923996D02*
X7608239Y-15904948D01*
X7608239Y-15904948D02*
X7617763Y-15895424D01*
X7617763Y-15895424D02*
X7636810Y-15885900D01*
X7636810Y-15885900D02*
X7665382Y-15885900D01*
X7665382Y-15885900D02*
X7684430Y-15895424D01*
X7684430Y-15895424D02*
X7693953Y-15904948D01*
X7693953Y-15904948D02*
X7703477Y-15923996D01*
X7703477Y-15923996D02*
X7703477Y-15981138D01*
X7703477Y-15981138D02*
X7693953Y-16000186D01*
X7693953Y-16000186D02*
X7684430Y-16009710D01*
X7684430Y-16009710D02*
X7665382Y-16019234D01*
X7665382Y-16019234D02*
X7636810Y-16019234D01*
X7817763Y-16019234D02*
X7798715Y-16009710D01*
X7798715Y-16009710D02*
X7789191Y-15990662D01*
X7789191Y-15990662D02*
X7789191Y-15819234D01*
X7970144Y-16009710D02*
X7951096Y-16019234D01*
X7951096Y-16019234D02*
X7913001Y-16019234D01*
X7913001Y-16019234D02*
X7893953Y-16009710D01*
X7893953Y-16009710D02*
X7884430Y-15990662D01*
X7884430Y-15990662D02*
X7884430Y-15914472D01*
X7884430Y-15914472D02*
X7893953Y-15895424D01*
X7893953Y-15895424D02*
X7913001Y-15885900D01*
X7913001Y-15885900D02*
X7951096Y-15885900D01*
X7951096Y-15885900D02*
X7970144Y-15895424D01*
X7970144Y-15895424D02*
X7979668Y-15914472D01*
X7979668Y-15914472D02*
X7979668Y-15933519D01*
X7979668Y-15933519D02*
X7884430Y-15952567D01*
X8055858Y-16009710D02*
X8074906Y-16019234D01*
X8074906Y-16019234D02*
X8113001Y-16019234D01*
X8113001Y-16019234D02*
X8132049Y-16009710D01*
X8132049Y-16009710D02*
X8141572Y-15990662D01*
X8141572Y-15990662D02*
X8141572Y-15981138D01*
X8141572Y-15981138D02*
X8132049Y-15962091D01*
X8132049Y-15962091D02*
X8113001Y-15952567D01*
X8113001Y-15952567D02*
X8084430Y-15952567D01*
X8084430Y-15952567D02*
X8065382Y-15943043D01*
X8065382Y-15943043D02*
X8055858Y-15923996D01*
X8055858Y-15923996D02*
X8055858Y-15914472D01*
X8055858Y-15914472D02*
X8065382Y-15895424D01*
X8065382Y-15895424D02*
X8084430Y-15885900D01*
X8084430Y-15885900D02*
X8113001Y-15885900D01*
X8113001Y-15885900D02*
X8132049Y-15895424D01*
X8208239Y-16095424D02*
X8217763Y-16085900D01*
X8217763Y-16085900D02*
X8236811Y-16057329D01*
X8236811Y-16057329D02*
X8246334Y-16038281D01*
X8246334Y-16038281D02*
X8255858Y-16009710D01*
X8255858Y-16009710D02*
X8265382Y-15962091D01*
X8265382Y-15962091D02*
X8265382Y-15923996D01*
X8265382Y-15923996D02*
X8255858Y-15876377D01*
X8255858Y-15876377D02*
X8246334Y-15847805D01*
X8246334Y-15847805D02*
X8236811Y-15828758D01*
X8236811Y-15828758D02*
X8217763Y-15800186D01*
X8217763Y-15800186D02*
X8208239Y-15790662D01*
D12*
X3230984Y-16220034D02*
X3230984Y-16163465D01*
X3174415Y-16163465D01*
X3174415Y-16220034D01*
X3230984Y-16220034D01*
D11*
X3541572Y-16083234D02*
X3560620Y-16083234D01*
X3560620Y-16083234D02*
X3579667Y-16092758D01*
X3579667Y-16092758D02*
X3589191Y-16102281D01*
X3589191Y-16102281D02*
X3598715Y-16121329D01*
X3598715Y-16121329D02*
X3608239Y-16159424D01*
X3608239Y-16159424D02*
X3608239Y-16207043D01*
X3608239Y-16207043D02*
X3598715Y-16245138D01*
X3598715Y-16245138D02*
X3589191Y-16264186D01*
X3589191Y-16264186D02*
X3579667Y-16273710D01*
X3579667Y-16273710D02*
X3560620Y-16283234D01*
X3560620Y-16283234D02*
X3541572Y-16283234D01*
X3541572Y-16283234D02*
X3522524Y-16273710D01*
X3522524Y-16273710D02*
X3513001Y-16264186D01*
X3513001Y-16264186D02*
X3503477Y-16245138D01*
X3503477Y-16245138D02*
X3493953Y-16207043D01*
X3493953Y-16207043D02*
X3493953Y-16159424D01*
X3493953Y-16159424D02*
X3503477Y-16121329D01*
X3503477Y-16121329D02*
X3513001Y-16102281D01*
X3513001Y-16102281D02*
X3522524Y-16092758D01*
X3522524Y-16092758D02*
X3541572Y-16083234D01*
X3693953Y-16264186D02*
X3703477Y-16273710D01*
X3703477Y-16273710D02*
X3693953Y-16283234D01*
X3693953Y-16283234D02*
X3684429Y-16273710D01*
X3684429Y-16273710D02*
X3693953Y-16264186D01*
X3693953Y-16264186D02*
X3693953Y-16283234D01*
X3817762Y-16168948D02*
X3798715Y-16159424D01*
X3798715Y-16159424D02*
X3789191Y-16149900D01*
X3789191Y-16149900D02*
X3779667Y-16130853D01*
X3779667Y-16130853D02*
X3779667Y-16121329D01*
X3779667Y-16121329D02*
X3789191Y-16102281D01*
X3789191Y-16102281D02*
X3798715Y-16092758D01*
X3798715Y-16092758D02*
X3817762Y-16083234D01*
X3817762Y-16083234D02*
X3855858Y-16083234D01*
X3855858Y-16083234D02*
X3874905Y-16092758D01*
X3874905Y-16092758D02*
X3884429Y-16102281D01*
X3884429Y-16102281D02*
X3893953Y-16121329D01*
X3893953Y-16121329D02*
X3893953Y-16130853D01*
X3893953Y-16130853D02*
X3884429Y-16149900D01*
X3884429Y-16149900D02*
X3874905Y-16159424D01*
X3874905Y-16159424D02*
X3855858Y-16168948D01*
X3855858Y-16168948D02*
X3817762Y-16168948D01*
X3817762Y-16168948D02*
X3798715Y-16178472D01*
X3798715Y-16178472D02*
X3789191Y-16187996D01*
X3789191Y-16187996D02*
X3779667Y-16207043D01*
X3779667Y-16207043D02*
X3779667Y-16245138D01*
X3779667Y-16245138D02*
X3789191Y-16264186D01*
X3789191Y-16264186D02*
X3798715Y-16273710D01*
X3798715Y-16273710D02*
X3817762Y-16283234D01*
X3817762Y-16283234D02*
X3855858Y-16283234D01*
X3855858Y-16283234D02*
X3874905Y-16273710D01*
X3874905Y-16273710D02*
X3884429Y-16264186D01*
X3884429Y-16264186D02*
X3893953Y-16245138D01*
X3893953Y-16245138D02*
X3893953Y-16207043D01*
X3893953Y-16207043D02*
X3884429Y-16187996D01*
X3884429Y-16187996D02*
X3874905Y-16178472D01*
X3874905Y-16178472D02*
X3855858Y-16168948D01*
X4017762Y-16083234D02*
X4036810Y-16083234D01*
X4036810Y-16083234D02*
X4055858Y-16092758D01*
X4055858Y-16092758D02*
X4065382Y-16102281D01*
X4065382Y-16102281D02*
X4074905Y-16121329D01*
X4074905Y-16121329D02*
X4084429Y-16159424D01*
X4084429Y-16159424D02*
X4084429Y-16207043D01*
X4084429Y-16207043D02*
X4074905Y-16245138D01*
X4074905Y-16245138D02*
X4065382Y-16264186D01*
X4065382Y-16264186D02*
X4055858Y-16273710D01*
X4055858Y-16273710D02*
X4036810Y-16283234D01*
X4036810Y-16283234D02*
X4017762Y-16283234D01*
X4017762Y-16283234D02*
X3998715Y-16273710D01*
X3998715Y-16273710D02*
X3989191Y-16264186D01*
X3989191Y-16264186D02*
X3979667Y-16245138D01*
X3979667Y-16245138D02*
X3970143Y-16207043D01*
X3970143Y-16207043D02*
X3970143Y-16159424D01*
X3970143Y-16159424D02*
X3979667Y-16121329D01*
X3979667Y-16121329D02*
X3989191Y-16102281D01*
X3989191Y-16102281D02*
X3998715Y-16092758D01*
X3998715Y-16092758D02*
X4017762Y-16083234D01*
X4208239Y-16083234D02*
X4227286Y-16083234D01*
X4227286Y-16083234D02*
X4246334Y-16092758D01*
X4246334Y-16092758D02*
X4255858Y-16102281D01*
X4255858Y-16102281D02*
X4265382Y-16121329D01*
X4265382Y-16121329D02*
X4274905Y-16159424D01*
X4274905Y-16159424D02*
X4274905Y-16207043D01*
X4274905Y-16207043D02*
X4265382Y-16245138D01*
X4265382Y-16245138D02*
X4255858Y-16264186D01*
X4255858Y-16264186D02*
X4246334Y-16273710D01*
X4246334Y-16273710D02*
X4227286Y-16283234D01*
X4227286Y-16283234D02*
X4208239Y-16283234D01*
X4208239Y-16283234D02*
X4189191Y-16273710D01*
X4189191Y-16273710D02*
X4179667Y-16264186D01*
X4179667Y-16264186D02*
X4170143Y-16245138D01*
X4170143Y-16245138D02*
X4160620Y-16207043D01*
X4160620Y-16207043D02*
X4160620Y-16159424D01*
X4160620Y-16159424D02*
X4170143Y-16121329D01*
X4170143Y-16121329D02*
X4179667Y-16102281D01*
X4179667Y-16102281D02*
X4189191Y-16092758D01*
X4189191Y-16092758D02*
X4208239Y-16083234D01*
X4360620Y-16283234D02*
X4360620Y-16149900D01*
X4360620Y-16168948D02*
X4370144Y-16159424D01*
X4370144Y-16159424D02*
X4389191Y-16149900D01*
X4389191Y-16149900D02*
X4417763Y-16149900D01*
X4417763Y-16149900D02*
X4436810Y-16159424D01*
X4436810Y-16159424D02*
X4446334Y-16178472D01*
X4446334Y-16178472D02*
X4446334Y-16283234D01*
X4446334Y-16178472D02*
X4455858Y-16159424D01*
X4455858Y-16159424D02*
X4474905Y-16149900D01*
X4474905Y-16149900D02*
X4503477Y-16149900D01*
X4503477Y-16149900D02*
X4522525Y-16159424D01*
X4522525Y-16159424D02*
X4532048Y-16178472D01*
X4532048Y-16178472D02*
X4532048Y-16283234D01*
X4627286Y-16283234D02*
X4627286Y-16149900D01*
X4627286Y-16168948D02*
X4636810Y-16159424D01*
X4636810Y-16159424D02*
X4655858Y-16149900D01*
X4655858Y-16149900D02*
X4684429Y-16149900D01*
X4684429Y-16149900D02*
X4703477Y-16159424D01*
X4703477Y-16159424D02*
X4713001Y-16178472D01*
X4713001Y-16178472D02*
X4713001Y-16283234D01*
X4713001Y-16178472D02*
X4722525Y-16159424D01*
X4722525Y-16159424D02*
X4741572Y-16149900D01*
X4741572Y-16149900D02*
X4770144Y-16149900D01*
X4770144Y-16149900D02*
X4789191Y-16159424D01*
X4789191Y-16159424D02*
X4798715Y-16178472D01*
X4798715Y-16178472D02*
X4798715Y-16283234D01*
X5189191Y-16073710D02*
X5017763Y-16330853D01*
X5446334Y-16083234D02*
X5465382Y-16083234D01*
X5465382Y-16083234D02*
X5484429Y-16092758D01*
X5484429Y-16092758D02*
X5493953Y-16102281D01*
X5493953Y-16102281D02*
X5503477Y-16121329D01*
X5503477Y-16121329D02*
X5513001Y-16159424D01*
X5513001Y-16159424D02*
X5513001Y-16207043D01*
X5513001Y-16207043D02*
X5503477Y-16245138D01*
X5503477Y-16245138D02*
X5493953Y-16264186D01*
X5493953Y-16264186D02*
X5484429Y-16273710D01*
X5484429Y-16273710D02*
X5465382Y-16283234D01*
X5465382Y-16283234D02*
X5446334Y-16283234D01*
X5446334Y-16283234D02*
X5427287Y-16273710D01*
X5427287Y-16273710D02*
X5417763Y-16264186D01*
X5417763Y-16264186D02*
X5408239Y-16245138D01*
X5408239Y-16245138D02*
X5398715Y-16207043D01*
X5398715Y-16207043D02*
X5398715Y-16159424D01*
X5398715Y-16159424D02*
X5408239Y-16121329D01*
X5408239Y-16121329D02*
X5417763Y-16102281D01*
X5417763Y-16102281D02*
X5427287Y-16092758D01*
X5427287Y-16092758D02*
X5446334Y-16083234D01*
X5598715Y-16264186D02*
X5608239Y-16273710D01*
X5608239Y-16273710D02*
X5598715Y-16283234D01*
X5598715Y-16283234D02*
X5589191Y-16273710D01*
X5589191Y-16273710D02*
X5598715Y-16264186D01*
X5598715Y-16264186D02*
X5598715Y-16283234D01*
X5732048Y-16083234D02*
X5751096Y-16083234D01*
X5751096Y-16083234D02*
X5770144Y-16092758D01*
X5770144Y-16092758D02*
X5779667Y-16102281D01*
X5779667Y-16102281D02*
X5789191Y-16121329D01*
X5789191Y-16121329D02*
X5798715Y-16159424D01*
X5798715Y-16159424D02*
X5798715Y-16207043D01*
X5798715Y-16207043D02*
X5789191Y-16245138D01*
X5789191Y-16245138D02*
X5779667Y-16264186D01*
X5779667Y-16264186D02*
X5770144Y-16273710D01*
X5770144Y-16273710D02*
X5751096Y-16283234D01*
X5751096Y-16283234D02*
X5732048Y-16283234D01*
X5732048Y-16283234D02*
X5713001Y-16273710D01*
X5713001Y-16273710D02*
X5703477Y-16264186D01*
X5703477Y-16264186D02*
X5693953Y-16245138D01*
X5693953Y-16245138D02*
X5684429Y-16207043D01*
X5684429Y-16207043D02*
X5684429Y-16159424D01*
X5684429Y-16159424D02*
X5693953Y-16121329D01*
X5693953Y-16121329D02*
X5703477Y-16102281D01*
X5703477Y-16102281D02*
X5713001Y-16092758D01*
X5713001Y-16092758D02*
X5732048Y-16083234D01*
X5865382Y-16083234D02*
X5989191Y-16083234D01*
X5989191Y-16083234D02*
X5922525Y-16159424D01*
X5922525Y-16159424D02*
X5951096Y-16159424D01*
X5951096Y-16159424D02*
X5970144Y-16168948D01*
X5970144Y-16168948D02*
X5979667Y-16178472D01*
X5979667Y-16178472D02*
X5989191Y-16197519D01*
X5989191Y-16197519D02*
X5989191Y-16245138D01*
X5989191Y-16245138D02*
X5979667Y-16264186D01*
X5979667Y-16264186D02*
X5970144Y-16273710D01*
X5970144Y-16273710D02*
X5951096Y-16283234D01*
X5951096Y-16283234D02*
X5893953Y-16283234D01*
X5893953Y-16283234D02*
X5874906Y-16273710D01*
X5874906Y-16273710D02*
X5865382Y-16264186D01*
X6179667Y-16283234D02*
X6065382Y-16283234D01*
X6122525Y-16283234D02*
X6122525Y-16083234D01*
X6122525Y-16083234D02*
X6103477Y-16111805D01*
X6103477Y-16111805D02*
X6084429Y-16130853D01*
X6084429Y-16130853D02*
X6065382Y-16140377D01*
X6360620Y-16083234D02*
X6265382Y-16083234D01*
X6265382Y-16083234D02*
X6255858Y-16178472D01*
X6255858Y-16178472D02*
X6265382Y-16168948D01*
X6265382Y-16168948D02*
X6284429Y-16159424D01*
X6284429Y-16159424D02*
X6332048Y-16159424D01*
X6332048Y-16159424D02*
X6351096Y-16168948D01*
X6351096Y-16168948D02*
X6360620Y-16178472D01*
X6360620Y-16178472D02*
X6370144Y-16197519D01*
X6370144Y-16197519D02*
X6370144Y-16245138D01*
X6370144Y-16245138D02*
X6360620Y-16264186D01*
X6360620Y-16264186D02*
X6351096Y-16273710D01*
X6351096Y-16273710D02*
X6332048Y-16283234D01*
X6332048Y-16283234D02*
X6284429Y-16283234D01*
X6284429Y-16283234D02*
X6265382Y-16273710D01*
X6265382Y-16273710D02*
X6255858Y-16264186D01*
X6446334Y-16083234D02*
X6446334Y-16121329D01*
X6522525Y-16083234D02*
X6522525Y-16121329D01*
X6817763Y-16359424D02*
X6808239Y-16349900D01*
X6808239Y-16349900D02*
X6789191Y-16321329D01*
X6789191Y-16321329D02*
X6779668Y-16302281D01*
X6779668Y-16302281D02*
X6770144Y-16273710D01*
X6770144Y-16273710D02*
X6760620Y-16226091D01*
X6760620Y-16226091D02*
X6760620Y-16187996D01*
X6760620Y-16187996D02*
X6770144Y-16140377D01*
X6770144Y-16140377D02*
X6779668Y-16111805D01*
X6779668Y-16111805D02*
X6789191Y-16092758D01*
X6789191Y-16092758D02*
X6808239Y-16064186D01*
X6808239Y-16064186D02*
X6817763Y-16054662D01*
X6979668Y-16149900D02*
X6979668Y-16283234D01*
X6932048Y-16073710D02*
X6884429Y-16216567D01*
X6884429Y-16216567D02*
X7008239Y-16216567D01*
X7236810Y-16283234D02*
X7236810Y-16083234D01*
X7322525Y-16283234D02*
X7322525Y-16178472D01*
X7322525Y-16178472D02*
X7313001Y-16159424D01*
X7313001Y-16159424D02*
X7293953Y-16149900D01*
X7293953Y-16149900D02*
X7265382Y-16149900D01*
X7265382Y-16149900D02*
X7246334Y-16159424D01*
X7246334Y-16159424D02*
X7236810Y-16168948D01*
X7446334Y-16283234D02*
X7427287Y-16273710D01*
X7427287Y-16273710D02*
X7417763Y-16264186D01*
X7417763Y-16264186D02*
X7408239Y-16245138D01*
X7408239Y-16245138D02*
X7408239Y-16187996D01*
X7408239Y-16187996D02*
X7417763Y-16168948D01*
X7417763Y-16168948D02*
X7427287Y-16159424D01*
X7427287Y-16159424D02*
X7446334Y-16149900D01*
X7446334Y-16149900D02*
X7474906Y-16149900D01*
X7474906Y-16149900D02*
X7493953Y-16159424D01*
X7493953Y-16159424D02*
X7503477Y-16168948D01*
X7503477Y-16168948D02*
X7513001Y-16187996D01*
X7513001Y-16187996D02*
X7513001Y-16245138D01*
X7513001Y-16245138D02*
X7503477Y-16264186D01*
X7503477Y-16264186D02*
X7493953Y-16273710D01*
X7493953Y-16273710D02*
X7474906Y-16283234D01*
X7474906Y-16283234D02*
X7446334Y-16283234D01*
X7627287Y-16283234D02*
X7608239Y-16273710D01*
X7608239Y-16273710D02*
X7598715Y-16254662D01*
X7598715Y-16254662D02*
X7598715Y-16083234D01*
X7779668Y-16273710D02*
X7760620Y-16283234D01*
X7760620Y-16283234D02*
X7722525Y-16283234D01*
X7722525Y-16283234D02*
X7703477Y-16273710D01*
X7703477Y-16273710D02*
X7693953Y-16254662D01*
X7693953Y-16254662D02*
X7693953Y-16178472D01*
X7693953Y-16178472D02*
X7703477Y-16159424D01*
X7703477Y-16159424D02*
X7722525Y-16149900D01*
X7722525Y-16149900D02*
X7760620Y-16149900D01*
X7760620Y-16149900D02*
X7779668Y-16159424D01*
X7779668Y-16159424D02*
X7789191Y-16178472D01*
X7789191Y-16178472D02*
X7789191Y-16197519D01*
X7789191Y-16197519D02*
X7693953Y-16216567D01*
X7865382Y-16273710D02*
X7884430Y-16283234D01*
X7884430Y-16283234D02*
X7922525Y-16283234D01*
X7922525Y-16283234D02*
X7941572Y-16273710D01*
X7941572Y-16273710D02*
X7951096Y-16254662D01*
X7951096Y-16254662D02*
X7951096Y-16245138D01*
X7951096Y-16245138D02*
X7941572Y-16226091D01*
X7941572Y-16226091D02*
X7922525Y-16216567D01*
X7922525Y-16216567D02*
X7893953Y-16216567D01*
X7893953Y-16216567D02*
X7874906Y-16207043D01*
X7874906Y-16207043D02*
X7865382Y-16187996D01*
X7865382Y-16187996D02*
X7865382Y-16178472D01*
X7865382Y-16178472D02*
X7874906Y-16159424D01*
X7874906Y-16159424D02*
X7893953Y-16149900D01*
X7893953Y-16149900D02*
X7922525Y-16149900D01*
X7922525Y-16149900D02*
X7941572Y-16159424D01*
X8017763Y-16359424D02*
X8027287Y-16349900D01*
X8027287Y-16349900D02*
X8046334Y-16321329D01*
X8046334Y-16321329D02*
X8055858Y-16302281D01*
X8055858Y-16302281D02*
X8065382Y-16273710D01*
X8065382Y-16273710D02*
X8074906Y-16226091D01*
X8074906Y-16226091D02*
X8074906Y-16187996D01*
X8074906Y-16187996D02*
X8065382Y-16140377D01*
X8065382Y-16140377D02*
X8055858Y-16111805D01*
X8055858Y-16111805D02*
X8046334Y-16092758D01*
X8046334Y-16092758D02*
X8027287Y-16064186D01*
X8027287Y-16064186D02*
X8017763Y-16054662D01*
D12*
X3195200Y-16503250D02*
X3242700Y-16455750D01*
X3195200Y-16408250D01*
X3147700Y-16455750D01*
X3195200Y-16503250D01*
D11*
X3541572Y-16347234D02*
X3560620Y-16347234D01*
X3560620Y-16347234D02*
X3579667Y-16356758D01*
X3579667Y-16356758D02*
X3589191Y-16366281D01*
X3589191Y-16366281D02*
X3598715Y-16385329D01*
X3598715Y-16385329D02*
X3608239Y-16423424D01*
X3608239Y-16423424D02*
X3608239Y-16471043D01*
X3608239Y-16471043D02*
X3598715Y-16509138D01*
X3598715Y-16509138D02*
X3589191Y-16528186D01*
X3589191Y-16528186D02*
X3579667Y-16537710D01*
X3579667Y-16537710D02*
X3560620Y-16547234D01*
X3560620Y-16547234D02*
X3541572Y-16547234D01*
X3541572Y-16547234D02*
X3522524Y-16537710D01*
X3522524Y-16537710D02*
X3513001Y-16528186D01*
X3513001Y-16528186D02*
X3503477Y-16509138D01*
X3503477Y-16509138D02*
X3493953Y-16471043D01*
X3493953Y-16471043D02*
X3493953Y-16423424D01*
X3493953Y-16423424D02*
X3503477Y-16385329D01*
X3503477Y-16385329D02*
X3513001Y-16366281D01*
X3513001Y-16366281D02*
X3522524Y-16356758D01*
X3522524Y-16356758D02*
X3541572Y-16347234D01*
X3693953Y-16528186D02*
X3703477Y-16537710D01*
X3703477Y-16537710D02*
X3693953Y-16547234D01*
X3693953Y-16547234D02*
X3684429Y-16537710D01*
X3684429Y-16537710D02*
X3693953Y-16528186D01*
X3693953Y-16528186D02*
X3693953Y-16547234D01*
X3798715Y-16547234D02*
X3836810Y-16547234D01*
X3836810Y-16547234D02*
X3855858Y-16537710D01*
X3855858Y-16537710D02*
X3865382Y-16528186D01*
X3865382Y-16528186D02*
X3884429Y-16499615D01*
X3884429Y-16499615D02*
X3893953Y-16461519D01*
X3893953Y-16461519D02*
X3893953Y-16385329D01*
X3893953Y-16385329D02*
X3884429Y-16366281D01*
X3884429Y-16366281D02*
X3874905Y-16356758D01*
X3874905Y-16356758D02*
X3855858Y-16347234D01*
X3855858Y-16347234D02*
X3817762Y-16347234D01*
X3817762Y-16347234D02*
X3798715Y-16356758D01*
X3798715Y-16356758D02*
X3789191Y-16366281D01*
X3789191Y-16366281D02*
X3779667Y-16385329D01*
X3779667Y-16385329D02*
X3779667Y-16432948D01*
X3779667Y-16432948D02*
X3789191Y-16451996D01*
X3789191Y-16451996D02*
X3798715Y-16461519D01*
X3798715Y-16461519D02*
X3817762Y-16471043D01*
X3817762Y-16471043D02*
X3855858Y-16471043D01*
X3855858Y-16471043D02*
X3874905Y-16461519D01*
X3874905Y-16461519D02*
X3884429Y-16451996D01*
X3884429Y-16451996D02*
X3893953Y-16432948D01*
X4074905Y-16347234D02*
X3979667Y-16347234D01*
X3979667Y-16347234D02*
X3970143Y-16442472D01*
X3970143Y-16442472D02*
X3979667Y-16432948D01*
X3979667Y-16432948D02*
X3998715Y-16423424D01*
X3998715Y-16423424D02*
X4046334Y-16423424D01*
X4046334Y-16423424D02*
X4065382Y-16432948D01*
X4065382Y-16432948D02*
X4074905Y-16442472D01*
X4074905Y-16442472D02*
X4084429Y-16461519D01*
X4084429Y-16461519D02*
X4084429Y-16509138D01*
X4084429Y-16509138D02*
X4074905Y-16528186D01*
X4074905Y-16528186D02*
X4065382Y-16537710D01*
X4065382Y-16537710D02*
X4046334Y-16547234D01*
X4046334Y-16547234D02*
X3998715Y-16547234D01*
X3998715Y-16547234D02*
X3979667Y-16537710D01*
X3979667Y-16537710D02*
X3970143Y-16528186D01*
X4208239Y-16347234D02*
X4227286Y-16347234D01*
X4227286Y-16347234D02*
X4246334Y-16356758D01*
X4246334Y-16356758D02*
X4255858Y-16366281D01*
X4255858Y-16366281D02*
X4265382Y-16385329D01*
X4265382Y-16385329D02*
X4274905Y-16423424D01*
X4274905Y-16423424D02*
X4274905Y-16471043D01*
X4274905Y-16471043D02*
X4265382Y-16509138D01*
X4265382Y-16509138D02*
X4255858Y-16528186D01*
X4255858Y-16528186D02*
X4246334Y-16537710D01*
X4246334Y-16537710D02*
X4227286Y-16547234D01*
X4227286Y-16547234D02*
X4208239Y-16547234D01*
X4208239Y-16547234D02*
X4189191Y-16537710D01*
X4189191Y-16537710D02*
X4179667Y-16528186D01*
X4179667Y-16528186D02*
X4170143Y-16509138D01*
X4170143Y-16509138D02*
X4160620Y-16471043D01*
X4160620Y-16471043D02*
X4160620Y-16423424D01*
X4160620Y-16423424D02*
X4170143Y-16385329D01*
X4170143Y-16385329D02*
X4179667Y-16366281D01*
X4179667Y-16366281D02*
X4189191Y-16356758D01*
X4189191Y-16356758D02*
X4208239Y-16347234D01*
X4360620Y-16547234D02*
X4360620Y-16413900D01*
X4360620Y-16432948D02*
X4370144Y-16423424D01*
X4370144Y-16423424D02*
X4389191Y-16413900D01*
X4389191Y-16413900D02*
X4417763Y-16413900D01*
X4417763Y-16413900D02*
X4436810Y-16423424D01*
X4436810Y-16423424D02*
X4446334Y-16442472D01*
X4446334Y-16442472D02*
X4446334Y-16547234D01*
X4446334Y-16442472D02*
X4455858Y-16423424D01*
X4455858Y-16423424D02*
X4474905Y-16413900D01*
X4474905Y-16413900D02*
X4503477Y-16413900D01*
X4503477Y-16413900D02*
X4522525Y-16423424D01*
X4522525Y-16423424D02*
X4532048Y-16442472D01*
X4532048Y-16442472D02*
X4532048Y-16547234D01*
X4627286Y-16547234D02*
X4627286Y-16413900D01*
X4627286Y-16432948D02*
X4636810Y-16423424D01*
X4636810Y-16423424D02*
X4655858Y-16413900D01*
X4655858Y-16413900D02*
X4684429Y-16413900D01*
X4684429Y-16413900D02*
X4703477Y-16423424D01*
X4703477Y-16423424D02*
X4713001Y-16442472D01*
X4713001Y-16442472D02*
X4713001Y-16547234D01*
X4713001Y-16442472D02*
X4722525Y-16423424D01*
X4722525Y-16423424D02*
X4741572Y-16413900D01*
X4741572Y-16413900D02*
X4770144Y-16413900D01*
X4770144Y-16413900D02*
X4789191Y-16423424D01*
X4789191Y-16423424D02*
X4798715Y-16442472D01*
X4798715Y-16442472D02*
X4798715Y-16547234D01*
X5189191Y-16337710D02*
X5017763Y-16594853D01*
X5446334Y-16347234D02*
X5465382Y-16347234D01*
X5465382Y-16347234D02*
X5484429Y-16356758D01*
X5484429Y-16356758D02*
X5493953Y-16366281D01*
X5493953Y-16366281D02*
X5503477Y-16385329D01*
X5503477Y-16385329D02*
X5513001Y-16423424D01*
X5513001Y-16423424D02*
X5513001Y-16471043D01*
X5513001Y-16471043D02*
X5503477Y-16509138D01*
X5503477Y-16509138D02*
X5493953Y-16528186D01*
X5493953Y-16528186D02*
X5484429Y-16537710D01*
X5484429Y-16537710D02*
X5465382Y-16547234D01*
X5465382Y-16547234D02*
X5446334Y-16547234D01*
X5446334Y-16547234D02*
X5427287Y-16537710D01*
X5427287Y-16537710D02*
X5417763Y-16528186D01*
X5417763Y-16528186D02*
X5408239Y-16509138D01*
X5408239Y-16509138D02*
X5398715Y-16471043D01*
X5398715Y-16471043D02*
X5398715Y-16423424D01*
X5398715Y-16423424D02*
X5408239Y-16385329D01*
X5408239Y-16385329D02*
X5417763Y-16366281D01*
X5417763Y-16366281D02*
X5427287Y-16356758D01*
X5427287Y-16356758D02*
X5446334Y-16347234D01*
X5598715Y-16528186D02*
X5608239Y-16537710D01*
X5608239Y-16537710D02*
X5598715Y-16547234D01*
X5598715Y-16547234D02*
X5589191Y-16537710D01*
X5589191Y-16537710D02*
X5598715Y-16528186D01*
X5598715Y-16528186D02*
X5598715Y-16547234D01*
X5732048Y-16347234D02*
X5751096Y-16347234D01*
X5751096Y-16347234D02*
X5770144Y-16356758D01*
X5770144Y-16356758D02*
X5779667Y-16366281D01*
X5779667Y-16366281D02*
X5789191Y-16385329D01*
X5789191Y-16385329D02*
X5798715Y-16423424D01*
X5798715Y-16423424D02*
X5798715Y-16471043D01*
X5798715Y-16471043D02*
X5789191Y-16509138D01*
X5789191Y-16509138D02*
X5779667Y-16528186D01*
X5779667Y-16528186D02*
X5770144Y-16537710D01*
X5770144Y-16537710D02*
X5751096Y-16547234D01*
X5751096Y-16547234D02*
X5732048Y-16547234D01*
X5732048Y-16547234D02*
X5713001Y-16537710D01*
X5713001Y-16537710D02*
X5703477Y-16528186D01*
X5703477Y-16528186D02*
X5693953Y-16509138D01*
X5693953Y-16509138D02*
X5684429Y-16471043D01*
X5684429Y-16471043D02*
X5684429Y-16423424D01*
X5684429Y-16423424D02*
X5693953Y-16385329D01*
X5693953Y-16385329D02*
X5703477Y-16366281D01*
X5703477Y-16366281D02*
X5713001Y-16356758D01*
X5713001Y-16356758D02*
X5732048Y-16347234D01*
X5865382Y-16347234D02*
X5989191Y-16347234D01*
X5989191Y-16347234D02*
X5922525Y-16423424D01*
X5922525Y-16423424D02*
X5951096Y-16423424D01*
X5951096Y-16423424D02*
X5970144Y-16432948D01*
X5970144Y-16432948D02*
X5979667Y-16442472D01*
X5979667Y-16442472D02*
X5989191Y-16461519D01*
X5989191Y-16461519D02*
X5989191Y-16509138D01*
X5989191Y-16509138D02*
X5979667Y-16528186D01*
X5979667Y-16528186D02*
X5970144Y-16537710D01*
X5970144Y-16537710D02*
X5951096Y-16547234D01*
X5951096Y-16547234D02*
X5893953Y-16547234D01*
X5893953Y-16547234D02*
X5874906Y-16537710D01*
X5874906Y-16537710D02*
X5865382Y-16528186D01*
X6055858Y-16347234D02*
X6189191Y-16347234D01*
X6189191Y-16347234D02*
X6103477Y-16547234D01*
X6351096Y-16413900D02*
X6351096Y-16547234D01*
X6303477Y-16337710D02*
X6255858Y-16480567D01*
X6255858Y-16480567D02*
X6379667Y-16480567D01*
X6446334Y-16347234D02*
X6446334Y-16385329D01*
X6522525Y-16347234D02*
X6522525Y-16385329D01*
X6817763Y-16623424D02*
X6808239Y-16613900D01*
X6808239Y-16613900D02*
X6789191Y-16585329D01*
X6789191Y-16585329D02*
X6779668Y-16566281D01*
X6779668Y-16566281D02*
X6770144Y-16537710D01*
X6770144Y-16537710D02*
X6760620Y-16490091D01*
X6760620Y-16490091D02*
X6760620Y-16451996D01*
X6760620Y-16451996D02*
X6770144Y-16404377D01*
X6770144Y-16404377D02*
X6779668Y-16375805D01*
X6779668Y-16375805D02*
X6789191Y-16356758D01*
X6789191Y-16356758D02*
X6808239Y-16328186D01*
X6808239Y-16328186D02*
X6817763Y-16318662D01*
X6874906Y-16347234D02*
X7008239Y-16347234D01*
X7008239Y-16347234D02*
X6922525Y-16547234D01*
X7236810Y-16547234D02*
X7236810Y-16347234D01*
X7322525Y-16547234D02*
X7322525Y-16442472D01*
X7322525Y-16442472D02*
X7313001Y-16423424D01*
X7313001Y-16423424D02*
X7293953Y-16413900D01*
X7293953Y-16413900D02*
X7265382Y-16413900D01*
X7265382Y-16413900D02*
X7246334Y-16423424D01*
X7246334Y-16423424D02*
X7236810Y-16432948D01*
X7446334Y-16547234D02*
X7427287Y-16537710D01*
X7427287Y-16537710D02*
X7417763Y-16528186D01*
X7417763Y-16528186D02*
X7408239Y-16509138D01*
X7408239Y-16509138D02*
X7408239Y-16451996D01*
X7408239Y-16451996D02*
X7417763Y-16432948D01*
X7417763Y-16432948D02*
X7427287Y-16423424D01*
X7427287Y-16423424D02*
X7446334Y-16413900D01*
X7446334Y-16413900D02*
X7474906Y-16413900D01*
X7474906Y-16413900D02*
X7493953Y-16423424D01*
X7493953Y-16423424D02*
X7503477Y-16432948D01*
X7503477Y-16432948D02*
X7513001Y-16451996D01*
X7513001Y-16451996D02*
X7513001Y-16509138D01*
X7513001Y-16509138D02*
X7503477Y-16528186D01*
X7503477Y-16528186D02*
X7493953Y-16537710D01*
X7493953Y-16537710D02*
X7474906Y-16547234D01*
X7474906Y-16547234D02*
X7446334Y-16547234D01*
X7627287Y-16547234D02*
X7608239Y-16537710D01*
X7608239Y-16537710D02*
X7598715Y-16518662D01*
X7598715Y-16518662D02*
X7598715Y-16347234D01*
X7779668Y-16537710D02*
X7760620Y-16547234D01*
X7760620Y-16547234D02*
X7722525Y-16547234D01*
X7722525Y-16547234D02*
X7703477Y-16537710D01*
X7703477Y-16537710D02*
X7693953Y-16518662D01*
X7693953Y-16518662D02*
X7693953Y-16442472D01*
X7693953Y-16442472D02*
X7703477Y-16423424D01*
X7703477Y-16423424D02*
X7722525Y-16413900D01*
X7722525Y-16413900D02*
X7760620Y-16413900D01*
X7760620Y-16413900D02*
X7779668Y-16423424D01*
X7779668Y-16423424D02*
X7789191Y-16442472D01*
X7789191Y-16442472D02*
X7789191Y-16461519D01*
X7789191Y-16461519D02*
X7693953Y-16480567D01*
X7865382Y-16537710D02*
X7884430Y-16547234D01*
X7884430Y-16547234D02*
X7922525Y-16547234D01*
X7922525Y-16547234D02*
X7941572Y-16537710D01*
X7941572Y-16537710D02*
X7951096Y-16518662D01*
X7951096Y-16518662D02*
X7951096Y-16509138D01*
X7951096Y-16509138D02*
X7941572Y-16490091D01*
X7941572Y-16490091D02*
X7922525Y-16480567D01*
X7922525Y-16480567D02*
X7893953Y-16480567D01*
X7893953Y-16480567D02*
X7874906Y-16471043D01*
X7874906Y-16471043D02*
X7865382Y-16451996D01*
X7865382Y-16451996D02*
X7865382Y-16442472D01*
X7865382Y-16442472D02*
X7874906Y-16423424D01*
X7874906Y-16423424D02*
X7893953Y-16413900D01*
X7893953Y-16413900D02*
X7922525Y-16413900D01*
X7922525Y-16413900D02*
X7941572Y-16423424D01*
X8017763Y-16623424D02*
X8027287Y-16613900D01*
X8027287Y-16613900D02*
X8046334Y-16585329D01*
X8046334Y-16585329D02*
X8055858Y-16566281D01*
X8055858Y-16566281D02*
X8065382Y-16537710D01*
X8065382Y-16537710D02*
X8074906Y-16490091D01*
X8074906Y-16490091D02*
X8074906Y-16451996D01*
X8074906Y-16451996D02*
X8065382Y-16404377D01*
X8065382Y-16404377D02*
X8055858Y-16375805D01*
X8055858Y-16375805D02*
X8046334Y-16356758D01*
X8046334Y-16356758D02*
X8027287Y-16328186D01*
X8027287Y-16328186D02*
X8017763Y-16318662D01*
D12*
X3142700Y-16669750D02*
X3242700Y-16769750D01*
X3242700Y-16669750D02*
X3142700Y-16769750D01*
X3242700Y-16719750D02*
G75*
G02*
X3142700Y-16719750I-50000J0D01*
G01*
X3142700Y-16719750D02*
G75*
G02*
X3242700Y-16719750I50000J0D01*
G01*
D11*
X3608239Y-16811234D02*
X3493953Y-16811234D01*
X3551096Y-16811234D02*
X3551096Y-16611234D01*
X3551096Y-16611234D02*
X3532048Y-16639805D01*
X3532048Y-16639805D02*
X3513001Y-16658853D01*
X3513001Y-16658853D02*
X3493953Y-16668377D01*
X3693953Y-16792186D02*
X3703477Y-16801710D01*
X3703477Y-16801710D02*
X3693953Y-16811234D01*
X3693953Y-16811234D02*
X3684429Y-16801710D01*
X3684429Y-16801710D02*
X3693953Y-16792186D01*
X3693953Y-16792186D02*
X3693953Y-16811234D01*
X3827286Y-16611234D02*
X3846334Y-16611234D01*
X3846334Y-16611234D02*
X3865382Y-16620758D01*
X3865382Y-16620758D02*
X3874905Y-16630281D01*
X3874905Y-16630281D02*
X3884429Y-16649329D01*
X3884429Y-16649329D02*
X3893953Y-16687424D01*
X3893953Y-16687424D02*
X3893953Y-16735043D01*
X3893953Y-16735043D02*
X3884429Y-16773138D01*
X3884429Y-16773138D02*
X3874905Y-16792186D01*
X3874905Y-16792186D02*
X3865382Y-16801710D01*
X3865382Y-16801710D02*
X3846334Y-16811234D01*
X3846334Y-16811234D02*
X3827286Y-16811234D01*
X3827286Y-16811234D02*
X3808239Y-16801710D01*
X3808239Y-16801710D02*
X3798715Y-16792186D01*
X3798715Y-16792186D02*
X3789191Y-16773138D01*
X3789191Y-16773138D02*
X3779667Y-16735043D01*
X3779667Y-16735043D02*
X3779667Y-16687424D01*
X3779667Y-16687424D02*
X3789191Y-16649329D01*
X3789191Y-16649329D02*
X3798715Y-16630281D01*
X3798715Y-16630281D02*
X3808239Y-16620758D01*
X3808239Y-16620758D02*
X3827286Y-16611234D01*
X4017762Y-16611234D02*
X4036810Y-16611234D01*
X4036810Y-16611234D02*
X4055858Y-16620758D01*
X4055858Y-16620758D02*
X4065382Y-16630281D01*
X4065382Y-16630281D02*
X4074905Y-16649329D01*
X4074905Y-16649329D02*
X4084429Y-16687424D01*
X4084429Y-16687424D02*
X4084429Y-16735043D01*
X4084429Y-16735043D02*
X4074905Y-16773138D01*
X4074905Y-16773138D02*
X4065382Y-16792186D01*
X4065382Y-16792186D02*
X4055858Y-16801710D01*
X4055858Y-16801710D02*
X4036810Y-16811234D01*
X4036810Y-16811234D02*
X4017762Y-16811234D01*
X4017762Y-16811234D02*
X3998715Y-16801710D01*
X3998715Y-16801710D02*
X3989191Y-16792186D01*
X3989191Y-16792186D02*
X3979667Y-16773138D01*
X3979667Y-16773138D02*
X3970143Y-16735043D01*
X3970143Y-16735043D02*
X3970143Y-16687424D01*
X3970143Y-16687424D02*
X3979667Y-16649329D01*
X3979667Y-16649329D02*
X3989191Y-16630281D01*
X3989191Y-16630281D02*
X3998715Y-16620758D01*
X3998715Y-16620758D02*
X4017762Y-16611234D01*
X4208239Y-16611234D02*
X4227286Y-16611234D01*
X4227286Y-16611234D02*
X4246334Y-16620758D01*
X4246334Y-16620758D02*
X4255858Y-16630281D01*
X4255858Y-16630281D02*
X4265382Y-16649329D01*
X4265382Y-16649329D02*
X4274905Y-16687424D01*
X4274905Y-16687424D02*
X4274905Y-16735043D01*
X4274905Y-16735043D02*
X4265382Y-16773138D01*
X4265382Y-16773138D02*
X4255858Y-16792186D01*
X4255858Y-16792186D02*
X4246334Y-16801710D01*
X4246334Y-16801710D02*
X4227286Y-16811234D01*
X4227286Y-16811234D02*
X4208239Y-16811234D01*
X4208239Y-16811234D02*
X4189191Y-16801710D01*
X4189191Y-16801710D02*
X4179667Y-16792186D01*
X4179667Y-16792186D02*
X4170143Y-16773138D01*
X4170143Y-16773138D02*
X4160620Y-16735043D01*
X4160620Y-16735043D02*
X4160620Y-16687424D01*
X4160620Y-16687424D02*
X4170143Y-16649329D01*
X4170143Y-16649329D02*
X4179667Y-16630281D01*
X4179667Y-16630281D02*
X4189191Y-16620758D01*
X4189191Y-16620758D02*
X4208239Y-16611234D01*
X4360620Y-16811234D02*
X4360620Y-16677900D01*
X4360620Y-16696948D02*
X4370144Y-16687424D01*
X4370144Y-16687424D02*
X4389191Y-16677900D01*
X4389191Y-16677900D02*
X4417763Y-16677900D01*
X4417763Y-16677900D02*
X4436810Y-16687424D01*
X4436810Y-16687424D02*
X4446334Y-16706472D01*
X4446334Y-16706472D02*
X4446334Y-16811234D01*
X4446334Y-16706472D02*
X4455858Y-16687424D01*
X4455858Y-16687424D02*
X4474905Y-16677900D01*
X4474905Y-16677900D02*
X4503477Y-16677900D01*
X4503477Y-16677900D02*
X4522525Y-16687424D01*
X4522525Y-16687424D02*
X4532048Y-16706472D01*
X4532048Y-16706472D02*
X4532048Y-16811234D01*
X4627286Y-16811234D02*
X4627286Y-16677900D01*
X4627286Y-16696948D02*
X4636810Y-16687424D01*
X4636810Y-16687424D02*
X4655858Y-16677900D01*
X4655858Y-16677900D02*
X4684429Y-16677900D01*
X4684429Y-16677900D02*
X4703477Y-16687424D01*
X4703477Y-16687424D02*
X4713001Y-16706472D01*
X4713001Y-16706472D02*
X4713001Y-16811234D01*
X4713001Y-16706472D02*
X4722525Y-16687424D01*
X4722525Y-16687424D02*
X4741572Y-16677900D01*
X4741572Y-16677900D02*
X4770144Y-16677900D01*
X4770144Y-16677900D02*
X4789191Y-16687424D01*
X4789191Y-16687424D02*
X4798715Y-16706472D01*
X4798715Y-16706472D02*
X4798715Y-16811234D01*
X5189191Y-16601710D02*
X5017763Y-16858853D01*
X5446334Y-16611234D02*
X5465382Y-16611234D01*
X5465382Y-16611234D02*
X5484429Y-16620758D01*
X5484429Y-16620758D02*
X5493953Y-16630281D01*
X5493953Y-16630281D02*
X5503477Y-16649329D01*
X5503477Y-16649329D02*
X5513001Y-16687424D01*
X5513001Y-16687424D02*
X5513001Y-16735043D01*
X5513001Y-16735043D02*
X5503477Y-16773138D01*
X5503477Y-16773138D02*
X5493953Y-16792186D01*
X5493953Y-16792186D02*
X5484429Y-16801710D01*
X5484429Y-16801710D02*
X5465382Y-16811234D01*
X5465382Y-16811234D02*
X5446334Y-16811234D01*
X5446334Y-16811234D02*
X5427287Y-16801710D01*
X5427287Y-16801710D02*
X5417763Y-16792186D01*
X5417763Y-16792186D02*
X5408239Y-16773138D01*
X5408239Y-16773138D02*
X5398715Y-16735043D01*
X5398715Y-16735043D02*
X5398715Y-16687424D01*
X5398715Y-16687424D02*
X5408239Y-16649329D01*
X5408239Y-16649329D02*
X5417763Y-16630281D01*
X5417763Y-16630281D02*
X5427287Y-16620758D01*
X5427287Y-16620758D02*
X5446334Y-16611234D01*
X5598715Y-16792186D02*
X5608239Y-16801710D01*
X5608239Y-16801710D02*
X5598715Y-16811234D01*
X5598715Y-16811234D02*
X5589191Y-16801710D01*
X5589191Y-16801710D02*
X5598715Y-16792186D01*
X5598715Y-16792186D02*
X5598715Y-16811234D01*
X5732048Y-16611234D02*
X5751096Y-16611234D01*
X5751096Y-16611234D02*
X5770144Y-16620758D01*
X5770144Y-16620758D02*
X5779667Y-16630281D01*
X5779667Y-16630281D02*
X5789191Y-16649329D01*
X5789191Y-16649329D02*
X5798715Y-16687424D01*
X5798715Y-16687424D02*
X5798715Y-16735043D01*
X5798715Y-16735043D02*
X5789191Y-16773138D01*
X5789191Y-16773138D02*
X5779667Y-16792186D01*
X5779667Y-16792186D02*
X5770144Y-16801710D01*
X5770144Y-16801710D02*
X5751096Y-16811234D01*
X5751096Y-16811234D02*
X5732048Y-16811234D01*
X5732048Y-16811234D02*
X5713001Y-16801710D01*
X5713001Y-16801710D02*
X5703477Y-16792186D01*
X5703477Y-16792186D02*
X5693953Y-16773138D01*
X5693953Y-16773138D02*
X5684429Y-16735043D01*
X5684429Y-16735043D02*
X5684429Y-16687424D01*
X5684429Y-16687424D02*
X5693953Y-16649329D01*
X5693953Y-16649329D02*
X5703477Y-16630281D01*
X5703477Y-16630281D02*
X5713001Y-16620758D01*
X5713001Y-16620758D02*
X5732048Y-16611234D01*
X5865382Y-16611234D02*
X5989191Y-16611234D01*
X5989191Y-16611234D02*
X5922525Y-16687424D01*
X5922525Y-16687424D02*
X5951096Y-16687424D01*
X5951096Y-16687424D02*
X5970144Y-16696948D01*
X5970144Y-16696948D02*
X5979667Y-16706472D01*
X5979667Y-16706472D02*
X5989191Y-16725519D01*
X5989191Y-16725519D02*
X5989191Y-16773138D01*
X5989191Y-16773138D02*
X5979667Y-16792186D01*
X5979667Y-16792186D02*
X5970144Y-16801710D01*
X5970144Y-16801710D02*
X5951096Y-16811234D01*
X5951096Y-16811234D02*
X5893953Y-16811234D01*
X5893953Y-16811234D02*
X5874906Y-16801710D01*
X5874906Y-16801710D02*
X5865382Y-16792186D01*
X6084429Y-16811234D02*
X6122525Y-16811234D01*
X6122525Y-16811234D02*
X6141572Y-16801710D01*
X6141572Y-16801710D02*
X6151096Y-16792186D01*
X6151096Y-16792186D02*
X6170144Y-16763615D01*
X6170144Y-16763615D02*
X6179667Y-16725519D01*
X6179667Y-16725519D02*
X6179667Y-16649329D01*
X6179667Y-16649329D02*
X6170144Y-16630281D01*
X6170144Y-16630281D02*
X6160620Y-16620758D01*
X6160620Y-16620758D02*
X6141572Y-16611234D01*
X6141572Y-16611234D02*
X6103477Y-16611234D01*
X6103477Y-16611234D02*
X6084429Y-16620758D01*
X6084429Y-16620758D02*
X6074906Y-16630281D01*
X6074906Y-16630281D02*
X6065382Y-16649329D01*
X6065382Y-16649329D02*
X6065382Y-16696948D01*
X6065382Y-16696948D02*
X6074906Y-16715996D01*
X6074906Y-16715996D02*
X6084429Y-16725519D01*
X6084429Y-16725519D02*
X6103477Y-16735043D01*
X6103477Y-16735043D02*
X6141572Y-16735043D01*
X6141572Y-16735043D02*
X6160620Y-16725519D01*
X6160620Y-16725519D02*
X6170144Y-16715996D01*
X6170144Y-16715996D02*
X6179667Y-16696948D01*
X6351096Y-16677900D02*
X6351096Y-16811234D01*
X6303477Y-16601710D02*
X6255858Y-16744567D01*
X6255858Y-16744567D02*
X6379667Y-16744567D01*
X6446334Y-16611234D02*
X6446334Y-16649329D01*
X6522525Y-16611234D02*
X6522525Y-16649329D01*
X6817763Y-16887424D02*
X6808239Y-16877900D01*
X6808239Y-16877900D02*
X6789191Y-16849329D01*
X6789191Y-16849329D02*
X6779668Y-16830281D01*
X6779668Y-16830281D02*
X6770144Y-16801710D01*
X6770144Y-16801710D02*
X6760620Y-16754091D01*
X6760620Y-16754091D02*
X6760620Y-16715996D01*
X6760620Y-16715996D02*
X6770144Y-16668377D01*
X6770144Y-16668377D02*
X6779668Y-16639805D01*
X6779668Y-16639805D02*
X6789191Y-16620758D01*
X6789191Y-16620758D02*
X6808239Y-16592186D01*
X6808239Y-16592186D02*
X6817763Y-16582662D01*
X6998715Y-16811234D02*
X6884429Y-16811234D01*
X6941572Y-16811234D02*
X6941572Y-16611234D01*
X6941572Y-16611234D02*
X6922525Y-16639805D01*
X6922525Y-16639805D02*
X6903477Y-16658853D01*
X6903477Y-16658853D02*
X6884429Y-16668377D01*
X7074906Y-16630281D02*
X7084429Y-16620758D01*
X7084429Y-16620758D02*
X7103477Y-16611234D01*
X7103477Y-16611234D02*
X7151096Y-16611234D01*
X7151096Y-16611234D02*
X7170144Y-16620758D01*
X7170144Y-16620758D02*
X7179668Y-16630281D01*
X7179668Y-16630281D02*
X7189191Y-16649329D01*
X7189191Y-16649329D02*
X7189191Y-16668377D01*
X7189191Y-16668377D02*
X7179668Y-16696948D01*
X7179668Y-16696948D02*
X7065382Y-16811234D01*
X7065382Y-16811234D02*
X7189191Y-16811234D01*
X7427287Y-16811234D02*
X7427287Y-16611234D01*
X7513001Y-16811234D02*
X7513001Y-16706472D01*
X7513001Y-16706472D02*
X7503477Y-16687424D01*
X7503477Y-16687424D02*
X7484430Y-16677900D01*
X7484430Y-16677900D02*
X7455858Y-16677900D01*
X7455858Y-16677900D02*
X7436810Y-16687424D01*
X7436810Y-16687424D02*
X7427287Y-16696948D01*
X7636810Y-16811234D02*
X7617763Y-16801710D01*
X7617763Y-16801710D02*
X7608239Y-16792186D01*
X7608239Y-16792186D02*
X7598715Y-16773138D01*
X7598715Y-16773138D02*
X7598715Y-16715996D01*
X7598715Y-16715996D02*
X7608239Y-16696948D01*
X7608239Y-16696948D02*
X7617763Y-16687424D01*
X7617763Y-16687424D02*
X7636810Y-16677900D01*
X7636810Y-16677900D02*
X7665382Y-16677900D01*
X7665382Y-16677900D02*
X7684430Y-16687424D01*
X7684430Y-16687424D02*
X7693953Y-16696948D01*
X7693953Y-16696948D02*
X7703477Y-16715996D01*
X7703477Y-16715996D02*
X7703477Y-16773138D01*
X7703477Y-16773138D02*
X7693953Y-16792186D01*
X7693953Y-16792186D02*
X7684430Y-16801710D01*
X7684430Y-16801710D02*
X7665382Y-16811234D01*
X7665382Y-16811234D02*
X7636810Y-16811234D01*
X7817763Y-16811234D02*
X7798715Y-16801710D01*
X7798715Y-16801710D02*
X7789191Y-16782662D01*
X7789191Y-16782662D02*
X7789191Y-16611234D01*
X7970144Y-16801710D02*
X7951096Y-16811234D01*
X7951096Y-16811234D02*
X7913001Y-16811234D01*
X7913001Y-16811234D02*
X7893953Y-16801710D01*
X7893953Y-16801710D02*
X7884430Y-16782662D01*
X7884430Y-16782662D02*
X7884430Y-16706472D01*
X7884430Y-16706472D02*
X7893953Y-16687424D01*
X7893953Y-16687424D02*
X7913001Y-16677900D01*
X7913001Y-16677900D02*
X7951096Y-16677900D01*
X7951096Y-16677900D02*
X7970144Y-16687424D01*
X7970144Y-16687424D02*
X7979668Y-16706472D01*
X7979668Y-16706472D02*
X7979668Y-16725519D01*
X7979668Y-16725519D02*
X7884430Y-16744567D01*
X8055858Y-16801710D02*
X8074906Y-16811234D01*
X8074906Y-16811234D02*
X8113001Y-16811234D01*
X8113001Y-16811234D02*
X8132049Y-16801710D01*
X8132049Y-16801710D02*
X8141572Y-16782662D01*
X8141572Y-16782662D02*
X8141572Y-16773138D01*
X8141572Y-16773138D02*
X8132049Y-16754091D01*
X8132049Y-16754091D02*
X8113001Y-16744567D01*
X8113001Y-16744567D02*
X8084430Y-16744567D01*
X8084430Y-16744567D02*
X8065382Y-16735043D01*
X8065382Y-16735043D02*
X8055858Y-16715996D01*
X8055858Y-16715996D02*
X8055858Y-16706472D01*
X8055858Y-16706472D02*
X8065382Y-16687424D01*
X8065382Y-16687424D02*
X8084430Y-16677900D01*
X8084430Y-16677900D02*
X8113001Y-16677900D01*
X8113001Y-16677900D02*
X8132049Y-16687424D01*
X8208239Y-16887424D02*
X8217763Y-16877900D01*
X8217763Y-16877900D02*
X8236811Y-16849329D01*
X8236811Y-16849329D02*
X8246334Y-16830281D01*
X8246334Y-16830281D02*
X8255858Y-16801710D01*
X8255858Y-16801710D02*
X8265382Y-16754091D01*
X8265382Y-16754091D02*
X8265382Y-16715996D01*
X8265382Y-16715996D02*
X8255858Y-16668377D01*
X8255858Y-16668377D02*
X8246334Y-16639805D01*
X8246334Y-16639805D02*
X8236811Y-16620758D01*
X8236811Y-16620758D02*
X8217763Y-16592186D01*
X8217763Y-16592186D02*
X8208239Y-16582662D01*
M02*
