%TF.GenerationSoftware,KiCad,Pcbnew,5.1.6-c6e7f7d~87~ubuntu20.04.1*%
%TF.CreationDate,2021-01-31T19:29:29+07:00*%
%TF.ProjectId,kh-gift-hw,6b682d67-6966-4742-9d68-772e6b696361,rev?*%
%TF.SameCoordinates,Original*%
%TF.FileFunction,Soldermask,Top*%
%TF.FilePolarity,Negative*%
%FSLAX46Y46*%
G04 Gerber Fmt 4.6, Leading zero omitted, Abs format (unit mm)*
G04 Created by KiCad (PCBNEW 5.1.6-c6e7f7d~87~ubuntu20.04.1) date 2021-01-31 19:29:29*
%MOMM*%
%LPD*%
G01*
G04 APERTURE LIST*
%ADD10C,1.624000*%
%ADD11R,1.800000X1.800000*%
%ADD12R,1.100000X1.900000*%
%ADD13C,1.600000*%
%ADD14R,1.600000X1.600000*%
%ADD15R,1.600000X2.100000*%
%ADD16R,3.900000X2.100000*%
%ADD17C,0.900000*%
%ADD18R,5.100000X5.100000*%
%ADD19O,3.100000X1.000000*%
%ADD20O,2.100000X1.800000*%
%ADD21R,1.000000X0.900000*%
%ADD22O,2.050000X1.800000*%
%ADD23O,1.800000X1.800000*%
%ADD24R,2.295000X2.295000*%
%ADD25C,1.400000*%
%ADD26C,1.100000*%
%ADD27R,3.640000X2.700000*%
%ADD28R,3.760000X2.700000*%
G04 APERTURE END LIST*
D10*
%TO.C,J4*%
X117233900Y-128415680D03*
X117233900Y-130955680D03*
X117233900Y-133495680D03*
X117233900Y-136035680D03*
X117233900Y-138575680D03*
X117233900Y-141115680D03*
X117233900Y-143655680D03*
X117233900Y-146195680D03*
X117233900Y-148735680D03*
X117233900Y-151275680D03*
X117233900Y-153815680D03*
X117233900Y-156355680D03*
X117233900Y-158895680D03*
D11*
X117233900Y-161435680D03*
%TD*%
D12*
%TO.C,Y1*%
X109520000Y-142970000D03*
X112020000Y-142970000D03*
%TD*%
%TO.C,U4*%
G36*
G01*
X111791740Y-149376920D02*
X112141740Y-149376920D01*
G75*
G02*
X112316740Y-149551920I0J-175000D01*
G01*
X112316740Y-151251920D01*
G75*
G02*
X112141740Y-151426920I-175000J0D01*
G01*
X111791740Y-151426920D01*
G75*
G02*
X111616740Y-151251920I0J175000D01*
G01*
X111616740Y-149551920D01*
G75*
G02*
X111791740Y-149376920I175000J0D01*
G01*
G37*
G36*
G01*
X110521740Y-149376920D02*
X110871740Y-149376920D01*
G75*
G02*
X111046740Y-149551920I0J-175000D01*
G01*
X111046740Y-151251920D01*
G75*
G02*
X110871740Y-151426920I-175000J0D01*
G01*
X110521740Y-151426920D01*
G75*
G02*
X110346740Y-151251920I0J175000D01*
G01*
X110346740Y-149551920D01*
G75*
G02*
X110521740Y-149376920I175000J0D01*
G01*
G37*
G36*
G01*
X109251740Y-149376920D02*
X109601740Y-149376920D01*
G75*
G02*
X109776740Y-149551920I0J-175000D01*
G01*
X109776740Y-151251920D01*
G75*
G02*
X109601740Y-151426920I-175000J0D01*
G01*
X109251740Y-151426920D01*
G75*
G02*
X109076740Y-151251920I0J175000D01*
G01*
X109076740Y-149551920D01*
G75*
G02*
X109251740Y-149376920I175000J0D01*
G01*
G37*
G36*
G01*
X107981740Y-149376920D02*
X108331740Y-149376920D01*
G75*
G02*
X108506740Y-149551920I0J-175000D01*
G01*
X108506740Y-151251920D01*
G75*
G02*
X108331740Y-151426920I-175000J0D01*
G01*
X107981740Y-151426920D01*
G75*
G02*
X107806740Y-151251920I0J175000D01*
G01*
X107806740Y-149551920D01*
G75*
G02*
X107981740Y-149376920I175000J0D01*
G01*
G37*
G36*
G01*
X107981740Y-144426920D02*
X108331740Y-144426920D01*
G75*
G02*
X108506740Y-144601920I0J-175000D01*
G01*
X108506740Y-146301920D01*
G75*
G02*
X108331740Y-146476920I-175000J0D01*
G01*
X107981740Y-146476920D01*
G75*
G02*
X107806740Y-146301920I0J175000D01*
G01*
X107806740Y-144601920D01*
G75*
G02*
X107981740Y-144426920I175000J0D01*
G01*
G37*
G36*
G01*
X109251740Y-144426920D02*
X109601740Y-144426920D01*
G75*
G02*
X109776740Y-144601920I0J-175000D01*
G01*
X109776740Y-146301920D01*
G75*
G02*
X109601740Y-146476920I-175000J0D01*
G01*
X109251740Y-146476920D01*
G75*
G02*
X109076740Y-146301920I0J175000D01*
G01*
X109076740Y-144601920D01*
G75*
G02*
X109251740Y-144426920I175000J0D01*
G01*
G37*
G36*
G01*
X110521740Y-144426920D02*
X110871740Y-144426920D01*
G75*
G02*
X111046740Y-144601920I0J-175000D01*
G01*
X111046740Y-146301920D01*
G75*
G02*
X110871740Y-146476920I-175000J0D01*
G01*
X110521740Y-146476920D01*
G75*
G02*
X110346740Y-146301920I0J175000D01*
G01*
X110346740Y-144601920D01*
G75*
G02*
X110521740Y-144426920I175000J0D01*
G01*
G37*
G36*
G01*
X111791740Y-144426920D02*
X112141740Y-144426920D01*
G75*
G02*
X112316740Y-144601920I0J-175000D01*
G01*
X112316740Y-146301920D01*
G75*
G02*
X112141740Y-146476920I-175000J0D01*
G01*
X111791740Y-146476920D01*
G75*
G02*
X111616740Y-146301920I0J175000D01*
G01*
X111616740Y-144601920D01*
G75*
G02*
X111791740Y-144426920I175000J0D01*
G01*
G37*
%TD*%
D13*
%TO.C,U3*%
X73030000Y-120040000D03*
X73030000Y-122580000D03*
X73030000Y-125120000D03*
D14*
X73030000Y-127660000D03*
%TD*%
D15*
%TO.C,U2*%
X76338400Y-162037160D03*
X80938400Y-162037160D03*
X78638400Y-162037160D03*
D16*
X78638400Y-155737160D03*
%TD*%
D17*
%TO.C,U1*%
X97637300Y-159912460D03*
D18*
X95647300Y-157892460D03*
D19*
X104237300Y-164822460D03*
X104237300Y-163552460D03*
X104237300Y-162282460D03*
X104237300Y-161012460D03*
X104237300Y-159742460D03*
X104237300Y-158472460D03*
X104237300Y-157202460D03*
X104237300Y-155932460D03*
X104237300Y-154662460D03*
X104237300Y-153392460D03*
X104237300Y-152122460D03*
X104237300Y-150852460D03*
X104237300Y-149582460D03*
X104237300Y-148312460D03*
X104237300Y-147012460D03*
X104237300Y-145742460D03*
X104237300Y-144472460D03*
X104237300Y-143202460D03*
X104237300Y-141932460D03*
X86237300Y-141932460D03*
X86237300Y-143202460D03*
X86237300Y-144472460D03*
X86237300Y-145742460D03*
X86237300Y-147012460D03*
X86207300Y-148312460D03*
X86207300Y-149582460D03*
X86207300Y-150852460D03*
X86207300Y-152122460D03*
X86207300Y-153392460D03*
X86207300Y-154662460D03*
X86207300Y-155932460D03*
X86207300Y-157202460D03*
X86207300Y-158472460D03*
X86207300Y-159742460D03*
X86207300Y-161012460D03*
X86207300Y-162282460D03*
X86207300Y-163552460D03*
X86207300Y-164822460D03*
D17*
X97637300Y-158912460D03*
X97637300Y-157912460D03*
X97637300Y-156912460D03*
X97637300Y-155912460D03*
X96637300Y-155912460D03*
X96637300Y-156912460D03*
X96637300Y-157912460D03*
X96637300Y-158912460D03*
X96637300Y-159912460D03*
X94637300Y-159912460D03*
X94637300Y-158912460D03*
X94637300Y-157912460D03*
X94637300Y-156912460D03*
X94637300Y-155912460D03*
X95637300Y-155912460D03*
X95637300Y-156912460D03*
X95637300Y-157912460D03*
X95637300Y-158912460D03*
X95637300Y-159912460D03*
X93637300Y-155912460D03*
X93637300Y-156912460D03*
X93637300Y-157912460D03*
X93637300Y-158912460D03*
X93637300Y-159912460D03*
%TD*%
D20*
%TO.C,SW2*%
X72040000Y-158090000D03*
G36*
G01*
X72825294Y-161490000D02*
X71254706Y-161490000D01*
G75*
G02*
X70990000Y-161225294I0J264706D01*
G01*
X70990000Y-159954706D01*
G75*
G02*
X71254706Y-159690000I264706J0D01*
G01*
X72825294Y-159690000D01*
G75*
G02*
X73090000Y-159954706I0J-264706D01*
G01*
X73090000Y-161225294D01*
G75*
G02*
X72825294Y-161490000I-264706J0D01*
G01*
G37*
%TD*%
%TO.C,SW1*%
X72050000Y-149400000D03*
G36*
G01*
X72835294Y-152800000D02*
X71264706Y-152800000D01*
G75*
G02*
X71000000Y-152535294I0J264706D01*
G01*
X71000000Y-151264706D01*
G75*
G02*
X71264706Y-151000000I264706J0D01*
G01*
X72835294Y-151000000D01*
G75*
G02*
X73100000Y-151264706I0J-264706D01*
G01*
X73100000Y-152535294D01*
G75*
G02*
X72835294Y-152800000I-264706J0D01*
G01*
G37*
%TD*%
%TO.C,R9*%
G36*
G01*
X108735000Y-155027500D02*
X108735000Y-155552500D01*
G75*
G02*
X108472500Y-155815000I-262500J0D01*
G01*
X107847500Y-155815000D01*
G75*
G02*
X107585000Y-155552500I0J262500D01*
G01*
X107585000Y-155027500D01*
G75*
G02*
X107847500Y-154765000I262500J0D01*
G01*
X108472500Y-154765000D01*
G75*
G02*
X108735000Y-155027500I0J-262500D01*
G01*
G37*
G36*
G01*
X110485000Y-155027500D02*
X110485000Y-155552500D01*
G75*
G02*
X110222500Y-155815000I-262500J0D01*
G01*
X109597500Y-155815000D01*
G75*
G02*
X109335000Y-155552500I0J262500D01*
G01*
X109335000Y-155027500D01*
G75*
G02*
X109597500Y-154765000I262500J0D01*
G01*
X110222500Y-154765000D01*
G75*
G02*
X110485000Y-155027500I0J-262500D01*
G01*
G37*
%TD*%
%TO.C,R8*%
G36*
G01*
X108735000Y-153527500D02*
X108735000Y-154052500D01*
G75*
G02*
X108472500Y-154315000I-262500J0D01*
G01*
X107847500Y-154315000D01*
G75*
G02*
X107585000Y-154052500I0J262500D01*
G01*
X107585000Y-153527500D01*
G75*
G02*
X107847500Y-153265000I262500J0D01*
G01*
X108472500Y-153265000D01*
G75*
G02*
X108735000Y-153527500I0J-262500D01*
G01*
G37*
G36*
G01*
X110485000Y-153527500D02*
X110485000Y-154052500D01*
G75*
G02*
X110222500Y-154315000I-262500J0D01*
G01*
X109597500Y-154315000D01*
G75*
G02*
X109335000Y-154052500I0J262500D01*
G01*
X109335000Y-153527500D01*
G75*
G02*
X109597500Y-153265000I262500J0D01*
G01*
X110222500Y-153265000D01*
G75*
G02*
X110485000Y-153527500I0J-262500D01*
G01*
G37*
%TD*%
%TO.C,R7*%
G36*
G01*
X108755000Y-161107500D02*
X108755000Y-161632500D01*
G75*
G02*
X108492500Y-161895000I-262500J0D01*
G01*
X107867500Y-161895000D01*
G75*
G02*
X107605000Y-161632500I0J262500D01*
G01*
X107605000Y-161107500D01*
G75*
G02*
X107867500Y-160845000I262500J0D01*
G01*
X108492500Y-160845000D01*
G75*
G02*
X108755000Y-161107500I0J-262500D01*
G01*
G37*
G36*
G01*
X110505000Y-161107500D02*
X110505000Y-161632500D01*
G75*
G02*
X110242500Y-161895000I-262500J0D01*
G01*
X109617500Y-161895000D01*
G75*
G02*
X109355000Y-161632500I0J262500D01*
G01*
X109355000Y-161107500D01*
G75*
G02*
X109617500Y-160845000I262500J0D01*
G01*
X110242500Y-160845000D01*
G75*
G02*
X110505000Y-161107500I0J-262500D01*
G01*
G37*
%TD*%
%TO.C,R6*%
G36*
G01*
X80920940Y-129693820D02*
X81445940Y-129693820D01*
G75*
G02*
X81708440Y-129956320I0J-262500D01*
G01*
X81708440Y-130581320D01*
G75*
G02*
X81445940Y-130843820I-262500J0D01*
G01*
X80920940Y-130843820D01*
G75*
G02*
X80658440Y-130581320I0J262500D01*
G01*
X80658440Y-129956320D01*
G75*
G02*
X80920940Y-129693820I262500J0D01*
G01*
G37*
G36*
G01*
X80920940Y-127943820D02*
X81445940Y-127943820D01*
G75*
G02*
X81708440Y-128206320I0J-262500D01*
G01*
X81708440Y-128831320D01*
G75*
G02*
X81445940Y-129093820I-262500J0D01*
G01*
X80920940Y-129093820D01*
G75*
G02*
X80658440Y-128831320I0J262500D01*
G01*
X80658440Y-128206320D01*
G75*
G02*
X80920940Y-127943820I262500J0D01*
G01*
G37*
%TD*%
%TO.C,R5*%
G36*
G01*
X71385000Y-130647500D02*
X71385000Y-131172500D01*
G75*
G02*
X71122500Y-131435000I-262500J0D01*
G01*
X70497500Y-131435000D01*
G75*
G02*
X70235000Y-131172500I0J262500D01*
G01*
X70235000Y-130647500D01*
G75*
G02*
X70497500Y-130385000I262500J0D01*
G01*
X71122500Y-130385000D01*
G75*
G02*
X71385000Y-130647500I0J-262500D01*
G01*
G37*
G36*
G01*
X73135000Y-130647500D02*
X73135000Y-131172500D01*
G75*
G02*
X72872500Y-131435000I-262500J0D01*
G01*
X72247500Y-131435000D01*
G75*
G02*
X71985000Y-131172500I0J262500D01*
G01*
X71985000Y-130647500D01*
G75*
G02*
X72247500Y-130385000I262500J0D01*
G01*
X72872500Y-130385000D01*
G75*
G02*
X73135000Y-130647500I0J-262500D01*
G01*
G37*
%TD*%
%TO.C,R4*%
G36*
G01*
X86454820Y-129145860D02*
X85929820Y-129145860D01*
G75*
G02*
X85667320Y-128883360I0J262500D01*
G01*
X85667320Y-128258360D01*
G75*
G02*
X85929820Y-127995860I262500J0D01*
G01*
X86454820Y-127995860D01*
G75*
G02*
X86717320Y-128258360I0J-262500D01*
G01*
X86717320Y-128883360D01*
G75*
G02*
X86454820Y-129145860I-262500J0D01*
G01*
G37*
G36*
G01*
X86454820Y-130895860D02*
X85929820Y-130895860D01*
G75*
G02*
X85667320Y-130633360I0J262500D01*
G01*
X85667320Y-130008360D01*
G75*
G02*
X85929820Y-129745860I262500J0D01*
G01*
X86454820Y-129745860D01*
G75*
G02*
X86717320Y-130008360I0J-262500D01*
G01*
X86717320Y-130633360D01*
G75*
G02*
X86454820Y-130895860I-262500J0D01*
G01*
G37*
%TD*%
%TO.C,R3*%
G36*
G01*
X108765000Y-158057500D02*
X108765000Y-158582500D01*
G75*
G02*
X108502500Y-158845000I-262500J0D01*
G01*
X107877500Y-158845000D01*
G75*
G02*
X107615000Y-158582500I0J262500D01*
G01*
X107615000Y-158057500D01*
G75*
G02*
X107877500Y-157795000I262500J0D01*
G01*
X108502500Y-157795000D01*
G75*
G02*
X108765000Y-158057500I0J-262500D01*
G01*
G37*
G36*
G01*
X110515000Y-158057500D02*
X110515000Y-158582500D01*
G75*
G02*
X110252500Y-158845000I-262500J0D01*
G01*
X109627500Y-158845000D01*
G75*
G02*
X109365000Y-158582500I0J262500D01*
G01*
X109365000Y-158057500D01*
G75*
G02*
X109627500Y-157795000I262500J0D01*
G01*
X110252500Y-157795000D01*
G75*
G02*
X110515000Y-158057500I0J-262500D01*
G01*
G37*
%TD*%
%TO.C,R2*%
G36*
G01*
X80245000Y-148687500D02*
X80245000Y-149212500D01*
G75*
G02*
X79982500Y-149475000I-262500J0D01*
G01*
X79357500Y-149475000D01*
G75*
G02*
X79095000Y-149212500I0J262500D01*
G01*
X79095000Y-148687500D01*
G75*
G02*
X79357500Y-148425000I262500J0D01*
G01*
X79982500Y-148425000D01*
G75*
G02*
X80245000Y-148687500I0J-262500D01*
G01*
G37*
G36*
G01*
X81995000Y-148687500D02*
X81995000Y-149212500D01*
G75*
G02*
X81732500Y-149475000I-262500J0D01*
G01*
X81107500Y-149475000D01*
G75*
G02*
X80845000Y-149212500I0J262500D01*
G01*
X80845000Y-148687500D01*
G75*
G02*
X81107500Y-148425000I262500J0D01*
G01*
X81732500Y-148425000D01*
G75*
G02*
X81995000Y-148687500I0J-262500D01*
G01*
G37*
%TD*%
%TO.C,R1*%
G36*
G01*
X80295000Y-151857500D02*
X80295000Y-152382500D01*
G75*
G02*
X80032500Y-152645000I-262500J0D01*
G01*
X79407500Y-152645000D01*
G75*
G02*
X79145000Y-152382500I0J262500D01*
G01*
X79145000Y-151857500D01*
G75*
G02*
X79407500Y-151595000I262500J0D01*
G01*
X80032500Y-151595000D01*
G75*
G02*
X80295000Y-151857500I0J-262500D01*
G01*
G37*
G36*
G01*
X82045000Y-151857500D02*
X82045000Y-152382500D01*
G75*
G02*
X81782500Y-152645000I-262500J0D01*
G01*
X81157500Y-152645000D01*
G75*
G02*
X80895000Y-152382500I0J262500D01*
G01*
X80895000Y-151857500D01*
G75*
G02*
X81157500Y-151595000I262500J0D01*
G01*
X81782500Y-151595000D01*
G75*
G02*
X82045000Y-151857500I0J-262500D01*
G01*
G37*
%TD*%
D21*
%TO.C,Q1*%
X82687880Y-129514600D03*
X84687880Y-128564600D03*
X84687880Y-130464600D03*
%TD*%
D22*
%TO.C,J3*%
X71998840Y-138296640D03*
X71998840Y-140796640D03*
G36*
G01*
X72759134Y-144196640D02*
X71238546Y-144196640D01*
G75*
G02*
X70973840Y-143931934I0J264706D01*
G01*
X70973840Y-142661346D01*
G75*
G02*
X71238546Y-142396640I264706J0D01*
G01*
X72759134Y-142396640D01*
G75*
G02*
X73023840Y-142661346I0J-264706D01*
G01*
X73023840Y-143931934D01*
G75*
G02*
X72759134Y-144196640I-264706J0D01*
G01*
G37*
%TD*%
D23*
%TO.C,J2*%
X76880000Y-139670000D03*
X76880000Y-142210000D03*
X76880000Y-144750000D03*
X76880000Y-147290000D03*
X76880000Y-149830000D03*
D11*
X76880000Y-152370000D03*
%TD*%
D20*
%TO.C,J1*%
X72020000Y-166800000D03*
G36*
G01*
X72805294Y-170200000D02*
X71234706Y-170200000D01*
G75*
G02*
X70970000Y-169935294I0J264706D01*
G01*
X70970000Y-168664706D01*
G75*
G02*
X71234706Y-168400000I264706J0D01*
G01*
X72805294Y-168400000D01*
G75*
G02*
X73070000Y-168664706I0J-264706D01*
G01*
X73070000Y-169935294D01*
G75*
G02*
X72805294Y-170200000I-264706J0D01*
G01*
G37*
%TD*%
%TO.C,D1*%
G36*
G01*
X80240000Y-150227500D02*
X80240000Y-150752500D01*
G75*
G02*
X79977500Y-151015000I-262500J0D01*
G01*
X79352500Y-151015000D01*
G75*
G02*
X79090000Y-150752500I0J262500D01*
G01*
X79090000Y-150227500D01*
G75*
G02*
X79352500Y-149965000I262500J0D01*
G01*
X79977500Y-149965000D01*
G75*
G02*
X80240000Y-150227500I0J-262500D01*
G01*
G37*
G36*
G01*
X81990000Y-150227500D02*
X81990000Y-150752500D01*
G75*
G02*
X81727500Y-151015000I-262500J0D01*
G01*
X81102500Y-151015000D01*
G75*
G02*
X80840000Y-150752500I0J262500D01*
G01*
X80840000Y-150227500D01*
G75*
G02*
X81102500Y-149965000I262500J0D01*
G01*
X81727500Y-149965000D01*
G75*
G02*
X81990000Y-150227500I0J-262500D01*
G01*
G37*
%TD*%
%TO.C,C12*%
G36*
G01*
X113317500Y-150265000D02*
X113842500Y-150265000D01*
G75*
G02*
X114105000Y-150527500I0J-262500D01*
G01*
X114105000Y-151152500D01*
G75*
G02*
X113842500Y-151415000I-262500J0D01*
G01*
X113317500Y-151415000D01*
G75*
G02*
X113055000Y-151152500I0J262500D01*
G01*
X113055000Y-150527500D01*
G75*
G02*
X113317500Y-150265000I262500J0D01*
G01*
G37*
G36*
G01*
X113317500Y-148515000D02*
X113842500Y-148515000D01*
G75*
G02*
X114105000Y-148777500I0J-262500D01*
G01*
X114105000Y-149402500D01*
G75*
G02*
X113842500Y-149665000I-262500J0D01*
G01*
X113317500Y-149665000D01*
G75*
G02*
X113055000Y-149402500I0J262500D01*
G01*
X113055000Y-148777500D01*
G75*
G02*
X113317500Y-148515000I262500J0D01*
G01*
G37*
%TD*%
%TO.C,C11*%
G36*
G01*
X108222500Y-142175000D02*
X107697500Y-142175000D01*
G75*
G02*
X107435000Y-141912500I0J262500D01*
G01*
X107435000Y-141287500D01*
G75*
G02*
X107697500Y-141025000I262500J0D01*
G01*
X108222500Y-141025000D01*
G75*
G02*
X108485000Y-141287500I0J-262500D01*
G01*
X108485000Y-141912500D01*
G75*
G02*
X108222500Y-142175000I-262500J0D01*
G01*
G37*
G36*
G01*
X108222500Y-143925000D02*
X107697500Y-143925000D01*
G75*
G02*
X107435000Y-143662500I0J262500D01*
G01*
X107435000Y-143037500D01*
G75*
G02*
X107697500Y-142775000I262500J0D01*
G01*
X108222500Y-142775000D01*
G75*
G02*
X108485000Y-143037500I0J-262500D01*
G01*
X108485000Y-143662500D01*
G75*
G02*
X108222500Y-143925000I-262500J0D01*
G01*
G37*
%TD*%
%TO.C,C10*%
G36*
G01*
X71365000Y-132197500D02*
X71365000Y-132722500D01*
G75*
G02*
X71102500Y-132985000I-262500J0D01*
G01*
X70477500Y-132985000D01*
G75*
G02*
X70215000Y-132722500I0J262500D01*
G01*
X70215000Y-132197500D01*
G75*
G02*
X70477500Y-131935000I262500J0D01*
G01*
X71102500Y-131935000D01*
G75*
G02*
X71365000Y-132197500I0J-262500D01*
G01*
G37*
G36*
G01*
X73115000Y-132197500D02*
X73115000Y-132722500D01*
G75*
G02*
X72852500Y-132985000I-262500J0D01*
G01*
X72227500Y-132985000D01*
G75*
G02*
X71965000Y-132722500I0J262500D01*
G01*
X71965000Y-132197500D01*
G75*
G02*
X72227500Y-131935000I262500J0D01*
G01*
X72852500Y-131935000D01*
G75*
G02*
X73115000Y-132197500I0J-262500D01*
G01*
G37*
%TD*%
%TO.C,C7*%
G36*
G01*
X109360420Y-160113880D02*
X109360420Y-159588880D01*
G75*
G02*
X109622920Y-159326380I262500J0D01*
G01*
X110247920Y-159326380D01*
G75*
G02*
X110510420Y-159588880I0J-262500D01*
G01*
X110510420Y-160113880D01*
G75*
G02*
X110247920Y-160376380I-262500J0D01*
G01*
X109622920Y-160376380D01*
G75*
G02*
X109360420Y-160113880I0J262500D01*
G01*
G37*
G36*
G01*
X107610420Y-160113880D02*
X107610420Y-159588880D01*
G75*
G02*
X107872920Y-159326380I262500J0D01*
G01*
X108497920Y-159326380D01*
G75*
G02*
X108760420Y-159588880I0J-262500D01*
G01*
X108760420Y-160113880D01*
G75*
G02*
X108497920Y-160376380I-262500J0D01*
G01*
X107872920Y-160376380D01*
G75*
G02*
X107610420Y-160113880I0J262500D01*
G01*
G37*
%TD*%
%TO.C,C6*%
G36*
G01*
X109356780Y-157078660D02*
X109356780Y-156553660D01*
G75*
G02*
X109619280Y-156291160I262500J0D01*
G01*
X110244280Y-156291160D01*
G75*
G02*
X110506780Y-156553660I0J-262500D01*
G01*
X110506780Y-157078660D01*
G75*
G02*
X110244280Y-157341160I-262500J0D01*
G01*
X109619280Y-157341160D01*
G75*
G02*
X109356780Y-157078660I0J262500D01*
G01*
G37*
G36*
G01*
X107606780Y-157078660D02*
X107606780Y-156553660D01*
G75*
G02*
X107869280Y-156291160I262500J0D01*
G01*
X108494280Y-156291160D01*
G75*
G02*
X108756780Y-156553660I0J-262500D01*
G01*
X108756780Y-157078660D01*
G75*
G02*
X108494280Y-157341160I-262500J0D01*
G01*
X107869280Y-157341160D01*
G75*
G02*
X107606780Y-157078660I0J262500D01*
G01*
G37*
%TD*%
%TO.C,C5*%
G36*
G01*
X80890360Y-153927420D02*
X80890360Y-153402420D01*
G75*
G02*
X81152860Y-153139920I262500J0D01*
G01*
X81777860Y-153139920D01*
G75*
G02*
X82040360Y-153402420I0J-262500D01*
G01*
X82040360Y-153927420D01*
G75*
G02*
X81777860Y-154189920I-262500J0D01*
G01*
X81152860Y-154189920D01*
G75*
G02*
X80890360Y-153927420I0J262500D01*
G01*
G37*
G36*
G01*
X79140360Y-153927420D02*
X79140360Y-153402420D01*
G75*
G02*
X79402860Y-153139920I262500J0D01*
G01*
X80027860Y-153139920D01*
G75*
G02*
X80290360Y-153402420I0J-262500D01*
G01*
X80290360Y-153927420D01*
G75*
G02*
X80027860Y-154189920I-262500J0D01*
G01*
X79402860Y-154189920D01*
G75*
G02*
X79140360Y-153927420I0J262500D01*
G01*
G37*
%TD*%
%TO.C,C4*%
G36*
G01*
X78717500Y-165332544D02*
X78717500Y-167547456D01*
G75*
G02*
X78449956Y-167815000I-267544J0D01*
G01*
X77460044Y-167815000D01*
G75*
G02*
X77192500Y-167547456I0J267544D01*
G01*
X77192500Y-165332544D01*
G75*
G02*
X77460044Y-165065000I267544J0D01*
G01*
X78449956Y-165065000D01*
G75*
G02*
X78717500Y-165332544I0J-267544D01*
G01*
G37*
G36*
G01*
X81692500Y-165332544D02*
X81692500Y-167547456D01*
G75*
G02*
X81424956Y-167815000I-267544J0D01*
G01*
X80435044Y-167815000D01*
G75*
G02*
X80167500Y-167547456I0J267544D01*
G01*
X80167500Y-165332544D01*
G75*
G02*
X80435044Y-165065000I267544J0D01*
G01*
X81424956Y-165065000D01*
G75*
G02*
X81692500Y-165332544I0J-267544D01*
G01*
G37*
%TD*%
%TO.C,C3*%
G36*
G01*
X79610000Y-163817500D02*
X79610000Y-164342500D01*
G75*
G02*
X79347500Y-164605000I-262500J0D01*
G01*
X78722500Y-164605000D01*
G75*
G02*
X78460000Y-164342500I0J262500D01*
G01*
X78460000Y-163817500D01*
G75*
G02*
X78722500Y-163555000I262500J0D01*
G01*
X79347500Y-163555000D01*
G75*
G02*
X79610000Y-163817500I0J-262500D01*
G01*
G37*
G36*
G01*
X81360000Y-163817500D02*
X81360000Y-164342500D01*
G75*
G02*
X81097500Y-164605000I-262500J0D01*
G01*
X80472500Y-164605000D01*
G75*
G02*
X80210000Y-164342500I0J262500D01*
G01*
X80210000Y-163817500D01*
G75*
G02*
X80472500Y-163555000I262500J0D01*
G01*
X81097500Y-163555000D01*
G75*
G02*
X81360000Y-163817500I0J-262500D01*
G01*
G37*
%TD*%
%TO.C,C2*%
G36*
G01*
X107882544Y-166062500D02*
X110097456Y-166062500D01*
G75*
G02*
X110365000Y-166330044I0J-267544D01*
G01*
X110365000Y-167319956D01*
G75*
G02*
X110097456Y-167587500I-267544J0D01*
G01*
X107882544Y-167587500D01*
G75*
G02*
X107615000Y-167319956I0J267544D01*
G01*
X107615000Y-166330044D01*
G75*
G02*
X107882544Y-166062500I267544J0D01*
G01*
G37*
G36*
G01*
X107882544Y-163087500D02*
X110097456Y-163087500D01*
G75*
G02*
X110365000Y-163355044I0J-267544D01*
G01*
X110365000Y-164344956D01*
G75*
G02*
X110097456Y-164612500I-267544J0D01*
G01*
X107882544Y-164612500D01*
G75*
G02*
X107615000Y-164344956I0J267544D01*
G01*
X107615000Y-163355044D01*
G75*
G02*
X107882544Y-163087500I267544J0D01*
G01*
G37*
%TD*%
%TO.C,C1*%
G36*
G01*
X111107500Y-165220000D02*
X111632500Y-165220000D01*
G75*
G02*
X111895000Y-165482500I0J-262500D01*
G01*
X111895000Y-166107500D01*
G75*
G02*
X111632500Y-166370000I-262500J0D01*
G01*
X111107500Y-166370000D01*
G75*
G02*
X110845000Y-166107500I0J262500D01*
G01*
X110845000Y-165482500D01*
G75*
G02*
X111107500Y-165220000I262500J0D01*
G01*
G37*
G36*
G01*
X111107500Y-163470000D02*
X111632500Y-163470000D01*
G75*
G02*
X111895000Y-163732500I0J-262500D01*
G01*
X111895000Y-164357500D01*
G75*
G02*
X111632500Y-164620000I-262500J0D01*
G01*
X111107500Y-164620000D01*
G75*
G02*
X110845000Y-164357500I0J262500D01*
G01*
X110845000Y-163732500D01*
G75*
G02*
X111107500Y-163470000I262500J0D01*
G01*
G37*
%TD*%
D24*
%TO.C,BZ1*%
X78350000Y-126340000D03*
X85750000Y-126340000D03*
X85750000Y-118940000D03*
%TD*%
D25*
%TO.C,BT1*%
X108784720Y-132700320D03*
D26*
X101284720Y-132700320D03*
D27*
X113014720Y-132700320D03*
D28*
X97214720Y-132700320D03*
%TD*%
M02*
