%TF.GenerationSoftware,KiCad,Pcbnew,5.1.6-c6e7f7d~87~ubuntu20.04.1*%
%TF.CreationDate,2021-01-31T19:29:29+07:00*%
%TF.ProjectId,kh-gift-hw,6b682d67-6966-4742-9d68-772e6b696361,rev?*%
%TF.SameCoordinates,Original*%
%TF.FileFunction,Copper,L2,Bot*%
%TF.FilePolarity,Positive*%
%FSLAX46Y46*%
G04 Gerber Fmt 4.6, Leading zero omitted, Abs format (unit mm)*
G04 Created by KiCad (PCBNEW 5.1.6-c6e7f7d~87~ubuntu20.04.1) date 2021-01-31 19:29:29*
%MOMM*%
%LPD*%
G01*
G04 APERTURE LIST*
%TA.AperFunction,ComponentPad*%
%ADD10C,1.524000*%
%TD*%
%TA.AperFunction,ComponentPad*%
%ADD11R,1.700000X1.700000*%
%TD*%
%TA.AperFunction,ComponentPad*%
%ADD12C,1.500000*%
%TD*%
%TA.AperFunction,ComponentPad*%
%ADD13R,1.500000X1.500000*%
%TD*%
%TA.AperFunction,ComponentPad*%
%ADD14C,0.800000*%
%TD*%
%TA.AperFunction,ComponentPad*%
%ADD15O,2.000000X1.700000*%
%TD*%
%TA.AperFunction,ComponentPad*%
%ADD16O,1.950000X1.700000*%
%TD*%
%TA.AperFunction,ComponentPad*%
%ADD17O,1.700000X1.700000*%
%TD*%
%TA.AperFunction,ViaPad*%
%ADD18C,0.800000*%
%TD*%
%TA.AperFunction,Conductor*%
%ADD19C,0.200000*%
%TD*%
%TA.AperFunction,Conductor*%
%ADD20C,1.500000*%
%TD*%
%TA.AperFunction,Conductor*%
%ADD21C,0.254000*%
%TD*%
G04 APERTURE END LIST*
D10*
%TO.P,J4,14*%
%TO.N,N/C*%
X117233900Y-128415680D03*
%TO.P,J4,13*%
X117233900Y-130955680D03*
%TO.P,J4,12*%
X117233900Y-133495680D03*
%TO.P,J4,11*%
X117233900Y-136035680D03*
%TO.P,J4,10*%
X117233900Y-138575680D03*
%TO.P,J4,9*%
%TO.N,LCD_MISO*%
X117233900Y-141115680D03*
%TO.P,J4,8*%
%TO.N,Net-(J3-Pad2)*%
X117233900Y-143655680D03*
%TO.P,J4,7*%
%TO.N,LCD_CLK*%
X117233900Y-146195680D03*
%TO.P,J4,6*%
%TO.N,LCD_MOSI*%
X117233900Y-148735680D03*
%TO.P,J4,5*%
%TO.N,LCD_DC*%
X117233900Y-151275680D03*
%TO.P,J4,4*%
%TO.N,LCD_RST*%
X117233900Y-153815680D03*
%TO.P,J4,3*%
%TO.N,LCD_CS*%
X117233900Y-156355680D03*
%TO.P,J4,2*%
%TO.N,GND*%
X117233900Y-158895680D03*
D11*
%TO.P,J4,1*%
%TO.N,+3V3*%
X117233900Y-161435680D03*
%TD*%
D12*
%TO.P,U3,4*%
%TO.N,GND*%
X73030000Y-120040000D03*
%TO.P,U3,3*%
%TO.N,N/C*%
X73030000Y-122580000D03*
%TO.P,U3,2*%
%TO.N,DHT*%
X73030000Y-125120000D03*
D13*
%TO.P,U3,1*%
%TO.N,+3V3*%
X73030000Y-127660000D03*
%TD*%
D14*
%TO.P,U1,39*%
%TO.N,GND*%
X97637300Y-159912460D03*
X97637300Y-158912460D03*
X97637300Y-157912460D03*
X97637300Y-156912460D03*
X97637300Y-155912460D03*
X96637300Y-155912460D03*
X96637300Y-156912460D03*
X96637300Y-157912460D03*
X96637300Y-158912460D03*
X96637300Y-159912460D03*
X94637300Y-159912460D03*
X94637300Y-158912460D03*
X94637300Y-157912460D03*
X94637300Y-156912460D03*
X94637300Y-155912460D03*
X95637300Y-155912460D03*
X95637300Y-156912460D03*
X95637300Y-157912460D03*
X95637300Y-158912460D03*
X95637300Y-159912460D03*
X93637300Y-155912460D03*
X93637300Y-156912460D03*
X93637300Y-157912460D03*
X93637300Y-158912460D03*
X93637300Y-159912460D03*
%TD*%
D15*
%TO.P,SW2,2*%
%TO.N,GND*%
X72040000Y-158090000D03*
%TO.P,SW2,1*%
%TO.N,FLASH_EN*%
%TA.AperFunction,ComponentPad*%
G36*
G01*
X72790000Y-161440000D02*
X71290000Y-161440000D01*
G75*
G02*
X71040000Y-161190000I0J250000D01*
G01*
X71040000Y-159990000D01*
G75*
G02*
X71290000Y-159740000I250000J0D01*
G01*
X72790000Y-159740000D01*
G75*
G02*
X73040000Y-159990000I0J-250000D01*
G01*
X73040000Y-161190000D01*
G75*
G02*
X72790000Y-161440000I-250000J0D01*
G01*
G37*
%TD.AperFunction*%
%TD*%
%TO.P,SW1,2*%
%TO.N,GND*%
X72050000Y-149400000D03*
%TO.P,SW1,1*%
%TO.N,BUTTON*%
%TA.AperFunction,ComponentPad*%
G36*
G01*
X72800000Y-152750000D02*
X71300000Y-152750000D01*
G75*
G02*
X71050000Y-152500000I0J250000D01*
G01*
X71050000Y-151300000D01*
G75*
G02*
X71300000Y-151050000I250000J0D01*
G01*
X72800000Y-151050000D01*
G75*
G02*
X73050000Y-151300000I0J-250000D01*
G01*
X73050000Y-152500000D01*
G75*
G02*
X72800000Y-152750000I-250000J0D01*
G01*
G37*
%TD.AperFunction*%
%TD*%
D16*
%TO.P,J3,3*%
%TO.N,GND*%
X71998840Y-138296640D03*
%TO.P,J3,2*%
%TO.N,Net-(J3-Pad2)*%
X71998840Y-140796640D03*
%TO.P,J3,1*%
%TO.N,LCD_BCKL*%
%TA.AperFunction,ComponentPad*%
G36*
G01*
X72723840Y-144146640D02*
X71273840Y-144146640D01*
G75*
G02*
X71023840Y-143896640I0J250000D01*
G01*
X71023840Y-142696640D01*
G75*
G02*
X71273840Y-142446640I250000J0D01*
G01*
X72723840Y-142446640D01*
G75*
G02*
X72973840Y-142696640I0J-250000D01*
G01*
X72973840Y-143896640D01*
G75*
G02*
X72723840Y-144146640I-250000J0D01*
G01*
G37*
%TD.AperFunction*%
%TD*%
D17*
%TO.P,J2,6*%
%TO.N,FLASH_EN*%
X76880000Y-139670000D03*
%TO.P,J2,5*%
%TO.N,FLASH_IO0*%
X76880000Y-142210000D03*
%TO.P,J2,4*%
%TO.N,FLASH_U0RX*%
X76880000Y-144750000D03*
%TO.P,J2,3*%
%TO.N,FLASH_U0TX*%
X76880000Y-147290000D03*
%TO.P,J2,2*%
%TO.N,GND*%
X76880000Y-149830000D03*
D11*
%TO.P,J2,1*%
%TO.N,+3V3*%
X76880000Y-152370000D03*
%TD*%
D15*
%TO.P,J1,2*%
%TO.N,GND*%
X72020000Y-166800000D03*
%TO.P,J1,1*%
%TO.N,+5V*%
%TA.AperFunction,ComponentPad*%
G36*
G01*
X72770000Y-170150000D02*
X71270000Y-170150000D01*
G75*
G02*
X71020000Y-169900000I0J250000D01*
G01*
X71020000Y-168700000D01*
G75*
G02*
X71270000Y-168450000I250000J0D01*
G01*
X72770000Y-168450000D01*
G75*
G02*
X73020000Y-168700000I0J-250000D01*
G01*
X73020000Y-169900000D01*
G75*
G02*
X72770000Y-170150000I-250000J0D01*
G01*
G37*
%TD.AperFunction*%
%TD*%
D18*
%TO.N,*%
X70485000Y-153670000D03*
X70487540Y-154945080D03*
%TO.N,GND*%
X73660000Y-167005000D03*
X74930000Y-167005000D03*
X74930000Y-165735000D03*
X73660000Y-165735000D03*
X76200000Y-167005000D03*
X76200000Y-165735000D03*
X76200000Y-164465000D03*
X74930000Y-164465000D03*
X73660000Y-164465000D03*
X76835000Y-160020000D03*
X76835000Y-158750000D03*
X76835000Y-157480000D03*
X75565000Y-157480000D03*
X75565000Y-158750000D03*
X75565000Y-160020000D03*
X74295000Y-160020000D03*
X74295000Y-158750000D03*
X74295000Y-157480000D03*
X85090000Y-166370000D03*
X83820000Y-166370000D03*
X82550000Y-166370000D03*
X82550000Y-167640000D03*
X83820000Y-167640000D03*
X85090000Y-167640000D03*
X85090000Y-168910000D03*
X83820000Y-168910000D03*
X82550000Y-168910000D03*
X81280000Y-154940000D03*
X82232500Y-154945080D03*
X71755000Y-153670000D03*
X78105000Y-149225000D03*
X78105000Y-150495000D03*
X71295260Y-147497800D03*
X72565260Y-147497800D03*
X70764400Y-133883400D03*
X70764400Y-135153400D03*
X74295000Y-119380000D03*
X74295000Y-120650000D03*
X75565000Y-120650000D03*
X75565000Y-119380000D03*
X82550000Y-127635000D03*
X83820000Y-127635000D03*
X94615000Y-131445000D03*
X94615000Y-132715000D03*
X94615000Y-133985000D03*
X107950000Y-168275000D03*
X109220000Y-168275000D03*
X110490000Y-168275000D03*
X107950000Y-169545000D03*
X109220000Y-169545000D03*
X110490000Y-169545000D03*
X107950000Y-170815000D03*
X109220000Y-170815000D03*
X110490000Y-170815000D03*
X118110000Y-157480000D03*
X111760000Y-156210000D03*
X111760000Y-157480000D03*
X111760000Y-158750000D03*
X113665000Y-152400000D03*
X113665000Y-153670000D03*
X106680000Y-146685000D03*
X106680000Y-147955000D03*
X107950000Y-147955000D03*
X109220000Y-147955000D03*
X107315000Y-140335000D03*
X108585000Y-140335000D03*
X70787260Y-136476740D03*
%TO.N,+3V3*%
X79060000Y-157910000D03*
X78220000Y-157910000D03*
X79070000Y-158730000D03*
X78250000Y-158720000D03*
X79050000Y-159530000D03*
X78230000Y-159530000D03*
X79040000Y-160340000D03*
X78220000Y-160340000D03*
X115390000Y-164240000D03*
X115400000Y-163420000D03*
X112950000Y-163440000D03*
X112940000Y-164260000D03*
X113770000Y-163430000D03*
X113760000Y-164250000D03*
X114590000Y-163420000D03*
X114580000Y-164240000D03*
X73810000Y-151880000D03*
%TO.N,BUTTON*%
X100120000Y-136325370D03*
X73602198Y-137412198D03*
%TO.N,FLASH_EN*%
X106850000Y-160060000D03*
X92380000Y-159840000D03*
X89034620Y-138203940D03*
%TO.N,FLASH_IO0*%
X84111256Y-148131258D03*
X82536471Y-149580689D03*
%TO.N,LCD_BCKL*%
X101049138Y-137729278D03*
%TO.N,Net-(J3-Pad2)*%
X106923840Y-136784080D03*
%TO.N,LCD_MISO*%
X107990000Y-137480000D03*
X100929440Y-139031980D03*
%TO.N,LCD_CLK*%
X113480000Y-160559978D03*
X90823689Y-161126540D03*
%TO.N,LCD_MOSI*%
X114010000Y-162410000D03*
X88283165Y-162506340D03*
%TO.N,LCD_DC*%
X114890010Y-160860002D03*
X89866552Y-161416218D03*
%TO.N,LCD_RST*%
X115290021Y-159690000D03*
X91746551Y-160741380D03*
%TO.N,LCD_CS*%
X115452119Y-161687080D03*
X88904955Y-161690727D03*
%TO.N,DHT*%
X72230737Y-135843296D03*
X102450000Y-135170000D03*
%TD*%
D19*
%TO.N,+3V3*%
X74300000Y-152370000D02*
X76880000Y-152370000D01*
X73810000Y-151880000D02*
X74300000Y-152370000D01*
D20*
X78625700Y-162018980D02*
X78625700Y-158107380D01*
X78656180Y-162049460D02*
X78625700Y-162018980D01*
X80470000Y-163880000D02*
X78640000Y-162050000D01*
X115202500Y-163880000D02*
X80470000Y-163880000D01*
X115209320Y-163873180D02*
X115202500Y-163880000D01*
D19*
%TO.N,BUTTON*%
X74399466Y-136614930D02*
X73602198Y-137412198D01*
X100120000Y-136325370D02*
X99830440Y-136614930D01*
X99830440Y-136614930D02*
X74399466Y-136614930D01*
%TO.N,FLASH_EN*%
X106850000Y-160060000D02*
X106110055Y-160799945D01*
X106110055Y-160799945D02*
X93339945Y-160799945D01*
X93339945Y-160799945D02*
X92380000Y-159840000D01*
X88724740Y-137894060D02*
X89034620Y-138203940D01*
X78655940Y-137894060D02*
X88724740Y-137894060D01*
X76880000Y-139670000D02*
X78655940Y-137894060D01*
%TO.N,FLASH_IO0*%
X84111256Y-148918744D02*
X84111256Y-148131258D01*
X83449311Y-149580689D02*
X84111256Y-148918744D01*
X82536471Y-149580689D02*
X83449311Y-149580689D01*
%TO.N,LCD_BCKL*%
X100754549Y-137434689D02*
X101049138Y-137729278D01*
X75521451Y-137434689D02*
X100754549Y-137434689D01*
X73413620Y-139542520D02*
X75521451Y-137434689D01*
X72973840Y-143296640D02*
X73413620Y-142856860D01*
X71998840Y-143296640D02*
X72973840Y-143296640D01*
X73413620Y-142856860D02*
X73413620Y-139542520D01*
%TO.N,Net-(J3-Pad2)*%
X72050000Y-140710000D02*
X72050000Y-140304160D01*
X72050000Y-140304160D02*
X75328780Y-137025380D01*
X75328780Y-137025380D02*
X106682540Y-137025380D01*
X106682540Y-137025380D02*
X106923840Y-136784080D01*
%TO.N,LCD_MISO*%
X100929440Y-138838940D02*
X100929440Y-139031980D01*
X102268020Y-137500360D02*
X100929440Y-138838940D01*
X107990000Y-137480000D02*
X107969640Y-137500360D01*
X107969640Y-137500360D02*
X102268020Y-137500360D01*
%TO.N,LCD_CLK*%
X111845733Y-161599967D02*
X91297116Y-161599967D01*
X91297116Y-161599967D02*
X90823689Y-161126540D01*
X113480000Y-160559978D02*
X112885722Y-160559978D01*
X112885722Y-160559978D02*
X111845733Y-161599967D01*
%TO.N,LCD_MOSI*%
X88606814Y-162829989D02*
X88283165Y-162506340D01*
X112350011Y-162829989D02*
X88606814Y-162829989D01*
X112770000Y-162410000D02*
X112350011Y-162829989D01*
X114010000Y-162410000D02*
X112770000Y-162410000D01*
%TO.N,LCD_DC*%
X90450312Y-161999978D02*
X89866552Y-161416218D01*
X112751399Y-161260001D02*
X112011422Y-161999978D01*
X114490011Y-161260001D02*
X112751399Y-161260001D01*
X112011422Y-161999978D02*
X90450312Y-161999978D01*
X114890010Y-160860002D02*
X114490011Y-161260001D01*
%TO.N,LCD_RST*%
X113190000Y-159690000D02*
X111680044Y-161199956D01*
X92205127Y-161199956D02*
X91746551Y-160741380D01*
X111680044Y-161199956D02*
X92205127Y-161199956D01*
X115290021Y-159690000D02*
X113190000Y-159690000D01*
%TO.N,LCD_CS*%
X89614217Y-162399989D02*
X88904955Y-161690727D01*
X112177111Y-162399989D02*
X89614217Y-162399989D01*
X112890020Y-161687080D02*
X112177111Y-162399989D01*
X115452119Y-161687080D02*
X112890020Y-161687080D01*
%TO.N,DHT*%
X100026380Y-135170000D02*
X102450000Y-135170000D01*
X99006380Y-136190000D02*
X100026380Y-135170000D01*
X72577441Y-136190000D02*
X99006380Y-136190000D01*
X72230737Y-135843296D02*
X72577441Y-136190000D01*
%TD*%
D21*
%TO.N,GND*%
G36*
X118590000Y-128072471D02*
G01*
X118577214Y-128008190D01*
X118471905Y-127753953D01*
X118319020Y-127525145D01*
X118124435Y-127330560D01*
X117895627Y-127177675D01*
X117641390Y-127072366D01*
X117371492Y-127018680D01*
X117096308Y-127018680D01*
X116826410Y-127072366D01*
X116572173Y-127177675D01*
X116343365Y-127330560D01*
X116148780Y-127525145D01*
X115995895Y-127753953D01*
X115890586Y-128008190D01*
X115836900Y-128278088D01*
X115836900Y-128553272D01*
X115890586Y-128823170D01*
X115995895Y-129077407D01*
X116148780Y-129306215D01*
X116343365Y-129500800D01*
X116572173Y-129653685D01*
X116649415Y-129685680D01*
X116572173Y-129717675D01*
X116343365Y-129870560D01*
X116148780Y-130065145D01*
X115995895Y-130293953D01*
X115890586Y-130548190D01*
X115836900Y-130818088D01*
X115836900Y-131093272D01*
X115890586Y-131363170D01*
X115995895Y-131617407D01*
X116148780Y-131846215D01*
X116343365Y-132040800D01*
X116572173Y-132193685D01*
X116649415Y-132225680D01*
X116572173Y-132257675D01*
X116343365Y-132410560D01*
X116148780Y-132605145D01*
X115995895Y-132833953D01*
X115890586Y-133088190D01*
X115836900Y-133358088D01*
X115836900Y-133633272D01*
X115890586Y-133903170D01*
X115995895Y-134157407D01*
X116148780Y-134386215D01*
X116343365Y-134580800D01*
X116572173Y-134733685D01*
X116649415Y-134765680D01*
X116572173Y-134797675D01*
X116343365Y-134950560D01*
X116148780Y-135145145D01*
X115995895Y-135373953D01*
X115890586Y-135628190D01*
X115836900Y-135898088D01*
X115836900Y-136173272D01*
X115890586Y-136443170D01*
X115995895Y-136697407D01*
X116148780Y-136926215D01*
X116343365Y-137120800D01*
X116572173Y-137273685D01*
X116649415Y-137305680D01*
X116572173Y-137337675D01*
X116343365Y-137490560D01*
X116148780Y-137685145D01*
X115995895Y-137913953D01*
X115890586Y-138168190D01*
X115836900Y-138438088D01*
X115836900Y-138713272D01*
X115890586Y-138983170D01*
X115995895Y-139237407D01*
X116148780Y-139466215D01*
X116343365Y-139660800D01*
X116572173Y-139813685D01*
X116649415Y-139845680D01*
X116572173Y-139877675D01*
X116343365Y-140030560D01*
X116148780Y-140225145D01*
X115995895Y-140453953D01*
X115890586Y-140708190D01*
X115836900Y-140978088D01*
X115836900Y-141253272D01*
X115890586Y-141523170D01*
X115995895Y-141777407D01*
X116148780Y-142006215D01*
X116343365Y-142200800D01*
X116572173Y-142353685D01*
X116649415Y-142385680D01*
X116572173Y-142417675D01*
X116343365Y-142570560D01*
X116148780Y-142765145D01*
X115995895Y-142993953D01*
X115890586Y-143248190D01*
X115836900Y-143518088D01*
X115836900Y-143793272D01*
X115890586Y-144063170D01*
X115995895Y-144317407D01*
X116148780Y-144546215D01*
X116343365Y-144740800D01*
X116572173Y-144893685D01*
X116649415Y-144925680D01*
X116572173Y-144957675D01*
X116343365Y-145110560D01*
X116148780Y-145305145D01*
X115995895Y-145533953D01*
X115890586Y-145788190D01*
X115836900Y-146058088D01*
X115836900Y-146333272D01*
X115890586Y-146603170D01*
X115995895Y-146857407D01*
X116148780Y-147086215D01*
X116343365Y-147280800D01*
X116572173Y-147433685D01*
X116649415Y-147465680D01*
X116572173Y-147497675D01*
X116343365Y-147650560D01*
X116148780Y-147845145D01*
X115995895Y-148073953D01*
X115890586Y-148328190D01*
X115836900Y-148598088D01*
X115836900Y-148873272D01*
X115890586Y-149143170D01*
X115995895Y-149397407D01*
X116148780Y-149626215D01*
X116343365Y-149820800D01*
X116572173Y-149973685D01*
X116649415Y-150005680D01*
X116572173Y-150037675D01*
X116343365Y-150190560D01*
X116148780Y-150385145D01*
X115995895Y-150613953D01*
X115890586Y-150868190D01*
X115836900Y-151138088D01*
X115836900Y-151413272D01*
X115890586Y-151683170D01*
X115995895Y-151937407D01*
X116148780Y-152166215D01*
X116343365Y-152360800D01*
X116572173Y-152513685D01*
X116649415Y-152545680D01*
X116572173Y-152577675D01*
X116343365Y-152730560D01*
X116148780Y-152925145D01*
X115995895Y-153153953D01*
X115890586Y-153408190D01*
X115836900Y-153678088D01*
X115836900Y-153953272D01*
X115890586Y-154223170D01*
X115995895Y-154477407D01*
X116148780Y-154706215D01*
X116343365Y-154900800D01*
X116572173Y-155053685D01*
X116649415Y-155085680D01*
X116572173Y-155117675D01*
X116343365Y-155270560D01*
X116148780Y-155465145D01*
X115995895Y-155693953D01*
X115890586Y-155948190D01*
X115836900Y-156218088D01*
X115836900Y-156493272D01*
X115890586Y-156763170D01*
X115995895Y-157017407D01*
X116148780Y-157246215D01*
X116343365Y-157440800D01*
X116572173Y-157593685D01*
X116826410Y-157698994D01*
X117096308Y-157752680D01*
X117371492Y-157752680D01*
X117641390Y-157698994D01*
X117895627Y-157593685D01*
X118124435Y-157440800D01*
X118319020Y-157246215D01*
X118471905Y-157017407D01*
X118577214Y-156763170D01*
X118590001Y-156698887D01*
X118590001Y-160201410D01*
X118535085Y-160134495D01*
X118438394Y-160055143D01*
X118328080Y-159996178D01*
X118208382Y-159959868D01*
X118083900Y-159947608D01*
X116383900Y-159947608D01*
X116292262Y-159956633D01*
X116325021Y-159791939D01*
X116325021Y-159588061D01*
X116285247Y-159388102D01*
X116207226Y-159199744D01*
X116093958Y-159030226D01*
X115949795Y-158886063D01*
X115780277Y-158772795D01*
X115591919Y-158694774D01*
X115391960Y-158655000D01*
X115188082Y-158655000D01*
X114988123Y-158694774D01*
X114799765Y-158772795D01*
X114630247Y-158886063D01*
X114561310Y-158955000D01*
X113226094Y-158955000D01*
X113189999Y-158951445D01*
X113153904Y-158955000D01*
X113153895Y-158955000D01*
X113045915Y-158965635D01*
X112907367Y-159007663D01*
X112779680Y-159075913D01*
X112667762Y-159167762D01*
X112644746Y-159195807D01*
X111375598Y-160464956D01*
X107802538Y-160464956D01*
X107845226Y-160361898D01*
X107885000Y-160161939D01*
X107885000Y-159958061D01*
X107845226Y-159758102D01*
X107767205Y-159569744D01*
X107653937Y-159400226D01*
X107509774Y-159256063D01*
X107340256Y-159142795D01*
X107151898Y-159064774D01*
X106951939Y-159025000D01*
X106748061Y-159025000D01*
X106548102Y-159064774D01*
X106359744Y-159142795D01*
X106190226Y-159256063D01*
X106046063Y-159400226D01*
X105932795Y-159569744D01*
X105854774Y-159758102D01*
X105815000Y-159958061D01*
X105815000Y-160055554D01*
X105805609Y-160064945D01*
X93644392Y-160064945D01*
X93415000Y-159835553D01*
X93415000Y-159738061D01*
X93375226Y-159538102D01*
X93297205Y-159349744D01*
X93183937Y-159180226D01*
X93039774Y-159036063D01*
X92870256Y-158922795D01*
X92681898Y-158844774D01*
X92481939Y-158805000D01*
X92278061Y-158805000D01*
X92078102Y-158844774D01*
X91889744Y-158922795D01*
X91720226Y-159036063D01*
X91576063Y-159180226D01*
X91462795Y-159349744D01*
X91384774Y-159538102D01*
X91345000Y-159738061D01*
X91345000Y-159787432D01*
X91256295Y-159824175D01*
X91086777Y-159937443D01*
X90942614Y-160081606D01*
X90934762Y-160093357D01*
X90925628Y-160091540D01*
X90721750Y-160091540D01*
X90521791Y-160131314D01*
X90333433Y-160209335D01*
X90163915Y-160322603D01*
X90082602Y-160403916D01*
X89968491Y-160381218D01*
X89764613Y-160381218D01*
X89564654Y-160420992D01*
X89376296Y-160499013D01*
X89206778Y-160612281D01*
X89137377Y-160681682D01*
X89006894Y-160655727D01*
X88803016Y-160655727D01*
X88603057Y-160695501D01*
X88414699Y-160773522D01*
X88245181Y-160886790D01*
X88101018Y-161030953D01*
X87987750Y-161200471D01*
X87909729Y-161388829D01*
X87876798Y-161554387D01*
X87792909Y-161589135D01*
X87623391Y-161702403D01*
X87479228Y-161846566D01*
X87365960Y-162016084D01*
X87287939Y-162204442D01*
X87248165Y-162404401D01*
X87248165Y-162495000D01*
X81043686Y-162495000D01*
X80010700Y-161462015D01*
X80010700Y-160701109D01*
X80035226Y-160641898D01*
X80075000Y-160441939D01*
X80075000Y-160238061D01*
X80035226Y-160038102D01*
X80010700Y-159978891D01*
X80010700Y-159915251D01*
X80045226Y-159831898D01*
X80085000Y-159631939D01*
X80085000Y-159428061D01*
X80045226Y-159228102D01*
X80014591Y-159154142D01*
X80065226Y-159031898D01*
X80105000Y-158831939D01*
X80105000Y-158628061D01*
X80065226Y-158428102D01*
X80015448Y-158307929D01*
X80055226Y-158211898D01*
X80095000Y-158011939D01*
X80095000Y-157808061D01*
X80055226Y-157608102D01*
X79977205Y-157419744D01*
X79863937Y-157250226D01*
X79719774Y-157106063D01*
X79550256Y-156992795D01*
X79361898Y-156914774D01*
X79315183Y-156905482D01*
X79158281Y-156821616D01*
X78897207Y-156742420D01*
X78625700Y-156715679D01*
X78354194Y-156742420D01*
X78093120Y-156821616D01*
X77919267Y-156914542D01*
X77918102Y-156914774D01*
X77729744Y-156992795D01*
X77560226Y-157106063D01*
X77416063Y-157250226D01*
X77302795Y-157419744D01*
X77224774Y-157608102D01*
X77185000Y-157808061D01*
X77185000Y-158011939D01*
X77224774Y-158211898D01*
X77240701Y-158250349D01*
X77240701Y-158488853D01*
X77215000Y-158618061D01*
X77215000Y-158821939D01*
X77240701Y-158951147D01*
X77240701Y-159213794D01*
X77234774Y-159228102D01*
X77195000Y-159428061D01*
X77195000Y-159631939D01*
X77234774Y-159831898D01*
X77240701Y-159846206D01*
X77240701Y-159999652D01*
X77224774Y-160038102D01*
X77185000Y-160238061D01*
X77185000Y-160441939D01*
X77224774Y-160641898D01*
X77240700Y-160680347D01*
X77240700Y-161950951D01*
X77234000Y-162018980D01*
X77240700Y-162087009D01*
X77240700Y-162087016D01*
X77252746Y-162209318D01*
X77260740Y-162290487D01*
X77318677Y-162481480D01*
X77339936Y-162551560D01*
X77351243Y-162572715D01*
X77354236Y-162582580D01*
X77482844Y-162823188D01*
X77612548Y-162981233D01*
X79442550Y-164811236D01*
X79485919Y-164864081D01*
X79538764Y-164907450D01*
X79538766Y-164907452D01*
X79696811Y-165037156D01*
X79696812Y-165037157D01*
X79937419Y-165165764D01*
X80198493Y-165244960D01*
X80401963Y-165265000D01*
X80401971Y-165265000D01*
X80470000Y-165271700D01*
X80538029Y-165265000D01*
X112687240Y-165265000D01*
X112838061Y-165295000D01*
X113041939Y-165295000D01*
X113192760Y-165265000D01*
X113557513Y-165265000D01*
X113658061Y-165285000D01*
X113861939Y-165285000D01*
X113962487Y-165265000D01*
X114427787Y-165265000D01*
X114478061Y-165275000D01*
X114681939Y-165275000D01*
X114732213Y-165265000D01*
X115134471Y-165265000D01*
X115202500Y-165271700D01*
X115248630Y-165267157D01*
X115288061Y-165275000D01*
X115491939Y-165275000D01*
X115691898Y-165235226D01*
X115880256Y-165157205D01*
X116049774Y-165043937D01*
X116193937Y-164899774D01*
X116307205Y-164730256D01*
X116316962Y-164706700D01*
X116366476Y-164646367D01*
X116495084Y-164405760D01*
X116574280Y-164144687D01*
X116601020Y-163873180D01*
X116574280Y-163601673D01*
X116495084Y-163340600D01*
X116406529Y-163174925D01*
X116395226Y-163118102D01*
X116317205Y-162929744D01*
X116308221Y-162916299D01*
X116383900Y-162923752D01*
X118083900Y-162923752D01*
X118208382Y-162911492D01*
X118328080Y-162875182D01*
X118438394Y-162816217D01*
X118535085Y-162736865D01*
X118590001Y-162669950D01*
X118590001Y-171760000D01*
X104910000Y-171760000D01*
X104910000Y-169216323D01*
X114060497Y-169216323D01*
X114060497Y-169643677D01*
X114143870Y-170062821D01*
X114307412Y-170457645D01*
X114544837Y-170812977D01*
X114847023Y-171115163D01*
X115202355Y-171352588D01*
X115597179Y-171516130D01*
X116016323Y-171599503D01*
X116443677Y-171599503D01*
X116862821Y-171516130D01*
X117257645Y-171352588D01*
X117612977Y-171115163D01*
X117915163Y-170812977D01*
X118152588Y-170457645D01*
X118316130Y-170062821D01*
X118399503Y-169643677D01*
X118399503Y-169216323D01*
X118316130Y-168797179D01*
X118152588Y-168402355D01*
X117915163Y-168047023D01*
X117612977Y-167744837D01*
X117257645Y-167507412D01*
X116862821Y-167343870D01*
X116443677Y-167260497D01*
X116016323Y-167260497D01*
X115597179Y-167343870D01*
X115202355Y-167507412D01*
X114847023Y-167744837D01*
X114544837Y-168047023D01*
X114307412Y-168402355D01*
X114143870Y-168797179D01*
X114060497Y-169216323D01*
X104910000Y-169216323D01*
X104910000Y-166352419D01*
X104913193Y-166320000D01*
X104900450Y-166190617D01*
X104862710Y-166066207D01*
X104801425Y-165951550D01*
X104718948Y-165851052D01*
X104618450Y-165768575D01*
X104503793Y-165707290D01*
X104379383Y-165669550D01*
X104282419Y-165660000D01*
X104250000Y-165656807D01*
X104217581Y-165660000D01*
X86252419Y-165660000D01*
X86220000Y-165656807D01*
X86187581Y-165660000D01*
X86090617Y-165669550D01*
X85966207Y-165707290D01*
X85851550Y-165768575D01*
X85751052Y-165851052D01*
X85668575Y-165951550D01*
X85607290Y-166066207D01*
X85569550Y-166190617D01*
X85556807Y-166320000D01*
X85560001Y-166352429D01*
X85560000Y-171760000D01*
X70510000Y-171760000D01*
X70510000Y-170352985D01*
X70531595Y-170393386D01*
X70642038Y-170527962D01*
X70776614Y-170638405D01*
X70930150Y-170720472D01*
X71096746Y-170771008D01*
X71270000Y-170788072D01*
X72770000Y-170788072D01*
X72943254Y-170771008D01*
X73109850Y-170720472D01*
X73263386Y-170638405D01*
X73397962Y-170527962D01*
X73508405Y-170393386D01*
X73590472Y-170239850D01*
X73641008Y-170073254D01*
X73658072Y-169900000D01*
X73658072Y-168700000D01*
X73641008Y-168526746D01*
X73590472Y-168360150D01*
X73508405Y-168206614D01*
X73397962Y-168072038D01*
X73263386Y-167961595D01*
X73109850Y-167879528D01*
X72943254Y-167828992D01*
X72770000Y-167811928D01*
X71270000Y-167811928D01*
X71096746Y-167828992D01*
X70930150Y-167879528D01*
X70776614Y-167961595D01*
X70642038Y-168072038D01*
X70531595Y-168206614D01*
X70510000Y-168247015D01*
X70510000Y-161605568D01*
X70551595Y-161683386D01*
X70662038Y-161817962D01*
X70796614Y-161928405D01*
X70950150Y-162010472D01*
X71116746Y-162061008D01*
X71290000Y-162078072D01*
X72790000Y-162078072D01*
X72963254Y-162061008D01*
X73129850Y-162010472D01*
X73283386Y-161928405D01*
X73417962Y-161817962D01*
X73528405Y-161683386D01*
X73610472Y-161529850D01*
X73661008Y-161363254D01*
X73678072Y-161190000D01*
X73678072Y-159990000D01*
X73661008Y-159816746D01*
X73610472Y-159650150D01*
X73528405Y-159496614D01*
X73417962Y-159362038D01*
X73283386Y-159251595D01*
X73129850Y-159169528D01*
X72963254Y-159118992D01*
X72790000Y-159101928D01*
X71290000Y-159101928D01*
X71116746Y-159118992D01*
X70950150Y-159169528D01*
X70796614Y-159251595D01*
X70662038Y-159362038D01*
X70551595Y-159496614D01*
X70510000Y-159574432D01*
X70510000Y-155980080D01*
X70589479Y-155980080D01*
X70789438Y-155940306D01*
X70977796Y-155862285D01*
X71147314Y-155749017D01*
X71291477Y-155604854D01*
X71404745Y-155435336D01*
X71482766Y-155246978D01*
X71522540Y-155047019D01*
X71522540Y-154843141D01*
X71482766Y-154643182D01*
X71404745Y-154454824D01*
X71305063Y-154305639D01*
X71402205Y-154160256D01*
X71480226Y-153971898D01*
X71520000Y-153771939D01*
X71520000Y-153568061D01*
X71484198Y-153388072D01*
X72800000Y-153388072D01*
X72973254Y-153371008D01*
X73139850Y-153320472D01*
X73293386Y-153238405D01*
X73427962Y-153127962D01*
X73538405Y-152993386D01*
X73592581Y-152892030D01*
X73708061Y-152915000D01*
X73805497Y-152915000D01*
X73889680Y-152984087D01*
X74017366Y-153052337D01*
X74155915Y-153094365D01*
X74300000Y-153108556D01*
X74336105Y-153105000D01*
X75391928Y-153105000D01*
X75391928Y-153220000D01*
X75404188Y-153344482D01*
X75440498Y-153464180D01*
X75499463Y-153574494D01*
X75578815Y-153671185D01*
X75675506Y-153750537D01*
X75785820Y-153809502D01*
X75905518Y-153845812D01*
X76030000Y-153858072D01*
X77730000Y-153858072D01*
X77854482Y-153845812D01*
X77974180Y-153809502D01*
X78084494Y-153750537D01*
X78181185Y-153671185D01*
X78260537Y-153574494D01*
X78319502Y-153464180D01*
X78355812Y-153344482D01*
X78368072Y-153220000D01*
X78368072Y-151520000D01*
X78355812Y-151395518D01*
X78319502Y-151275820D01*
X78260537Y-151165506D01*
X78181185Y-151068815D01*
X78084494Y-150989463D01*
X77974180Y-150930498D01*
X77854482Y-150894188D01*
X77730000Y-150881928D01*
X76030000Y-150881928D01*
X75905518Y-150894188D01*
X75785820Y-150930498D01*
X75675506Y-150989463D01*
X75578815Y-151068815D01*
X75499463Y-151165506D01*
X75440498Y-151275820D01*
X75404188Y-151395518D01*
X75391928Y-151520000D01*
X75391928Y-151635000D01*
X74816544Y-151635000D01*
X74805226Y-151578102D01*
X74727205Y-151389744D01*
X74613937Y-151220226D01*
X74469774Y-151076063D01*
X74300256Y-150962795D01*
X74111898Y-150884774D01*
X73911939Y-150845000D01*
X73708061Y-150845000D01*
X73573255Y-150871814D01*
X73538405Y-150806614D01*
X73427962Y-150672038D01*
X73293386Y-150561595D01*
X73139850Y-150479528D01*
X72973254Y-150428992D01*
X72800000Y-150411928D01*
X71300000Y-150411928D01*
X71126746Y-150428992D01*
X70960150Y-150479528D01*
X70806614Y-150561595D01*
X70672038Y-150672038D01*
X70561595Y-150806614D01*
X70510000Y-150903141D01*
X70510000Y-149478750D01*
X81501471Y-149478750D01*
X81501471Y-149682628D01*
X81541245Y-149882587D01*
X81619266Y-150070945D01*
X81732534Y-150240463D01*
X81876697Y-150384626D01*
X82046215Y-150497894D01*
X82234573Y-150575915D01*
X82434532Y-150615689D01*
X82638410Y-150615689D01*
X82838369Y-150575915D01*
X83026727Y-150497894D01*
X83196245Y-150384626D01*
X83265182Y-150315689D01*
X83413206Y-150315689D01*
X83449311Y-150319245D01*
X83485416Y-150315689D01*
X83593396Y-150305054D01*
X83731944Y-150263026D01*
X83859631Y-150194776D01*
X83971549Y-150102927D01*
X83994569Y-150074877D01*
X84605453Y-149463994D01*
X84633493Y-149440982D01*
X84656506Y-149412941D01*
X84656509Y-149412938D01*
X84725343Y-149329064D01*
X84793593Y-149201378D01*
X84835621Y-149062829D01*
X84849812Y-148918744D01*
X84846256Y-148882639D01*
X84846256Y-148859969D01*
X84915193Y-148791032D01*
X85028461Y-148621514D01*
X85106482Y-148433156D01*
X85146256Y-148233197D01*
X85146256Y-148029319D01*
X85106482Y-147829360D01*
X85028461Y-147641002D01*
X84915193Y-147471484D01*
X84771030Y-147327321D01*
X84601512Y-147214053D01*
X84413154Y-147136032D01*
X84213195Y-147096258D01*
X84009317Y-147096258D01*
X83809358Y-147136032D01*
X83621000Y-147214053D01*
X83451482Y-147327321D01*
X83307319Y-147471484D01*
X83194051Y-147641002D01*
X83116030Y-147829360D01*
X83076256Y-148029319D01*
X83076256Y-148233197D01*
X83116030Y-148433156D01*
X83194051Y-148621514D01*
X83264141Y-148726412D01*
X83205023Y-148785530D01*
X83196245Y-148776752D01*
X83026727Y-148663484D01*
X82838369Y-148585463D01*
X82638410Y-148545689D01*
X82434532Y-148545689D01*
X82234573Y-148585463D01*
X82046215Y-148663484D01*
X81876697Y-148776752D01*
X81732534Y-148920915D01*
X81619266Y-149090433D01*
X81541245Y-149278791D01*
X81501471Y-149478750D01*
X70510000Y-149478750D01*
X70510000Y-144342441D01*
X70535435Y-144390026D01*
X70645878Y-144524602D01*
X70780454Y-144635045D01*
X70933990Y-144717112D01*
X71100586Y-144767648D01*
X71273840Y-144784712D01*
X72723840Y-144784712D01*
X72897094Y-144767648D01*
X73063690Y-144717112D01*
X73217226Y-144635045D01*
X73351802Y-144524602D01*
X73462245Y-144390026D01*
X73544312Y-144236490D01*
X73594848Y-144069894D01*
X73611912Y-143896640D01*
X73611912Y-143698014D01*
X73907812Y-143402114D01*
X73935857Y-143379098D01*
X74027707Y-143267180D01*
X74095957Y-143139493D01*
X74137985Y-143000945D01*
X74148620Y-142892965D01*
X74148620Y-142892964D01*
X74152176Y-142856860D01*
X74148620Y-142820755D01*
X74148620Y-139846966D01*
X75825898Y-138169689D01*
X77340864Y-138169689D01*
X77275897Y-138234656D01*
X77026260Y-138185000D01*
X76733740Y-138185000D01*
X76446842Y-138242068D01*
X76176589Y-138354010D01*
X75933368Y-138516525D01*
X75726525Y-138723368D01*
X75564010Y-138966589D01*
X75452068Y-139236842D01*
X75395000Y-139523740D01*
X75395000Y-139816260D01*
X75452068Y-140103158D01*
X75564010Y-140373411D01*
X75726525Y-140616632D01*
X75933368Y-140823475D01*
X76107760Y-140940000D01*
X75933368Y-141056525D01*
X75726525Y-141263368D01*
X75564010Y-141506589D01*
X75452068Y-141776842D01*
X75395000Y-142063740D01*
X75395000Y-142356260D01*
X75452068Y-142643158D01*
X75564010Y-142913411D01*
X75726525Y-143156632D01*
X75933368Y-143363475D01*
X76107760Y-143480000D01*
X75933368Y-143596525D01*
X75726525Y-143803368D01*
X75564010Y-144046589D01*
X75452068Y-144316842D01*
X75395000Y-144603740D01*
X75395000Y-144896260D01*
X75452068Y-145183158D01*
X75564010Y-145453411D01*
X75726525Y-145696632D01*
X75933368Y-145903475D01*
X76107760Y-146020000D01*
X75933368Y-146136525D01*
X75726525Y-146343368D01*
X75564010Y-146586589D01*
X75452068Y-146856842D01*
X75395000Y-147143740D01*
X75395000Y-147436260D01*
X75452068Y-147723158D01*
X75564010Y-147993411D01*
X75726525Y-148236632D01*
X75933368Y-148443475D01*
X76176589Y-148605990D01*
X76446842Y-148717932D01*
X76733740Y-148775000D01*
X77026260Y-148775000D01*
X77313158Y-148717932D01*
X77583411Y-148605990D01*
X77826632Y-148443475D01*
X78033475Y-148236632D01*
X78195990Y-147993411D01*
X78307932Y-147723158D01*
X78365000Y-147436260D01*
X78365000Y-147143740D01*
X78307932Y-146856842D01*
X78195990Y-146586589D01*
X78033475Y-146343368D01*
X77826632Y-146136525D01*
X77652240Y-146020000D01*
X77826632Y-145903475D01*
X78033475Y-145696632D01*
X78195990Y-145453411D01*
X78307932Y-145183158D01*
X78365000Y-144896260D01*
X78365000Y-144603740D01*
X78307932Y-144316842D01*
X78195990Y-144046589D01*
X78033475Y-143803368D01*
X77826632Y-143596525D01*
X77652240Y-143480000D01*
X77826632Y-143363475D01*
X78033475Y-143156632D01*
X78195990Y-142913411D01*
X78307932Y-142643158D01*
X78365000Y-142356260D01*
X78365000Y-142063740D01*
X78307932Y-141776842D01*
X78195990Y-141506589D01*
X78033475Y-141263368D01*
X77826632Y-141056525D01*
X77652240Y-140940000D01*
X77826632Y-140823475D01*
X78033475Y-140616632D01*
X78195990Y-140373411D01*
X78307932Y-140103158D01*
X78365000Y-139816260D01*
X78365000Y-139523740D01*
X78315344Y-139274103D01*
X78960387Y-138629060D01*
X88090435Y-138629060D01*
X88117415Y-138694196D01*
X88230683Y-138863714D01*
X88374846Y-139007877D01*
X88544364Y-139121145D01*
X88732722Y-139199166D01*
X88932681Y-139238940D01*
X89136559Y-139238940D01*
X89336518Y-139199166D01*
X89524876Y-139121145D01*
X89694394Y-139007877D01*
X89838557Y-138863714D01*
X89951825Y-138694196D01*
X90029846Y-138505838D01*
X90069620Y-138305879D01*
X90069620Y-138169689D01*
X100111286Y-138169689D01*
X100131933Y-138219534D01*
X100190509Y-138307200D01*
X100125503Y-138372206D01*
X100012235Y-138541724D01*
X99934214Y-138730082D01*
X99894440Y-138930041D01*
X99894440Y-139133919D01*
X99934214Y-139333878D01*
X100012235Y-139522236D01*
X100125503Y-139691754D01*
X100269666Y-139835917D01*
X100439184Y-139949185D01*
X100627542Y-140027206D01*
X100827501Y-140066980D01*
X101031379Y-140066980D01*
X101231338Y-140027206D01*
X101419696Y-139949185D01*
X101589214Y-139835917D01*
X101733377Y-139691754D01*
X101846645Y-139522236D01*
X101924666Y-139333878D01*
X101964440Y-139133919D01*
X101964440Y-138930041D01*
X101950063Y-138857763D01*
X102572467Y-138235360D01*
X107281649Y-138235360D01*
X107330226Y-138283937D01*
X107499744Y-138397205D01*
X107688102Y-138475226D01*
X107888061Y-138515000D01*
X108091939Y-138515000D01*
X108291898Y-138475226D01*
X108480256Y-138397205D01*
X108649774Y-138283937D01*
X108793937Y-138139774D01*
X108907205Y-137970256D01*
X108985226Y-137781898D01*
X109025000Y-137581939D01*
X109025000Y-137378061D01*
X108985226Y-137178102D01*
X108907205Y-136989744D01*
X108793937Y-136820226D01*
X108649774Y-136676063D01*
X108480256Y-136562795D01*
X108291898Y-136484774D01*
X108091939Y-136445000D01*
X107903665Y-136445000D01*
X107841045Y-136293824D01*
X107727777Y-136124306D01*
X107583614Y-135980143D01*
X107414096Y-135866875D01*
X107225738Y-135788854D01*
X107025779Y-135749080D01*
X106821901Y-135749080D01*
X106621942Y-135788854D01*
X106433584Y-135866875D01*
X106264066Y-135980143D01*
X106119903Y-136124306D01*
X106008936Y-136290380D01*
X101155000Y-136290380D01*
X101155000Y-136223431D01*
X101115226Y-136023472D01*
X101066153Y-135905000D01*
X101721289Y-135905000D01*
X101790226Y-135973937D01*
X101959744Y-136087205D01*
X102148102Y-136165226D01*
X102348061Y-136205000D01*
X102551939Y-136205000D01*
X102751898Y-136165226D01*
X102940256Y-136087205D01*
X103109774Y-135973937D01*
X103253937Y-135829774D01*
X103367205Y-135660256D01*
X103445226Y-135471898D01*
X103485000Y-135271939D01*
X103485000Y-135068061D01*
X103445226Y-134868102D01*
X103367205Y-134679744D01*
X103253937Y-134510226D01*
X103109774Y-134366063D01*
X102940256Y-134252795D01*
X102751898Y-134174774D01*
X102551939Y-134135000D01*
X102348061Y-134135000D01*
X102148102Y-134174774D01*
X101959744Y-134252795D01*
X101790226Y-134366063D01*
X101721289Y-134435000D01*
X100062485Y-134435000D01*
X100026380Y-134431444D01*
X99990275Y-134435000D01*
X99882295Y-134445635D01*
X99743747Y-134487663D01*
X99616060Y-134555913D01*
X99504142Y-134647762D01*
X99481126Y-134675807D01*
X98701934Y-135455000D01*
X73190176Y-135455000D01*
X73147942Y-135353040D01*
X73034674Y-135183522D01*
X72890511Y-135039359D01*
X72720993Y-134926091D01*
X72532635Y-134848070D01*
X72332676Y-134808296D01*
X72128798Y-134808296D01*
X71928839Y-134848070D01*
X71740481Y-134926091D01*
X71570963Y-135039359D01*
X71426800Y-135183522D01*
X71313532Y-135353040D01*
X71235511Y-135541398D01*
X71195737Y-135741357D01*
X71195737Y-135945235D01*
X71235511Y-136145194D01*
X71313532Y-136333552D01*
X71426800Y-136503070D01*
X71570963Y-136647233D01*
X71740481Y-136760501D01*
X71928839Y-136838522D01*
X72128798Y-136878296D01*
X72314452Y-136878296D01*
X72433356Y-136914365D01*
X72541336Y-136925000D01*
X72541345Y-136925000D01*
X72577440Y-136928555D01*
X72613535Y-136925000D01*
X72683726Y-136925000D01*
X72606972Y-137110300D01*
X72567198Y-137310259D01*
X72567198Y-137514137D01*
X72606972Y-137714096D01*
X72684993Y-137902454D01*
X72798261Y-138071972D01*
X72942424Y-138216135D01*
X73036032Y-138278682D01*
X72003074Y-139311640D01*
X71800890Y-139311640D01*
X71582729Y-139333127D01*
X71302806Y-139418041D01*
X71044826Y-139555934D01*
X70818706Y-139741506D01*
X70633134Y-139967626D01*
X70510000Y-140197994D01*
X70510000Y-132588532D01*
X100149720Y-132588532D01*
X100149720Y-132812108D01*
X100193337Y-133031387D01*
X100278896Y-133237944D01*
X100403108Y-133423840D01*
X100561200Y-133581932D01*
X100747096Y-133706144D01*
X100953653Y-133791703D01*
X101172932Y-133835320D01*
X101396508Y-133835320D01*
X101615787Y-133791703D01*
X101822344Y-133706144D01*
X102008240Y-133581932D01*
X102166332Y-133423840D01*
X102290544Y-133237944D01*
X102376103Y-133031387D01*
X102419720Y-132812108D01*
X102419720Y-132588532D01*
X102416782Y-132573759D01*
X107499720Y-132573759D01*
X107499720Y-132826881D01*
X107549101Y-133075141D01*
X107645967Y-133308996D01*
X107786595Y-133519460D01*
X107965580Y-133698445D01*
X108176044Y-133839073D01*
X108409899Y-133935939D01*
X108658159Y-133985320D01*
X108911281Y-133985320D01*
X109159541Y-133935939D01*
X109393396Y-133839073D01*
X109603860Y-133698445D01*
X109782845Y-133519460D01*
X109923473Y-133308996D01*
X110020339Y-133075141D01*
X110069720Y-132826881D01*
X110069720Y-132573759D01*
X110020339Y-132325499D01*
X109923473Y-132091644D01*
X109782845Y-131881180D01*
X109603860Y-131702195D01*
X109393396Y-131561567D01*
X109159541Y-131464701D01*
X108911281Y-131415320D01*
X108658159Y-131415320D01*
X108409899Y-131464701D01*
X108176044Y-131561567D01*
X107965580Y-131702195D01*
X107786595Y-131881180D01*
X107645967Y-132091644D01*
X107549101Y-132325499D01*
X107499720Y-132573759D01*
X102416782Y-132573759D01*
X102376103Y-132369253D01*
X102290544Y-132162696D01*
X102166332Y-131976800D01*
X102008240Y-131818708D01*
X101822344Y-131694496D01*
X101615787Y-131608937D01*
X101396508Y-131565320D01*
X101172932Y-131565320D01*
X100953653Y-131608937D01*
X100747096Y-131694496D01*
X100561200Y-131818708D01*
X100403108Y-131976800D01*
X100278896Y-132162696D01*
X100193337Y-132369253D01*
X100149720Y-132588532D01*
X70510000Y-132588532D01*
X70510000Y-126910000D01*
X71641928Y-126910000D01*
X71641928Y-128410000D01*
X71654188Y-128534482D01*
X71690498Y-128654180D01*
X71749463Y-128764494D01*
X71828815Y-128861185D01*
X71925506Y-128940537D01*
X72035820Y-128999502D01*
X72155518Y-129035812D01*
X72280000Y-129048072D01*
X73780000Y-129048072D01*
X73904482Y-129035812D01*
X74024180Y-128999502D01*
X74134494Y-128940537D01*
X74231185Y-128861185D01*
X74310537Y-128764494D01*
X74369502Y-128654180D01*
X74405812Y-128534482D01*
X74418072Y-128410000D01*
X74418072Y-126910000D01*
X74405812Y-126785518D01*
X74369502Y-126665820D01*
X74310537Y-126555506D01*
X74231185Y-126458815D01*
X74134494Y-126379463D01*
X74024180Y-126320498D01*
X73904482Y-126284188D01*
X73796517Y-126273555D01*
X73912886Y-126195799D01*
X74105799Y-126002886D01*
X74257371Y-125776043D01*
X74361775Y-125523989D01*
X74415000Y-125256411D01*
X74415000Y-124983589D01*
X74361775Y-124716011D01*
X74257371Y-124463957D01*
X74105799Y-124237114D01*
X73912886Y-124044201D01*
X73686043Y-123892629D01*
X73583127Y-123850000D01*
X73686043Y-123807371D01*
X73912886Y-123655799D01*
X74105799Y-123462886D01*
X74257371Y-123236043D01*
X74361775Y-122983989D01*
X74415000Y-122716411D01*
X74415000Y-122443589D01*
X74361775Y-122176011D01*
X74257371Y-121923957D01*
X74105799Y-121697114D01*
X73912886Y-121504201D01*
X73686043Y-121352629D01*
X73433989Y-121248225D01*
X73166411Y-121195000D01*
X72893589Y-121195000D01*
X72626011Y-121248225D01*
X72373957Y-121352629D01*
X72147114Y-121504201D01*
X71954201Y-121697114D01*
X71802629Y-121923957D01*
X71698225Y-122176011D01*
X71645000Y-122443589D01*
X71645000Y-122716411D01*
X71698225Y-122983989D01*
X71802629Y-123236043D01*
X71954201Y-123462886D01*
X72147114Y-123655799D01*
X72373957Y-123807371D01*
X72476873Y-123850000D01*
X72373957Y-123892629D01*
X72147114Y-124044201D01*
X71954201Y-124237114D01*
X71802629Y-124463957D01*
X71698225Y-124716011D01*
X71645000Y-124983589D01*
X71645000Y-125256411D01*
X71698225Y-125523989D01*
X71802629Y-125776043D01*
X71954201Y-126002886D01*
X72147114Y-126195799D01*
X72263483Y-126273555D01*
X72155518Y-126284188D01*
X72035820Y-126320498D01*
X71925506Y-126379463D01*
X71828815Y-126458815D01*
X71749463Y-126555506D01*
X71690498Y-126665820D01*
X71654188Y-126785518D01*
X71641928Y-126910000D01*
X70510000Y-126910000D01*
X70510000Y-120196323D01*
X114070497Y-120196323D01*
X114070497Y-120623677D01*
X114153870Y-121042821D01*
X114317412Y-121437645D01*
X114554837Y-121792977D01*
X114857023Y-122095163D01*
X115212355Y-122332588D01*
X115607179Y-122496130D01*
X116026323Y-122579503D01*
X116453677Y-122579503D01*
X116872821Y-122496130D01*
X117267645Y-122332588D01*
X117622977Y-122095163D01*
X117925163Y-121792977D01*
X118162588Y-121437645D01*
X118326130Y-121042821D01*
X118409503Y-120623677D01*
X118409503Y-120196323D01*
X118326130Y-119777179D01*
X118162588Y-119382355D01*
X117925163Y-119027023D01*
X117622977Y-118724837D01*
X117267645Y-118487412D01*
X116872821Y-118323870D01*
X116453677Y-118240497D01*
X116026323Y-118240497D01*
X115607179Y-118323870D01*
X115212355Y-118487412D01*
X114857023Y-118724837D01*
X114554837Y-119027023D01*
X114317412Y-119382355D01*
X114153870Y-119777179D01*
X114070497Y-120196323D01*
X70510000Y-120196323D01*
X70510000Y-118070000D01*
X118590000Y-118070000D01*
X118590000Y-128072471D01*
G37*
X118590000Y-128072471D02*
X118577214Y-128008190D01*
X118471905Y-127753953D01*
X118319020Y-127525145D01*
X118124435Y-127330560D01*
X117895627Y-127177675D01*
X117641390Y-127072366D01*
X117371492Y-127018680D01*
X117096308Y-127018680D01*
X116826410Y-127072366D01*
X116572173Y-127177675D01*
X116343365Y-127330560D01*
X116148780Y-127525145D01*
X115995895Y-127753953D01*
X115890586Y-128008190D01*
X115836900Y-128278088D01*
X115836900Y-128553272D01*
X115890586Y-128823170D01*
X115995895Y-129077407D01*
X116148780Y-129306215D01*
X116343365Y-129500800D01*
X116572173Y-129653685D01*
X116649415Y-129685680D01*
X116572173Y-129717675D01*
X116343365Y-129870560D01*
X116148780Y-130065145D01*
X115995895Y-130293953D01*
X115890586Y-130548190D01*
X115836900Y-130818088D01*
X115836900Y-131093272D01*
X115890586Y-131363170D01*
X115995895Y-131617407D01*
X116148780Y-131846215D01*
X116343365Y-132040800D01*
X116572173Y-132193685D01*
X116649415Y-132225680D01*
X116572173Y-132257675D01*
X116343365Y-132410560D01*
X116148780Y-132605145D01*
X115995895Y-132833953D01*
X115890586Y-133088190D01*
X115836900Y-133358088D01*
X115836900Y-133633272D01*
X115890586Y-133903170D01*
X115995895Y-134157407D01*
X116148780Y-134386215D01*
X116343365Y-134580800D01*
X116572173Y-134733685D01*
X116649415Y-134765680D01*
X116572173Y-134797675D01*
X116343365Y-134950560D01*
X116148780Y-135145145D01*
X115995895Y-135373953D01*
X115890586Y-135628190D01*
X115836900Y-135898088D01*
X115836900Y-136173272D01*
X115890586Y-136443170D01*
X115995895Y-136697407D01*
X116148780Y-136926215D01*
X116343365Y-137120800D01*
X116572173Y-137273685D01*
X116649415Y-137305680D01*
X116572173Y-137337675D01*
X116343365Y-137490560D01*
X116148780Y-137685145D01*
X115995895Y-137913953D01*
X115890586Y-138168190D01*
X115836900Y-138438088D01*
X115836900Y-138713272D01*
X115890586Y-138983170D01*
X115995895Y-139237407D01*
X116148780Y-139466215D01*
X116343365Y-139660800D01*
X116572173Y-139813685D01*
X116649415Y-139845680D01*
X116572173Y-139877675D01*
X116343365Y-140030560D01*
X116148780Y-140225145D01*
X115995895Y-140453953D01*
X115890586Y-140708190D01*
X115836900Y-140978088D01*
X115836900Y-141253272D01*
X115890586Y-141523170D01*
X115995895Y-141777407D01*
X116148780Y-142006215D01*
X116343365Y-142200800D01*
X116572173Y-142353685D01*
X116649415Y-142385680D01*
X116572173Y-142417675D01*
X116343365Y-142570560D01*
X116148780Y-142765145D01*
X115995895Y-142993953D01*
X115890586Y-143248190D01*
X115836900Y-143518088D01*
X115836900Y-143793272D01*
X115890586Y-144063170D01*
X115995895Y-144317407D01*
X116148780Y-144546215D01*
X116343365Y-144740800D01*
X116572173Y-144893685D01*
X116649415Y-144925680D01*
X116572173Y-144957675D01*
X116343365Y-145110560D01*
X116148780Y-145305145D01*
X115995895Y-145533953D01*
X115890586Y-145788190D01*
X115836900Y-146058088D01*
X115836900Y-146333272D01*
X115890586Y-146603170D01*
X115995895Y-146857407D01*
X116148780Y-147086215D01*
X116343365Y-147280800D01*
X116572173Y-147433685D01*
X116649415Y-147465680D01*
X116572173Y-147497675D01*
X116343365Y-147650560D01*
X116148780Y-147845145D01*
X115995895Y-148073953D01*
X115890586Y-148328190D01*
X115836900Y-148598088D01*
X115836900Y-148873272D01*
X115890586Y-149143170D01*
X115995895Y-149397407D01*
X116148780Y-149626215D01*
X116343365Y-149820800D01*
X116572173Y-149973685D01*
X116649415Y-150005680D01*
X116572173Y-150037675D01*
X116343365Y-150190560D01*
X116148780Y-150385145D01*
X115995895Y-150613953D01*
X115890586Y-150868190D01*
X115836900Y-151138088D01*
X115836900Y-151413272D01*
X115890586Y-151683170D01*
X115995895Y-151937407D01*
X116148780Y-152166215D01*
X116343365Y-152360800D01*
X116572173Y-152513685D01*
X116649415Y-152545680D01*
X116572173Y-152577675D01*
X116343365Y-152730560D01*
X116148780Y-152925145D01*
X115995895Y-153153953D01*
X115890586Y-153408190D01*
X115836900Y-153678088D01*
X115836900Y-153953272D01*
X115890586Y-154223170D01*
X115995895Y-154477407D01*
X116148780Y-154706215D01*
X116343365Y-154900800D01*
X116572173Y-155053685D01*
X116649415Y-155085680D01*
X116572173Y-155117675D01*
X116343365Y-155270560D01*
X116148780Y-155465145D01*
X115995895Y-155693953D01*
X115890586Y-155948190D01*
X115836900Y-156218088D01*
X115836900Y-156493272D01*
X115890586Y-156763170D01*
X115995895Y-157017407D01*
X116148780Y-157246215D01*
X116343365Y-157440800D01*
X116572173Y-157593685D01*
X116826410Y-157698994D01*
X117096308Y-157752680D01*
X117371492Y-157752680D01*
X117641390Y-157698994D01*
X117895627Y-157593685D01*
X118124435Y-157440800D01*
X118319020Y-157246215D01*
X118471905Y-157017407D01*
X118577214Y-156763170D01*
X118590001Y-156698887D01*
X118590001Y-160201410D01*
X118535085Y-160134495D01*
X118438394Y-160055143D01*
X118328080Y-159996178D01*
X118208382Y-159959868D01*
X118083900Y-159947608D01*
X116383900Y-159947608D01*
X116292262Y-159956633D01*
X116325021Y-159791939D01*
X116325021Y-159588061D01*
X116285247Y-159388102D01*
X116207226Y-159199744D01*
X116093958Y-159030226D01*
X115949795Y-158886063D01*
X115780277Y-158772795D01*
X115591919Y-158694774D01*
X115391960Y-158655000D01*
X115188082Y-158655000D01*
X114988123Y-158694774D01*
X114799765Y-158772795D01*
X114630247Y-158886063D01*
X114561310Y-158955000D01*
X113226094Y-158955000D01*
X113189999Y-158951445D01*
X113153904Y-158955000D01*
X113153895Y-158955000D01*
X113045915Y-158965635D01*
X112907367Y-159007663D01*
X112779680Y-159075913D01*
X112667762Y-159167762D01*
X112644746Y-159195807D01*
X111375598Y-160464956D01*
X107802538Y-160464956D01*
X107845226Y-160361898D01*
X107885000Y-160161939D01*
X107885000Y-159958061D01*
X107845226Y-159758102D01*
X107767205Y-159569744D01*
X107653937Y-159400226D01*
X107509774Y-159256063D01*
X107340256Y-159142795D01*
X107151898Y-159064774D01*
X106951939Y-159025000D01*
X106748061Y-159025000D01*
X106548102Y-159064774D01*
X106359744Y-159142795D01*
X106190226Y-159256063D01*
X106046063Y-159400226D01*
X105932795Y-159569744D01*
X105854774Y-159758102D01*
X105815000Y-159958061D01*
X105815000Y-160055554D01*
X105805609Y-160064945D01*
X93644392Y-160064945D01*
X93415000Y-159835553D01*
X93415000Y-159738061D01*
X93375226Y-159538102D01*
X93297205Y-159349744D01*
X93183937Y-159180226D01*
X93039774Y-159036063D01*
X92870256Y-158922795D01*
X92681898Y-158844774D01*
X92481939Y-158805000D01*
X92278061Y-158805000D01*
X92078102Y-158844774D01*
X91889744Y-158922795D01*
X91720226Y-159036063D01*
X91576063Y-159180226D01*
X91462795Y-159349744D01*
X91384774Y-159538102D01*
X91345000Y-159738061D01*
X91345000Y-159787432D01*
X91256295Y-159824175D01*
X91086777Y-159937443D01*
X90942614Y-160081606D01*
X90934762Y-160093357D01*
X90925628Y-160091540D01*
X90721750Y-160091540D01*
X90521791Y-160131314D01*
X90333433Y-160209335D01*
X90163915Y-160322603D01*
X90082602Y-160403916D01*
X89968491Y-160381218D01*
X89764613Y-160381218D01*
X89564654Y-160420992D01*
X89376296Y-160499013D01*
X89206778Y-160612281D01*
X89137377Y-160681682D01*
X89006894Y-160655727D01*
X88803016Y-160655727D01*
X88603057Y-160695501D01*
X88414699Y-160773522D01*
X88245181Y-160886790D01*
X88101018Y-161030953D01*
X87987750Y-161200471D01*
X87909729Y-161388829D01*
X87876798Y-161554387D01*
X87792909Y-161589135D01*
X87623391Y-161702403D01*
X87479228Y-161846566D01*
X87365960Y-162016084D01*
X87287939Y-162204442D01*
X87248165Y-162404401D01*
X87248165Y-162495000D01*
X81043686Y-162495000D01*
X80010700Y-161462015D01*
X80010700Y-160701109D01*
X80035226Y-160641898D01*
X80075000Y-160441939D01*
X80075000Y-160238061D01*
X80035226Y-160038102D01*
X80010700Y-159978891D01*
X80010700Y-159915251D01*
X80045226Y-159831898D01*
X80085000Y-159631939D01*
X80085000Y-159428061D01*
X80045226Y-159228102D01*
X80014591Y-159154142D01*
X80065226Y-159031898D01*
X80105000Y-158831939D01*
X80105000Y-158628061D01*
X80065226Y-158428102D01*
X80015448Y-158307929D01*
X80055226Y-158211898D01*
X80095000Y-158011939D01*
X80095000Y-157808061D01*
X80055226Y-157608102D01*
X79977205Y-157419744D01*
X79863937Y-157250226D01*
X79719774Y-157106063D01*
X79550256Y-156992795D01*
X79361898Y-156914774D01*
X79315183Y-156905482D01*
X79158281Y-156821616D01*
X78897207Y-156742420D01*
X78625700Y-156715679D01*
X78354194Y-156742420D01*
X78093120Y-156821616D01*
X77919267Y-156914542D01*
X77918102Y-156914774D01*
X77729744Y-156992795D01*
X77560226Y-157106063D01*
X77416063Y-157250226D01*
X77302795Y-157419744D01*
X77224774Y-157608102D01*
X77185000Y-157808061D01*
X77185000Y-158011939D01*
X77224774Y-158211898D01*
X77240701Y-158250349D01*
X77240701Y-158488853D01*
X77215000Y-158618061D01*
X77215000Y-158821939D01*
X77240701Y-158951147D01*
X77240701Y-159213794D01*
X77234774Y-159228102D01*
X77195000Y-159428061D01*
X77195000Y-159631939D01*
X77234774Y-159831898D01*
X77240701Y-159846206D01*
X77240701Y-159999652D01*
X77224774Y-160038102D01*
X77185000Y-160238061D01*
X77185000Y-160441939D01*
X77224774Y-160641898D01*
X77240700Y-160680347D01*
X77240700Y-161950951D01*
X77234000Y-162018980D01*
X77240700Y-162087009D01*
X77240700Y-162087016D01*
X77252746Y-162209318D01*
X77260740Y-162290487D01*
X77318677Y-162481480D01*
X77339936Y-162551560D01*
X77351243Y-162572715D01*
X77354236Y-162582580D01*
X77482844Y-162823188D01*
X77612548Y-162981233D01*
X79442550Y-164811236D01*
X79485919Y-164864081D01*
X79538764Y-164907450D01*
X79538766Y-164907452D01*
X79696811Y-165037156D01*
X79696812Y-165037157D01*
X79937419Y-165165764D01*
X80198493Y-165244960D01*
X80401963Y-165265000D01*
X80401971Y-165265000D01*
X80470000Y-165271700D01*
X80538029Y-165265000D01*
X112687240Y-165265000D01*
X112838061Y-165295000D01*
X113041939Y-165295000D01*
X113192760Y-165265000D01*
X113557513Y-165265000D01*
X113658061Y-165285000D01*
X113861939Y-165285000D01*
X113962487Y-165265000D01*
X114427787Y-165265000D01*
X114478061Y-165275000D01*
X114681939Y-165275000D01*
X114732213Y-165265000D01*
X115134471Y-165265000D01*
X115202500Y-165271700D01*
X115248630Y-165267157D01*
X115288061Y-165275000D01*
X115491939Y-165275000D01*
X115691898Y-165235226D01*
X115880256Y-165157205D01*
X116049774Y-165043937D01*
X116193937Y-164899774D01*
X116307205Y-164730256D01*
X116316962Y-164706700D01*
X116366476Y-164646367D01*
X116495084Y-164405760D01*
X116574280Y-164144687D01*
X116601020Y-163873180D01*
X116574280Y-163601673D01*
X116495084Y-163340600D01*
X116406529Y-163174925D01*
X116395226Y-163118102D01*
X116317205Y-162929744D01*
X116308221Y-162916299D01*
X116383900Y-162923752D01*
X118083900Y-162923752D01*
X118208382Y-162911492D01*
X118328080Y-162875182D01*
X118438394Y-162816217D01*
X118535085Y-162736865D01*
X118590001Y-162669950D01*
X118590001Y-171760000D01*
X104910000Y-171760000D01*
X104910000Y-169216323D01*
X114060497Y-169216323D01*
X114060497Y-169643677D01*
X114143870Y-170062821D01*
X114307412Y-170457645D01*
X114544837Y-170812977D01*
X114847023Y-171115163D01*
X115202355Y-171352588D01*
X115597179Y-171516130D01*
X116016323Y-171599503D01*
X116443677Y-171599503D01*
X116862821Y-171516130D01*
X117257645Y-171352588D01*
X117612977Y-171115163D01*
X117915163Y-170812977D01*
X118152588Y-170457645D01*
X118316130Y-170062821D01*
X118399503Y-169643677D01*
X118399503Y-169216323D01*
X118316130Y-168797179D01*
X118152588Y-168402355D01*
X117915163Y-168047023D01*
X117612977Y-167744837D01*
X117257645Y-167507412D01*
X116862821Y-167343870D01*
X116443677Y-167260497D01*
X116016323Y-167260497D01*
X115597179Y-167343870D01*
X115202355Y-167507412D01*
X114847023Y-167744837D01*
X114544837Y-168047023D01*
X114307412Y-168402355D01*
X114143870Y-168797179D01*
X114060497Y-169216323D01*
X104910000Y-169216323D01*
X104910000Y-166352419D01*
X104913193Y-166320000D01*
X104900450Y-166190617D01*
X104862710Y-166066207D01*
X104801425Y-165951550D01*
X104718948Y-165851052D01*
X104618450Y-165768575D01*
X104503793Y-165707290D01*
X104379383Y-165669550D01*
X104282419Y-165660000D01*
X104250000Y-165656807D01*
X104217581Y-165660000D01*
X86252419Y-165660000D01*
X86220000Y-165656807D01*
X86187581Y-165660000D01*
X86090617Y-165669550D01*
X85966207Y-165707290D01*
X85851550Y-165768575D01*
X85751052Y-165851052D01*
X85668575Y-165951550D01*
X85607290Y-166066207D01*
X85569550Y-166190617D01*
X85556807Y-166320000D01*
X85560001Y-166352429D01*
X85560000Y-171760000D01*
X70510000Y-171760000D01*
X70510000Y-170352985D01*
X70531595Y-170393386D01*
X70642038Y-170527962D01*
X70776614Y-170638405D01*
X70930150Y-170720472D01*
X71096746Y-170771008D01*
X71270000Y-170788072D01*
X72770000Y-170788072D01*
X72943254Y-170771008D01*
X73109850Y-170720472D01*
X73263386Y-170638405D01*
X73397962Y-170527962D01*
X73508405Y-170393386D01*
X73590472Y-170239850D01*
X73641008Y-170073254D01*
X73658072Y-169900000D01*
X73658072Y-168700000D01*
X73641008Y-168526746D01*
X73590472Y-168360150D01*
X73508405Y-168206614D01*
X73397962Y-168072038D01*
X73263386Y-167961595D01*
X73109850Y-167879528D01*
X72943254Y-167828992D01*
X72770000Y-167811928D01*
X71270000Y-167811928D01*
X71096746Y-167828992D01*
X70930150Y-167879528D01*
X70776614Y-167961595D01*
X70642038Y-168072038D01*
X70531595Y-168206614D01*
X70510000Y-168247015D01*
X70510000Y-161605568D01*
X70551595Y-161683386D01*
X70662038Y-161817962D01*
X70796614Y-161928405D01*
X70950150Y-162010472D01*
X71116746Y-162061008D01*
X71290000Y-162078072D01*
X72790000Y-162078072D01*
X72963254Y-162061008D01*
X73129850Y-162010472D01*
X73283386Y-161928405D01*
X73417962Y-161817962D01*
X73528405Y-161683386D01*
X73610472Y-161529850D01*
X73661008Y-161363254D01*
X73678072Y-161190000D01*
X73678072Y-159990000D01*
X73661008Y-159816746D01*
X73610472Y-159650150D01*
X73528405Y-159496614D01*
X73417962Y-159362038D01*
X73283386Y-159251595D01*
X73129850Y-159169528D01*
X72963254Y-159118992D01*
X72790000Y-159101928D01*
X71290000Y-159101928D01*
X71116746Y-159118992D01*
X70950150Y-159169528D01*
X70796614Y-159251595D01*
X70662038Y-159362038D01*
X70551595Y-159496614D01*
X70510000Y-159574432D01*
X70510000Y-155980080D01*
X70589479Y-155980080D01*
X70789438Y-155940306D01*
X70977796Y-155862285D01*
X71147314Y-155749017D01*
X71291477Y-155604854D01*
X71404745Y-155435336D01*
X71482766Y-155246978D01*
X71522540Y-155047019D01*
X71522540Y-154843141D01*
X71482766Y-154643182D01*
X71404745Y-154454824D01*
X71305063Y-154305639D01*
X71402205Y-154160256D01*
X71480226Y-153971898D01*
X71520000Y-153771939D01*
X71520000Y-153568061D01*
X71484198Y-153388072D01*
X72800000Y-153388072D01*
X72973254Y-153371008D01*
X73139850Y-153320472D01*
X73293386Y-153238405D01*
X73427962Y-153127962D01*
X73538405Y-152993386D01*
X73592581Y-152892030D01*
X73708061Y-152915000D01*
X73805497Y-152915000D01*
X73889680Y-152984087D01*
X74017366Y-153052337D01*
X74155915Y-153094365D01*
X74300000Y-153108556D01*
X74336105Y-153105000D01*
X75391928Y-153105000D01*
X75391928Y-153220000D01*
X75404188Y-153344482D01*
X75440498Y-153464180D01*
X75499463Y-153574494D01*
X75578815Y-153671185D01*
X75675506Y-153750537D01*
X75785820Y-153809502D01*
X75905518Y-153845812D01*
X76030000Y-153858072D01*
X77730000Y-153858072D01*
X77854482Y-153845812D01*
X77974180Y-153809502D01*
X78084494Y-153750537D01*
X78181185Y-153671185D01*
X78260537Y-153574494D01*
X78319502Y-153464180D01*
X78355812Y-153344482D01*
X78368072Y-153220000D01*
X78368072Y-151520000D01*
X78355812Y-151395518D01*
X78319502Y-151275820D01*
X78260537Y-151165506D01*
X78181185Y-151068815D01*
X78084494Y-150989463D01*
X77974180Y-150930498D01*
X77854482Y-150894188D01*
X77730000Y-150881928D01*
X76030000Y-150881928D01*
X75905518Y-150894188D01*
X75785820Y-150930498D01*
X75675506Y-150989463D01*
X75578815Y-151068815D01*
X75499463Y-151165506D01*
X75440498Y-151275820D01*
X75404188Y-151395518D01*
X75391928Y-151520000D01*
X75391928Y-151635000D01*
X74816544Y-151635000D01*
X74805226Y-151578102D01*
X74727205Y-151389744D01*
X74613937Y-151220226D01*
X74469774Y-151076063D01*
X74300256Y-150962795D01*
X74111898Y-150884774D01*
X73911939Y-150845000D01*
X73708061Y-150845000D01*
X73573255Y-150871814D01*
X73538405Y-150806614D01*
X73427962Y-150672038D01*
X73293386Y-150561595D01*
X73139850Y-150479528D01*
X72973254Y-150428992D01*
X72800000Y-150411928D01*
X71300000Y-150411928D01*
X71126746Y-150428992D01*
X70960150Y-150479528D01*
X70806614Y-150561595D01*
X70672038Y-150672038D01*
X70561595Y-150806614D01*
X70510000Y-150903141D01*
X70510000Y-149478750D01*
X81501471Y-149478750D01*
X81501471Y-149682628D01*
X81541245Y-149882587D01*
X81619266Y-150070945D01*
X81732534Y-150240463D01*
X81876697Y-150384626D01*
X82046215Y-150497894D01*
X82234573Y-150575915D01*
X82434532Y-150615689D01*
X82638410Y-150615689D01*
X82838369Y-150575915D01*
X83026727Y-150497894D01*
X83196245Y-150384626D01*
X83265182Y-150315689D01*
X83413206Y-150315689D01*
X83449311Y-150319245D01*
X83485416Y-150315689D01*
X83593396Y-150305054D01*
X83731944Y-150263026D01*
X83859631Y-150194776D01*
X83971549Y-150102927D01*
X83994569Y-150074877D01*
X84605453Y-149463994D01*
X84633493Y-149440982D01*
X84656506Y-149412941D01*
X84656509Y-149412938D01*
X84725343Y-149329064D01*
X84793593Y-149201378D01*
X84835621Y-149062829D01*
X84849812Y-148918744D01*
X84846256Y-148882639D01*
X84846256Y-148859969D01*
X84915193Y-148791032D01*
X85028461Y-148621514D01*
X85106482Y-148433156D01*
X85146256Y-148233197D01*
X85146256Y-148029319D01*
X85106482Y-147829360D01*
X85028461Y-147641002D01*
X84915193Y-147471484D01*
X84771030Y-147327321D01*
X84601512Y-147214053D01*
X84413154Y-147136032D01*
X84213195Y-147096258D01*
X84009317Y-147096258D01*
X83809358Y-147136032D01*
X83621000Y-147214053D01*
X83451482Y-147327321D01*
X83307319Y-147471484D01*
X83194051Y-147641002D01*
X83116030Y-147829360D01*
X83076256Y-148029319D01*
X83076256Y-148233197D01*
X83116030Y-148433156D01*
X83194051Y-148621514D01*
X83264141Y-148726412D01*
X83205023Y-148785530D01*
X83196245Y-148776752D01*
X83026727Y-148663484D01*
X82838369Y-148585463D01*
X82638410Y-148545689D01*
X82434532Y-148545689D01*
X82234573Y-148585463D01*
X82046215Y-148663484D01*
X81876697Y-148776752D01*
X81732534Y-148920915D01*
X81619266Y-149090433D01*
X81541245Y-149278791D01*
X81501471Y-149478750D01*
X70510000Y-149478750D01*
X70510000Y-144342441D01*
X70535435Y-144390026D01*
X70645878Y-144524602D01*
X70780454Y-144635045D01*
X70933990Y-144717112D01*
X71100586Y-144767648D01*
X71273840Y-144784712D01*
X72723840Y-144784712D01*
X72897094Y-144767648D01*
X73063690Y-144717112D01*
X73217226Y-144635045D01*
X73351802Y-144524602D01*
X73462245Y-144390026D01*
X73544312Y-144236490D01*
X73594848Y-144069894D01*
X73611912Y-143896640D01*
X73611912Y-143698014D01*
X73907812Y-143402114D01*
X73935857Y-143379098D01*
X74027707Y-143267180D01*
X74095957Y-143139493D01*
X74137985Y-143000945D01*
X74148620Y-142892965D01*
X74148620Y-142892964D01*
X74152176Y-142856860D01*
X74148620Y-142820755D01*
X74148620Y-139846966D01*
X75825898Y-138169689D01*
X77340864Y-138169689D01*
X77275897Y-138234656D01*
X77026260Y-138185000D01*
X76733740Y-138185000D01*
X76446842Y-138242068D01*
X76176589Y-138354010D01*
X75933368Y-138516525D01*
X75726525Y-138723368D01*
X75564010Y-138966589D01*
X75452068Y-139236842D01*
X75395000Y-139523740D01*
X75395000Y-139816260D01*
X75452068Y-140103158D01*
X75564010Y-140373411D01*
X75726525Y-140616632D01*
X75933368Y-140823475D01*
X76107760Y-140940000D01*
X75933368Y-141056525D01*
X75726525Y-141263368D01*
X75564010Y-141506589D01*
X75452068Y-141776842D01*
X75395000Y-142063740D01*
X75395000Y-142356260D01*
X75452068Y-142643158D01*
X75564010Y-142913411D01*
X75726525Y-143156632D01*
X75933368Y-143363475D01*
X76107760Y-143480000D01*
X75933368Y-143596525D01*
X75726525Y-143803368D01*
X75564010Y-144046589D01*
X75452068Y-144316842D01*
X75395000Y-144603740D01*
X75395000Y-144896260D01*
X75452068Y-145183158D01*
X75564010Y-145453411D01*
X75726525Y-145696632D01*
X75933368Y-145903475D01*
X76107760Y-146020000D01*
X75933368Y-146136525D01*
X75726525Y-146343368D01*
X75564010Y-146586589D01*
X75452068Y-146856842D01*
X75395000Y-147143740D01*
X75395000Y-147436260D01*
X75452068Y-147723158D01*
X75564010Y-147993411D01*
X75726525Y-148236632D01*
X75933368Y-148443475D01*
X76176589Y-148605990D01*
X76446842Y-148717932D01*
X76733740Y-148775000D01*
X77026260Y-148775000D01*
X77313158Y-148717932D01*
X77583411Y-148605990D01*
X77826632Y-148443475D01*
X78033475Y-148236632D01*
X78195990Y-147993411D01*
X78307932Y-147723158D01*
X78365000Y-147436260D01*
X78365000Y-147143740D01*
X78307932Y-146856842D01*
X78195990Y-146586589D01*
X78033475Y-146343368D01*
X77826632Y-146136525D01*
X77652240Y-146020000D01*
X77826632Y-145903475D01*
X78033475Y-145696632D01*
X78195990Y-145453411D01*
X78307932Y-145183158D01*
X78365000Y-144896260D01*
X78365000Y-144603740D01*
X78307932Y-144316842D01*
X78195990Y-144046589D01*
X78033475Y-143803368D01*
X77826632Y-143596525D01*
X77652240Y-143480000D01*
X77826632Y-143363475D01*
X78033475Y-143156632D01*
X78195990Y-142913411D01*
X78307932Y-142643158D01*
X78365000Y-142356260D01*
X78365000Y-142063740D01*
X78307932Y-141776842D01*
X78195990Y-141506589D01*
X78033475Y-141263368D01*
X77826632Y-141056525D01*
X77652240Y-140940000D01*
X77826632Y-140823475D01*
X78033475Y-140616632D01*
X78195990Y-140373411D01*
X78307932Y-140103158D01*
X78365000Y-139816260D01*
X78365000Y-139523740D01*
X78315344Y-139274103D01*
X78960387Y-138629060D01*
X88090435Y-138629060D01*
X88117415Y-138694196D01*
X88230683Y-138863714D01*
X88374846Y-139007877D01*
X88544364Y-139121145D01*
X88732722Y-139199166D01*
X88932681Y-139238940D01*
X89136559Y-139238940D01*
X89336518Y-139199166D01*
X89524876Y-139121145D01*
X89694394Y-139007877D01*
X89838557Y-138863714D01*
X89951825Y-138694196D01*
X90029846Y-138505838D01*
X90069620Y-138305879D01*
X90069620Y-138169689D01*
X100111286Y-138169689D01*
X100131933Y-138219534D01*
X100190509Y-138307200D01*
X100125503Y-138372206D01*
X100012235Y-138541724D01*
X99934214Y-138730082D01*
X99894440Y-138930041D01*
X99894440Y-139133919D01*
X99934214Y-139333878D01*
X100012235Y-139522236D01*
X100125503Y-139691754D01*
X100269666Y-139835917D01*
X100439184Y-139949185D01*
X100627542Y-140027206D01*
X100827501Y-140066980D01*
X101031379Y-140066980D01*
X101231338Y-140027206D01*
X101419696Y-139949185D01*
X101589214Y-139835917D01*
X101733377Y-139691754D01*
X101846645Y-139522236D01*
X101924666Y-139333878D01*
X101964440Y-139133919D01*
X101964440Y-138930041D01*
X101950063Y-138857763D01*
X102572467Y-138235360D01*
X107281649Y-138235360D01*
X107330226Y-138283937D01*
X107499744Y-138397205D01*
X107688102Y-138475226D01*
X107888061Y-138515000D01*
X108091939Y-138515000D01*
X108291898Y-138475226D01*
X108480256Y-138397205D01*
X108649774Y-138283937D01*
X108793937Y-138139774D01*
X108907205Y-137970256D01*
X108985226Y-137781898D01*
X109025000Y-137581939D01*
X109025000Y-137378061D01*
X108985226Y-137178102D01*
X108907205Y-136989744D01*
X108793937Y-136820226D01*
X108649774Y-136676063D01*
X108480256Y-136562795D01*
X108291898Y-136484774D01*
X108091939Y-136445000D01*
X107903665Y-136445000D01*
X107841045Y-136293824D01*
X107727777Y-136124306D01*
X107583614Y-135980143D01*
X107414096Y-135866875D01*
X107225738Y-135788854D01*
X107025779Y-135749080D01*
X106821901Y-135749080D01*
X106621942Y-135788854D01*
X106433584Y-135866875D01*
X106264066Y-135980143D01*
X106119903Y-136124306D01*
X106008936Y-136290380D01*
X101155000Y-136290380D01*
X101155000Y-136223431D01*
X101115226Y-136023472D01*
X101066153Y-135905000D01*
X101721289Y-135905000D01*
X101790226Y-135973937D01*
X101959744Y-136087205D01*
X102148102Y-136165226D01*
X102348061Y-136205000D01*
X102551939Y-136205000D01*
X102751898Y-136165226D01*
X102940256Y-136087205D01*
X103109774Y-135973937D01*
X103253937Y-135829774D01*
X103367205Y-135660256D01*
X103445226Y-135471898D01*
X103485000Y-135271939D01*
X103485000Y-135068061D01*
X103445226Y-134868102D01*
X103367205Y-134679744D01*
X103253937Y-134510226D01*
X103109774Y-134366063D01*
X102940256Y-134252795D01*
X102751898Y-134174774D01*
X102551939Y-134135000D01*
X102348061Y-134135000D01*
X102148102Y-134174774D01*
X101959744Y-134252795D01*
X101790226Y-134366063D01*
X101721289Y-134435000D01*
X100062485Y-134435000D01*
X100026380Y-134431444D01*
X99990275Y-134435000D01*
X99882295Y-134445635D01*
X99743747Y-134487663D01*
X99616060Y-134555913D01*
X99504142Y-134647762D01*
X99481126Y-134675807D01*
X98701934Y-135455000D01*
X73190176Y-135455000D01*
X73147942Y-135353040D01*
X73034674Y-135183522D01*
X72890511Y-135039359D01*
X72720993Y-134926091D01*
X72532635Y-134848070D01*
X72332676Y-134808296D01*
X72128798Y-134808296D01*
X71928839Y-134848070D01*
X71740481Y-134926091D01*
X71570963Y-135039359D01*
X71426800Y-135183522D01*
X71313532Y-135353040D01*
X71235511Y-135541398D01*
X71195737Y-135741357D01*
X71195737Y-135945235D01*
X71235511Y-136145194D01*
X71313532Y-136333552D01*
X71426800Y-136503070D01*
X71570963Y-136647233D01*
X71740481Y-136760501D01*
X71928839Y-136838522D01*
X72128798Y-136878296D01*
X72314452Y-136878296D01*
X72433356Y-136914365D01*
X72541336Y-136925000D01*
X72541345Y-136925000D01*
X72577440Y-136928555D01*
X72613535Y-136925000D01*
X72683726Y-136925000D01*
X72606972Y-137110300D01*
X72567198Y-137310259D01*
X72567198Y-137514137D01*
X72606972Y-137714096D01*
X72684993Y-137902454D01*
X72798261Y-138071972D01*
X72942424Y-138216135D01*
X73036032Y-138278682D01*
X72003074Y-139311640D01*
X71800890Y-139311640D01*
X71582729Y-139333127D01*
X71302806Y-139418041D01*
X71044826Y-139555934D01*
X70818706Y-139741506D01*
X70633134Y-139967626D01*
X70510000Y-140197994D01*
X70510000Y-132588532D01*
X100149720Y-132588532D01*
X100149720Y-132812108D01*
X100193337Y-133031387D01*
X100278896Y-133237944D01*
X100403108Y-133423840D01*
X100561200Y-133581932D01*
X100747096Y-133706144D01*
X100953653Y-133791703D01*
X101172932Y-133835320D01*
X101396508Y-133835320D01*
X101615787Y-133791703D01*
X101822344Y-133706144D01*
X102008240Y-133581932D01*
X102166332Y-133423840D01*
X102290544Y-133237944D01*
X102376103Y-133031387D01*
X102419720Y-132812108D01*
X102419720Y-132588532D01*
X102416782Y-132573759D01*
X107499720Y-132573759D01*
X107499720Y-132826881D01*
X107549101Y-133075141D01*
X107645967Y-133308996D01*
X107786595Y-133519460D01*
X107965580Y-133698445D01*
X108176044Y-133839073D01*
X108409899Y-133935939D01*
X108658159Y-133985320D01*
X108911281Y-133985320D01*
X109159541Y-133935939D01*
X109393396Y-133839073D01*
X109603860Y-133698445D01*
X109782845Y-133519460D01*
X109923473Y-133308996D01*
X110020339Y-133075141D01*
X110069720Y-132826881D01*
X110069720Y-132573759D01*
X110020339Y-132325499D01*
X109923473Y-132091644D01*
X109782845Y-131881180D01*
X109603860Y-131702195D01*
X109393396Y-131561567D01*
X109159541Y-131464701D01*
X108911281Y-131415320D01*
X108658159Y-131415320D01*
X108409899Y-131464701D01*
X108176044Y-131561567D01*
X107965580Y-131702195D01*
X107786595Y-131881180D01*
X107645967Y-132091644D01*
X107549101Y-132325499D01*
X107499720Y-132573759D01*
X102416782Y-132573759D01*
X102376103Y-132369253D01*
X102290544Y-132162696D01*
X102166332Y-131976800D01*
X102008240Y-131818708D01*
X101822344Y-131694496D01*
X101615787Y-131608937D01*
X101396508Y-131565320D01*
X101172932Y-131565320D01*
X100953653Y-131608937D01*
X100747096Y-131694496D01*
X100561200Y-131818708D01*
X100403108Y-131976800D01*
X100278896Y-132162696D01*
X100193337Y-132369253D01*
X100149720Y-132588532D01*
X70510000Y-132588532D01*
X70510000Y-126910000D01*
X71641928Y-126910000D01*
X71641928Y-128410000D01*
X71654188Y-128534482D01*
X71690498Y-128654180D01*
X71749463Y-128764494D01*
X71828815Y-128861185D01*
X71925506Y-128940537D01*
X72035820Y-128999502D01*
X72155518Y-129035812D01*
X72280000Y-129048072D01*
X73780000Y-129048072D01*
X73904482Y-129035812D01*
X74024180Y-128999502D01*
X74134494Y-128940537D01*
X74231185Y-128861185D01*
X74310537Y-128764494D01*
X74369502Y-128654180D01*
X74405812Y-128534482D01*
X74418072Y-128410000D01*
X74418072Y-126910000D01*
X74405812Y-126785518D01*
X74369502Y-126665820D01*
X74310537Y-126555506D01*
X74231185Y-126458815D01*
X74134494Y-126379463D01*
X74024180Y-126320498D01*
X73904482Y-126284188D01*
X73796517Y-126273555D01*
X73912886Y-126195799D01*
X74105799Y-126002886D01*
X74257371Y-125776043D01*
X74361775Y-125523989D01*
X74415000Y-125256411D01*
X74415000Y-124983589D01*
X74361775Y-124716011D01*
X74257371Y-124463957D01*
X74105799Y-124237114D01*
X73912886Y-124044201D01*
X73686043Y-123892629D01*
X73583127Y-123850000D01*
X73686043Y-123807371D01*
X73912886Y-123655799D01*
X74105799Y-123462886D01*
X74257371Y-123236043D01*
X74361775Y-122983989D01*
X74415000Y-122716411D01*
X74415000Y-122443589D01*
X74361775Y-122176011D01*
X74257371Y-121923957D01*
X74105799Y-121697114D01*
X73912886Y-121504201D01*
X73686043Y-121352629D01*
X73433989Y-121248225D01*
X73166411Y-121195000D01*
X72893589Y-121195000D01*
X72626011Y-121248225D01*
X72373957Y-121352629D01*
X72147114Y-121504201D01*
X71954201Y-121697114D01*
X71802629Y-121923957D01*
X71698225Y-122176011D01*
X71645000Y-122443589D01*
X71645000Y-122716411D01*
X71698225Y-122983989D01*
X71802629Y-123236043D01*
X71954201Y-123462886D01*
X72147114Y-123655799D01*
X72373957Y-123807371D01*
X72476873Y-123850000D01*
X72373957Y-123892629D01*
X72147114Y-124044201D01*
X71954201Y-124237114D01*
X71802629Y-124463957D01*
X71698225Y-124716011D01*
X71645000Y-124983589D01*
X71645000Y-125256411D01*
X71698225Y-125523989D01*
X71802629Y-125776043D01*
X71954201Y-126002886D01*
X72147114Y-126195799D01*
X72263483Y-126273555D01*
X72155518Y-126284188D01*
X72035820Y-126320498D01*
X71925506Y-126379463D01*
X71828815Y-126458815D01*
X71749463Y-126555506D01*
X71690498Y-126665820D01*
X71654188Y-126785518D01*
X71641928Y-126910000D01*
X70510000Y-126910000D01*
X70510000Y-120196323D01*
X114070497Y-120196323D01*
X114070497Y-120623677D01*
X114153870Y-121042821D01*
X114317412Y-121437645D01*
X114554837Y-121792977D01*
X114857023Y-122095163D01*
X115212355Y-122332588D01*
X115607179Y-122496130D01*
X116026323Y-122579503D01*
X116453677Y-122579503D01*
X116872821Y-122496130D01*
X117267645Y-122332588D01*
X117622977Y-122095163D01*
X117925163Y-121792977D01*
X118162588Y-121437645D01*
X118326130Y-121042821D01*
X118409503Y-120623677D01*
X118409503Y-120196323D01*
X118326130Y-119777179D01*
X118162588Y-119382355D01*
X117925163Y-119027023D01*
X117622977Y-118724837D01*
X117267645Y-118487412D01*
X116872821Y-118323870D01*
X116453677Y-118240497D01*
X116026323Y-118240497D01*
X115607179Y-118323870D01*
X115212355Y-118487412D01*
X114857023Y-118724837D01*
X114554837Y-119027023D01*
X114317412Y-119382355D01*
X114153870Y-119777179D01*
X114070497Y-120196323D01*
X70510000Y-120196323D01*
X70510000Y-118070000D01*
X118590000Y-118070000D01*
X118590000Y-128072471D01*
%TD*%
M02*
