M48
; DRILL file {KiCad 5.1.6-c6e7f7d~87~ubuntu20.04.1} date Sun Jan 31 19:29:35 2021
; FORMAT={-:-/ absolute / inch / decimal}
; #@! TF.CreationDate,2021-01-31T19:29:35+07:00
; #@! TF.GenerationSoftware,Kicad,Pcbnew,5.1.6-c6e7f7d~87~ubuntu20.04.1
FMAT,2
INCH
T1C0.0157
T2C0.0300
T3C0.0315
T4C0.0374
T5C0.0394
T6C0.0394
T7C0.0512
%
G90
G05
T1
X2.775Y-6.05
X2.7751Y-6.1002
X2.786Y-5.271
X2.786Y-5.321
X2.7869Y-5.3731
X2.8069Y-5.807
X2.825Y-6.05
X2.8437Y-5.3482
X2.8569Y-5.807
X2.8977Y-5.4099
X2.9Y-6.475
X2.9Y-6.525
X2.9Y-6.575
X2.9059Y-5.9795
X2.925Y-4.7
X2.925Y-4.75
X2.925Y-6.2
X2.925Y-6.25
X2.925Y-6.3
X2.95Y-6.475
X2.95Y-6.525
X2.95Y-6.575
X2.975Y-4.7
X2.975Y-4.75
X2.975Y-6.2
X2.975Y-6.25
X2.975Y-6.3
X3.0Y-6.475
X3.0Y-6.525
X3.0Y-6.575
X3.025Y-6.2
X3.025Y-6.25
X3.025Y-6.3
X3.075Y-5.875
X3.075Y-5.925
X3.0795Y-6.2169
X3.0795Y-6.3126
X3.0799Y-6.2807
X3.0807Y-6.2488
X3.1118Y-6.3126
X3.1122Y-6.2807
X3.1126Y-6.2169
X3.113Y-6.2492
X3.2Y-6.1
X3.2375Y-6.1002
X3.2495Y-5.889
X3.25Y-5.025
X3.25Y-6.55
X3.25Y-6.6
X3.25Y-6.65
X3.3Y-5.025
X3.3Y-6.55
X3.3Y-6.6
X3.3Y-6.65
X3.3115Y-5.8319
X3.35Y-6.55
X3.35Y-6.6
X3.35Y-6.65
X3.4757Y-6.3979
X3.5002Y-6.3658
X3.5053Y-5.4411
X3.5381Y-6.355
X3.5757Y-6.3436
X3.6121Y-6.3284
X3.637Y-6.2929
X3.725Y-5.175
X3.725Y-5.225
X3.725Y-5.275
X3.9417Y-5.3671
X3.9736Y-5.4737
X3.9783Y-5.4224
X4.0335Y-5.3217
X4.2Y-5.775
X4.2Y-5.825
X4.2067Y-6.3016
X4.2096Y-5.3852
X4.225Y-5.525
X4.25Y-5.825
X4.25Y-6.625
X4.25Y-6.675
X4.25Y-6.725
X4.2516Y-5.4126
X4.275Y-5.525
X4.3Y-5.825
X4.3Y-6.625
X4.3Y-6.675
X4.3Y-6.725
X4.35Y-6.625
X4.35Y-6.675
X4.35Y-6.725
X4.4Y-6.15
X4.4Y-6.2
X4.4Y-6.25
X4.4465Y-6.4669
X4.4469Y-6.4346
X4.4677Y-6.3213
X4.475Y-6.0
X4.475Y-6.05
X4.4787Y-6.4665
X4.4791Y-6.4343
X4.4886Y-6.3941
X4.511Y-6.4661
X4.5114Y-6.4339
X4.5232Y-6.3331
X4.539Y-6.287
X4.5429Y-6.4661
X4.5433Y-6.4339
X4.5454Y-6.3656
X4.65Y-6.2
X3.6865Y-6.1383
X3.6865Y-6.1777
X3.6865Y-6.217
X3.6865Y-6.2564
X3.6865Y-6.2958
X3.7259Y-6.1383
X3.7259Y-6.1777
X3.7259Y-6.217
X3.7259Y-6.2564
X3.7259Y-6.2958
X3.7652Y-6.1383
X3.7652Y-6.1777
X3.7652Y-6.217
X3.7652Y-6.2564
X3.7652Y-6.2958
X3.8046Y-6.1383
X3.8046Y-6.1777
X3.8046Y-6.217
X3.8046Y-6.2564
X3.8046Y-6.2958
X3.844Y-6.1383
X3.844Y-6.1777
X3.844Y-6.217
X3.844Y-6.2564
X3.844Y-6.2958
T2
X4.6155Y-5.0557
X4.6155Y-5.1557
X4.6155Y-5.2557
X4.6155Y-5.3557
X4.6155Y-5.4557
X4.6155Y-5.5557
X4.6155Y-5.6557
X4.6155Y-5.7557
X4.6155Y-5.8557
X4.6155Y-5.9557
X4.6155Y-6.0557
X4.6155Y-6.1557
X4.6155Y-6.2557
X4.6155Y-6.3557
T3
X2.8752Y-4.726
X2.8752Y-4.826
X2.8752Y-4.926
X2.8752Y-5.026
T4
X2.8346Y-5.4447
X2.8346Y-5.5432
X2.8346Y-5.6416
T5
X2.8362Y-6.224
X2.8362Y-6.3224
X2.8354Y-6.5669
X2.8354Y-6.6654
X2.8366Y-5.8819
X2.8366Y-5.9803
X3.0268Y-5.4988
X3.0268Y-5.5988
X3.0268Y-5.6988
X3.0268Y-5.7988
X3.0268Y-5.8988
X3.0268Y-5.9988
T6
X3.9876Y-5.2244
T7
X4.2829Y-5.2244
T0
M30
