%TF.GenerationSoftware,KiCad,Pcbnew,5.1.6-c6e7f7d~87~ubuntu20.04.1*%
%TF.CreationDate,2021-01-31T19:29:29+07:00*%
%TF.ProjectId,kh-gift-hw,6b682d67-6966-4742-9d68-772e6b696361,rev?*%
%TF.SameCoordinates,Original*%
%TF.FileFunction,Legend,Top*%
%TF.FilePolarity,Positive*%
%FSLAX46Y46*%
G04 Gerber Fmt 4.6, Leading zero omitted, Abs format (unit mm)*
G04 Created by KiCad (PCBNEW 5.1.6-c6e7f7d~87~ubuntu20.04.1) date 2021-01-31 19:29:29*
%MOMM*%
%LPD*%
G01*
G04 APERTURE LIST*
%ADD10C,0.120000*%
%ADD11C,0.150000*%
%ADD12C,0.050000*%
%ADD13C,0.127000*%
G04 APERTURE END LIST*
D10*
%TO.C,J4*%
X118539500Y-160133480D02*
X115879500Y-160133480D01*
X118539500Y-162733480D02*
X117209500Y-162733480D01*
X118539500Y-160133480D02*
X118539500Y-127053480D01*
X118539500Y-127053480D02*
X115879500Y-127053480D01*
X118539500Y-161403480D02*
X118539500Y-162733480D01*
X115879500Y-160133480D02*
X115879500Y-127053480D01*
%TO.C,Y1*%
X110095000Y-143845000D02*
X111445000Y-143845000D01*
X110095000Y-142095000D02*
X111445000Y-142095000D01*
%TO.C,U4*%
X107501740Y-147926920D02*
X107501740Y-149876920D01*
X107501740Y-147926920D02*
X107501740Y-145976920D01*
X112621740Y-147926920D02*
X112621740Y-149876920D01*
X112621740Y-147926920D02*
X112621740Y-144476920D01*
%TO.C,U3*%
X75900000Y-129980000D02*
X70160000Y-129980000D01*
X70150000Y-129980000D02*
X70150000Y-117720000D01*
X70150000Y-117720000D02*
X75910000Y-117720000D01*
X75910000Y-117720000D02*
X75910000Y-129970000D01*
X76190000Y-130260000D02*
X76190000Y-128260000D01*
X76190000Y-130260000D02*
X74580000Y-130260000D01*
%TO.C,U2*%
X82048400Y-156977160D02*
X80788400Y-156977160D01*
X75228400Y-156977160D02*
X76488400Y-156977160D01*
X82048400Y-160737160D02*
X82048400Y-156977160D01*
X75228400Y-162987160D02*
X75228400Y-156977160D01*
D11*
%TO.C,U1*%
X86220300Y-172336460D02*
X104254300Y-172336460D01*
X86220300Y-166367460D02*
X86220300Y-172336460D01*
X104254300Y-166367460D02*
X104254300Y-172336460D01*
D12*
X104237300Y-140782460D02*
X104237300Y-166312460D01*
X104237300Y-166312460D02*
X86237300Y-166312460D01*
X86237300Y-166312460D02*
X86237300Y-140782460D01*
X86237300Y-140782460D02*
X104237300Y-140782460D01*
D10*
%TO.C,SW2*%
X70330000Y-163200000D02*
X74350000Y-163200000D01*
X74350000Y-163200000D02*
X74350000Y-155480000D01*
X74350000Y-155480000D02*
X70330000Y-155480000D01*
X70330000Y-155480000D02*
X70330000Y-163200000D01*
X72040000Y-163200000D02*
X72040000Y-162700000D01*
X72040000Y-162700000D02*
X70830000Y-162700000D01*
X70830000Y-162700000D02*
X70830000Y-155980000D01*
X70830000Y-155980000D02*
X72040000Y-155980000D01*
X72040000Y-155980000D02*
X72040000Y-155480000D01*
X72850000Y-163200000D02*
X72850000Y-162200000D01*
X72850000Y-162200000D02*
X74350000Y-162200000D01*
X72850000Y-155480000D02*
X72850000Y-156480000D01*
X72850000Y-156480000D02*
X74350000Y-156480000D01*
X72150000Y-163500000D02*
X74650000Y-163500000D01*
X74650000Y-163500000D02*
X74650000Y-161000000D01*
%TO.C,SW1*%
X70340000Y-154510000D02*
X74360000Y-154510000D01*
X74360000Y-154510000D02*
X74360000Y-146790000D01*
X74360000Y-146790000D02*
X70340000Y-146790000D01*
X70340000Y-146790000D02*
X70340000Y-154510000D01*
X72050000Y-154510000D02*
X72050000Y-154010000D01*
X72050000Y-154010000D02*
X70840000Y-154010000D01*
X70840000Y-154010000D02*
X70840000Y-147290000D01*
X70840000Y-147290000D02*
X72050000Y-147290000D01*
X72050000Y-147290000D02*
X72050000Y-146790000D01*
X72860000Y-154510000D02*
X72860000Y-153510000D01*
X72860000Y-153510000D02*
X74360000Y-153510000D01*
X72860000Y-146790000D02*
X72860000Y-147790000D01*
X72860000Y-147790000D02*
X74360000Y-147790000D01*
X72160000Y-154810000D02*
X74660000Y-154810000D01*
X74660000Y-154810000D02*
X74660000Y-152310000D01*
%TO.C,R9*%
X109206267Y-155800000D02*
X108863733Y-155800000D01*
X109206267Y-154780000D02*
X108863733Y-154780000D01*
%TO.C,R8*%
X109206267Y-154300000D02*
X108863733Y-154300000D01*
X109206267Y-153280000D02*
X108863733Y-153280000D01*
%TO.C,R7*%
X109226267Y-161880000D02*
X108883733Y-161880000D01*
X109226267Y-160860000D02*
X108883733Y-160860000D01*
%TO.C,R6*%
X81693440Y-129222553D02*
X81693440Y-129565087D01*
X80673440Y-129222553D02*
X80673440Y-129565087D01*
%TO.C,R5*%
X71856267Y-131420000D02*
X71513733Y-131420000D01*
X71856267Y-130400000D02*
X71513733Y-130400000D01*
%TO.C,R4*%
X85682320Y-129617127D02*
X85682320Y-129274593D01*
X86702320Y-129617127D02*
X86702320Y-129274593D01*
%TO.C,R3*%
X109236267Y-158830000D02*
X108893733Y-158830000D01*
X109236267Y-157810000D02*
X108893733Y-157810000D01*
%TO.C,R2*%
X80716267Y-149460000D02*
X80373733Y-149460000D01*
X80716267Y-148440000D02*
X80373733Y-148440000D01*
%TO.C,R1*%
X80766267Y-152630000D02*
X80423733Y-152630000D01*
X80766267Y-151610000D02*
X80423733Y-151610000D01*
%TO.C,Q1*%
X82927880Y-127934600D02*
X82927880Y-128864600D01*
X82927880Y-131094600D02*
X82927880Y-130164600D01*
X82927880Y-131094600D02*
X85087880Y-131094600D01*
X82927880Y-127934600D02*
X84387880Y-127934600D01*
%TO.C,J3*%
X70288840Y-145906640D02*
X74308840Y-145906640D01*
X74308840Y-145906640D02*
X74308840Y-135686640D01*
X74308840Y-135686640D02*
X70288840Y-135686640D01*
X70288840Y-135686640D02*
X70288840Y-145906640D01*
X71998840Y-145906640D02*
X71998840Y-145406640D01*
X71998840Y-145406640D02*
X70788840Y-145406640D01*
X70788840Y-145406640D02*
X70788840Y-136186640D01*
X70788840Y-136186640D02*
X71998840Y-136186640D01*
X71998840Y-136186640D02*
X71998840Y-135686640D01*
X72808840Y-145906640D02*
X72808840Y-144906640D01*
X72808840Y-144906640D02*
X74308840Y-144906640D01*
X72808840Y-135686640D02*
X72808840Y-136686640D01*
X72808840Y-136686640D02*
X74308840Y-136686640D01*
X72108840Y-146206640D02*
X74608840Y-146206640D01*
X74608840Y-146206640D02*
X74608840Y-143706640D01*
%TO.C,J2*%
X78210000Y-138340000D02*
X75550000Y-138340000D01*
X78210000Y-151100000D02*
X78210000Y-138340000D01*
X75550000Y-151100000D02*
X75550000Y-138340000D01*
X78210000Y-151100000D02*
X75550000Y-151100000D01*
X78210000Y-152370000D02*
X78210000Y-153700000D01*
X78210000Y-153700000D02*
X76880000Y-153700000D01*
%TO.C,J1*%
X70310000Y-171910000D02*
X74330000Y-171910000D01*
X74330000Y-171910000D02*
X74330000Y-164190000D01*
X74330000Y-164190000D02*
X70310000Y-164190000D01*
X70310000Y-164190000D02*
X70310000Y-171910000D01*
X72020000Y-171910000D02*
X72020000Y-171410000D01*
X72020000Y-171410000D02*
X70810000Y-171410000D01*
X70810000Y-171410000D02*
X70810000Y-164690000D01*
X70810000Y-164690000D02*
X72020000Y-164690000D01*
X72020000Y-164690000D02*
X72020000Y-164190000D01*
X72830000Y-171910000D02*
X72830000Y-170910000D01*
X72830000Y-170910000D02*
X74330000Y-170910000D01*
X72830000Y-164190000D02*
X72830000Y-165190000D01*
X72830000Y-165190000D02*
X74330000Y-165190000D01*
X72130000Y-172210000D02*
X74630000Y-172210000D01*
X74630000Y-172210000D02*
X74630000Y-169710000D01*
%TO.C,D1*%
X79740000Y-151225000D02*
X82200000Y-151225000D01*
X82200000Y-151225000D02*
X82200000Y-149755000D01*
X82200000Y-149755000D02*
X79740000Y-149755000D01*
%TO.C,C12*%
X114090000Y-149793733D02*
X114090000Y-150136267D01*
X113070000Y-149793733D02*
X113070000Y-150136267D01*
%TO.C,C11*%
X107450000Y-142646267D02*
X107450000Y-142303733D01*
X108470000Y-142646267D02*
X108470000Y-142303733D01*
%TO.C,C10*%
X71836267Y-132970000D02*
X71493733Y-132970000D01*
X71836267Y-131950000D02*
X71493733Y-131950000D01*
%TO.C,C7*%
X108889153Y-159341380D02*
X109231687Y-159341380D01*
X108889153Y-160361380D02*
X109231687Y-160361380D01*
%TO.C,C6*%
X108885513Y-156306160D02*
X109228047Y-156306160D01*
X108885513Y-157326160D02*
X109228047Y-157326160D01*
%TO.C,C5*%
X80419093Y-153154920D02*
X80761627Y-153154920D01*
X80419093Y-154174920D02*
X80761627Y-154174920D01*
%TO.C,C4*%
X80044564Y-167800000D02*
X78840436Y-167800000D01*
X80044564Y-165080000D02*
X78840436Y-165080000D01*
%TO.C,C3*%
X80081267Y-164590000D02*
X79738733Y-164590000D01*
X80081267Y-163570000D02*
X79738733Y-163570000D01*
%TO.C,C2*%
X110350000Y-164735436D02*
X110350000Y-165939564D01*
X107630000Y-164735436D02*
X107630000Y-165939564D01*
%TO.C,C1*%
X111880000Y-164748733D02*
X111880000Y-165091267D01*
X110860000Y-164748733D02*
X110860000Y-165091267D01*
%TO.C,BZ1*%
X84050000Y-118270000D02*
X79300000Y-118270000D01*
X86420000Y-124640000D02*
X86420000Y-120640000D01*
X80050000Y-127010000D02*
X84050000Y-127010000D01*
X77680000Y-119890000D02*
X77680000Y-124640000D01*
X77680000Y-119890000D02*
X79300000Y-118270000D01*
D13*
%TO.C,BT1*%
X106884720Y-125500320D02*
X112084720Y-125500320D01*
X106884720Y-139900320D02*
X112084720Y-139900320D01*
X112084720Y-131000320D02*
X112084720Y-125500320D01*
X112084720Y-134400320D02*
X112084720Y-139900320D01*
X106884721Y-139900320D02*
G75*
G02*
X97484720Y-134400320I-2090348J7210134D01*
G01*
X97484719Y-131000321D02*
G75*
G02*
X106884720Y-125500320I7309654J-1710133D01*
G01*
%TO.C,J4*%
D11*
X29700566Y-172562346D02*
X29700566Y-173062346D01*
X29667233Y-173162346D01*
X29600566Y-173229013D01*
X29500566Y-173262346D01*
X29433900Y-173262346D01*
X30333900Y-172795680D02*
X30333900Y-173262346D01*
X30167233Y-172529013D02*
X30000566Y-173029013D01*
X30433900Y-173029013D01*
%TO.C,Y1*%
X113108146Y-143589853D02*
X113108146Y-143923186D01*
X112874813Y-143223186D02*
X113108146Y-143589853D01*
X113341480Y-143223186D01*
X113941480Y-143923186D02*
X113541480Y-143923186D01*
X113741480Y-143923186D02*
X113741480Y-143223186D01*
X113674813Y-143323186D01*
X113608146Y-143389853D01*
X113541480Y-143423186D01*
%TO.C,U4*%
X112885286Y-144437306D02*
X112885286Y-145003973D01*
X112918620Y-145070640D01*
X112951953Y-145103973D01*
X113018620Y-145137306D01*
X113151953Y-145137306D01*
X113218620Y-145103973D01*
X113251953Y-145070640D01*
X113285286Y-145003973D01*
X113285286Y-144437306D01*
X113918620Y-144670640D02*
X113918620Y-145137306D01*
X113751953Y-144403973D02*
X113585286Y-144903973D01*
X114018620Y-144903973D01*
%TO.C,U3*%
X76438826Y-129392886D02*
X76438826Y-129959553D01*
X76472160Y-130026220D01*
X76505493Y-130059553D01*
X76572160Y-130092886D01*
X76705493Y-130092886D01*
X76772160Y-130059553D01*
X76805493Y-130026220D01*
X76838826Y-129959553D01*
X76838826Y-129392886D01*
X77105493Y-129392886D02*
X77538826Y-129392886D01*
X77305493Y-129659553D01*
X77405493Y-129659553D01*
X77472160Y-129692886D01*
X77505493Y-129726220D01*
X77538826Y-129792886D01*
X77538826Y-129959553D01*
X77505493Y-130026220D01*
X77472160Y-130059553D01*
X77405493Y-130092886D01*
X77205493Y-130092886D01*
X77138826Y-130059553D01*
X77105493Y-130026220D01*
%TO.C,U2*%
X82390046Y-162496706D02*
X82390046Y-163063373D01*
X82423380Y-163130040D01*
X82456713Y-163163373D01*
X82523380Y-163196706D01*
X82656713Y-163196706D01*
X82723380Y-163163373D01*
X82756713Y-163130040D01*
X82790046Y-163063373D01*
X82790046Y-162496706D01*
X83090046Y-162563373D02*
X83123380Y-162530040D01*
X83190046Y-162496706D01*
X83356713Y-162496706D01*
X83423380Y-162530040D01*
X83456713Y-162563373D01*
X83490046Y-162630040D01*
X83490046Y-162696706D01*
X83456713Y-162796706D01*
X83056713Y-163196706D01*
X83490046Y-163196706D01*
%TO.C,U1*%
X104571866Y-165735206D02*
X104571866Y-166301873D01*
X104605200Y-166368540D01*
X104638533Y-166401873D01*
X104705200Y-166435206D01*
X104838533Y-166435206D01*
X104905200Y-166401873D01*
X104938533Y-166368540D01*
X104971866Y-166301873D01*
X104971866Y-165735206D01*
X105671866Y-166435206D02*
X105271866Y-166435206D01*
X105471866Y-166435206D02*
X105471866Y-165735206D01*
X105405200Y-165835206D01*
X105338533Y-165901873D01*
X105271866Y-165935206D01*
%TO.C,R9*%
X111254713Y-155884046D02*
X111021380Y-155550713D01*
X110854713Y-155884046D02*
X110854713Y-155184046D01*
X111121380Y-155184046D01*
X111188046Y-155217380D01*
X111221380Y-155250713D01*
X111254713Y-155317380D01*
X111254713Y-155417380D01*
X111221380Y-155484046D01*
X111188046Y-155517380D01*
X111121380Y-155550713D01*
X110854713Y-155550713D01*
X111588046Y-155884046D02*
X111721380Y-155884046D01*
X111788046Y-155850713D01*
X111821380Y-155817380D01*
X111888046Y-155717380D01*
X111921380Y-155584046D01*
X111921380Y-155317380D01*
X111888046Y-155250713D01*
X111854713Y-155217380D01*
X111788046Y-155184046D01*
X111654713Y-155184046D01*
X111588046Y-155217380D01*
X111554713Y-155250713D01*
X111521380Y-155317380D01*
X111521380Y-155484046D01*
X111554713Y-155550713D01*
X111588046Y-155584046D01*
X111654713Y-155617380D01*
X111788046Y-155617380D01*
X111854713Y-155584046D01*
X111888046Y-155550713D01*
X111921380Y-155484046D01*
%TO.C,R8*%
X111254713Y-154436246D02*
X111021380Y-154102913D01*
X110854713Y-154436246D02*
X110854713Y-153736246D01*
X111121380Y-153736246D01*
X111188046Y-153769580D01*
X111221380Y-153802913D01*
X111254713Y-153869580D01*
X111254713Y-153969580D01*
X111221380Y-154036246D01*
X111188046Y-154069580D01*
X111121380Y-154102913D01*
X110854713Y-154102913D01*
X111654713Y-154036246D02*
X111588046Y-154002913D01*
X111554713Y-153969580D01*
X111521380Y-153902913D01*
X111521380Y-153869580D01*
X111554713Y-153802913D01*
X111588046Y-153769580D01*
X111654713Y-153736246D01*
X111788046Y-153736246D01*
X111854713Y-153769580D01*
X111888046Y-153802913D01*
X111921380Y-153869580D01*
X111921380Y-153902913D01*
X111888046Y-153969580D01*
X111854713Y-154002913D01*
X111788046Y-154036246D01*
X111654713Y-154036246D01*
X111588046Y-154069580D01*
X111554713Y-154102913D01*
X111521380Y-154169580D01*
X111521380Y-154302913D01*
X111554713Y-154369580D01*
X111588046Y-154402913D01*
X111654713Y-154436246D01*
X111788046Y-154436246D01*
X111854713Y-154402913D01*
X111888046Y-154369580D01*
X111921380Y-154302913D01*
X111921380Y-154169580D01*
X111888046Y-154102913D01*
X111854713Y-154069580D01*
X111788046Y-154036246D01*
%TO.C,R7*%
X111305513Y-161997826D02*
X111072180Y-161664493D01*
X110905513Y-161997826D02*
X110905513Y-161297826D01*
X111172180Y-161297826D01*
X111238846Y-161331160D01*
X111272180Y-161364493D01*
X111305513Y-161431160D01*
X111305513Y-161531160D01*
X111272180Y-161597826D01*
X111238846Y-161631160D01*
X111172180Y-161664493D01*
X110905513Y-161664493D01*
X111538846Y-161297826D02*
X112005513Y-161297826D01*
X111705513Y-161997826D01*
%TO.C,R6*%
X81010933Y-131942006D02*
X80777600Y-131608673D01*
X80610933Y-131942006D02*
X80610933Y-131242006D01*
X80877600Y-131242006D01*
X80944266Y-131275340D01*
X80977600Y-131308673D01*
X81010933Y-131375340D01*
X81010933Y-131475340D01*
X80977600Y-131542006D01*
X80944266Y-131575340D01*
X80877600Y-131608673D01*
X80610933Y-131608673D01*
X81610933Y-131242006D02*
X81477600Y-131242006D01*
X81410933Y-131275340D01*
X81377600Y-131308673D01*
X81310933Y-131408673D01*
X81277600Y-131542006D01*
X81277600Y-131808673D01*
X81310933Y-131875340D01*
X81344266Y-131908673D01*
X81410933Y-131942006D01*
X81544266Y-131942006D01*
X81610933Y-131908673D01*
X81644266Y-131875340D01*
X81677600Y-131808673D01*
X81677600Y-131642006D01*
X81644266Y-131575340D01*
X81610933Y-131542006D01*
X81544266Y-131508673D01*
X81410933Y-131508673D01*
X81344266Y-131542006D01*
X81310933Y-131575340D01*
X81277600Y-131642006D01*
%TO.C,R5*%
X73896393Y-131517826D02*
X73663060Y-131184493D01*
X73496393Y-131517826D02*
X73496393Y-130817826D01*
X73763060Y-130817826D01*
X73829726Y-130851160D01*
X73863060Y-130884493D01*
X73896393Y-130951160D01*
X73896393Y-131051160D01*
X73863060Y-131117826D01*
X73829726Y-131151160D01*
X73763060Y-131184493D01*
X73496393Y-131184493D01*
X74529726Y-130817826D02*
X74196393Y-130817826D01*
X74163060Y-131151160D01*
X74196393Y-131117826D01*
X74263060Y-131084493D01*
X74429726Y-131084493D01*
X74496393Y-131117826D01*
X74529726Y-131151160D01*
X74563060Y-131217826D01*
X74563060Y-131384493D01*
X74529726Y-131451160D01*
X74496393Y-131484493D01*
X74429726Y-131517826D01*
X74263060Y-131517826D01*
X74196393Y-131484493D01*
X74163060Y-131451160D01*
%TO.C,R4*%
X87449833Y-131121586D02*
X87216500Y-130788253D01*
X87049833Y-131121586D02*
X87049833Y-130421586D01*
X87316500Y-130421586D01*
X87383166Y-130454920D01*
X87416500Y-130488253D01*
X87449833Y-130554920D01*
X87449833Y-130654920D01*
X87416500Y-130721586D01*
X87383166Y-130754920D01*
X87316500Y-130788253D01*
X87049833Y-130788253D01*
X88049833Y-130654920D02*
X88049833Y-131121586D01*
X87883166Y-130388253D02*
X87716500Y-130888253D01*
X88149833Y-130888253D01*
%TO.C,R3*%
X111257253Y-158959986D02*
X111023920Y-158626653D01*
X110857253Y-158959986D02*
X110857253Y-158259986D01*
X111123920Y-158259986D01*
X111190586Y-158293320D01*
X111223920Y-158326653D01*
X111257253Y-158393320D01*
X111257253Y-158493320D01*
X111223920Y-158559986D01*
X111190586Y-158593320D01*
X111123920Y-158626653D01*
X110857253Y-158626653D01*
X111490586Y-158259986D02*
X111923920Y-158259986D01*
X111690586Y-158526653D01*
X111790586Y-158526653D01*
X111857253Y-158559986D01*
X111890586Y-158593320D01*
X111923920Y-158659986D01*
X111923920Y-158826653D01*
X111890586Y-158893320D01*
X111857253Y-158926653D01*
X111790586Y-158959986D01*
X111590586Y-158959986D01*
X111523920Y-158926653D01*
X111490586Y-158893320D01*
%TO.C,R2*%
X82743213Y-149523886D02*
X82509880Y-149190553D01*
X82343213Y-149523886D02*
X82343213Y-148823886D01*
X82609880Y-148823886D01*
X82676546Y-148857220D01*
X82709880Y-148890553D01*
X82743213Y-148957220D01*
X82743213Y-149057220D01*
X82709880Y-149123886D01*
X82676546Y-149157220D01*
X82609880Y-149190553D01*
X82343213Y-149190553D01*
X83009880Y-148890553D02*
X83043213Y-148857220D01*
X83109880Y-148823886D01*
X83276546Y-148823886D01*
X83343213Y-148857220D01*
X83376546Y-148890553D01*
X83409880Y-148957220D01*
X83409880Y-149023886D01*
X83376546Y-149123886D01*
X82976546Y-149523886D01*
X83409880Y-149523886D01*
%TO.C,R1*%
X82773693Y-152764926D02*
X82540360Y-152431593D01*
X82373693Y-152764926D02*
X82373693Y-152064926D01*
X82640360Y-152064926D01*
X82707026Y-152098260D01*
X82740360Y-152131593D01*
X82773693Y-152198260D01*
X82773693Y-152298260D01*
X82740360Y-152364926D01*
X82707026Y-152398260D01*
X82640360Y-152431593D01*
X82373693Y-152431593D01*
X83440360Y-152764926D02*
X83040360Y-152764926D01*
X83240360Y-152764926D02*
X83240360Y-152064926D01*
X83173693Y-152164926D01*
X83107026Y-152231593D01*
X83040360Y-152264926D01*
%TO.C,Q1*%
X84787113Y-132293153D02*
X84720446Y-132259820D01*
X84653780Y-132193153D01*
X84553780Y-132093153D01*
X84487113Y-132059820D01*
X84420446Y-132059820D01*
X84453780Y-132226486D02*
X84387113Y-132193153D01*
X84320446Y-132126486D01*
X84287113Y-131993153D01*
X84287113Y-131759820D01*
X84320446Y-131626486D01*
X84387113Y-131559820D01*
X84453780Y-131526486D01*
X84587113Y-131526486D01*
X84653780Y-131559820D01*
X84720446Y-131626486D01*
X84753780Y-131759820D01*
X84753780Y-131993153D01*
X84720446Y-132126486D01*
X84653780Y-132193153D01*
X84587113Y-132226486D01*
X84453780Y-132226486D01*
X85420446Y-132226486D02*
X85020446Y-132226486D01*
X85220446Y-132226486D02*
X85220446Y-131526486D01*
X85153780Y-131626486D01*
X85087113Y-131693153D01*
X85020446Y-131726486D01*
%TO.C,D1*%
X82404173Y-151106306D02*
X82404173Y-150406306D01*
X82570840Y-150406306D01*
X82670840Y-150439640D01*
X82737506Y-150506306D01*
X82770840Y-150572973D01*
X82804173Y-150706306D01*
X82804173Y-150806306D01*
X82770840Y-150939640D01*
X82737506Y-151006306D01*
X82670840Y-151072973D01*
X82570840Y-151106306D01*
X82404173Y-151106306D01*
X83470840Y-151106306D02*
X83070840Y-151106306D01*
X83270840Y-151106306D02*
X83270840Y-150406306D01*
X83204173Y-150506306D01*
X83137506Y-150572973D01*
X83070840Y-150606306D01*
%TO.C,C12*%
X113265800Y-152352820D02*
X113232466Y-152386153D01*
X113132466Y-152419486D01*
X113065800Y-152419486D01*
X112965800Y-152386153D01*
X112899133Y-152319486D01*
X112865800Y-152252820D01*
X112832466Y-152119486D01*
X112832466Y-152019486D01*
X112865800Y-151886153D01*
X112899133Y-151819486D01*
X112965800Y-151752820D01*
X113065800Y-151719486D01*
X113132466Y-151719486D01*
X113232466Y-151752820D01*
X113265800Y-151786153D01*
X113932466Y-152419486D02*
X113532466Y-152419486D01*
X113732466Y-152419486D02*
X113732466Y-151719486D01*
X113665800Y-151819486D01*
X113599133Y-151886153D01*
X113532466Y-151919486D01*
X114199133Y-151786153D02*
X114232466Y-151752820D01*
X114299133Y-151719486D01*
X114465800Y-151719486D01*
X114532466Y-151752820D01*
X114565800Y-151786153D01*
X114599133Y-151852820D01*
X114599133Y-151919486D01*
X114565800Y-152019486D01*
X114165800Y-152419486D01*
X114599133Y-152419486D01*
%TO.C,C11*%
X109244980Y-141428280D02*
X109211646Y-141461613D01*
X109111646Y-141494946D01*
X109044980Y-141494946D01*
X108944980Y-141461613D01*
X108878313Y-141394946D01*
X108844980Y-141328280D01*
X108811646Y-141194946D01*
X108811646Y-141094946D01*
X108844980Y-140961613D01*
X108878313Y-140894946D01*
X108944980Y-140828280D01*
X109044980Y-140794946D01*
X109111646Y-140794946D01*
X109211646Y-140828280D01*
X109244980Y-140861613D01*
X109911646Y-141494946D02*
X109511646Y-141494946D01*
X109711646Y-141494946D02*
X109711646Y-140794946D01*
X109644980Y-140894946D01*
X109578313Y-140961613D01*
X109511646Y-140994946D01*
X110578313Y-141494946D02*
X110178313Y-141494946D01*
X110378313Y-141494946D02*
X110378313Y-140794946D01*
X110311646Y-140894946D01*
X110244980Y-140961613D01*
X110178313Y-140994946D01*
%TO.C,C10*%
X73908500Y-133041200D02*
X73875166Y-133074533D01*
X73775166Y-133107866D01*
X73708500Y-133107866D01*
X73608500Y-133074533D01*
X73541833Y-133007866D01*
X73508500Y-132941200D01*
X73475166Y-132807866D01*
X73475166Y-132707866D01*
X73508500Y-132574533D01*
X73541833Y-132507866D01*
X73608500Y-132441200D01*
X73708500Y-132407866D01*
X73775166Y-132407866D01*
X73875166Y-132441200D01*
X73908500Y-132474533D01*
X74575166Y-133107866D02*
X74175166Y-133107866D01*
X74375166Y-133107866D02*
X74375166Y-132407866D01*
X74308500Y-132507866D01*
X74241833Y-132574533D01*
X74175166Y-132607866D01*
X75008500Y-132407866D02*
X75075166Y-132407866D01*
X75141833Y-132441200D01*
X75175166Y-132474533D01*
X75208500Y-132541200D01*
X75241833Y-132674533D01*
X75241833Y-132841200D01*
X75208500Y-132974533D01*
X75175166Y-133041200D01*
X75141833Y-133074533D01*
X75075166Y-133107866D01*
X75008500Y-133107866D01*
X74941833Y-133074533D01*
X74908500Y-133041200D01*
X74875166Y-132974533D01*
X74841833Y-132841200D01*
X74841833Y-132674533D01*
X74875166Y-132541200D01*
X74908500Y-132474533D01*
X74941833Y-132441200D01*
X75008500Y-132407866D01*
%TO.C,C7*%
X111257253Y-160361440D02*
X111223920Y-160394773D01*
X111123920Y-160428106D01*
X111057253Y-160428106D01*
X110957253Y-160394773D01*
X110890586Y-160328106D01*
X110857253Y-160261440D01*
X110823920Y-160128106D01*
X110823920Y-160028106D01*
X110857253Y-159894773D01*
X110890586Y-159828106D01*
X110957253Y-159761440D01*
X111057253Y-159728106D01*
X111123920Y-159728106D01*
X111223920Y-159761440D01*
X111257253Y-159794773D01*
X111490586Y-159728106D02*
X111957253Y-159728106D01*
X111657253Y-160428106D01*
%TO.C,C6*%
X111269953Y-157277880D02*
X111236620Y-157311213D01*
X111136620Y-157344546D01*
X111069953Y-157344546D01*
X110969953Y-157311213D01*
X110903286Y-157244546D01*
X110869953Y-157177880D01*
X110836620Y-157044546D01*
X110836620Y-156944546D01*
X110869953Y-156811213D01*
X110903286Y-156744546D01*
X110969953Y-156677880D01*
X111069953Y-156644546D01*
X111136620Y-156644546D01*
X111236620Y-156677880D01*
X111269953Y-156711213D01*
X111869953Y-156644546D02*
X111736620Y-156644546D01*
X111669953Y-156677880D01*
X111636620Y-156711213D01*
X111569953Y-156811213D01*
X111536620Y-156944546D01*
X111536620Y-157211213D01*
X111569953Y-157277880D01*
X111603286Y-157311213D01*
X111669953Y-157344546D01*
X111803286Y-157344546D01*
X111869953Y-157311213D01*
X111903286Y-157277880D01*
X111936620Y-157211213D01*
X111936620Y-157044546D01*
X111903286Y-156977880D01*
X111869953Y-156944546D01*
X111803286Y-156911213D01*
X111669953Y-156911213D01*
X111603286Y-156944546D01*
X111569953Y-156977880D01*
X111536620Y-157044546D01*
%TO.C,C5*%
X82788933Y-154252740D02*
X82755600Y-154286073D01*
X82655600Y-154319406D01*
X82588933Y-154319406D01*
X82488933Y-154286073D01*
X82422266Y-154219406D01*
X82388933Y-154152740D01*
X82355600Y-154019406D01*
X82355600Y-153919406D01*
X82388933Y-153786073D01*
X82422266Y-153719406D01*
X82488933Y-153652740D01*
X82588933Y-153619406D01*
X82655600Y-153619406D01*
X82755600Y-153652740D01*
X82788933Y-153686073D01*
X83422266Y-153619406D02*
X83088933Y-153619406D01*
X83055600Y-153952740D01*
X83088933Y-153919406D01*
X83155600Y-153886073D01*
X83322266Y-153886073D01*
X83388933Y-153919406D01*
X83422266Y-153952740D01*
X83455600Y-154019406D01*
X83455600Y-154186073D01*
X83422266Y-154252740D01*
X83388933Y-154286073D01*
X83322266Y-154319406D01*
X83155600Y-154319406D01*
X83088933Y-154286073D01*
X83055600Y-154252740D01*
%TO.C,C4*%
X82489213Y-167895080D02*
X82455880Y-167928413D01*
X82355880Y-167961746D01*
X82289213Y-167961746D01*
X82189213Y-167928413D01*
X82122546Y-167861746D01*
X82089213Y-167795080D01*
X82055880Y-167661746D01*
X82055880Y-167561746D01*
X82089213Y-167428413D01*
X82122546Y-167361746D01*
X82189213Y-167295080D01*
X82289213Y-167261746D01*
X82355880Y-167261746D01*
X82455880Y-167295080D01*
X82489213Y-167328413D01*
X83089213Y-167495080D02*
X83089213Y-167961746D01*
X82922546Y-167228413D02*
X82755880Y-167728413D01*
X83189213Y-167728413D01*
%TO.C,C3*%
X82128533Y-164671820D02*
X82095200Y-164705153D01*
X81995200Y-164738486D01*
X81928533Y-164738486D01*
X81828533Y-164705153D01*
X81761866Y-164638486D01*
X81728533Y-164571820D01*
X81695200Y-164438486D01*
X81695200Y-164338486D01*
X81728533Y-164205153D01*
X81761866Y-164138486D01*
X81828533Y-164071820D01*
X81928533Y-164038486D01*
X81995200Y-164038486D01*
X82095200Y-164071820D01*
X82128533Y-164105153D01*
X82361866Y-164038486D02*
X82795200Y-164038486D01*
X82561866Y-164305153D01*
X82661866Y-164305153D01*
X82728533Y-164338486D01*
X82761866Y-164371820D01*
X82795200Y-164438486D01*
X82795200Y-164605153D01*
X82761866Y-164671820D01*
X82728533Y-164705153D01*
X82661866Y-164738486D01*
X82461866Y-164738486D01*
X82395200Y-164705153D01*
X82361866Y-164671820D01*
%TO.C,C2*%
X111198833Y-167641080D02*
X111165500Y-167674413D01*
X111065500Y-167707746D01*
X110998833Y-167707746D01*
X110898833Y-167674413D01*
X110832166Y-167607746D01*
X110798833Y-167541080D01*
X110765500Y-167407746D01*
X110765500Y-167307746D01*
X110798833Y-167174413D01*
X110832166Y-167107746D01*
X110898833Y-167041080D01*
X110998833Y-167007746D01*
X111065500Y-167007746D01*
X111165500Y-167041080D01*
X111198833Y-167074413D01*
X111465500Y-167074413D02*
X111498833Y-167041080D01*
X111565500Y-167007746D01*
X111732166Y-167007746D01*
X111798833Y-167041080D01*
X111832166Y-167074413D01*
X111865500Y-167141080D01*
X111865500Y-167207746D01*
X111832166Y-167307746D01*
X111432166Y-167707746D01*
X111865500Y-167707746D01*
%TO.C,C1*%
X112672033Y-166429500D02*
X112638700Y-166462833D01*
X112538700Y-166496166D01*
X112472033Y-166496166D01*
X112372033Y-166462833D01*
X112305366Y-166396166D01*
X112272033Y-166329500D01*
X112238700Y-166196166D01*
X112238700Y-166096166D01*
X112272033Y-165962833D01*
X112305366Y-165896166D01*
X112372033Y-165829500D01*
X112472033Y-165796166D01*
X112538700Y-165796166D01*
X112638700Y-165829500D01*
X112672033Y-165862833D01*
X113338700Y-166496166D02*
X112938700Y-166496166D01*
X113138700Y-166496166D02*
X113138700Y-165796166D01*
X113072033Y-165896166D01*
X113005366Y-165962833D01*
X112938700Y-165996166D01*
%TO.C,BZ1*%
X87551813Y-127186220D02*
X87651813Y-127219553D01*
X87685146Y-127252886D01*
X87718480Y-127319553D01*
X87718480Y-127419553D01*
X87685146Y-127486220D01*
X87651813Y-127519553D01*
X87585146Y-127552886D01*
X87318480Y-127552886D01*
X87318480Y-126852886D01*
X87551813Y-126852886D01*
X87618480Y-126886220D01*
X87651813Y-126919553D01*
X87685146Y-126986220D01*
X87685146Y-127052886D01*
X87651813Y-127119553D01*
X87618480Y-127152886D01*
X87551813Y-127186220D01*
X87318480Y-127186220D01*
X87951813Y-126852886D02*
X88418480Y-126852886D01*
X87951813Y-127552886D01*
X88418480Y-127552886D01*
X89051813Y-127552886D02*
X88651813Y-127552886D01*
X88851813Y-127552886D02*
X88851813Y-126852886D01*
X88785146Y-126952886D01*
X88718480Y-127019553D01*
X88651813Y-127052886D01*
%TO.C,BT1*%
X112700980Y-139469660D02*
X112800980Y-139502993D01*
X112834313Y-139536326D01*
X112867646Y-139602993D01*
X112867646Y-139702993D01*
X112834313Y-139769660D01*
X112800980Y-139802993D01*
X112734313Y-139836326D01*
X112467646Y-139836326D01*
X112467646Y-139136326D01*
X112700980Y-139136326D01*
X112767646Y-139169660D01*
X112800980Y-139202993D01*
X112834313Y-139269660D01*
X112834313Y-139336326D01*
X112800980Y-139402993D01*
X112767646Y-139436326D01*
X112700980Y-139469660D01*
X112467646Y-139469660D01*
X113067646Y-139136326D02*
X113467646Y-139136326D01*
X113267646Y-139836326D02*
X113267646Y-139136326D01*
X114067646Y-139836326D02*
X113667646Y-139836326D01*
X113867646Y-139836326D02*
X113867646Y-139136326D01*
X113800980Y-139236326D01*
X113734313Y-139302993D01*
X113667646Y-139336326D01*
X93378053Y-133270320D02*
X93911386Y-133270320D01*
X115008053Y-133320320D02*
X115541386Y-133320320D01*
X115274720Y-133586986D02*
X115274720Y-133053653D01*
%TD*%
M02*
